<svg width="27" height="31" viewBox="0 0 27 31" fill="none" xmlns="http://www.w3.org/2000/svg">
<path d="M26.1409 10.5679C25.9485 10.7074 22.552 12.4961 22.552 16.4734C22.552 21.0738 26.874 22.7013 27.0033 22.7416C26.9834 22.8408 26.3167 24.9705 24.7246 27.1405C23.3049 29.0501 21.8222 30.9566 19.5667 30.9566C17.3112 30.9566 16.7307 29.7321 14.1269 29.7321C11.5894 29.7321 10.6872 30.9969 8.62408 30.9969C6.56093 30.9969 5.12138 29.2299 3.46622 27.0599C1.54902 24.5117 0 20.553 0 16.7958C0 10.7694 4.19263 7.5733 8.31892 7.5733C10.5114 7.5733 12.3391 8.9187 13.7156 8.9187C15.0258 8.9187 17.069 7.4927 19.5634 7.4927C20.5087 7.4927 23.9053 7.5733 26.1409 10.5679ZM18.3792 4.9414C19.4108 3.7975 20.1405 2.2103 20.1405 0.6231C20.1405 0.403 20.1206 0.1798 20.0775 0C18.3991 0.0589 16.4023 1.0447 15.1983 2.3498C14.2529 3.3542 13.3706 4.9414 13.3706 6.5503C13.3706 6.7921 13.4138 7.0339 13.4337 7.1114C13.5398 7.13 13.7123 7.1517 13.8848 7.1517C15.3907 7.1517 17.2846 6.2093 18.3792 4.9414Z" fill="white"/>
</svg>
