<svg width="56" height="71" viewBox="0 0 56 71" fill="none" xmlns="http://www.w3.org/2000/svg">
<g filter="url(#filter0_d_872_762)">
<path d="M41.05 46.6175C35.6809 43.8052 26.9764 43.8052 21.6072 46.6175C19.2592 47.8471 17.5811 48.9027 17.5811 48.9027C17.5811 48.9027 17.5867 51.4186 17.5816 51.6198C17.5373 53.4926 18.8792 55.372 21.6074 56.8014C26.9766 59.6141 35.6812 59.6141 41.0494 56.8014C43.7343 55.3954 45.0769 53.5523 45.0769 51.7095C45.0769 51.6155 45.062 49.0022 45.062 49.0022C45.062 49.0022 43.5976 47.9521 41.05 46.6175Z" fill="#007392"/>
<path d="M41.05 43.8109C35.6808 40.9986 26.9763 40.9986 21.6072 43.8109C16.238 46.6232 16.238 51.1827 21.6072 53.9952C26.9763 56.8071 35.681 56.8071 41.0492 53.9952C46.418 51.1827 46.418 46.6228 41.05 43.8109Z" fill="#1F8C9F"/>
<path d="M18.218 11.1416C18.218 11.1416 18.2407 47.1609 18.2184 48.903C18.1957 50.6759 19.4756 52.4525 22.058 53.8053C27.1782 56.4867 35.4789 56.4867 40.5981 53.8053C43.158 52.4644 44.4379 50.707 44.4381 48.9496C44.4385 47.192 44.4381 11.5883 44.4381 11.5883L18.218 11.1416Z" fill="#D1E7EB"/>
<path d="M41.05 4.91634C35.6809 2.10406 26.9764 2.10406 21.6072 4.91634C19.2592 6.14595 17.5811 7.20152 17.5811 7.20152C17.5811 7.20152 17.5867 9.71761 17.5816 9.91862C17.5373 11.7913 18.8792 13.6709 21.6074 15.1003C26.9766 17.9127 35.6812 17.9127 41.0494 15.1003C43.7343 13.6942 45.0769 11.8511 45.0769 10.0083C45.0769 9.91433 45.062 7.301 45.062 7.301C45.062 7.301 43.5976 6.25092 41.05 4.91634Z" fill="#007392"/>
<path d="M41.05 2.10908C35.6808 -0.703027 26.9763 -0.703027 21.6072 2.10908C16.238 4.92136 16.238 9.48091 21.6072 12.2934C26.9763 15.1053 35.681 15.1053 41.0492 12.2934C46.418 9.48108 46.418 4.92119 41.05 2.10908Z" fill="#1F8C9F"/>
<path d="M40.0462 44.0868C35.2315 41.5648 27.4255 41.5648 22.6107 44.0868C17.7958 46.6087 17.7958 50.6977 22.6107 53.2196C27.4255 55.7412 35.2315 55.7412 40.0454 53.2196C44.8603 50.6978 44.8603 46.6085 40.0462 44.0868Z" fill="#ACD4DB"/>
<path d="M35.6315 34.9251C30.4521 32.697 24.2626 34.7002 21.8067 39.3993C19.3508 44.0983 21.5588 49.7138 26.7382 51.9419C31.9178 54.1701 38.1075 52.167 40.5632 47.4679C43.0192 42.7687 40.8109 37.1531 35.6315 34.9251Z" fill="#81CC0D"/>
<path d="M30.052 45.4235C27.8544 43.9028 26.0448 42.466 25.5208 39.852C25.1097 37.8006 26.0111 35.2777 28.1498 34.429C27.196 34.6939 26.2853 35.0825 25.4487 35.5849C24.4835 37.1512 24.3409 39.2476 24.8465 41.0167C25.3994 42.9514 26.9657 44.3796 28.6613 45.5487C29.6146 46.2062 30.5773 46.8001 31.3075 47.6776C32.798 49.4683 31.5736 51.466 30.0681 52.7953C30.4806 52.8358 30.8932 52.8547 31.3041 52.8503C33.7165 50.3175 33.0715 47.513 30.052 45.4235Z" fill="#F0F0F0"/>
<path d="M40.1381 38.6696C39.1208 37.0926 37.5888 35.7666 35.6317 34.9246C35.1852 34.7325 34.7309 34.5741 34.2722 34.4438C37.5078 35.7449 39.6215 38.5095 40.1455 41.759C40.6117 44.6506 39.4596 47.7981 37.9363 50.5846C38.7233 49.9739 39.4183 49.249 39.9875 48.4197C41.0238 45.8758 41.5523 43.1815 40.8878 40.6625C40.7041 39.9662 40.4524 39.2996 40.1381 38.6696Z" fill="#F0F0F0"/>
<path d="M24.7064 22.4301C20.228 25.6762 19.498 31.6014 23.0759 35.6644C26.654 39.7275 33.1848 40.3898 37.6631 37.1437C42.1415 33.8976 42.8717 27.9722 39.2938 23.9092C35.7159 19.8462 29.1847 19.184 24.7064 22.4301Z" fill="#95D433"/>
<path d="M32.6594 31.5833C30.1893 32.7083 27.9725 33.5537 25.1532 32.8347C22.9408 32.2705 20.837 30.4291 20.9343 28.313C20.7785 29.2069 20.7641 30.1199 20.8949 31.0224C22.0234 32.4963 24.0373 33.5318 26.0116 33.8953C28.1708 34.2928 30.2722 33.642 32.1741 32.7722C33.2434 32.2832 34.2539 31.7587 35.4431 31.5481C37.8706 31.1182 39.3127 32.9926 39.9692 34.8029C40.1902 34.4842 40.39 34.1563 40.5655 33.8194C39.1144 30.7415 36.0533 30.0376 32.6594 31.5833Z" fill="#F0F0F0"/>
<path d="M32.6952 20.6601C31.9245 20.5045 31.1538 20.4174 30.392 20.3975C28.3837 20.5352 26.3984 21.2029 24.7062 22.4296C24.3202 22.7094 23.964 23.0104 23.6338 23.3273C26.3416 21.2598 30.0068 20.7486 33.4557 21.7465C36.5246 22.6344 39.1373 24.9541 41.2297 27.4179C40.9697 26.5084 40.5565 25.624 39.9846 24.7962C37.9191 22.8356 35.482 21.2232 32.6952 20.6601Z" fill="#F0F0F0"/>
<path d="M14.0438 62.7416C19.7109 61.8954 23.5488 57.0414 22.6161 51.8998C21.6833 46.7583 16.3331 43.2763 10.666 44.1225C4.99889 44.9688 1.16092 49.8228 2.09367 54.9643C3.02641 60.1059 8.37665 63.5879 14.0438 62.7416Z" fill="#9AE00E"/>
<path d="M22.406 55.5067C23.7229 50.5019 20.3084 45.474 14.7796 44.2766C9.25077 43.0792 3.70124 46.1656 2.38438 51.1704C1.06753 56.1752 4.482 61.2031 10.0108 62.4005C15.5396 63.598 21.0891 60.5115 22.406 55.5067Z" fill="#9AE00F"/>
<path d="M22.3296 55.3974C23.6325 50.4574 20.2545 45.4901 14.7847 44.3027C9.31489 43.1153 3.82455 46.1573 2.52167 51.0973C1.21879 56.0373 4.59675 61.0046 10.0666 62.192C15.5364 63.3795 21.0267 60.3374 22.3296 55.3974Z" fill="#9BE010"/>
<path d="M22.2641 55.2958C23.5563 50.4205 20.2174 45.5114 14.8064 44.331C9.39551 43.1505 3.9616 46.1458 2.66946 51.021C1.37732 55.8962 4.71625 60.8053 10.1272 61.9858C15.5381 63.1662 20.972 60.171 22.2641 55.2958Z" fill="#9BE011"/>
<path d="M22.1971 55.19C23.4778 50.3794 20.1773 45.5288 14.8253 44.356C9.4732 43.1832 4.09626 46.1321 2.81554 50.9427C1.53481 55.7533 4.83529 60.6039 10.1874 61.7767C15.5394 62.9495 20.9164 60.0005 22.1971 55.19Z" fill="#9CE112"/>
<path d="M22.123 55.0805C23.3927 50.3351 20.1314 45.5432 14.8387 44.3775C9.54603 43.2119 4.22617 46.114 2.95647 50.8595C1.68677 55.6049 4.94804 60.3968 10.2407 61.5624C15.5334 62.7281 20.8533 59.826 22.123 55.0805Z" fill="#9CE113"/>
<path d="M22.0519 54.9812C23.3109 50.3008 20.0891 45.5672 14.8558 44.4084C9.62244 43.2496 4.35932 46.1045 3.10027 50.7849C1.84122 55.4653 5.06302 60.1989 10.2964 61.3577C15.5297 62.5164 20.7928 59.6616 22.0519 54.9812Z" fill="#9CE114"/>
<path d="M21.9819 54.8772C23.2306 50.2619 20.0485 45.5862 14.8743 44.4339C9.70022 43.2816 4.49345 46.089 3.2447 50.7044C1.99595 55.3198 5.1781 59.9954 10.3522 61.1477C15.5264 62.3 20.7331 59.4926 21.9819 54.8772Z" fill="#9DE115"/>
<path d="M21.9089 54.7667C23.1461 50.2162 20.0026 45.5993 14.8877 44.4546C9.77273 43.3098 4.62325 46.0707 3.38599 50.6212C2.14874 55.1717 5.29224 59.7886 10.4072 60.9333C15.5222 62.078 20.6716 59.3171 21.9089 54.7667Z" fill="#9DE116"/>
<path d="M21.8421 54.6669C23.0692 50.1813 19.9653 45.622 14.9094 44.4836C9.85348 43.3451 4.76007 46.0585 3.53294 50.5441C2.30582 55.0297 5.40967 59.5889 10.4656 60.7274C15.5215 61.8659 20.6149 59.1525 21.8421 54.6669Z" fill="#9EE117"/>
<path d="M21.7649 54.5635C22.9812 50.1431 19.9169 45.6423 14.9205 44.5106C9.92407 43.379 4.88766 46.0451 3.67134 50.4656C2.45502 54.886 5.51938 59.3868 10.5158 60.5185C15.5122 61.6501 20.5486 58.984 21.7649 54.5635Z" fill="#9EE118"/>
<path d="M21.6982 54.4595C22.904 50.1037 19.8789 45.6606 14.9415 44.5355C10.004 43.4105 5.02392 46.0294 3.8181 50.3852C2.61228 54.7409 5.63736 59.184 10.5748 60.3091C15.5123 61.4342 20.4924 58.8152 21.6982 54.4595Z" fill="#9FE119"/>
<path d="M21.6235 54.357C22.8186 50.0664 19.8331 45.6815 14.955 44.5631C10.077 43.4447 5.15376 46.0163 3.95864 50.307C2.76352 54.5977 5.7491 58.9826 10.6271 60.1009C15.5051 61.2193 20.4284 58.6477 21.6235 54.357Z" fill="#9FE21A"/>
<path d="M21.557 54.2467C22.7412 50.0206 19.7945 45.6935 14.9753 44.5819C10.156 43.4704 5.28922 45.9952 4.10497 50.2214C2.92072 54.4476 5.86746 58.7746 10.6867 59.8862C15.5059 60.9978 20.3727 58.4729 21.557 54.2467Z" fill="#9FE21B"/>
<path d="M21.4853 54.1474C22.6589 49.9861 19.7515 45.7169 14.9914 44.6118C10.2313 43.5067 5.42104 45.9843 4.24739 50.1455C3.07374 54.3068 5.98114 58.576 10.7412 59.6811C15.5014 60.7861 20.3116 58.3086 21.4853 54.1474Z" fill="#A0E21C"/>
<path d="M21.4134 54.0395C22.5762 49.943 19.708 45.7317 15.007 44.6333C10.3059 43.5349 5.55233 45.9653 4.38947 50.0619C3.22662 54.1584 6.09487 58.3697 10.7959 59.4681C15.4969 60.5665 20.2505 58.1361 21.4134 54.0395Z" fill="#A0E21D"/>
<path d="M21.3438 53.9366C22.4961 49.9047 19.6672 45.7511 15.0252 44.659C10.3832 43.567 5.68601 45.9502 4.5337 49.982C3.3814 54.0138 6.21034 58.1675 10.8523 59.2595C15.4943 60.3515 20.1915 57.9684 21.3438 53.9366Z" fill="#A1E21E"/>
<path d="M21.2744 53.8335C22.416 49.8662 19.626 45.7702 15.043 44.6847C10.4599 43.5992 5.81912 45.9353 4.67757 49.9026C3.53601 53.8698 6.32592 57.9659 10.909 59.0514C15.4921 60.1369 20.1328 57.8008 21.2744 53.8335Z" fill="#A1E21F"/>
<path d="M21.2001 53.7321C22.3311 49.8297 19.5806 45.7914 15.0568 44.7121C10.5329 43.6329 5.94869 45.9215 4.81767 49.8238C3.68665 53.7262 6.4371 57.7645 10.961 58.8438C15.4849 59.923 20.0691 57.6344 21.2001 53.7321Z" fill="#A1E220"/>
<path d="M13.3833 44.4863C8.7837 44.2189 4.9043 47.2254 4.71834 51.2014C4.53257 55.1774 8.11068 58.6172 12.7102 58.8846C17.3098 59.1519 21.1894 56.1453 21.3752 52.1694C21.5611 48.1933 17.983 44.7534 13.3833 44.4863Z" fill="#A2E221"/>
<path d="M21.0613 53.5274C22.171 49.7541 19.4988 45.8306 15.0927 44.764C10.6866 43.6974 6.21519 45.8916 5.10549 49.6649C3.99578 53.4382 6.66803 57.3617 11.0741 58.4283C15.4802 59.4949 19.9516 57.3007 21.0613 53.5274Z" fill="#A2E322"/>
<path d="M20.9877 53.418C22.0861 49.7093 19.4526 45.8437 15.1054 44.7839C10.7583 43.724 6.34374 45.8714 5.24528 49.58C4.14682 53.2887 6.7804 57.1543 11.1276 58.2141C15.4747 59.2739 19.8892 57.1266 20.9877 53.418Z" fill="#A3E323"/>
<path d="M13.5453 44.5631C9.12623 44.2536 5.36955 47.0678 5.15442 50.8489C4.9393 54.6298 8.34717 57.9458 12.7663 58.2552C17.1854 58.5647 20.942 55.7505 21.1573 51.9694C21.3725 48.1885 17.9644 44.8726 13.5453 44.5631Z" fill="#A3E324"/>
<path d="M20.8497 53.212C21.9267 49.6321 19.371 45.8809 15.1413 44.8335C10.9117 43.7862 6.60979 45.8393 5.53281 49.4193C4.45583 52.9992 7.01157 56.7504 11.2412 57.7978C15.4709 58.8451 19.7727 56.792 20.8497 53.212Z" fill="#A3E325"/>
<path d="M13.6535 44.6148C9.35483 44.2772 5.67996 46.9632 5.44514 50.6143C5.21052 54.2653 8.50495 57.4987 12.8036 57.8363C17.1023 58.1739 20.7773 55.4879 21.0119 51.8368C21.2466 48.1858 17.9521 44.9524 13.6535 44.6148Z" fill="#A4E326"/>
<path d="M13.7077 44.6405C9.46925 44.2888 5.83509 46.9107 5.59062 50.4968C5.34614 54.0828 8.58396 57.2749 12.8224 57.6266C17.0608 57.9783 20.695 55.3564 20.9395 51.7703C21.1839 48.1843 17.9461 44.9922 13.7077 44.6405Z" fill="#A4E327"/>
<path d="M13.7617 44.6662C9.58349 44.3004 5.99023 46.8582 5.73591 50.3794C5.48177 53.9004 8.66259 57.0513 12.841 57.417C17.0192 57.7828 20.6125 55.225 20.8668 51.7038C21.1209 48.1827 17.9399 45.0319 13.7617 44.6662Z" fill="#A5E328"/>
<path d="M13.8156 44.6918C9.69757 44.3119 6.14522 46.8057 5.88105 50.2619C5.61707 53.7179 8.74126 56.8274 12.8593 57.2073C16.9773 57.5872 20.5298 55.0934 20.7938 51.6374C21.0579 48.1812 17.9336 45.0717 13.8156 44.6918Z" fill="#A5E329"/>
<path d="M13.8698 44.7176C9.81198 44.3238 6.30053 46.7533 6.02652 50.1444C5.75269 53.5354 8.82026 56.6036 12.878 56.9976C16.9358 57.3915 20.4475 54.9619 20.7213 51.5708C20.9953 48.1797 17.9277 45.1114 13.8698 44.7176Z" fill="#A6E42A"/>
<path d="M13.9235 44.743C9.92597 44.3351 6.45523 46.7006 6.17156 50.0267C5.88808 53.3527 8.89884 56.3797 12.8964 56.7876C16.894 57.1955 20.3647 54.8299 20.6484 51.5039C20.932 48.1779 17.9211 45.151 13.9235 44.743Z" fill="#A6E42B"/>
<path d="M13.9777 44.7689C10.0404 44.3469 6.61054 46.6483 6.3172 49.9095C6.02387 53.1705 8.97801 56.1561 12.9154 56.5783C16.8529 57.0002 20.2825 54.6987 20.576 51.4377C20.8694 48.1766 17.915 45.1908 13.9777 44.7689Z" fill="#A6E42C"/>
<path d="M14.0317 44.7948C10.1544 44.3587 6.76563 46.596 6.46246 49.7923C6.15928 52.9882 9.05661 55.9328 12.9339 56.3688C16.811 56.8048 20.2002 54.5674 20.5031 51.3713C20.8063 48.1752 17.909 45.2308 14.0317 44.7948Z" fill="#A7E42D"/>
<path d="M14.086 44.8203C10.2689 44.3701 6.92105 46.5433 6.60802 49.6744C6.29519 52.8054 9.13571 55.7086 12.9528 56.1587C16.7699 56.6089 20.1179 54.4355 20.4307 51.3045C20.7436 48.1736 17.9029 45.2704 14.086 44.8203Z" fill="#A7E42D"/>
<path d="M14.1399 44.846C10.383 44.3818 7.07591 46.4911 6.75323 49.5571C6.43055 52.6231 9.21444 55.4851 12.9713 55.9493C16.7282 56.4135 20.0353 54.3043 20.358 51.2382C20.6807 48.172 17.8968 45.3102 14.1399 44.846Z" fill="#A8E42E"/>
<path d="M14.1937 44.8716C10.497 44.3933 7.23083 46.4385 6.8983 49.4396C6.56577 52.4405 9.29305 55.2612 12.9897 55.7395C16.6864 56.2178 19.9526 54.1727 20.2851 51.1716C20.6176 48.1705 17.8904 45.3499 14.1937 44.8716Z" fill="#A8E42F"/>
<path d="M14.2481 44.8974C10.6116 44.405 7.38632 46.386 7.04394 49.3222C6.70175 52.2582 9.37203 55.0375 13.0085 55.5299C16.6449 56.0223 19.8702 54.0412 20.2126 51.105C20.555 48.1689 17.8845 45.3897 14.2481 44.8974Z" fill="#A8E430"/>
<path d="M14.3021 44.9232C10.7259 44.4167 7.54147 46.3337 7.18924 49.2047C6.83721 52.0758 9.45086 54.8139 13.0271 55.3203C16.6033 55.8268 19.7879 53.9098 20.1399 51.0386C20.4922 48.1676 17.8783 45.4295 14.3021 44.9232Z" fill="#A9E531"/>
<path d="M14.356 44.9489C10.84 44.4285 7.69652 46.2812 7.33464 49.0873C6.97294 51.8934 9.52979 54.5901 13.0458 55.1107C16.5618 55.6311 19.7055 53.7783 20.0674 50.9722C20.4291 48.1661 17.872 45.4695 14.356 44.9489Z" fill="#A9E532"/>
<path d="M14.4103 44.9743C10.9545 44.4398 7.85173 46.2285 7.48019 48.9696C7.10865 51.7106 9.60888 54.366 13.0647 54.9007C16.5204 55.4352 19.6232 53.6465 19.995 50.9054C20.3663 48.1642 17.8661 45.5088 14.4103 44.9743Z" fill="#AAE533"/>
<path d="M14.4642 45.0002C11.0687 44.4516 8.00678 46.1762 7.62539 48.8524C7.24401 51.5284 9.68761 54.1426 13.0832 54.6912C16.4787 55.2398 19.5406 53.5152 19.922 50.839C20.3034 48.1629 17.8598 45.5488 14.4642 45.0002Z" fill="#AAE534"/>
<path d="M14.518 45.026C11.1827 44.4634 8.1617 46.1239 7.77047 48.7351C7.37942 51.3462 9.76603 53.919 13.1016 54.4819C16.4369 55.0445 19.4581 53.384 19.8491 50.7728C20.2403 48.1615 17.8536 45.5887 14.518 45.026Z" fill="#ABE535"/>
<path d="M14.5722 45.0517C11.2971 44.4749 8.31705 46.0713 7.91596 48.6175C7.51507 51.1635 9.84506 53.6952 13.1204 54.2719C16.3955 54.8487 19.3758 53.2523 19.7766 50.7061C20.1775 48.16 17.8474 45.6284 14.5722 45.0517Z" fill="#ABE536"/>
<path d="M14.6259 45.0771C11.4108 44.4863 8.47163 46.0186 8.06089 48.4998C7.65015 50.9809 9.92352 53.4712 13.1386 54.062C16.3537 54.6529 19.2929 53.1205 19.7036 50.6393C20.1144 48.1583 17.841 45.668 14.6259 45.0771Z" fill="#ABE537"/>
<path d="M14.6802 45.1029C11.5253 44.498 8.62702 45.9662 8.20644 48.3825C7.78604 50.7986 10.0026 53.2475 13.1573 53.8526C16.3121 54.4575 19.2104 52.9891 19.631 50.573C20.0518 48.1567 17.835 45.7077 14.6802 45.1029Z" fill="#ACE538"/>
<path d="M14.7342 45.1286C11.6395 44.5096 8.78214 45.9137 8.35171 48.2651C7.92146 50.616 10.0814 53.0239 13.1759 53.6429C16.2705 54.2619 19.1281 52.8576 19.5583 50.5064C19.9887 48.1553 17.8286 45.7476 14.7342 45.1286Z" fill="#ACE639"/>
<path d="M14.7884 45.1544C11.7539 44.5214 8.93745 45.8615 8.49717 48.1477C8.05708 50.4338 10.1602 52.8002 13.1946 53.4333C16.2291 54.0664 19.0457 52.7262 19.4858 50.44C19.9259 48.1537 17.8228 45.7873 14.7884 45.1544Z" fill="#ADE63A"/>
<path d="M14.8422 45.18C11.868 44.533 9.09224 45.809 8.6423 48.0301C8.19255 50.2512 10.2389 52.5764 13.2131 53.2234C16.1873 53.8704 18.963 52.5944 19.413 50.3733C19.8627 48.1522 17.8162 45.8272 14.8422 45.18Z" fill="#ADE63B"/>
<path d="M14.8964 45.2059C11.9824 44.5448 9.24752 45.7567 8.78792 47.9128C8.32833 50.069 10.318 52.3528 13.232 53.0141C16.146 53.6752 18.8809 52.4633 19.3405 50.3071C19.8 48.1508 17.8104 45.867 14.8964 45.2059Z" fill="#ADE63C"/>
<path d="M14.9504 45.2311C12.0966 44.556 9.40268 45.7038 8.93323 47.795C8.46398 49.886 10.3969 52.1286 13.2506 52.804C16.1044 53.4792 18.7984 52.3313 19.2678 50.2401C19.7373 48.1489 17.8042 45.9063 14.9504 45.2311Z" fill="#AEE63D"/>
<path d="M15.0045 45.2573C12.2109 44.5681 9.55787 45.6518 9.07858 47.6781C8.59948 49.7042 10.4757 51.9055 13.2693 52.5948C16.0629 53.2841 18.7161 52.2003 19.1952 50.1741C19.6743 48.148 17.798 45.9466 15.0045 45.2573Z" fill="#AEE63E"/>
<path d="M15.0583 45.283C12.325 44.5797 9.71265 45.5993 9.2237 47.5607C8.73475 49.5218 10.5542 51.6818 13.2877 52.3851C16.0211 53.0885 18.6334 52.0688 19.1223 50.1077C19.6113 48.1464 17.7917 45.9862 15.0583 45.283Z" fill="#AFE63F"/>
<path d="M15.1124 45.3086C12.4393 44.5911 9.86783 45.5467 9.36903 47.4429C8.87043 49.339 10.6331 51.4579 13.3062 52.1753C15.9793 52.8928 18.5507 51.9372 19.0495 50.041C19.5483 48.1448 17.7855 46.0261 15.1124 45.3086Z" fill="#AFE640"/>
<path d="M15.1665 45.3343C12.5536 44.6028 10.0231 45.4943 9.51445 47.3256C9.006 49.1567 10.712 51.2341 13.3249 51.9657C15.9378 52.6972 18.4683 51.8057 18.977 49.9745C19.4854 48.1432 17.7794 46.0657 15.1665 45.3343Z" fill="#AFE741"/>
<path d="M15.2205 45.3599C12.6678 44.6142 10.1782 45.4417 9.65968 47.208C9.14138 48.9742 10.7908 51.0102 13.3435 51.7559C15.8961 52.5013 18.3859 51.6741 18.9042 49.9077C19.4225 48.1416 17.7732 46.1055 15.2205 45.3599Z" fill="#B0E742"/>
<path d="M15.2745 45.3857C12.7821 44.6262 10.3333 45.3894 9.80519 47.0907C9.27723 48.7918 10.8696 50.7868 13.3623 51.5465C15.8549 52.3061 18.3036 51.5429 18.8318 49.8415C19.3598 48.1401 17.7672 46.1453 15.2745 45.3857Z" fill="#B0E743"/>
<path d="M15.3286 45.4112C12.8962 44.6376 10.4884 45.3367 9.9506 46.9729C9.41279 48.609 10.9486 50.5626 13.381 51.3364C15.8134 52.1101 18.2212 51.411 18.759 49.7747C19.2969 48.1386 17.7609 46.185 15.3286 45.4112Z" fill="#B1E744"/>
<path d="M15.3826 45.4371C13.0104 44.6494 10.6435 45.2844 10.0958 46.8557C9.54836 48.4269 11.0273 50.3392 13.3995 51.127C15.7718 51.9147 18.1387 51.2797 18.6863 49.7084C19.234 48.1372 17.7548 46.2248 15.3826 45.4371Z" fill="#B1E745"/>
<path d="M15.4365 45.4628C13.1245 44.661 10.7985 45.2319 10.241 46.7383C9.68371 48.2444 11.1061 50.1155 13.418 50.9173C15.73 51.7191 18.0562 51.1481 18.6135 49.6418C19.171 48.1356 17.7485 46.2647 15.4365 45.4628Z" fill="#B2E746"/>
<path d="M15.4906 45.4885C13.2388 44.6726 10.9537 45.1796 10.3864 46.6209C9.81923 48.062 11.185 49.8917 13.4365 50.7078C15.6883 51.5237 17.9736 51.0167 18.5408 49.5754C19.1079 48.1342 17.7424 46.3044 15.4906 45.4885Z" fill="#B2E747"/>
<path d="M15.5449 45.514C13.3533 44.684 11.1089 45.1269 10.5319 46.5032C9.95509 47.8794 11.264 49.6679 13.4554 50.4979C15.6469 51.3279 17.8913 50.8849 18.4683 49.5086C19.0453 48.1323 17.7364 46.344 15.5449 45.514Z" fill="#B2E748"/>
<path d="M15.5987 45.5398C13.4674 44.6957 11.2639 45.0745 10.677 46.3858C10.0904 47.697 11.3425 49.4441 13.4738 50.2881C15.6051 51.1322 17.8086 50.7534 18.3955 49.4422C18.9823 48.1311 17.73 46.3839 15.5987 45.5398Z" fill="#B3E849"/>
<path d="M15.653 45.5654C13.5819 44.7074 11.4193 45.022 10.8226 46.2683C10.2261 47.5144 11.4216 49.2204 13.4927 50.0786C15.5638 50.9366 17.7266 50.622 18.3231 49.3757C18.9196 48.1294 17.7241 46.4234 15.653 45.5654Z" fill="#B3E84A"/>
<path d="M15.7069 45.591C13.696 44.7189 11.5743 44.9694 10.9678 46.1507C10.3616 47.3319 11.5003 48.9965 13.5112 49.8688C15.5221 50.7409 17.6439 50.4904 18.2503 49.309C18.8567 48.1279 17.7178 46.4633 15.7069 45.591Z" fill="#B4E84B"/>
<path d="M15.7608 45.617C13.8101 44.7308 11.7293 44.9172 11.1131 46.0336C10.4971 47.1498 11.5791 48.773 13.5298 49.6594C15.4805 50.5456 17.5615 50.3592 18.1775 49.2428C18.7937 48.1265 17.7116 46.5032 15.7608 45.617Z" fill="#B4E84C"/>
<path d="M12.2724 55.6764C9.69455 54.7579 7.24489 54.5596 5.53357 52.3969C4.19057 50.7 3.81297 48.0645 5.34799 46.4631C4.77326 46.8555 3.9194 47.795 3.62985 48.3004C3.4971 50.0944 4.1794 52.3093 5.47448 53.714C6.89039 55.2503 9.02873 55.775 11.0726 56.3316C14.8829 57.3692 16.5088 60.5546 15.7748 62.3445C16.1675 62.2206 16.55 62.077 16.9197 61.9129C17.4155 58.8512 15.301 56.7555 12.2724 55.6764Z" fill="#ECECEC"/>
<path d="M18.2084 45.6335C16.5412 44.6019 14.5269 43.998 12.3566 43.998C11.8614 43.998 11.3751 44.0316 10.8984 44.0924C14.4434 44.0101 17.4691 45.4225 19.7022 48.3447C22.1391 51.5339 22.2346 55.4829 22.0903 56.7555C22.3844 56.0469 22.5872 55.298 22.6856 54.5199C22.4202 51.8131 21.6239 49.168 19.8305 47.1462C19.3344 46.587 18.7911 46.0815 18.2084 45.6335Z" fill="#ECECEC"/>
</g>
<defs>
<filter id="filter0_d_872_762" x="1.9541" y="0" width="53.1228" height="70.8684" filterUnits="userSpaceOnUse" color-interpolation-filters="sRGB">
<feFlood flood-opacity="0" result="BackgroundImageFix"/>
<feColorMatrix in="SourceAlpha" type="matrix" values="0 0 0 0 0 0 0 0 0 0 0 0 0 0 0 0 0 0 127 0" result="hardAlpha"/>
<feOffset dx="6" dy="4"/>
<feGaussianBlur stdDeviation="2"/>
<feComposite in2="hardAlpha" operator="out"/>
<feColorMatrix type="matrix" values="0 0 0 0 0.182692 0 0 0 0 0.182692 0 0 0 0 0.182692 0 0 0 0.35 0"/>
<feBlend mode="normal" in2="BackgroundImageFix" result="effect1_dropShadow_872_762"/>
<feBlend mode="normal" in="SourceGraphic" in2="effect1_dropShadow_872_762" result="shape"/>
</filter>
</defs>
</svg>
