<svg width="115" height="58" viewBox="0 0 115 58" fill="none" xmlns="http://www.w3.org/2000/svg">
<g filter="url(#filter0_d_872_1758)">
<path d="M94.9004 31.9552C93.2733 31.0233 91.5216 30.31 89.7328 29.7104C87.6826 29.0232 85.588 28.4484 83.5099 27.8428C81.3197 27.2046 79.1271 26.5738 76.9321 25.9505C75.1681 25.4496 73.4022 24.9543 71.6352 24.4626C71.5761 24.7687 71.517 25.0748 71.4579 25.3808C71.4503 25.4203 71.4426 25.4597 71.4351 25.4992C76.4029 26.7806 81.4128 27.9573 86.2851 29.5399C87.8462 30.0469 89.3955 30.5871 90.9359 31.1482C92.827 31.837 94.7739 32.4913 96.5108 33.4955C97.8107 34.2471 98.9942 35.1983 100.03 36.277C99.7844 35.9958 99.5296 35.7233 99.2778 35.4574C97.9823 34.0895 96.5633 32.9076 94.9004 31.9552Z" fill="#E06840"/>
<path d="M7.64556 34.3336C5.78157 34.5409 3.97055 35.466 2.84221 36.9031C1.71209 38.3425 1.44334 40.1213 2.01059 41.8124C2.4551 42.2028 3.00824 42.4843 3.66415 42.6361C5.64308 43.0941 7.86108 42.7499 9.78483 42.2174C13.0253 41.3206 15.9792 39.6014 18.595 37.5944C17.3083 37.0464 16.024 36.4932 14.7387 35.942C12.5181 34.9897 10.1349 34.0569 7.64556 34.3336Z" fill="#B93526"/>
<path d="M52.9698 20.5452C54.9189 20.9717 56.8345 21.5301 58.7523 22.0663C62.5307 23.1229 66.3158 24.1565 70.1117 25.1549C70.4061 25.2323 70.7008 25.309 70.9956 25.3854C71.019 25.2653 71.0427 25.1452 71.0659 25.025C71.1099 24.7969 71.154 24.5687 71.198 24.3407C68.7415 23.6585 66.2823 22.9851 63.8192 22.3249C57.7686 20.703 51.6322 19.0485 45.3303 18.6492C41.8329 18.4276 38.3069 18.539 34.8255 18.9129C33.1126 19.0969 31.4082 19.3518 29.7179 19.6737C29.3548 19.7429 28.9924 19.8152 28.6307 19.8906C28.4783 19.9224 28.326 19.9547 28.1738 19.9875C27.9468 20.0366 27.8731 20.1188 27.711 20.2928C27.2383 20.7999 26.8706 21.3805 26.5986 22.0018C28.0081 21.5178 29.4364 21.0868 30.8891 20.7338C38.1094 18.9794 45.7141 18.9577 52.9698 20.5452Z" fill="#E06840"/>
<path d="M47.8934 18.1841C54.532 18.9379 61.0025 20.8285 67.4069 22.5769C68.7155 22.934 70.0231 23.2949 71.33 23.6574C71.3331 23.6413 71.3363 23.6251 71.3394 23.609C71.4667 22.95 71.5939 22.2911 71.7211 21.6321C71.8711 20.8558 72.021 20.0793 72.1709 19.3029C72.3324 18.4668 72.4939 17.6306 72.6554 16.7945C72.8153 15.9662 72.9753 15.1379 73.1352 14.3096C73.2807 13.5567 73.426 12.8037 73.5714 12.0507C73.6911 11.431 73.8108 10.8113 73.9305 10.1915C74.0111 9.77422 74.0917 9.35686 74.1723 8.93954C74.18 8.89949 74.1877 8.85942 74.1955 8.81937C69.9813 7.13745 65.645 5.74046 61.2382 4.54126C57.6556 3.56638 54.0032 2.80993 50.2843 2.51339C46.1947 2.18724 42.0627 2.39272 38.0267 3.09515C37.1791 3.24268 36.354 3.38443 35.6134 3.82815C35.4026 3.95447 35.2046 4.09894 35.021 4.25807C35.0209 4.25816 35.0208 4.25828 35.0206 4.25837C35.0205 4.25854 35.0203 4.25857 35.0201 4.25875C34.5828 4.63786 34.2279 5.10202 33.9839 5.61601C33.849 5.90018 33.7396 6.19669 33.6202 6.48679C32.9692 8.06806 32.3182 9.6493 31.6672 11.2306C30.5693 13.8977 29.4713 16.5648 28.3733 19.2319C28.4313 19.2225 28.4881 19.2128 28.5414 19.2018C34.858 17.8959 41.4639 17.4541 47.8934 18.1841Z" fill="#FAB070"/>
<path d="M55.2126 2.45614C58.8259 3.09271 62.3489 4.09469 65.8439 5.15996C72.2971 7.12693 78.4748 9.65234 84.3775 12.816C87.2426 14.3517 90.0976 15.9143 92.7731 17.7382C92.8719 17.8055 92.9697 17.8743 93.068 17.9424C92.6212 17.6126 92.1714 17.2866 91.7158 16.968C87.4 13.9496 82.7201 11.546 77.8806 9.38073C75.5817 8.35215 73.2529 7.38625 70.9189 6.43232C68.5652 5.4703 66.1964 4.53549 63.7749 3.73707C58.8838 2.12436 53.7765 1.16203 48.6111 0.839C47.4459 0.766112 46.2784 0.725307 45.1106 0.716557C43.9246 0.707632 42.7274 0.694886 41.5558 0.893514C39.9979 1.15771 38.5407 1.72941 37.2336 2.53585C39.1992 2.16937 41.1899 1.91617 43.188 1.78101C47.211 1.50888 51.249 1.75785 55.2126 2.45614Z" fill="#E06840"/>
<path d="M87.8549 35.983C84.5225 35.2092 81.269 34.1594 78.12 32.8684C76.8817 33.5192 75.6318 34.1523 74.3711 34.7663C75.5163 35.3033 76.6815 35.802 77.8651 36.2577C80.4495 37.2528 83.1169 38.0522 85.8339 38.6479C88.0322 39.1298 90.262 39.4766 92.5065 39.6912C92.5966 39.4339 92.6814 39.1749 92.7595 38.9141C92.869 38.5488 92.9666 38.1801 93.0522 37.8091C93.1391 37.4327 93.3031 37.0251 92.7805 36.9225C91.1383 36.6002 89.487 36.362 87.8549 35.983Z" fill="#EB6B3B"/>
<path d="M72.6016 34.8408C74.7056 33.857 76.7796 32.8152 78.8199 31.717C80.3573 30.8896 81.8105 29.9386 83.467 29.3942C77.8898 27.7393 72.1905 26.4404 66.5691 24.9327C63.3101 24.0586 60.0628 23.1475 56.8121 22.2466C55.1179 21.777 53.4193 21.322 51.6885 20.9894C43.7305 19.4599 35.4833 19.8577 27.7785 22.332C27.2392 22.5052 26.702 22.6867 26.167 22.8754C26.1544 22.8811 26.1412 22.8851 26.1281 22.8893C22.4101 24.2032 18.795 25.8669 15.2727 27.5687C12.0658 29.1182 8.92669 30.7918 5.86035 32.579C5.92019 32.57 5.98002 32.5605 6.03986 32.5525C9.33372 32.1129 12.8729 32.7215 15.9256 33.9013C17.8999 34.6642 19.6264 35.8166 21.5287 36.7114C24.317 38.023 27.2768 38.9946 30.2585 39.8235C32.3835 40.4142 34.5325 40.9264 36.6929 41.3863C39.1252 41.9041 41.5556 42.3621 44.0489 42.5029C46.5582 42.6445 49.0877 42.5296 51.5696 42.1487C53.96 41.7818 56.2613 41.1373 58.5475 40.3916C60.0321 39.9073 61.5065 39.3954 62.9699 38.8564C62.996 38.8436 63.0217 38.8342 63.0471 38.828C66.2906 37.6311 69.4792 36.3007 72.6016 34.8408Z" fill="#F89A5A"/>
<path d="M103.192 28.1508C103.169 28.1275 103.147 28.1011 103.129 28.0676L103.129 28.0675C102.771 27.5994 102.358 27.1632 101.967 26.728C100.648 25.2597 99.2446 23.8594 97.765 22.536C92.9094 18.1926 87.1578 14.9465 81.2892 11.998C79.109 10.9027 76.8838 9.90685 74.6235 8.99243C74.6038 9.09338 74.5839 9.19424 74.5644 9.29519C74.4733 9.76726 74.3821 10.2393 74.291 10.7113C74.1637 11.3703 74.0364 12.0293 73.9092 12.6882C73.7593 13.4646 73.6093 14.2411 73.4593 15.0175C73.2979 15.8536 73.1364 16.6898 72.9749 17.5259C72.815 18.3542 72.655 19.1825 72.4951 20.0107C72.3497 20.7637 72.2043 21.5167 72.0588 22.2696C71.9617 22.7728 71.8645 23.276 71.7673 23.7792C74.6544 24.5815 77.5378 25.3956 80.4166 26.2238C82.6092 26.8546 84.7994 27.4929 86.9872 28.1386C88.7995 28.6735 90.6027 29.2243 92.346 29.9419C95.8089 31.3674 98.75 33.5003 101.031 36.3692C102.055 37.6567 102.649 39.1242 102.345 40.7512C102.198 41.5368 101.844 42.2906 101.378 42.9518C101.221 43.1749 100.602 43.7295 101.054 43.9483C101.438 44.1339 101.943 43.3079 102.126 43.0768C103.307 41.5839 103.98 39.7919 104.052 37.9244C104.134 35.7813 104.173 33.6353 104.226 31.4915C104.25 30.532 104.074 29.6068 103.591 28.7549C103.473 28.5459 103.337 28.3457 103.192 28.1508Z" fill="#FAB070"/>
<path d="M42.353 43.0602C39.9964 42.8173 37.6775 42.3211 35.3722 41.8087C33.3756 41.3651 31.3901 40.8735 29.4268 40.311C26.5775 39.4949 23.7541 38.5366 21.0869 37.2743C19.2704 36.4147 17.6184 35.2983 15.7316 34.5688C12.7616 33.4205 9.27714 32.7818 6.06724 33.2431C4.48171 33.471 2.87607 34.0558 1.86166 35.2912C0.795187 36.5899 0.47102 38.4324 0.91231 40.0126C0.937484 40.1027 0.965576 40.1907 0.995723 40.2771C0.953572 38.9415 1.37316 37.6199 2.24843 36.5089C3.50282 34.9168 5.45265 33.9038 7.51969 33.6564C9.96373 33.3638 12.3166 34.1727 14.5171 35.0942C16.962 36.1181 19.3837 37.1909 21.8332 38.2051C24.1573 39.1673 26.5035 40.0539 28.9283 40.7618C30.8529 41.3237 32.8059 41.8142 34.7665 42.2495C39.7706 43.3606 44.9506 44.1964 50.0857 43.5008C52.9451 43.1135 55.742 42.3095 58.3882 41.1892C57.7569 41.3876 57.1239 41.5807 56.4886 41.7667C51.9344 43.1004 47.0914 43.5486 42.353 43.0602Z" fill="#E06840"/>
<path d="M101.698 39.6144C101.568 39.4003 101.433 39.1891 101.294 38.9807C98.717 39.6562 96.0174 39.777 93.3839 39.348C93.0523 40.397 92.6243 41.4186 92.1078 42.3979C91.7579 43.0614 91.3649 43.71 90.9319 44.3335C94.0224 44.4975 97.1249 44.3633 100.186 43.9234C100.039 43.3558 100.57 42.8857 100.88 42.4104C101.367 41.6642 101.688 40.8154 101.705 39.9314C101.708 39.8243 101.705 39.7187 101.698 39.6144Z" fill="#B93526"/>
<path d="M92.3553 40.1088C91.2271 39.9982 90.1022 39.8569 88.9833 39.6805C86.3708 39.2686 83.7906 38.6728 81.2717 37.8961C78.7323 37.113 76.2566 36.1445 73.8692 35.0093C70.3689 36.6959 66.785 38.2323 63.1266 39.5749C63.079 39.6031 63.0316 39.6314 62.9839 39.6594C66.5655 40.8177 70.1804 41.8824 73.8254 42.8461C77.4483 43.8039 81.0998 44.6641 84.7739 45.4257C85.6377 45.6048 86.5027 45.7782 87.3688 45.9463C87.7884 46.0278 88.2476 46.1823 88.6446 45.953C88.9247 45.7914 89.136 45.4769 89.3377 45.2371C89.5481 44.9871 89.7497 44.73 89.9456 44.4691C89.9642 44.428 89.9912 44.3917 90.0266 44.3625C90.7344 43.405 91.3448 42.3801 91.8458 41.3135C92.0315 40.9182 92.201 40.5161 92.3553 40.1088Z" fill="#F38142"/>
<path d="M103.783 27.7788C103.776 27.7588 103.769 27.7388 103.758 27.7185C102.749 25.8492 101.418 24.2067 99.8603 22.722C97.9516 20.903 95.9263 19.1952 93.7991 17.61C89.4837 14.3941 84.7926 11.7865 79.8647 9.51711C77.4989 8.42751 75.1009 7.4078 72.6901 6.41186C70.2588 5.40749 67.8208 4.41143 65.3342 3.53581C60.3876 1.79386 55.239 0.690906 49.9827 0.247771C47.6391 0.0501927 45.2388 -0.0780239 42.8865 0.0536947C40.2442 0.201659 37.779 1.15475 35.7197 2.72266C35.2927 3.04778 34.889 3.39852 34.5053 3.76906C34.4909 3.78294 34.4801 3.79747 34.4689 3.81193C34.0431 4.1837 33.6823 4.62975 33.4109 5.15412C32.9102 6.12153 32.5575 7.17735 32.145 8.17939C30.6787 11.7412 29.2123 15.303 27.746 18.8648C27.6595 19.0751 27.5729 19.2853 27.4864 19.4956C27.2016 19.7001 26.9577 20.0642 26.7647 20.3134C26.294 20.9213 25.9464 21.6025 25.7013 22.3183C23.1299 23.2466 20.6196 24.3397 18.1416 25.4588C13.8425 27.4004 9.65177 29.5583 5.59248 31.9204C4.62738 32.4819 3.67017 33.0556 2.71983 33.6395C2.71044 33.6452 2.7019 33.6513 2.69343 33.6575C2.27811 33.9116 1.89392 34.2116 1.55671 34.5667C0.446636 35.7358 -0.0684578 37.3404 0.00728053 38.9009C0.0793041 40.3864 0.703231 41.9367 2.07223 42.7603C3.54316 43.6452 5.53565 43.6063 7.19493 43.4221C11.1328 42.985 14.7804 41.1802 17.9256 38.9577C18.4049 38.619 18.8746 38.2683 19.3364 37.9083C20.2072 38.2773 21.0791 38.6441 21.9543 39.0039C25.9984 40.6668 30.152 41.927 34.4393 42.8867C39.2327 43.9597 44.2166 44.8053 49.15 44.3032C53.7334 43.8367 58.186 42.3274 62.167 40.1249C69.5351 42.5329 77.0486 44.5352 84.6623 46.1099C85.5787 46.2995 86.4965 46.4828 87.4156 46.6601C88.2251 46.8162 88.897 46.7926 89.4736 46.1632C89.8157 45.7897 90.1392 45.3988 90.4469 44.9963C93.8633 45.2117 97.2906 45.0564 100.672 44.5475C101.136 44.7994 101.745 44.594 102.117 44.1826C102.742 43.4919 103.303 42.7482 103.727 41.9293C104.151 41.1106 104.457 40.2378 104.623 39.3387C104.808 38.336 104.797 37.318 104.825 36.3036C104.854 35.2152 104.883 34.1268 104.913 33.0383C104.939 32.0597 105.042 31.0582 104.851 30.0893C104.681 29.2266 104.284 28.4747 103.783 27.7788ZM41.556 0.893648C42.7276 0.69502 43.9248 0.707766 45.1108 0.716691C46.2786 0.725441 47.446 0.766246 48.6113 0.839134C53.7767 1.16216 58.884 2.1245 63.7751 3.73721C66.1966 4.53563 68.5653 5.47043 70.9191 6.43245C73.2531 7.38639 75.5819 8.35229 77.8807 9.38087C82.7203 11.5462 87.4002 13.9497 91.716 16.9681C92.1716 17.2867 92.6214 17.6127 93.0681 17.9425C92.9698 17.8745 92.8721 17.8057 92.7733 17.7383C90.0978 15.9144 87.2427 14.3518 84.3776 12.8162C78.475 9.65247 72.2973 7.12707 65.8441 5.1601C62.3491 4.09483 58.8261 3.09285 55.2128 2.45627C51.2492 1.75798 47.2112 1.50901 43.1882 1.78117C41.1901 1.91633 39.1994 2.16953 37.2338 2.53602C38.5409 1.72955 39.9981 1.15784 41.556 0.893648ZM31.6669 11.2306C32.3179 9.64929 32.9689 8.06805 33.6198 6.48679C33.7393 6.19672 33.8486 5.90018 33.9836 5.61601C34.2276 5.10202 34.5824 4.63786 35.0198 4.25875C35.0199 4.25857 35.0201 4.25854 35.0203 4.25836C35.0204 4.25828 35.0205 4.25816 35.0206 4.25807C35.2043 4.09894 35.4022 3.95447 35.6131 3.82815C36.3537 3.38443 37.1788 3.24268 38.0264 3.09515C42.0624 2.39272 46.1944 2.18724 50.284 2.51338C54.0029 2.80993 57.6553 3.56637 61.2379 4.54126C65.6447 5.74046 69.981 7.13745 74.1951 8.81937C74.1874 8.85942 74.1797 8.89949 74.1719 8.93954C74.0913 9.35686 74.0107 9.77421 73.9301 10.1915C73.8105 10.8113 73.6908 11.431 73.5711 12.0507C73.4257 12.8037 73.2803 13.5567 73.1349 14.3096C72.975 15.1379 72.815 15.9662 72.6551 16.7945C72.4936 17.6306 72.3321 18.4668 72.1706 19.3029C72.0207 20.0793 71.8707 20.8558 71.7208 21.6321C71.5936 22.2911 71.4663 22.9501 71.339 23.609C71.3359 23.6251 71.3328 23.6413 71.3297 23.6574C70.0227 23.2949 68.7151 22.934 67.4066 22.5768C61.0022 20.8285 54.5316 18.9379 47.8931 18.1841C41.4635 17.4541 34.8576 17.8959 28.541 19.2018C28.4878 19.2128 28.4309 19.2225 28.3729 19.2319C29.4709 16.5648 30.5689 13.8977 31.6669 11.2306ZM92.9744 36.2554C92.1301 36.1034 91.2802 35.9837 90.4373 35.822C86.4917 35.0652 82.6271 33.9324 78.9187 32.4456C79.9246 31.9088 80.923 31.3608 81.9133 30.8026C82.8008 30.3023 83.7233 29.9774 84.7311 29.7773C87.5637 30.6529 90.3572 31.6464 93.1196 32.7031C95.8457 33.746 98.1899 35.2097 100.071 37.3765C100.351 37.6987 100.616 38.0319 100.868 38.374C98.4902 38.9632 96.0054 39.0719 93.5808 38.681C93.6707 38.3526 93.7516 38.0221 93.8223 37.6894C93.9646 37.0192 93.7612 36.397 92.9744 36.2554ZM93.0525 37.8093C92.9668 38.1803 92.8693 38.5489 92.7598 38.9143C92.6816 39.175 92.5969 39.434 92.5068 39.6913C90.2623 39.4768 88.0325 39.13 85.8342 38.6481C83.1171 38.0524 80.4498 37.253 77.8654 36.2579C76.6817 35.8022 75.5166 35.3035 74.3714 34.7665C75.6321 34.1524 76.882 33.5193 78.1202 32.8685C81.2692 34.1595 84.5228 35.2094 87.8552 35.9832C89.4873 36.3621 91.1386 36.6003 92.7808 36.9227C93.3034 37.0253 93.1394 37.4329 93.0525 37.8093ZM96.5109 33.4956C94.774 32.4914 92.8271 31.8371 90.9361 31.1483C89.3956 30.5872 87.8463 30.047 86.2852 29.54C81.4129 27.9574 76.403 26.7808 71.4352 25.4993C71.4428 25.4598 71.4504 25.4204 71.458 25.3809C71.5171 25.0749 71.5763 24.7688 71.6353 24.4628C73.4024 24.9544 75.1682 25.4497 76.9323 25.9506C79.1273 26.5739 81.3199 27.2047 83.5101 27.8429C85.5882 28.4486 87.6827 29.0233 89.733 29.7105C91.5218 30.3101 93.2735 31.0234 94.9006 31.9553C96.5634 32.9077 97.9824 34.0896 99.2779 35.4576C99.5297 35.7234 99.7845 35.9959 100.03 36.2772C98.9943 35.1984 97.8108 34.2472 96.5109 33.4956ZM27.7106 20.293C27.8728 20.119 27.9465 20.0367 28.1735 19.9877C28.3256 19.9548 28.4779 19.9225 28.6303 19.8908C28.992 19.8153 29.3545 19.7431 29.7176 19.6739C31.4078 19.352 33.1122 19.097 34.8252 18.9131C38.3066 18.5392 41.8325 18.4278 45.33 18.6494C51.6319 19.0487 57.7683 20.7032 63.8189 22.3251C66.282 22.9852 68.7412 23.6586 71.1977 24.3408C71.1536 24.5689 71.1096 24.7971 71.0656 25.0252C71.0424 25.1454 71.0186 25.2655 70.9952 25.3856C70.7005 25.3091 70.4058 25.2324 70.1114 25.155C66.3155 24.1567 62.5303 23.1231 58.752 22.0665C56.8342 21.5302 54.9186 20.9718 52.9695 20.5454C45.7138 18.9578 38.1091 18.9796 30.8888 20.734C29.436 21.087 28.0077 21.518 26.5983 22.002C26.8702 21.3806 27.2379 20.8001 27.7106 20.293ZM9.78517 42.2172C7.86141 42.7497 5.64341 43.0939 3.66449 42.6359C3.00857 42.4841 2.45544 42.2025 2.01092 41.8123C1.44367 40.1211 1.71239 38.3423 2.84254 36.9029C3.97091 35.4658 5.7819 34.5407 7.64589 34.3334C10.1353 34.0567 12.5185 34.9895 14.7391 35.9419C16.0243 36.493 17.3086 37.0462 18.5953 37.5943C15.9796 39.6012 13.0256 41.3204 9.78517 42.2172ZM50.0859 43.5006C44.9507 44.1961 39.7708 43.3603 34.7666 42.2493C32.8061 41.814 30.8531 41.3234 28.9284 40.7616C26.5037 40.0537 24.1574 39.1671 21.8334 38.2049C19.3838 37.1907 16.9621 36.1179 14.5172 35.094C12.3168 34.1725 9.96387 33.3636 7.51983 33.6561C5.45279 33.9036 3.50297 34.9166 2.24858 36.5087C1.3733 37.6197 0.953717 38.9413 0.995869 40.2769C0.965721 40.1905 0.937631 40.1025 0.912456 40.0124C0.471166 38.4322 0.795365 36.5897 1.86181 35.291C2.87622 34.0556 4.48186 33.4708 6.06739 33.2429C9.27729 32.7816 12.7617 33.4203 15.7317 34.5686C17.6186 35.2981 19.2705 36.4145 21.087 37.2741C23.7542 38.5364 26.5776 39.4947 29.4269 40.3108C31.3902 40.8732 33.3758 41.3648 35.3723 41.8085C37.6776 42.3209 39.9965 42.817 42.3532 43.06C47.0915 43.5484 51.9345 43.1002 56.4888 41.7665C57.124 41.5804 57.757 41.3874 58.3883 41.189C55.7421 42.3092 52.9453 43.1133 50.0859 43.5006ZM58.5473 40.3916C56.2611 41.1373 53.9598 41.7818 51.5694 42.1487C49.0875 42.5296 46.558 42.6445 44.0487 42.5029C41.5554 42.3621 39.125 41.9042 36.6927 41.3864C34.5323 40.9264 32.3833 40.4142 30.2583 39.8235C27.2766 38.9946 24.3168 38.0231 21.5285 36.7114C19.6262 35.8166 17.8998 34.6643 15.9254 33.9013C12.8727 32.7215 9.33353 32.1129 6.03967 32.5526C5.97983 32.5606 5.92 32.5701 5.86016 32.579C8.9265 30.7919 12.0656 29.1183 15.2726 27.5688C18.7948 25.867 22.4099 24.2032 26.1279 22.8894C26.1411 22.8851 26.1542 22.8812 26.1668 22.8754C26.7018 22.6867 27.239 22.5053 27.7783 22.3321C35.4831 19.8577 43.7304 19.4599 51.6883 20.9894C53.4191 21.3221 55.1177 21.7771 56.8119 22.2466C60.0627 23.1476 63.3099 24.0586 66.5689 24.9327C72.1903 26.4405 77.8896 27.7394 83.4668 29.3942C81.8103 29.9387 80.3571 30.8896 78.8197 31.7171C76.7794 32.8152 74.7055 33.857 72.6014 34.8408C69.479 36.3007 66.2905 37.6311 63.047 38.8281C63.0215 38.8342 62.9959 38.8437 62.9698 38.8565C61.5064 39.3954 60.0319 39.9074 58.5473 40.3916ZM90.0267 44.3625C89.9912 44.3917 89.9642 44.428 89.9457 44.4691C89.7497 44.7301 89.5482 44.9871 89.3377 45.2372C89.1359 45.477 88.9247 45.7914 88.6447 45.9531C88.2476 46.1823 87.7884 46.0278 87.3688 45.9464C86.5027 45.7783 85.6377 45.6048 84.7739 45.4258C81.0998 44.6642 77.4484 43.804 73.8254 42.8462C70.1804 41.8825 66.5656 40.8177 62.9839 39.6594C63.0316 39.6315 63.079 39.6032 63.1266 39.575C66.785 38.2323 70.3689 36.6959 73.8692 35.0093C76.2567 36.1445 78.7324 37.1131 81.2717 37.8961C83.7906 38.6729 86.3708 39.2687 88.9833 39.6806C90.1022 39.857 91.2271 39.9982 92.3553 40.1088C92.2011 40.5162 92.0315 40.9183 91.8458 41.3135C91.3448 42.3801 90.7345 43.405 90.0267 44.3625ZM100.186 43.9232C97.125 44.3631 94.0225 44.4973 90.932 44.3333C91.3649 43.7098 91.7579 43.0612 92.1079 42.3977C92.6244 41.4184 93.0524 40.3968 93.384 39.3478C96.0175 39.7768 98.7171 39.656 101.294 38.9805C101.433 39.1889 101.568 39.4001 101.698 39.6142C101.705 39.7185 101.708 39.8241 101.706 39.9312C101.688 40.8152 101.367 41.6639 100.88 42.4102C100.57 42.8855 100.04 43.3556 100.186 43.9232ZM104.226 31.4916C104.173 33.6354 104.134 35.7815 104.052 37.9245C103.98 39.792 103.307 41.584 102.126 43.077C101.943 43.308 101.438 44.134 101.054 43.9484C100.602 43.7296 101.221 43.175 101.378 42.952C101.844 42.2907 102.198 41.537 102.345 40.7513C102.649 39.1243 102.055 37.6569 101.031 36.3693C98.75 33.5004 95.809 31.3675 92.346 29.942C90.6027 29.2244 88.7995 28.6737 86.9872 28.1388C84.7994 27.493 82.6092 26.8547 80.4166 26.2239C77.5377 25.3957 74.6543 24.5817 71.7673 23.7793C71.8645 23.2761 71.9617 22.773 72.0588 22.2698C72.2043 21.5168 72.3497 20.7638 72.4951 20.0109C72.6551 19.1826 72.815 18.3543 72.975 17.526C73.1364 16.6899 73.2979 15.8538 73.4593 15.0176C73.6093 14.2412 73.7593 13.4648 73.9092 12.6883C74.0365 12.0294 74.1637 11.3704 74.291 10.7114C74.3821 10.2394 74.4733 9.76739 74.5644 9.29532C74.5839 9.19437 74.6038 9.09351 74.6235 8.99256C76.8838 9.90698 79.109 10.9028 81.2892 11.9981C87.1578 14.9466 92.9094 18.1928 97.7651 22.5362C99.2446 23.8595 100.648 25.2598 101.967 26.7281C102.358 27.1633 102.771 27.5995 103.129 28.0676L103.129 28.0677C103.147 28.1013 103.169 28.1276 103.192 28.1509C103.337 28.3459 103.473 28.5461 103.591 28.7551C104.074 29.607 104.25 30.5321 104.226 31.4916Z" fill="#AC3F26"/>
</g>
<defs>
<filter id="filter0_d_872_1758" x="0" y="0" width="114.964" height="57.7407" filterUnits="userSpaceOnUse" color-interpolation-filters="sRGB">
<feFlood flood-opacity="0" result="BackgroundImageFix"/>
<feColorMatrix in="SourceAlpha" type="matrix" values="0 0 0 0 0 0 0 0 0 0 0 0 0 0 0 0 0 0 127 0" result="hardAlpha"/>
<feOffset dx="6" dy="7"/>
<feGaussianBlur stdDeviation="2"/>
<feComposite in2="hardAlpha" operator="out"/>
<feColorMatrix type="matrix" values="0 0 0 0 0 0 0 0 0 0 0 0 0 0 0 0 0 0 0.45 0"/>
<feBlend mode="normal" in2="BackgroundImageFix" result="effect1_dropShadow_872_1758"/>
<feBlend mode="normal" in="SourceGraphic" in2="effect1_dropShadow_872_1758" result="shape"/>
</filter>
</defs>
</svg>
