<svg width="397" height="161" viewBox="0 0 397 161" fill="none" xmlns="http://www.w3.org/2000/svg">
<path d="M170.514 160.841L171.856 97.1038L169.356 97.1197L166.854 97.1716L165.515 160.736L170.514 160.841Z" fill="white"/>
<path d="M396.787 98.172L0.0151607 96.3518L0.0391478 97.8515L0.000210513 99.3523L396.771 101.172L396.787 98.172Z" fill="white"/>
<path d="M189.231 1.40778C190.395 0.378558 191.958 0.0208086 193.438 0.00246888C195.389 -0.0481488 197.29 0.69938 199.246 0.42893C201.016 0.192958 202.519 1.71956 203.124 3.36793C203.765 5.12855 203.403 7.16426 202.431 8.7048C202.719 13.4159 202.321 18.253 200.629 22.6545C200.033 24.1239 199.525 25.7104 198.499 26.9115C197.585 27.9019 196.209 27.5236 195.06 27.4549C195.746 28.1425 196.598 28.6171 197.234 29.3644C198.196 30.4213 198.809 31.7899 199.147 33.2067C199.583 34.8228 199.389 36.5237 199.63 38.1699C200.026 41.7692 200.704 45.3293 201.564 48.83C202.313 50.9757 202.861 53.1902 203.326 55.4208C203.362 55.9871 203.876 56.2047 204.28 56.4363C207.356 58.0891 210.043 60.416 212.97 62.3302C216.355 64.6457 219.982 66.5393 223.733 68.0796C225.097 67.4377 226.505 66.9058 227.826 66.1608C228.994 65.4387 230.248 66.3649 231.354 66.7934C231.917 63.0291 231.895 59.2076 232.121 55.4134C232.429 51.3696 233.58 47.218 236.217 44.1849C238.299 41.6195 241.415 39.9804 244.62 40.0264C247.543 40.0447 250.309 41.3972 252.636 43.2038C255.041 45.0767 257.265 47.4449 258.291 50.4915C259.538 53.9646 258.833 58.0544 256.731 60.9819C254.847 63.6044 252.184 65.5599 249.244 66.5845C245.039 68.1847 240.503 68.1732 236.219 69.4225C235.38 69.6793 234.44 69.8101 233.823 70.5322C234.076 71.181 234.492 71.8549 234.32 72.5909C233.935 73.2993 233.126 73.5399 232.47 73.8747C232.319 74.9338 231.792 76.0043 230.779 76.3528C230.392 77.3042 229.374 77.4898 228.727 78.1593C228.028 78.847 227.026 78.8516 226.133 78.8585C225.785 79.2367 225.488 79.6974 225.03 79.9359C224.649 80.0322 224.333 79.7248 224.012 79.5622C223.565 80.14 223.182 80.8849 222.475 81.1304C221.939 81.0915 221.44 80.5389 221.552 79.9498C221.713 79.2759 222.089 78.6958 222.386 78.086C222.193 77.9187 222.001 77.7537 221.81 77.5908C221.836 77.4397 221.885 77.137 221.911 76.9856C221.318 76.7724 220.722 76.5638 220.137 76.3347C219.915 76.5088 219.694 76.6831 219.461 76.8367C218.973 76.8183 218.534 76.5547 218.083 76.3897C216.857 75.8395 215.534 75.6194 214.237 75.3536C214.25 75.0144 214.151 74.6887 214.173 74.3542C207.916 72.8709 201.564 71.6605 195.559 69.2076C194.466 68.7124 193.2 68.5197 192.333 67.5869C192.15 69.1939 191.84 70.7802 191.507 72.3552C191.961 73.27 192.393 74.196 192.78 75.1475C193.733 75.8077 194.873 76.0437 195.875 76.5917C195.953 76.8416 196.028 77.0937 196.101 77.348C197.916 78.5951 199.646 79.973 201.364 81.3644C204.438 83.8219 207.438 86.3848 210.312 89.1038C210.293 89.248 210.252 89.5393 210.232 89.6838C213.433 92.7121 215.984 96.4763 219.47 99.1654C220.793 100.16 221.133 101.96 221.41 103.551C221.684 104.92 221.565 106.36 222.021 107.689C224.491 115.692 226.205 123.924 228.259 132.053C228.992 134.811 229.694 137.578 230.487 140.318C230.948 140.07 231.393 139.708 231.933 139.701C232.83 140.657 233.176 142.03 233.755 143.208C233.858 143.472 233.968 143.736 234.084 143.997C234.576 144.552 235.256 144.836 235.895 145.15C237.957 146.129 239.928 147.314 241.982 148.312C243.184 148.919 244.419 149.485 245.531 150.274C246.776 151.115 247.137 153.004 246.555 154.396C246.232 155.131 245.447 155.411 244.75 155.551C243.599 155.753 242.429 155.764 241.268 155.808C239.519 155.675 237.764 155.652 236.013 155.553C234.338 155.462 232.727 154.93 231.075 154.678C230.169 154.506 229.296 154.877 228.429 155.086C226.973 155.453 225.457 155.297 223.999 155.033C222.712 154.838 221.407 154.471 220.389 153.564C219.819 152.704 219.897 151.581 220.215 150.636C220.426 150.077 220.878 149.604 220.865 148.967C220.959 147.278 221.181 145.588 221.615 143.958C221.686 143.809 221.83 143.516 221.901 143.369C222.054 143.186 222.216 143.014 222.377 142.844C221.48 139.112 220.25 135.472 218.705 131.992C217.619 129.711 216.565 127.395 215.133 125.334C214.098 123.764 212.879 122.278 212.278 120.44C211.087 116.559 210.444 112.512 209.93 108.475C206.383 106.332 202.658 104.542 198.863 102.962C197.956 103.734 196.979 104.404 195.992 105.055C190.666 101.281 185.238 97.6388 179.527 94.5553C177.183 97.6983 174.896 100.97 173.453 104.709C172.565 107.038 171.902 109.459 171.296 111.886C170.562 111.905 169.829 111.873 169.097 111.813C167.009 115.857 164.748 119.795 162.421 123.688C161.335 125.412 159.399 126.141 157.678 126.902C156.209 127.579 154.555 127.636 153.136 128.443C151.032 129.591 148.922 130.722 146.845 131.92C143.814 133.661 140.672 135.242 137.959 137.535C136.643 138.576 135.471 139.804 134.342 141.068C134.909 141.68 134.776 142.546 134.286 143.163C134.088 143.399 133.885 143.635 133.679 143.869C133.137 144.387 132.418 144.827 132.32 145.676C132.021 147.104 131.195 148.472 131.406 149.976C131.975 150.673 132.728 151.214 133.126 152.062C133.556 152.853 133.481 153.802 133.395 154.678C132.98 156.196 131.455 156.677 130.145 156.844C128.405 156.865 126.579 157.012 124.955 156.205C123.417 155.581 122.15 154.274 121.526 152.649C120.821 150.948 120.913 149.02 121.242 147.234C121.43 146.145 121.765 145.066 121.701 143.947C121.668 143.747 121.602 143.351 121.569 143.153C120.961 140.751 121.042 138.14 121.97 135.843C122.464 134.614 123.505 133.557 124.789 133.406C125.583 133.273 126.428 133.809 127.162 133.301C128.007 132.812 128.967 132.583 129.921 132.785C130.498 132.948 130.883 132.372 131.285 132.042C135.077 128.512 138.549 124.61 141.9 120.612C144.659 117.597 148.755 117.077 152.291 115.66C153.192 113.111 153.747 110.447 154.396 107.817C154.319 107.691 154.162 107.442 154.085 107.315C154.945 104.234 155.62 101.096 156.177 97.9369C156.556 95.4679 157.012 92.9967 157.051 90.4863C157.051 89.8696 157.24 89.2852 157.341 88.6868C157.274 87.6804 157.061 86.6878 157.074 85.6745C157.035 83.9232 157.386 82.1968 157.924 80.5509C157.844 80.4501 157.685 80.2484 157.608 80.1474C158.298 76.9678 159.268 73.8432 160.623 70.9088C161.008 70.0537 161.72 69.4438 162.172 68.6369C164.766 62.2982 165.714 55.4139 167.267 48.7451C168.433 43.6902 169.414 38.4428 172.001 33.9471C174.599 29.3485 178.832 26.1549 183.147 23.5737C184.753 22.7139 185.61 20.9076 186.362 19.2592C186.791 18.4109 186.221 17.5216 186.102 16.6686C185.814 15.0296 185.164 13.4866 184.979 11.827C184.753 9.98834 184.743 8.08565 185.188 6.28151C185.519 4.90603 186.567 3.87435 187.711 3.23026C188.459 2.88181 188.612 1.912 189.232 1.40778H189.231ZM195.815 9.12661C194.809 9.2435 193.827 8.93637 192.834 8.86521C192.662 9.74332 192.595 10.6557 192.26 11.4856C191.926 12.3131 191.066 12.7579 190.808 13.6335C190.56 14.3992 190.427 15.1971 190.21 15.9695C189.919 15.9764 189.629 15.981 189.341 15.9857C189.134 14.9518 189.268 13.7551 188.556 12.9183C188.196 12.4415 187.399 12.2786 187.063 12.8701C186.347 13.9913 186.515 15.4881 186.945 16.6963C187.168 17.4184 187.799 17.8265 188.296 18.317C188.392 18.9132 187.715 18.7594 187.371 18.7481C186.76 20.5364 185.827 22.1867 184.59 23.5624C185.347 25.5913 186.433 27.4803 187.698 29.1949C189.035 30.9578 190.819 32.3357 192.832 33.0783C193.189 31.0519 193.189 28.8396 194.434 27.1387C192.787 26.522 191.356 25.3849 190.107 24.1058C189.39 23.3607 188.793 22.4645 188.446 21.4602C188.173 21.0614 188.713 20.596 189.05 20.8665C190.111 23.6404 192.569 25.5546 195.157 26.5288C196.174 26.9049 197.577 27.0401 198.271 25.9718C199.487 24.0209 200.145 21.7514 200.822 19.546C201.661 16.3092 201.876 12.8934 201.646 9.55087C201.689 8.41136 200.411 7.67802 199.478 8.09959C198.297 8.58571 197.097 9.07844 195.815 9.12661ZM179.06 27.2668C175.691 29.7818 172.831 33.1722 171.213 37.2346C169.462 41.6704 168.548 46.3998 167.509 51.0628C166.305 56.5945 165.365 62.2226 163.418 67.5318C164.468 66.7936 165.404 65.8881 166.438 65.1247C170.471 62.0184 174.792 59.3707 178.873 56.34C179.372 56.2964 179.477 57.0484 179.01 57.2227C173.556 61.1704 167.751 64.6227 162.763 69.2604C161.416 70.4892 160.835 72.33 160.169 74.0173C159.433 75.8811 158.917 77.8297 158.429 79.7781C163.472 81.6053 168.708 83.116 174.072 83.1182C179.163 83.1412 184.282 81.6075 188.489 78.5171C189.75 77.5336 191.092 76.4469 191.769 74.9088C191.552 73.9894 190.993 73.2284 190.582 72.4056C191.26 70.6472 191.333 68.7215 191.713 66.8829C188.762 63.1462 186.147 59.1251 183.512 55.1317C182.953 55.2511 182.409 55.5169 181.837 55.5169C181.082 54.5586 180.533 53.4376 179.853 52.4199C178.376 49.7951 176.625 47.3581 174.741 45.0542C174.941 44.9052 175.13 44.7448 175.311 44.5705C176.982 46.5443 178.507 48.658 179.836 50.9092C180.656 52.1653 181.34 53.5203 182.239 54.717C186.033 53.3393 189.883 52.145 193.671 50.7488C192.877 49.0615 192.161 47.3329 191.401 45.6298C191.26 45.2583 190.9 45.0955 190.619 44.8757C190.84 44.0227 190.356 43.2618 190.055 42.512C189.281 40.8042 188.558 39.0549 187.543 37.4916C187.732 37.3564 187.934 36.8702 188.203 37.1363C188.728 37.7713 189.055 38.5575 189.425 39.3004C191.199 43.1334 192.832 47.0375 194.587 50.8796C194.505 51.0608 194.425 51.2442 194.348 51.4298C194.617 51.8699 194.937 52.2734 195.232 52.6974C195.595 51.2691 196.191 49.9281 196.626 48.5253C197.882 44.6099 198.363 40.4741 198.664 36.366C198.837 34.4242 198.342 32.4482 197.365 30.8069C196.707 29.7087 195.681 28.9614 194.709 28.2119C193.95 30.0092 193.758 31.9968 193.436 33.9178C192.236 33.8718 191.141 33.2346 190.123 32.611C187.226 30.5707 185.277 27.3497 183.901 24.019C182.221 24.9817 180.614 26.0867 179.059 27.2673L179.06 27.2668ZM199.127 40.0335C198.686 43.2268 198.114 46.4157 197.118 49.4692C198.282 48.974 199.439 48.4492 200.54 47.8095C199.977 45.2376 199.473 42.6514 199.127 40.0335ZM242.274 41.1752C240.086 41.6772 238.228 43.1559 236.716 44.8546C233.836 48.3553 232.816 53.1535 232.814 57.7061C232.862 60.8559 232.382 63.9715 232.126 67.0983C232.397 67.2611 232.668 67.4238 232.941 67.5888C233.391 65.6952 233.636 63.7536 233.715 61.8028C233.701 61.3626 233.95 61.03 234.303 60.8398C235.671 62.6738 237.277 64.3542 239.245 65.4409C239.587 65.6174 240.254 66.1011 239.772 66.5136C239 66.9034 238.116 66.9286 237.299 67.1714C236.047 67.4396 234.864 67.9532 233.67 68.4185C233.896 68.6799 234.062 69.2438 234.49 69.0856C235.686 68.7579 236.871 68.384 238.082 68.1092C241.908 67.1807 245.958 67.2152 249.602 65.5142C252.996 64.1661 256.076 61.5115 257.45 57.8666C258.476 55.2623 258.255 52.2133 257.102 49.6985C255.506 46.4661 252.759 44.0797 249.804 42.3352C247.528 41.0101 244.805 40.5908 242.274 41.1752ZM196.763 50.4827C196.359 51.5073 196.054 52.5735 195.583 53.5684C196.48 55.4596 197.342 57.3694 198.176 59.2951C198.338 59.7856 198.867 59.8362 199.261 60.0057C201.401 60.7163 203.405 61.8008 205.418 62.8391C208.847 64.6799 212.267 66.5459 215.783 68.1896C216.033 67.9605 216.302 67.6509 216.674 67.7976C217.781 68.2654 218.848 68.8499 219.98 69.2602C220.586 69.4825 221.375 69.3497 221.763 70.0168C223.959 69.1663 226.241 68.6114 228.521 68.082C229.652 67.7725 230.637 68.6552 231.697 68.9257C232.003 68.7513 232.313 68.5794 232.62 68.4053C231.463 67.4793 230.007 67.1719 228.71 66.5393C227.144 67.5066 225.449 68.1967 223.761 68.8638C221.608 68.137 219.554 67.0438 217.512 66.0006C214.043 64.1598 210.823 61.8468 207.655 59.4853C206.199 58.3965 204.616 57.5252 203.059 56.6197C202.723 56.4776 202.71 56.058 202.622 55.7462C202.136 53.3369 201.484 50.9686 200.706 48.6488C199.422 49.3342 198.153 50.0656 196.763 50.4827H196.763ZM193.548 51.6198C192.208 52.3099 190.737 52.6194 189.349 53.1696C187.682 53.7267 186.022 54.2998 184.351 54.8407C184.989 56.0903 185.845 57.1951 186.596 58.3713C188.33 61.0672 190.186 63.6736 192.171 66.1634C192.651 66.7251 193.098 67.3785 193.788 67.6627C197.045 69.0083 200.368 70.1842 203.762 71.0807C207.446 72.0297 211.17 72.7978 214.865 73.7033C215.568 72.3185 216.085 70.7506 216.061 69.1641C214.099 68.2151 212.097 67.3462 210.189 66.2664C206.429 64.3522 202.803 62.0896 198.834 60.675C198.342 60.4732 197.714 60.3495 197.538 59.7374C196.299 56.9794 195.168 54.1553 193.548 51.6198ZM233.737 67.5247C235.283 66.8462 236.886 66.2776 238.548 66.0414C237.056 65.0787 235.664 63.9277 234.528 62.5134C234.427 64.2097 234.096 65.8717 233.737 67.5247ZM216.926 68.9049C216.936 70.9269 216.28 72.8753 215.373 74.6269C216.719 74.9937 218.02 75.5461 219.388 75.8211C220.363 74.2051 220.887 72.3205 220.922 70.4019C219.532 70.0855 218.233 69.4803 216.926 68.9049ZM221.75 70.8763C221.64 72.5293 221.187 74.1249 220.513 75.6126C222.449 76.6741 224.675 76.4516 226.774 76.4997C227.351 76.9377 226.712 77.6595 226.521 78.1481C227.168 77.9716 227.979 77.9625 228.452 77.3893C228.566 76.633 228.502 75.8625 228.394 75.1106C228.181 74.7506 228.534 74.0055 228.93 74.4457C229.263 75.1793 229.186 76.0412 229.315 76.832C229.633 76.5501 230.091 76.307 230.102 75.7982C230.123 74.8491 229.801 73.9505 229.558 73.0519C229.353 72.7125 229.532 72.0982 229.988 72.3525C230.62 73.2352 230.676 74.4065 230.923 75.4541C231.328 74.9841 231.773 74.4109 231.683 73.728C231.482 72.7995 230.811 72.1141 230.362 71.3208C230.196 71.0893 229.973 70.3945 230.461 70.4405C231.392 70.9792 231.883 72.0752 232.412 73.0127C232.872 72.8156 233.341 72.5978 233.67 72.183C233.21 71.1995 232.575 70.2182 231.56 69.8378C230.562 69.4573 229.59 68.6298 228.475 68.9369C226.193 69.3976 223.926 69.9984 221.75 70.8763H221.75ZM232.627 69.281C232.582 69.7258 233.126 69.8862 233.384 70.1407C233.862 69.6067 233.141 68.889 232.627 69.281ZM192.16 76.0368C190.913 77.9464 189.037 79.2118 187.211 80.4107C183.542 82.6071 179.363 83.8266 175.154 83.9251C173.209 83.9229 171.248 83.9916 169.327 83.6065C166.95 83.2145 164.586 82.7125 162.285 81.9696C161.082 81.596 159.906 81.1238 158.671 80.8854C157.876 83.2969 157.729 85.9241 158.181 88.432C158.396 89.0923 157.826 89.6288 157.818 90.2707C157.852 92.8037 157.383 95.3026 157.024 97.7946C156.443 100.873 155.901 103.975 155.007 106.971C156.334 107.659 157.745 108.147 159.125 108.697C162.857 109.876 166.692 111.017 170.618 110.91L170.721 110.827C171.512 107.897 172.321 104.942 173.668 102.237C174.685 100.052 176.036 98.0695 177.386 96.1071C178.32 94.8806 179.154 93.5647 180.206 92.446C181.512 90.9925 182.912 89.6378 184.377 88.3677C184.637 88.1293 184.96 88.0031 185.289 87.9161C185.342 88.143 185.388 88.3746 185.424 88.6108C185.117 89.0441 184.644 89.294 184.252 89.631C182.695 90.8277 181.478 92.4233 180.14 93.8743C185.461 96.8292 190.578 100.176 195.572 103.721C196.579 99.89 199.052 96.7309 201.732 94.067C203.937 92.0244 206.462 90.4105 209.099 89.0901C207.757 88.0195 206.58 86.7426 205.238 85.672C203.657 84.3883 202.139 83.0174 200.528 81.7747C198.954 80.5665 197.459 79.2392 195.796 78.1664C195.42 77.9737 195.342 77.5084 195.179 77.1463C194.325 76.9032 193.454 76.6579 192.71 76.1307C192.546 76.0664 192.297 75.7754 192.161 76.0368H192.16ZM222.617 77.1944C223.333 77.9119 224.159 78.5034 224.963 79.1064C225.383 78.4921 225.813 77.8845 226.166 77.2243C224.981 77.3091 223.8 77.1807 222.617 77.1944ZM222.322 80.1701C222.909 80.0486 223.236 79.3517 223.367 78.7809C222.628 78.6983 222.445 79.5788 222.322 80.1701ZM206.016 91.7814C202.659 94.044 199.656 97.0107 197.635 100.683C197.516 100.942 197.297 101.187 197.329 101.495C201.592 103.157 205.797 105.075 209.748 107.476C210.129 107.771 210.776 107.973 210.753 108.585C211.133 112.317 211.876 115.999 212.839 119.605C213.398 121.859 214.973 123.557 216.166 125.439C217.577 127.546 218.545 129.93 219.647 132.223C219.746 132.578 220.111 132.369 220.339 132.331C222.581 131.677 224.819 130.994 226.962 130.027C225.587 124.431 224.329 118.798 222.838 113.237C222.271 111.073 221.552 108.954 221.017 106.783C220.827 104.874 220.722 102.902 220.008 101.112C219.601 100.075 218.636 99.5092 217.861 98.826C214.784 96.1643 212.43 92.6915 209.376 90.0068C208.217 90.5088 207.086 91.0867 206.017 91.7811L206.016 91.7814ZM153.112 115.575C152.976 115.868 152.886 116.267 152.554 116.382C149.993 117.45 147.24 117.982 144.777 119.318C143.162 120.19 141.946 121.652 140.796 123.099C139.148 125.091 137.361 126.943 135.619 128.839C135.253 129.272 134.73 129.603 134.5 130.141C134.791 132.663 136.432 134.77 138.378 136.122C142.347 133.33 146.646 131.139 150.847 128.784C152.187 128.092 153.464 127.182 154.955 126.916C156.495 126.588 157.964 125.969 159.375 125.254C160.201 124.809 161.066 124.332 161.618 123.514C163.969 119.685 166.195 115.768 168.228 111.735C163.733 111.217 159.366 109.832 155.151 108.129C154.434 110.6 153.981 113.154 153.112 115.575H153.112ZM128.734 135.24C128.29 135.65 127.63 136.198 127.908 136.911C128.273 137.72 128.869 138.378 129.338 139.121C129.953 138.983 130.671 138.609 131.235 139.089C131.981 139.673 132.659 140.359 133.476 140.842C134.833 139.357 136.229 137.906 137.763 136.622C135.812 135.279 134.298 133.188 133.758 130.763C132.169 132.36 130.465 133.823 128.734 135.24ZM220.083 133.204C221.331 136.365 222.385 139.614 223.178 142.936C224.009 143.467 224.671 144.407 225.689 144.526C226.94 144.419 227.955 143.499 229.151 143.158C229.175 142.339 229.455 141.578 229.943 140.95C228.874 137.624 228.014 134.226 227.171 130.831C224.863 131.799 222.499 132.61 220.083 133.204H220.083ZM127.49 134.135C126.716 134.511 125.8 134.673 125.226 135.403C123.922 136.854 123.877 139.027 123.823 140.918C123.894 142.103 123.556 143.256 123.049 144.295C122.221 145.921 121.821 147.782 121.825 149.627C121.801 151.214 122.369 152.78 123.292 154.008C124.606 155.487 126.604 156.037 128.465 156.003C129.725 156.028 131.095 155.989 132.16 155.173C132.641 154.806 132.641 154.102 132.652 153.536C132.676 152.427 131.923 151.503 131.069 150.978C130.598 150.822 130.097 150.817 129.613 150.732C129.615 150.599 129.617 150.331 129.619 150.198C129.929 150.077 130.241 149.969 130.553 149.861C130.469 148.234 131.317 146.824 131.624 145.279C131.736 143.818 133.547 143.422 133.827 142.088C133.478 141.688 132.973 141.508 132.545 141.228C131.766 140.804 131.186 140.084 130.446 139.6C129.957 139.747 129.45 140.148 128.94 139.997C128.484 139.389 128.138 138.699 127.669 138.105C127.243 137.555 126.884 136.844 127.084 136.115C127.425 134.882 128.697 134.408 129.37 133.438C128.718 133.591 128.097 133.843 127.49 134.135H127.49ZM122.621 136.285C121.778 138.596 121.7 141.232 122.548 143.55C123.24 141.681 122.845 139.625 123.324 137.711C123.584 136.356 124.169 135.036 125.275 134.245C124.081 134.194 123.029 135.134 122.621 136.285H122.621ZM230.181 142.007C229.906 142.569 229.925 143.236 229.67 143.8C228.487 144.293 227.359 144.994 226.118 145.299C224.794 145.581 223.89 144.327 222.823 143.758C222.46 143.802 222.432 144.3 222.324 144.595C222.004 146.103 221.707 147.633 221.638 149.182C221.513 149.895 222.208 150.264 222.707 150.519C224.192 151.262 225.86 150.7 227.416 151.025C229.397 151.488 231.18 152.784 233.24 152.882C234.494 152.983 235.658 152.204 236.91 152.422C238.903 152.75 240.861 153.421 242.898 153.368C244.108 153.426 244.719 152.098 245.767 151.683C244.874 150.608 243.532 150.198 242.409 149.474C239.495 148.011 236.611 146.47 233.726 144.95C232.913 143.598 232.386 142.057 231.685 140.634C231.13 141.007 230.474 141.34 230.182 142.007L230.181 142.007ZM220.761 152.617C221.019 153.256 221.705 153.495 222.268 153.733C223.789 154.263 225.405 154.508 227.005 154.435C228.558 154.382 230.048 153.442 231.612 153.93C235.169 154.806 238.832 154.939 242.467 154.914C243.472 154.877 244.519 154.868 245.463 154.462C246.098 154.146 246.02 153.277 246.059 152.658C245.083 152.752 244.642 153.967 243.663 154.091C241.373 154.444 239.125 153.579 236.873 153.282C235.565 153.108 234.333 153.878 233.025 153.694C231.356 153.55 229.812 152.823 228.276 152.172C226.77 151.48 225.099 151.906 223.527 151.663C222.632 151.528 221.879 150.962 221.15 150.439C220.847 151.109 220.632 151.865 220.761 152.617V152.617Z" fill="#1F1B1C"/>
<path d="M180.449 42.9794C180.591 42.5597 180.991 42.8488 181.221 42.9886C184.127 44.7906 187.121 46.4228 190.096 48.0893C189.947 48.3255 189.79 48.5546 189.625 48.7794C186.919 47.108 184.061 45.7235 181.372 44.0132C181.047 43.7291 180.127 43.5799 180.449 42.9794Z" fill="#1F1B1C"/>
<path d="M244.167 46.0148C244.02 45.2812 244.814 45.178 245.298 45.2927C245.38 45.6962 245.42 46.1112 245.309 46.5168C244.9 46.5765 244.147 46.6682 244.167 46.0148Z" fill="#1F1B1C"/>
<path d="M240.942 45.7395C241.351 45.7395 242.05 45.6273 242.067 46.2599C242.23 46.9018 241.381 47.5231 240.955 46.9406C240.529 46.6565 240.841 46.12 240.942 45.7393V45.7395Z" fill="#1F1B1C"/>
<path d="M246.431 46.8122C246.892 46.5327 247.595 47.0186 247.453 47.5986C247.451 48.2747 246.345 48.3667 246.201 47.7316C246.012 47.4083 246.148 47.0071 246.431 46.8122Z" fill="#1F1B1C"/>
<path d="M242.7 47.6607C242.975 47.1611 243.543 47.2597 243.977 47.4108C243.947 47.773 244.173 48.3576 243.754 48.541C243.201 48.924 242.502 48.3119 242.7 47.6607Z" fill="#1F1B1C"/>
<path d="M239.439 47.8348C239.781 47.828 240.17 47.6744 240.471 47.938C240.667 48.2613 240.529 48.6533 240.51 49.0064C240.17 49.0819 239.802 49.192 239.488 48.9765C239.241 48.6281 239.353 48.2131 239.439 47.8348H239.439Z" fill="#1F1B1C"/>
<path d="M248.322 48.3208C248.657 48.2291 249.129 48.1765 249.326 48.566C249.483 48.9879 249.337 49.4899 248.939 49.6801C248.55 49.7992 248.296 49.4324 248.025 49.2192C248.079 48.9052 248.019 48.5108 248.322 48.3205L248.322 48.3208Z" fill="#1F1B1C"/>
<path d="M245.053 48.7745C245.511 48.5957 246.044 48.9006 246.001 49.4623C246.102 50.1798 245.132 50.4458 244.799 49.8956C244.478 49.554 244.666 48.9439 245.053 48.7745Z" fill="#1F1B1C"/>
<path d="M241.299 49.7124C241.426 49.059 242.444 49.0796 242.551 49.7078C242.669 50.0609 242.398 50.3543 242.271 50.6524C241.755 50.7348 241.075 50.359 241.299 49.7124H241.299Z" fill="#1F1B1C"/>
<path d="M237.921 49.882C238.282 49.8086 238.684 49.6595 239.022 49.9209C239.4 50.3884 239.015 51.278 238.398 51.0878C237.805 51.0809 237.878 50.3153 237.921 49.882Z" fill="#1F1B1C"/>
<path d="M250.21 49.9303C250.542 49.9051 250.92 49.7102 251.208 49.999C251.484 50.2946 251.327 50.7326 251.329 51.0947C250.952 51.1864 250.572 51.1727 250.198 51.0925C250.148 50.7052 250.155 50.3132 250.21 49.9303Z" fill="#1F1B1C"/>
<path d="M246.747 50.3405C247.175 50.3061 247.885 50.1755 247.947 50.8264C248.143 51.404 247.384 51.9796 246.934 51.5945C246.511 51.3424 246.704 50.744 246.747 50.3405Z" fill="#1F1B1C"/>
<path d="M243.293 51.968C243.283 51.5623 243.162 50.7964 243.743 50.8011C244.433 50.5788 244.84 51.7019 244.248 52.0712C243.954 52.3553 243.592 52.078 243.293 51.968Z" fill="#1F1B1C"/>
<path d="M240.135 51.2941C240.856 50.9136 241.499 52.037 240.826 52.5114C240.105 53.1601 239.398 51.7457 240.135 51.2941Z" fill="#1F1B1C"/>
<path d="M252.142 51.4937C252.587 51.2416 253.166 51.2164 253.413 51.7781C253.607 52.4405 252.882 52.8119 252.368 52.7249C252.174 52.3419 252.129 51.9179 252.142 51.4939L252.142 51.4937Z" fill="#1F1B1C"/>
<path d="M236.705 51.7483C237.043 51.6656 237.535 51.6084 237.697 52.0349C237.991 52.5919 237.273 53.4057 236.769 52.9795C236.298 52.7641 236.344 52.0557 236.705 51.7483Z" fill="#1F1B1C"/>
<path d="M248.681 51.9729C249.034 51.8514 249.488 51.5694 249.782 51.9729C250.451 52.4635 249.593 53.5523 248.969 53.1122C248.563 52.8875 248.743 52.3578 248.681 51.9729Z" fill="#1F1B1C"/>
<path d="M245.227 53.371C245.253 52.9765 245.218 52.4195 245.704 52.3439C246.268 52.1055 246.784 52.9171 246.38 53.3893C246.109 53.8363 245.552 53.6187 245.227 53.371Z" fill="#1F1B1C"/>
<path d="M241.848 52.924C242.241 52.892 242.865 52.6443 243.074 53.1625C243.33 53.7425 242.573 54.4049 242.078 54.0565C241.674 53.8342 241.854 53.3023 241.848 52.924H241.848Z" fill="#1F1B1C"/>
<path d="M238.51 53.4788C238.88 52.8851 239.906 53.3321 239.693 54.0451C239.697 54.6413 238.981 54.568 238.598 54.5472C238.493 54.2171 238.23 53.7928 238.51 53.4788Z" fill="#1F1B1C"/>
<path d="M250.907 53.3826C251.247 53.3114 251.707 53.2654 251.905 53.6508C252.045 54.0521 251.985 54.7008 251.483 54.7282C250.782 54.9368 250.303 53.8205 250.907 53.3826Z" fill="#1F1B1C"/>
<path d="M247.307 54.1415C247.539 53.5043 248.657 53.7725 248.541 54.4968C248.591 55.0539 248.02 55.1823 247.633 55.2556C247.435 54.9279 247.008 54.5519 247.307 54.1415Z" fill="#1F1B1C"/>
<path d="M244.091 54.4051C244.545 54.0109 245.315 54.5816 245.087 55.1868C245.018 55.7898 244.384 55.6385 243.986 55.6407C243.887 55.2441 243.668 54.6802 244.091 54.4051Z" fill="#1F1B1C"/>
<path d="M240.641 54.8545C240.949 54.5794 241.328 54.8844 241.654 54.9553C241.887 55.7828 241.278 56.3904 240.521 56.0992C240.411 55.6911 240.259 55.1641 240.641 54.8545Z" fill="#1F1B1C"/>
<path d="M252.798 54.9438C253.157 54.891 253.525 54.8773 253.884 54.9575C253.94 55.3495 253.955 55.7483 253.923 56.1449C253.536 56.2298 253.142 56.2481 252.759 56.1518C252.665 55.7483 252.703 55.3402 252.798 54.9435V54.9438Z" fill="#1F1B1C"/>
<path d="M237.054 55.4366C237.346 55.3244 237.759 54.9943 238.039 55.3176C238.529 55.7095 238.235 56.7891 237.551 56.5739C236.981 56.5761 237.082 55.8472 237.054 55.4369V55.4366Z" fill="#1F1B1C"/>
<path d="M249.335 55.3791C249.697 55.3884 250.219 55.2277 250.43 55.6679C250.439 55.9637 250.443 56.2594 250.441 56.5575C250.14 56.6215 249.811 56.8944 249.522 56.6516C249.081 56.3995 249.275 55.785 249.335 55.3791H249.335Z" fill="#1F1B1C"/>
<path d="M245.9 55.8722C246.317 55.8377 246.997 55.6956 247.072 56.3307C247.313 56.9427 246.487 57.5364 246.027 57.1239C245.633 56.8305 245.838 56.2734 245.9 55.8722Z" fill="#1F1B1C"/>
<path d="M242.702 56.3376C243.523 55.8745 244.085 57.2729 243.295 57.6512C242.547 58.0547 241.962 56.7183 242.702 56.3376Z" fill="#1F1B1C"/>
<path d="M239.318 56.865C239.57 56.7297 240.034 56.6906 240.148 57.053C240.553 57.569 239.886 58.4468 239.341 58.0847C238.873 57.9243 238.849 57.0369 239.318 56.865H239.318Z" fill="#1F1B1C"/>
<path d="M251.269 57.2706C251.422 56.7661 252.043 56.8876 252.415 56.9749C252.527 57.4266 252.527 58.19 251.933 58.2174C251.432 58.3803 251.034 57.7269 251.269 57.2706Z" fill="#1F1B1C"/>
<path d="M247.821 57.461C248.198 57.3877 248.585 57.351 248.97 57.4266C249.032 57.8276 249.004 58.2357 248.935 58.6392C248.612 58.6392 248.219 58.8319 247.965 58.5291C247.705 58.245 247.838 57.8095 247.821 57.461Z" fill="#1F1B1C"/>
<path d="M244.39 57.9173C244.76 57.8073 245.147 57.8005 245.528 57.8853C245.745 58.3942 245.723 59.2356 245.029 59.2378C244.353 59.2219 244.272 58.4653 244.39 57.9173Z" fill="#1F1B1C"/>
<path d="M240.953 58.8641C240.947 58.2405 241.671 58.4124 242.057 58.3735C242.229 58.7885 242.33 59.4602 241.799 59.6253C241.345 59.9004 240.805 59.3732 240.953 58.8643L240.953 58.8641Z" fill="#1F1B1C"/>
<path d="M249.756 59.5356C249.67 58.8548 250.434 58.802 250.886 58.8754C250.931 59.2285 251.111 59.6251 250.886 59.9574C250.608 60.5421 249.649 60.189 249.756 59.5356Z" fill="#1F1B1C"/>
<path d="M246.298 60.2029C246.025 59.4854 247.019 58.9719 247.438 59.5175C247.823 59.8246 247.542 60.3291 247.436 60.7096C247.023 60.7005 246.341 60.8311 246.298 60.2029Z" fill="#1F1B1C"/>
<path d="M243.347 59.8037C244.143 59.4689 244.582 60.9454 243.76 61.1403C242.921 61.468 242.547 60.0834 243.347 59.8037Z" fill="#1F1B1C"/>
<path d="M248.55 60.9318C248.881 60.8516 249.357 60.7988 249.52 61.2115C249.843 61.7732 249.165 62.6032 248.613 62.2271C248.116 62.039 248.109 61.1979 248.55 60.9318Z" fill="#1F1B1C"/>
<path d="M245.052 61.5757C245.33 61.1744 245.816 61.4473 246.156 61.5916C246.152 61.9056 246.149 62.2198 246.152 62.5362C245.846 62.6622 245.433 62.9373 245.145 62.6394C244.814 62.4125 244.691 61.8349 245.053 61.5757H245.052Z" fill="#1F1B1C"/>
<path d="M261.079 66.0991C263.486 65.5168 266.013 67.5181 266.346 70.0856C266.712 72.2084 265.49 74.4185 263.655 75.2574C262.616 75.6954 261.423 75.7548 260.373 75.3262C258.508 74.5811 257.177 72.463 257.42 70.3216C257.543 68.2309 259.169 66.4566 261.079 66.0988V66.0991ZM258.409 69.3293L258.315 69.7303L258.276 69.744C258.222 70.4776 258.143 71.2342 258.358 71.9494C258.747 73.3594 259.917 74.494 261.289 74.7165L261.229 74.7187C261.769 74.9366 262.343 74.8126 262.894 74.7004C264.451 74.1593 265.66 72.5708 265.606 70.7869C265.621 68.8224 264.098 67.0068 262.253 66.8485C260.618 66.6309 259.031 67.7335 258.409 69.3291L258.409 69.3293Z" fill="#1F1B1C"/>
<path d="M195.815 9.12654C197.097 9.07837 198.297 8.5854 199.478 8.09952C200.412 7.67771 201.689 8.41129 201.646 9.5508C201.876 12.8933 201.661 16.3089 200.822 19.546C200.145 21.7514 199.487 24.0209 198.271 25.9717C197.577 27.0401 196.174 26.9048 195.157 26.5288C192.569 25.5545 190.111 23.6404 189.051 20.8664C188.713 20.596 188.173 21.0613 188.446 21.4601C188.792 22.4642 189.391 23.3606 190.107 24.1057C191.357 25.3848 192.787 26.5219 194.434 27.1386C193.189 28.8396 193.189 31.0518 192.832 33.0782C190.819 32.3356 189.036 30.9577 187.698 29.1949C186.433 27.48 185.347 25.591 184.59 23.5624C185.827 22.1869 186.76 20.5363 187.371 18.7481C187.715 18.7596 188.393 18.9131 188.296 18.317C187.799 17.8264 187.169 17.4183 186.945 16.6962C186.515 15.4882 186.347 13.9912 187.063 12.8701C187.399 12.2785 188.197 12.4414 188.556 12.9182C189.268 13.755 189.135 14.9515 189.341 15.9856C189.629 15.981 189.92 15.9763 190.21 15.9695C190.427 15.197 190.561 14.3991 190.808 13.6335C191.066 12.7578 191.926 12.313 192.26 11.4855C192.595 10.6556 192.662 9.74325 192.834 8.86514C193.828 8.9363 194.808 9.24343 195.815 9.12654Z" fill="#EFAD80"/>
<path d="M196.764 50.4827C198.153 50.0655 199.422 49.3341 200.707 48.6487C201.485 50.9685 202.137 53.3368 202.623 55.7462C202.711 56.0579 202.724 56.4775 203.06 56.6196C204.617 57.5251 206.2 58.3964 207.656 59.4853C210.824 61.8464 214.044 64.1597 217.513 66.0005C219.555 67.0437 221.609 68.137 223.762 68.8637C225.45 68.1966 227.145 67.5066 228.711 66.5392C230.008 67.1718 231.464 67.4792 232.621 68.4052C232.313 68.5796 232.004 68.7515 231.698 68.9256C230.638 68.6551 229.653 67.7724 228.521 68.082C226.241 68.6116 223.96 69.1662 221.763 70.0167C221.376 69.3496 220.587 69.4826 219.98 69.2601C218.849 68.8498 217.782 68.2651 216.675 67.7976C216.302 67.6509 216.034 67.9604 215.784 68.1895C212.268 66.5458 208.848 64.6798 205.419 62.839C203.406 61.8005 201.402 60.7162 199.261 60.0056C198.868 59.8359 198.339 59.7855 198.177 59.295C197.343 57.3693 196.48 55.4598 195.583 53.5684C196.055 52.5734 196.36 51.5075 196.764 50.4827H196.764Z" fill="#EFAD80"/>
<path d="M193.548 51.6198C195.168 54.1553 196.299 56.9796 197.538 59.7374C197.714 60.3495 198.342 60.4732 198.835 60.6749C202.803 62.0895 206.43 64.3522 210.189 66.2664C212.097 67.3462 214.1 68.215 216.061 69.164C216.085 70.7505 215.569 72.3185 214.865 73.7033C211.17 72.7978 207.447 72.0297 203.763 71.0807C200.368 70.1842 197.045 69.0083 193.789 67.6626C193.099 67.3782 192.651 66.7249 192.172 66.1634C190.186 63.6739 188.33 61.0672 186.596 58.3712C185.846 57.195 184.99 56.0902 184.351 54.8407C186.022 54.2998 187.683 53.7266 189.35 53.1696C190.737 52.6194 192.208 52.3098 193.548 51.6198H193.548Z" fill="#EFAD80"/>
<path d="M258.41 69.3291C259.031 67.7335 260.619 66.6309 262.253 66.8486C264.099 67.0068 265.622 68.8224 265.607 70.787C265.66 72.5706 264.452 74.1593 262.895 74.7004C263.31 74.1431 263.787 73.5817 263.912 72.8571C264.254 71.2594 263.449 69.4161 261.989 68.8155C260.804 68.3593 259.483 68.7077 258.41 69.3291Z" fill="#EFAD80"/>
<path d="M221.75 70.8764C223.927 69.9986 226.194 69.3978 228.476 68.9371C229.59 68.63 230.562 69.4574 231.56 69.8379C232.576 70.2187 233.21 71.1997 233.67 72.1832C233.341 72.5982 232.872 72.8158 232.412 73.0129C231.883 72.0754 231.393 70.9796 230.461 70.4407C229.973 70.395 230.197 71.0894 230.362 71.321C230.812 72.1143 231.483 72.7997 231.683 73.7282C231.773 74.4114 231.328 74.9843 230.924 75.4543C230.677 74.4067 230.621 73.2352 229.988 72.3527C229.532 72.0981 229.354 72.7126 229.558 73.052C229.801 73.9507 230.124 74.8493 230.102 75.7983C230.092 76.3072 229.633 76.5503 229.315 76.8322C229.186 76.0414 229.264 75.1794 228.93 74.4458C228.534 74.0057 228.182 74.7508 228.395 75.1107C228.502 75.8627 228.567 76.6329 228.453 77.3895C227.979 77.9627 227.169 77.9717 226.521 78.1483C226.713 77.66 227.351 76.9379 226.775 76.4999C224.676 76.4517 222.45 76.674 220.514 75.6128C221.187 74.125 221.641 72.5295 221.751 70.8764H221.75Z" fill="#EFAD80"/>
<path d="M258.315 69.7303C259.192 69.4621 260.044 68.9874 260.975 68.9967C262.66 69.1549 263.944 71.1471 263.462 72.8825C263.273 73.6139 262.733 74.1411 262.257 74.6708C261.932 74.6845 261.61 74.7028 261.289 74.7168C259.917 74.4945 258.747 73.3596 258.358 71.9497C258.143 71.2344 258.222 70.4778 258.276 69.7442L258.315 69.7306V69.7303Z" fill="#EFAD80"/>
<path d="M206.016 91.7814C207.085 91.0867 208.217 90.5091 209.376 90.0071C212.43 92.6915 214.783 96.1646 217.861 98.8263C218.635 99.5095 219.601 100.076 220.008 101.112C220.722 102.902 220.827 104.874 221.016 106.784C221.552 108.954 222.27 111.073 222.838 113.237C224.329 118.799 225.587 124.431 226.961 130.027C224.819 130.994 222.58 131.677 220.339 132.331C220.111 132.37 219.745 132.579 219.646 132.223C218.545 129.931 217.577 127.546 216.166 125.44C214.972 123.558 213.398 121.859 212.839 119.605C211.875 115.999 211.133 112.318 210.752 108.585C210.776 107.973 210.129 107.772 209.748 107.476C205.797 105.076 201.592 103.157 197.329 101.495C197.297 101.188 197.516 100.942 197.634 100.683C199.656 97.0107 202.659 94.0443 206.016 91.7816L206.016 91.7814Z" fill="#EFAD80"/>
<path d="M153.112 115.575C153.981 113.154 154.435 110.6 155.151 108.129C159.366 109.832 163.733 111.217 168.228 111.735C166.195 115.768 163.969 119.685 161.618 123.514C161.066 124.332 160.201 124.809 159.375 125.254C157.964 125.969 156.495 126.588 154.955 126.916C153.464 127.182 152.187 128.092 150.847 128.784C146.646 131.139 142.347 133.33 138.378 136.122C136.432 134.77 134.791 132.663 134.5 130.141C134.73 129.603 135.253 129.272 135.619 128.839C137.361 126.943 139.148 125.091 140.796 123.099C141.946 121.652 143.162 120.19 144.777 119.318C147.24 117.982 149.993 117.45 152.554 116.382C152.886 116.267 152.976 115.868 153.112 115.575Z" fill="#EFAD80"/>
<path d="M179.06 27.2668C180.615 26.0862 182.221 24.9811 183.901 24.0184C185.278 27.3494 187.226 30.5701 190.124 32.6105C191.141 33.234 192.236 33.8713 193.436 33.9173C193.758 31.9962 193.95 30.0084 194.709 28.2114C195.682 28.9609 196.707 29.7084 197.365 30.8063C198.342 32.4476 198.837 34.4239 198.665 36.3655C198.364 40.4736 197.882 44.6093 196.626 48.5247C196.191 49.9276 195.595 51.2688 195.232 52.6969C194.937 52.2729 194.617 51.8694 194.348 51.4293C194.425 51.2437 194.505 51.0603 194.587 50.8791C192.832 47.037 191.199 43.1328 189.425 39.2998C189.055 38.5572 188.728 37.7708 188.203 37.1358C187.934 36.8697 187.732 37.3558 187.543 37.4911C188.558 39.0546 189.281 40.8037 190.055 42.5115C190.356 43.2612 190.84 44.0222 190.619 44.8751C190.901 45.0952 191.26 45.2581 191.402 45.6293C192.161 47.3326 192.877 49.061 193.671 50.7482C189.883 52.1445 186.033 53.3388 182.239 54.7165C181.34 53.5197 180.656 52.165 179.836 50.9087C178.507 48.6575 176.982 46.5438 175.311 44.57C175.13 44.7443 174.941 44.9047 174.741 45.0536C176.625 47.3576 178.376 49.7946 179.854 52.4194C180.533 53.4371 181.082 54.5583 181.837 55.5163C182.409 55.5163 182.953 55.2505 183.512 55.1312C186.147 59.1249 188.762 63.1457 191.714 66.8823C191.333 68.7209 191.26 70.6466 190.582 72.405C190.993 73.2279 191.552 73.9891 191.77 74.9083C191.092 76.4466 189.75 77.5331 188.489 78.5166C184.282 81.6067 179.163 83.1404 174.072 83.1176C168.708 83.1154 163.473 81.6047 158.429 79.7776C158.917 77.829 159.433 75.8803 160.169 74.0167C160.836 72.3295 161.416 70.4886 162.763 69.2599C167.751 64.6221 173.556 61.1699 179.011 57.2222C179.477 57.0478 179.372 56.2959 178.873 56.3394C174.793 59.3701 170.472 62.0179 166.439 65.1242C165.404 65.8876 164.468 66.7931 163.419 67.5313C165.365 62.2221 166.305 56.594 167.51 51.0622C168.548 46.3993 169.463 41.6701 171.213 37.2341C172.831 33.1719 175.692 29.7813 179.06 27.2663L179.06 27.2668ZM180.449 42.9793C180.126 43.5798 181.047 43.729 181.372 44.0132C184.06 45.7234 186.919 47.1079 189.625 48.7793C189.79 48.5546 189.947 48.3254 190.096 48.0892C187.121 46.4225 184.127 44.7903 181.221 42.9886C180.991 42.8487 180.591 42.5599 180.449 42.9793Z" fill="#DC3B32"/>
<path d="M199.127 40.0334C199.473 42.6514 199.977 45.2373 200.54 47.8095C199.439 48.4492 198.282 48.9739 197.118 49.4691C198.114 46.4157 198.686 43.2268 199.127 40.0334H199.127Z" fill="#DC3B32"/>
<path d="M122.621 136.285C123.03 135.134 124.081 134.194 125.275 134.245C124.17 135.036 123.585 136.356 123.324 137.711C122.845 139.625 123.24 141.682 122.548 143.55C121.7 141.232 121.778 138.596 122.621 136.285Z" fill="#DC3B32"/>
<path d="M220.761 152.617C220.632 151.865 220.847 151.108 221.15 150.439C221.879 150.962 222.632 151.528 223.527 151.663C225.099 151.906 226.77 151.48 228.276 152.172C229.812 152.823 231.356 153.55 233.025 153.694C234.333 153.878 235.565 153.107 236.873 153.281C239.125 153.579 241.373 154.444 243.663 154.091C244.642 153.967 245.083 152.752 246.059 152.658C246.021 153.277 246.098 154.146 245.464 154.462C244.519 154.868 243.472 154.877 242.468 154.914C238.833 154.939 235.17 154.806 231.612 153.93C230.048 153.442 228.558 154.382 227.005 154.434C225.405 154.508 223.79 154.262 222.269 153.733C221.705 153.494 221.019 153.256 220.761 152.617Z" fill="#DC3B32"/>
<path d="M242.274 41.1752C244.805 40.5907 247.528 41.0101 249.804 42.3352C252.759 44.0797 255.506 46.4663 257.102 49.6985C258.255 52.2132 258.476 55.2623 257.451 57.8665C256.076 61.5115 252.996 64.1661 249.602 65.5142C245.959 67.2151 241.908 67.1807 238.082 68.1091C236.871 68.3842 235.686 68.7579 234.49 69.0855C234.062 69.2438 233.896 68.6799 233.67 68.4185C234.864 67.9531 236.047 67.4396 237.299 67.1714C238.117 66.9283 239.001 66.9031 239.773 66.5136C240.254 66.1011 239.588 65.6171 239.246 65.4408C237.278 64.3541 235.671 62.6737 234.303 60.8398C233.95 61.03 233.701 61.3626 233.716 61.8027C233.636 63.7536 233.391 65.6954 232.941 67.5888C232.668 67.4237 232.397 67.2609 232.126 67.0982C232.382 63.9714 232.862 60.8559 232.814 57.7061C232.817 53.1532 233.836 48.3553 236.716 44.8546C238.228 43.1558 240.087 41.6772 242.274 41.1752ZM244.166 46.0146C244.147 46.668 244.9 46.5763 245.309 46.5167C245.42 46.111 245.379 45.696 245.298 45.2925C244.814 45.1779 244.02 45.281 244.166 46.0146ZM240.942 45.7395C240.841 46.1203 240.529 46.6565 240.955 46.9409C241.381 47.5231 242.231 46.902 242.067 46.2601C242.05 45.6275 241.351 45.7398 240.942 45.7398V45.7395ZM246.431 46.8123C246.147 47.0072 246.012 47.4085 246.201 47.7317C246.345 48.3668 247.451 48.2751 247.453 47.5987C247.595 47.0187 246.892 46.5328 246.431 46.8123ZM242.7 47.6606C242.502 48.3117 243.201 48.9238 243.754 48.5409C244.173 48.3575 243.947 47.7728 243.977 47.4107C243.543 47.2593 242.975 47.1607 242.7 47.6606ZM239.439 47.8347C239.353 48.213 239.241 48.6279 239.488 48.9764C239.802 49.1918 240.17 49.0818 240.51 49.0062C240.529 48.6531 240.667 48.2611 240.471 47.9379C240.17 47.6743 239.781 47.8278 239.439 47.8347ZM248.322 48.3208C248.019 48.511 248.079 48.9055 248.025 49.2194C248.296 49.4327 248.55 49.7995 248.939 49.6804C249.337 49.4901 249.483 48.9879 249.326 48.5663C249.129 48.1765 248.657 48.2293 248.322 48.321L248.322 48.3208ZM245.053 48.7747C244.665 48.9444 244.478 49.5542 244.799 49.8956C245.132 50.4458 246.102 50.1797 246.001 49.4623C246.044 48.9006 245.511 48.5957 245.053 48.7744V48.7747ZM241.3 49.7124C241.076 50.359 241.755 50.7348 242.272 50.6524C242.399 50.3543 242.67 50.0609 242.552 49.7078C242.444 49.0796 241.426 49.059 241.3 49.7124ZM237.921 49.8819C237.877 50.3152 237.804 51.0808 238.398 51.0877C239.015 51.2781 239.4 50.3885 239.022 49.9208C238.684 49.6594 238.282 49.8083 237.921 49.8819ZM250.21 49.93C250.154 50.313 250.148 50.705 250.198 51.0923C250.572 51.1725 250.953 51.1862 251.329 51.0945C251.327 50.7324 251.484 50.2944 251.208 49.9988C250.92 49.71 250.542 49.9046 250.21 49.93ZM246.748 50.3404C246.705 50.7438 246.511 51.3422 246.935 51.5943C247.384 51.9795 248.144 51.4041 247.948 50.8263C247.885 50.1751 247.176 50.3059 246.748 50.3404ZM243.293 51.9682C243.592 52.0782 243.954 52.3555 244.248 52.0714C244.84 51.7024 244.433 50.579 243.743 50.8013C243.162 50.7967 243.283 51.5623 243.293 51.9682ZM240.136 51.294C239.398 51.7457 240.106 53.1603 240.826 52.5113C241.499 52.0367 240.856 50.9133 240.136 51.294ZM252.142 51.4936C252.129 51.9176 252.174 52.3418 252.368 52.7245C252.882 52.8116 253.607 52.4404 253.413 51.7777C253.166 51.216 252.587 51.2412 252.142 51.4933L252.142 51.4936ZM236.705 51.7481C236.344 52.0553 236.299 52.7637 236.77 52.9793C237.273 53.4058 237.991 52.5918 237.697 52.0347C237.536 51.6083 237.043 51.6657 236.705 51.7481ZM248.681 51.9729C248.744 52.358 248.563 52.8876 248.969 53.1121C249.593 53.5523 250.451 52.4634 249.783 51.9729C249.488 51.5694 249.034 51.8513 248.681 51.9729ZM245.227 53.3711C245.552 53.6188 246.109 53.8364 246.38 53.3894C246.784 52.9172 246.268 52.1056 245.704 52.344C245.218 52.4199 245.253 52.9767 245.227 53.3711ZM241.848 52.9241C241.854 53.3024 241.674 53.8342 242.078 54.0565C242.573 54.4049 243.33 53.7425 243.074 53.1625C242.865 52.6443 242.242 52.892 241.848 52.9241ZM238.51 53.4789C238.23 53.7929 238.493 54.2172 238.598 54.5473C238.981 54.5678 239.697 54.6412 239.693 54.0452C239.906 53.3322 238.88 52.8852 238.51 53.4789ZM250.907 53.3826C250.303 53.8205 250.783 54.9368 251.484 54.7282C251.985 54.7008 252.045 54.0521 251.905 53.6508C251.707 53.2657 251.247 53.3114 250.907 53.3826ZM247.307 54.1413C247.008 54.5517 247.436 54.9278 247.634 55.2554C248.021 55.1821 248.591 55.0537 248.541 54.4966C248.657 53.7724 247.539 53.5039 247.307 54.1413ZM244.091 54.4049C243.668 54.68 243.887 55.2439 243.986 55.6406C244.384 55.6384 245.019 55.7895 245.087 55.1867C245.315 54.5815 244.545 54.0108 244.091 54.4049ZM240.641 54.8544C240.258 55.164 240.411 55.6912 240.521 56.0993C241.278 56.3905 241.887 55.7829 241.655 54.9554C241.328 54.8842 240.949 54.5795 240.641 54.8546V54.8544ZM252.798 54.9436C252.703 55.3403 252.665 55.7481 252.759 56.1519C253.142 56.2482 253.536 56.2299 253.923 56.145C253.955 55.7484 253.94 55.3496 253.884 54.9576C253.525 54.8774 253.157 54.8908 252.798 54.9436ZM237.054 55.4366C237.082 55.8469 236.98 56.5759 237.551 56.5737C238.234 56.7891 238.529 55.7095 238.039 55.3173C237.759 54.994 237.346 55.3241 237.054 55.4364V55.4366ZM249.335 55.3792C249.275 55.7851 249.081 56.3993 249.522 56.6517C249.81 56.8947 250.14 56.6219 250.441 56.5575C250.443 56.2595 250.439 55.9638 250.43 55.6679C250.219 55.2278 249.697 55.3884 249.335 55.3792ZM245.9 55.8721C245.838 56.2734 245.634 56.8304 246.027 57.1239C246.487 57.5366 247.313 56.9429 247.072 56.3306C246.997 55.6956 246.317 55.8377 245.9 55.8721ZM242.702 56.3377C241.962 56.7182 242.547 58.0548 243.296 57.6513C244.085 57.273 243.524 55.8746 242.702 56.3377ZM239.318 56.8649C238.85 57.0368 238.873 57.924 239.342 58.0846C239.886 58.4468 240.553 57.5689 240.149 57.053C240.035 56.6908 239.57 56.7297 239.318 56.8649ZM251.269 57.2706C251.034 57.7269 251.432 58.38 251.933 58.2174C252.527 58.1898 252.527 57.4266 252.415 56.975C252.043 56.8877 251.422 56.7664 251.269 57.2706ZM247.821 57.4608C247.838 57.8093 247.705 58.2448 247.965 58.5292C248.219 58.8319 248.613 58.6392 248.935 58.6392C249.004 58.2357 249.032 57.8276 248.969 57.4266C248.585 57.3508 248.197 57.3877 247.821 57.4611V57.4608ZM244.39 57.9171C244.272 58.4651 244.354 59.2215 245.029 59.2376C245.724 59.2354 245.745 58.394 245.528 57.8851C245.147 57.8002 244.76 57.8071 244.39 57.9171ZM240.953 58.8639C240.805 59.3728 241.345 59.9 241.798 59.6249C242.33 59.4599 242.229 58.7881 242.056 58.3732C241.671 58.4121 240.946 58.2402 240.953 58.8637L240.953 58.8639ZM249.757 59.5354C249.649 60.1888 250.609 60.5419 250.886 59.9572C251.112 59.6249 250.931 59.2283 250.886 58.8752C250.434 58.8018 249.671 58.8547 249.757 59.5354ZM246.298 60.2028C246.341 60.8309 247.023 60.7001 247.436 60.7094C247.541 60.3289 247.823 59.8245 247.438 59.5173C247.019 58.9718 246.025 59.4853 246.298 60.2028ZM243.347 59.8037C242.547 60.0832 242.921 61.4679 243.76 61.1403C244.582 60.9454 244.143 59.4692 243.347 59.8037ZM248.55 60.9317C248.109 61.1975 248.116 62.0389 248.613 62.227C249.165 62.6031 249.843 61.7731 249.52 61.2114C249.357 60.7987 248.881 60.8515 248.55 60.9317ZM245.053 61.5758C244.691 61.8347 244.814 62.4126 245.145 62.6395C245.433 62.9376 245.846 62.6625 246.152 62.5363C246.149 62.2199 246.152 61.9059 246.156 61.5917C245.816 61.4474 245.33 61.1745 245.053 61.5758Z" fill="#474C54"/>
<path d="M258.409 69.329C259.483 68.7076 260.803 68.3592 261.989 68.8154C263.449 69.416 264.253 71.259 263.911 72.857C263.787 73.5816 263.309 74.143 262.894 74.7003C262.343 74.8126 261.769 74.9363 261.229 74.7186L261.289 74.7164C261.61 74.7028 261.933 74.6844 262.257 74.6705C262.733 74.1411 263.273 73.6136 263.462 72.8822C263.944 71.1468 262.66 69.1549 260.976 68.9964C260.044 68.9874 259.192 69.4617 258.315 69.73L258.41 69.329H258.409Z" fill="#F1F3F3"/>
<path d="M232.627 69.2809C233.142 68.8889 233.862 69.6063 233.385 70.1406C233.126 69.8861 232.582 69.7257 232.627 69.2809Z" fill="#F1F3F3"/>
<path d="M222.617 77.1946C223.8 77.1809 224.981 77.3093 226.166 77.2245C225.813 77.8847 225.383 78.4923 224.963 79.1066C224.159 78.5036 223.333 77.9123 222.617 77.1946Z" fill="#F1F3F3"/>
<path d="M128.734 135.24C130.465 133.823 132.169 132.36 133.758 130.762C134.298 133.188 135.812 135.279 137.763 136.622C136.23 137.906 134.833 139.357 133.476 140.842C132.659 140.359 131.981 139.673 131.235 139.088C130.671 138.609 129.953 138.983 129.338 139.12C128.869 138.378 128.273 137.72 127.908 136.911C127.63 136.198 128.29 135.65 128.734 135.24Z" fill="#F1F3F3"/>
<path d="M220.083 133.204C222.499 132.61 224.862 131.799 227.17 130.831C228.014 134.226 228.874 137.624 229.943 140.95C229.455 141.578 229.175 142.339 229.151 143.158C227.956 143.499 226.94 144.418 225.688 144.526C224.671 144.407 224.008 143.467 223.178 142.935C222.384 139.614 221.331 136.365 220.083 133.204Z" fill="#F1F3F3"/>
<path d="M216.926 68.9048C218.233 69.4802 219.533 70.0854 220.922 70.4018C220.888 72.3206 220.363 74.205 219.388 75.8211C218.021 75.546 216.719 74.9933 215.373 74.6268C216.28 72.8752 216.936 70.9268 216.926 68.9048Z" fill="#1E2746"/>
<path d="M192.16 76.0369C192.296 75.7755 192.545 76.0668 192.709 76.1308C193.453 76.658 194.324 76.9033 195.178 77.1463C195.342 77.5085 195.419 77.9738 195.795 78.1665C197.458 79.2393 198.953 80.5666 200.527 81.7748C202.138 83.0173 203.657 84.3881 205.238 85.6721C206.58 86.7427 207.756 88.0196 209.099 89.0902C206.462 90.4106 203.936 92.0245 201.732 94.0671C199.052 96.731 196.578 99.8901 195.572 103.721C190.578 100.176 185.461 96.8295 180.139 93.8744C181.477 92.4233 182.695 90.8278 184.252 89.6311C184.643 89.2941 185.116 89.0442 185.424 88.6109C185.387 88.3747 185.342 88.1431 185.288 87.9162C184.959 88.0032 184.637 88.1294 184.376 88.3678C182.912 89.6379 181.511 90.9928 180.206 92.4461C179.154 93.5648 178.319 94.8806 177.386 96.1072C176.035 98.0696 174.684 100.052 173.667 102.237C172.321 104.943 171.512 107.897 170.72 110.827L170.617 110.91C166.692 111.018 162.857 109.876 159.125 108.698C157.744 108.147 156.333 107.659 155.006 106.971C155.901 103.975 156.443 100.873 157.023 97.7947C157.383 95.3027 157.852 92.8041 157.817 90.2707C157.826 89.6289 158.396 89.0924 158.181 88.4321C157.729 85.9242 157.875 83.297 158.671 80.8855C159.905 81.1239 161.082 81.5961 162.284 81.9697C164.586 82.7126 166.95 83.2146 169.326 83.6066C171.247 83.9917 173.209 83.923 175.153 83.9252C179.362 83.8267 183.541 82.6072 187.211 80.4108C189.037 79.2119 190.913 77.9464 192.16 76.0369H192.16Z" fill="#1E2746"/>
<path d="M127.491 134.135C128.097 133.843 128.719 133.591 129.371 133.438C128.697 134.407 127.426 134.882 127.084 136.115C126.884 136.844 127.244 137.555 127.669 138.105C128.138 138.699 128.485 139.389 128.941 139.997C129.45 140.148 129.958 139.747 130.446 139.6C131.186 140.084 131.767 140.803 132.546 141.228C132.973 141.507 133.479 141.688 133.827 142.088C133.548 143.422 131.737 143.818 131.625 145.279C131.317 146.824 130.47 148.234 130.554 149.861C130.242 149.969 129.93 150.077 129.62 150.198C129.618 150.331 129.616 150.6 129.614 150.732C130.098 150.817 130.599 150.822 131.07 150.978C131.924 151.503 132.677 152.426 132.653 153.536C132.642 154.102 132.642 154.806 132.16 155.173C131.096 155.989 129.725 156.028 128.465 156.003C126.605 156.037 124.607 155.487 123.292 154.008C122.37 152.78 121.802 151.214 121.825 149.627C121.821 147.782 122.221 145.921 123.049 144.295C123.557 143.257 123.895 142.103 123.824 140.918C123.877 139.027 123.923 136.854 125.226 135.403C125.8 134.673 126.717 134.511 127.491 134.135H127.491Z" fill="#1E2746"/>
<path d="M230.181 142.007C230.474 141.34 231.13 141.007 231.685 140.634C232.386 142.058 232.913 143.598 233.726 144.951C236.61 146.471 239.495 148.011 242.409 149.474C243.532 150.198 244.874 150.608 245.766 151.684C244.719 152.099 244.108 153.426 242.897 153.369C240.86 153.421 238.903 152.75 236.909 152.422C235.657 152.204 234.494 152.984 233.24 152.883C231.179 152.784 229.396 151.489 227.415 151.026C225.86 150.7 224.191 151.262 222.707 150.519C222.208 150.265 221.513 149.895 221.638 149.183C221.707 147.633 222.004 146.104 222.324 144.595C222.432 144.3 222.46 143.802 222.823 143.759C223.89 144.327 224.793 145.581 226.118 145.299C227.359 144.994 228.486 144.293 229.669 143.8C229.925 143.236 229.906 142.569 230.181 142.007L230.181 142.007Z" fill="#1E2746"/>
<path d="M188.048 153.802C196.363 153.492 204.685 153.485 213 153.68C215.459 153.662 217.915 153.87 220.371 153.806L220.388 153.563C221.406 154.471 222.711 154.838 223.998 155.033C225.456 155.296 226.972 155.452 228.428 155.086C229.295 154.877 230.168 154.506 231.074 154.677C232.726 154.93 234.337 155.461 236.012 155.553C237.763 155.652 239.518 155.675 241.267 155.808C240.602 155.971 239.942 156.172 239.26 156.227C228.876 157.071 218.465 157.491 208.055 157.729C198.813 157.921 189.566 158.112 180.322 157.938C176.087 157.823 171.858 157.497 167.621 157.491C160.523 157.44 153.427 157.387 146.332 157.348C141.744 157.344 137.158 157.128 132.57 157.131C131.753 157.149 130.945 157.021 130.144 156.844C131.454 156.676 132.979 156.195 133.394 154.678C133.386 154.772 133.366 154.962 133.356 155.056C142.054 154.772 150.756 154.781 159.454 154.63C163.904 154.568 168.354 154.607 172.802 154.423C177.885 154.283 182.963 153.903 188.048 153.802L188.048 153.802Z" fill="#603BE6" fill-opacity="0.72"/>
<path d="M259.044 155.542C261.827 155.141 264.641 155.198 267.441 155.198C269.566 155.248 271.709 155.274 273.803 155.682C274.031 155.796 274.631 155.73 274.431 156.156C272.657 156.745 270.771 156.695 268.934 156.817C265.987 156.858 263.028 156.936 260.094 156.606C259.304 156.521 258.522 156.376 257.777 156.081C258.068 155.64 258.593 155.622 259.044 155.542Z" fill="#603BE6" fill-opacity="0.72"/>
</svg>
