<svg width="60" height="42" viewBox="0 0 60 42" fill="none" xmlns="http://www.w3.org/2000/svg">
<g filter="url(#filter0_d_292_368)">
<rect x="5.79224" y="1.67578" width="49.2867" height="31.7838" rx="5" fill="#92C650"/>
<path d="M53.5452 0H5.98181C5.4562 0 4.95212 0.179107 4.58046 0.497919C4.2088 0.816731 4 1.24913 4 1.7V30.6C4 31.5017 4.41759 32.3665 5.16092 33.0042C5.90424 33.6418 6.9124 34 7.96362 34H51.5634C52.6146 34 53.6228 33.6418 54.3661 33.0042C55.1094 32.3665 55.527 31.5017 55.527 30.6V1.7C55.527 1.24913 55.3182 0.816731 54.9465 0.497919C54.5749 0.179107 54.0708 0 53.5452 0ZM48.4495 3.4L29.7635 18.0944L11.0775 3.4H48.4495ZM51.5634 30.6H7.96362V5.56538L28.4233 21.6537C28.7889 21.9417 29.2672 22.1014 29.7635 22.1014C30.2598 22.1014 30.7381 21.9417 31.1037 21.6537L51.5634 5.56538V30.6Z" fill="black"/>
</g>
<defs>
<filter id="filter0_d_292_368" x="0" y="0" width="59.5271" height="42" filterUnits="userSpaceOnUse" color-interpolation-filters="sRGB">
<feFlood flood-opacity="0" result="BackgroundImageFix"/>
<feColorMatrix in="SourceAlpha" type="matrix" values="0 0 0 0 0 0 0 0 0 0 0 0 0 0 0 0 0 0 127 0" result="hardAlpha"/>
<feOffset dy="4"/>
<feGaussianBlur stdDeviation="2"/>
<feComposite in2="hardAlpha" operator="out"/>
<feColorMatrix type="matrix" values="0 0 0 0 0.207262 0 0 0 0 0.273858 0 0 0 0 0.706731 0 0 0 0.6 0"/>
<feBlend mode="normal" in2="BackgroundImageFix" result="effect1_dropShadow_292_368"/>
<feBlend mode="normal" in="SourceGraphic" in2="effect1_dropShadow_292_368" result="shape"/>
</filter>
</defs>
</svg>
