<svg width="170" height="180" viewBox="0 0 170 180" fill="none" xmlns="http://www.w3.org/2000/svg">
<g clip-path="url(#clip0_408_362)">
<path d="M43.4142 26.5313C31.6237 34.6957 22.2397 46.5764 22.4804 60.8295C22.5716 66.2198 25.7138 70.9117 25.4874 76.2671C25.1137 85.0989 16.1724 90.9709 12.5215 98.3001C10.6352 102.087 9.52304 106.412 9.99666 110.664C11.2638 122.039 22.9666 127.885 32.8022 126.804C39.4345 126.075 45.8901 122.918 52.6551 124.085C56.5797 124.763 60.454 127.209 61.9262 131.12C64.141 137.006 60.2881 144.481 63.9761 149.87C67.4828 154.994 76.2477 154.963 81.5656 154.672C92.0142 154.1 102.194 150.631 111.542 145.656C121.977 140.101 132.407 133.926 140.795 125.188C141.116 124.854 141.433 124.515 141.745 124.173C150.735 114.325 156.516 101.597 157.351 87.8515C157.923 78.4361 156.419 68.6761 152.123 60.3353C147.096 50.576 139.259 46.2737 130.394 41.1779C125.509 38.3699 120.979 34.9726 116.957 30.8984C113.998 27.9007 110.949 23.58 107.072 21.9384C103.47 20.4134 100.005 18.4946 96.3203 17.1742C87.7574 14.1055 78.4295 13.5482 69.5511 15.2492C61.3441 16.8221 51.7742 20.7425 43.4142 26.5313Z" fill="#E4F0FF" fill-opacity="0.7"/>
<path d="M111.215 165.698C120.318 165.698 127.698 164.623 127.698 163.296C127.698 161.97 120.318 160.894 111.215 160.894C102.112 160.894 94.7332 161.97 94.7332 163.296C94.7332 164.623 102.112 165.698 111.215 165.698Z" fill="#B3D5FF"/>
<path d="M38.7883 161.558C38.7883 162.365 32.9766 163.019 25.8074 163.019C18.6382 163.019 12.8265 162.365 12.8265 161.558C12.8265 160.75 18.6382 160.096 25.8074 160.096C32.9766 160.096 38.7883 160.75 38.7883 161.558Z" fill="#B3D5FF"/>
<path d="M115.744 27.3175C114.713 27.5454 113.209 27.8064 111.496 27.877C111.429 29.691 111.183 31.2833 110.968 32.3744C110.887 32.7809 110.341 32.7809 110.261 32.3744C110.046 31.2833 109.799 29.6906 109.733 27.877C108.02 27.8064 106.516 27.5458 105.485 27.3175C105.101 27.2326 105.101 26.6544 105.485 26.5694C106.516 26.3416 108.02 26.0806 109.733 26.01C109.8 24.196 110.046 22.6037 110.261 21.5122C110.341 21.1057 110.887 21.1057 110.968 21.5122C111.183 22.6033 111.429 24.196 111.496 26.01C113.209 26.0806 114.713 26.3412 115.744 26.5694C116.128 26.6544 116.128 27.2326 115.744 27.3175Z" fill="#B3D5FF"/>
<path d="M35.5786 38.6446C34.5481 38.8725 33.0439 39.1335 31.331 39.204C31.2643 41.0181 31.0182 42.6103 30.8026 43.7019C30.7224 44.1083 30.1763 44.1083 30.0961 43.7019C29.8809 42.6103 29.6344 41.0181 29.5681 39.204C27.8548 39.1335 26.351 38.8728 25.3201 38.6446C24.9363 38.5596 24.9363 37.9815 25.3201 37.8965C26.3507 37.6686 27.8548 37.4076 29.5681 37.3371C29.6347 35.523 29.8809 33.9307 30.0961 32.8392C30.1763 32.4328 30.7224 32.4328 30.8026 32.8392C31.0178 33.9307 31.2643 35.523 31.331 37.3371C33.0442 37.4076 34.5481 37.6683 35.5786 37.8965C35.9628 37.9815 35.9628 38.5596 35.5786 38.6446Z" fill="#B3D5FF"/>
<path d="M116.569 118.382C117.543 117.351 117.543 115.68 116.569 114.649C115.595 113.618 114.017 113.618 113.043 114.649C112.069 115.68 112.069 117.351 113.043 118.382C114.017 119.413 115.595 119.413 116.569 118.382Z" fill="#B3D5FF"/>
<path d="M117.825 110.345C117.825 111.247 118.515 111.977 119.367 111.977C120.218 111.977 120.908 111.247 120.908 110.345C120.908 109.444 120.218 108.713 119.367 108.713C118.515 108.713 117.825 109.444 117.825 110.345Z" fill="#B3D5FF"/>
<path d="M128.229 76.6224C128.135 77.202 126.659 86.3248 124.918 89.3088L126.507 91.1401C127.924 88.8851 128.881 85.612 129.489 82.8533C128.649 80.9179 128.231 78.7968 128.229 76.6224Z" fill="#FDC026"/>
<path d="M128.434 93.361C131.389 91.7766 140.097 90.9868 140.65 90.9374C138.604 90.7531 136.643 90.1332 134.892 89.082C132.245 89.4895 129.084 90.2228 126.843 91.5271L128.434 93.361Z" fill="#FDC026"/>
<path d="M128.434 93.361L124.918 89.3084C124.882 89.3693 124.847 89.4323 124.811 89.4881C123.332 91.7867 118.716 96.3864 116.926 98.1374C116.529 98.5255 116.504 99.18 116.87 99.6012L118.068 100.982C118.433 101.403 119.051 101.433 119.45 101.047C121.249 99.3056 125.968 94.8244 128.256 93.4585C128.312 93.4258 128.374 93.3934 128.434 93.361Z" fill="#24736B"/>
<path d="M154.132 85.7891C150.198 89.6159 145.23 91.3457 140.671 90.9381C140.665 90.9378 140.658 90.9349 140.65 90.9371C137.248 90.6303 134.075 89.1284 131.724 86.4205C129.377 83.7151 128.232 80.2404 128.228 76.622C128.231 76.6141 128.231 76.6087 128.229 76.6004C128.231 71.7552 130.279 66.6605 134.213 62.834C141.084 56.1492 151.117 55.8677 156.617 62.2051C162.118 68.5454 161.003 79.1042 154.132 85.7891Z" fill="#FDDE44"/>
<path d="M152.409 83.7963C158.091 78.2692 159.01 69.5408 154.464 64.301C149.917 59.0611 141.625 59.2941 135.944 64.8212C130.262 70.3484 129.342 79.0768 133.889 84.3166C138.436 89.5564 146.728 89.3235 152.409 83.7963Z" fill="#319C91"/>
<path d="M143.776 67.8146C143.23 68.346 142.38 68.3078 141.879 67.7297C141.377 67.1515 141.413 66.2519 141.959 65.7205C142.505 65.1892 143.355 65.2273 143.856 65.8055C144.358 66.3836 144.322 67.2833 143.776 67.8146Z" fill="#24736B"/>
<path d="M146.541 71.001C145.995 71.5324 145.145 71.4942 144.643 70.916C144.142 70.3379 144.178 69.4382 144.724 68.9069C145.27 68.3755 146.119 68.4137 146.621 68.9918C147.123 69.57 147.087 70.4696 146.541 71.001Z" fill="#24736B"/>
<path d="M149.306 74.1874C148.76 74.7187 147.911 74.6806 147.409 74.1024C146.907 73.5243 146.943 72.6246 147.489 72.0933C148.035 71.5619 148.885 71.6001 149.387 72.1782C149.888 72.7564 149.852 73.656 149.306 74.1874Z" fill="#24736B"/>
<path d="M152.071 77.3737C151.525 77.9051 150.675 77.8669 150.174 77.2888C149.672 76.7106 149.708 75.811 150.254 75.2796C150.8 74.7482 151.65 74.7864 152.151 75.3646C152.653 75.9427 152.617 76.8424 152.071 77.3737Z" fill="#24736B"/>
<path d="M139.543 68.9796C138.997 69.5109 138.147 69.4728 137.646 68.8946C137.144 68.3165 137.18 67.4168 137.726 66.8855C138.272 66.3541 139.121 66.3923 139.623 66.9704C140.126 67.5489 140.089 68.4482 139.543 68.9796Z" fill="#24736B"/>
<path d="M142.308 72.1663C141.762 72.6977 140.913 72.6595 140.411 72.0814C139.909 71.5032 139.945 70.6036 140.491 70.0722C141.037 69.5408 141.887 69.579 142.389 70.1572C142.89 70.7353 142.854 71.635 142.308 72.1663Z" fill="#24736B"/>
<path d="M145.073 75.3527C144.527 75.884 143.678 75.8459 143.176 75.2677C142.674 74.6895 142.71 73.7899 143.256 73.2585C143.802 72.7272 144.652 72.7653 145.153 73.3435C145.655 73.9217 145.619 74.8213 145.073 75.3527Z" fill="#24736B"/>
<path d="M147.838 78.539C147.292 79.0704 146.442 79.0322 145.941 78.4541C145.439 77.8759 145.475 76.9763 146.021 76.4449C146.567 75.9135 147.417 75.9517 147.918 76.5299C148.42 77.108 148.384 78.0077 147.838 78.539Z" fill="#24736B"/>
<path d="M147.951 66.6763C147.405 67.2077 146.556 67.1695 146.054 66.5914C145.552 66.0132 145.588 65.1136 146.134 64.5822C146.68 64.0508 147.53 64.089 148.032 64.6672C148.533 65.2457 148.497 66.1453 147.951 66.6763Z" fill="#24736B"/>
<path d="M150.716 69.863C150.17 70.3944 149.32 70.3562 148.819 69.7781C148.317 69.1999 148.353 68.3003 148.899 67.7689C149.445 67.2376 150.295 67.2757 150.796 67.8539C151.298 68.432 151.262 69.3317 150.716 69.863Z" fill="#24736B"/>
<path d="M153.481 73.0494C152.935 73.5808 152.085 73.5426 151.584 72.9644C151.082 72.3863 151.118 71.4866 151.664 70.9553C152.21 70.4239 153.059 70.4621 153.561 71.0402C154.063 71.6184 154.027 72.518 153.481 73.0494Z" fill="#24736B"/>
<path d="M138.089 73.3471C138.635 72.8157 138.671 71.9161 138.169 71.3379C137.667 70.7598 136.818 70.7216 136.272 71.253C135.726 71.7843 135.69 72.684 136.191 73.2621C136.693 73.8403 137.543 73.8785 138.089 73.3471Z" fill="#24736B"/>
<path d="M140.854 76.5334C141.4 76.0021 141.436 75.1024 140.934 74.5243C140.432 73.9461 139.583 73.908 139.037 74.4393C138.491 74.9707 138.455 75.8703 138.956 76.4485C139.458 77.0266 140.308 77.0648 140.854 76.5334Z" fill="#24736B"/>
<path d="M143.619 79.7198C144.165 79.1885 144.201 78.2888 143.699 77.7107C143.197 77.1325 142.348 77.0943 141.802 77.6257C141.256 78.1571 141.22 79.0567 141.721 79.6349C142.223 80.213 143.073 80.2512 143.619 79.7198Z" fill="#24736B"/>
<path d="M146.384 82.9066C146.93 82.3752 146.966 81.4755 146.464 80.8974C145.962 80.3192 145.113 80.2811 144.567 80.8124C144.021 81.3438 143.985 82.2434 144.486 82.8216C144.988 83.3997 145.838 83.4376 146.384 82.9066Z" fill="#24736B"/>
<path d="M136.665 77.6556C137.211 77.1242 137.247 76.2246 136.746 75.6464C136.244 75.0683 135.394 75.0301 134.848 75.5615C134.302 76.0928 134.266 76.9925 134.768 77.5706C135.27 78.1492 136.119 78.187 136.665 77.6556Z" fill="#24736B"/>
<path d="M139.43 80.842C139.976 80.3106 140.012 79.411 139.511 78.8328C139.009 78.2547 138.159 78.2165 137.613 78.7479C137.067 79.2792 137.031 80.1789 137.533 80.757C138.035 81.3355 138.884 81.3733 139.43 80.842Z" fill="#24736B"/>
<path d="M142.195 84.0287C142.741 83.4973 142.777 82.5977 142.275 82.0195C141.774 81.4414 140.924 81.4032 140.378 81.9346C139.832 82.4659 139.796 83.3656 140.298 83.9437C140.799 84.5219 141.649 84.56 142.195 84.0287Z" fill="#24736B"/>
<path d="M150.617 81.7412C150.071 82.2726 149.221 82.2344 148.719 81.6563C148.218 81.0781 148.254 80.1785 148.8 79.6471C149.346 79.1158 150.195 79.1539 150.697 79.7321C151.199 80.3102 151.163 81.2099 150.617 81.7412Z" fill="#24736B"/>
<path d="M142.858 51.5664C142.661 51.7068 142.45 51.8364 142.225 51.948C142.049 52.038 141.872 52.1136 141.692 52.1784C139.849 52.8552 137.829 52.3116 136.503 50.8824C136.16 50.5152 135.864 50.0904 135.633 49.6116C135.602 49.5576 135.575 49.5036 135.551 49.446C135.279 48.8412 135.123 48.2112 135.079 47.5848C134.926 45.5688 135.881 43.5708 137.622 42.5376C137.717 42.4836 137.816 42.4296 137.914 42.3792C138.224 42.2244 138.54 42.102 138.859 42.0192C141.032 41.4396 143.354 42.4764 144.452 44.6076C144.476 44.6508 144.5 44.694 144.52 44.7372C144.548 44.784 144.571 44.8308 144.592 44.8812C144.782 45.306 144.915 45.7416 144.993 46.1844C145.36 48.2436 144.534 50.382 142.858 51.5664Z" fill="#FDC026"/>
<path d="M142.249 49.4352C142.052 49.5756 141.841 49.7052 141.617 49.8168C141.44 49.9068 141.263 49.9824 141.083 50.0472C139.24 50.724 137.221 50.1804 135.895 48.7512C135.575 48.4092 135.3 48.0204 135.079 47.5848C134.926 45.5688 135.881 43.5708 137.622 42.5376C137.717 42.4836 137.816 42.4296 137.914 42.3792C138.224 42.2244 138.54 42.102 138.859 42.0192C141.032 41.4396 143.354 42.4764 144.452 44.6076C144.595 46.4868 143.776 48.3588 142.249 49.4352Z" fill="#FDDE44"/>
<path d="M136.798 38.7821C135.36 38.9117 134.022 39.6569 133.059 40.7884C131.959 42.0819 131.453 43.7951 131.421 45.5119C131.415 45.8057 131.729 46.0188 131.979 45.9951C132.281 45.9666 132.43 45.6934 132.436 45.4036C132.487 42.6982 134.237 40.0968 136.901 39.8571C137.555 39.798 137.454 38.7231 136.798 38.7821Z" fill="#B3D5FF"/>
<path d="M133.305 36.589C131.865 36.6916 130.515 37.4119 129.533 38.5254C128.412 39.798 127.877 41.5019 127.817 43.2177C127.806 43.5114 128.116 43.7303 128.367 43.7112C128.669 43.6885 128.823 43.4182 128.833 43.1284C128.929 40.4241 130.723 37.8558 133.389 37.6657C134.045 37.6186 133.962 36.5422 133.305 36.589Z" fill="#B3D5FF"/>
<path d="M148.711 44.5911C149.393 45.9378 149.533 47.5319 149.163 49.0036C148.74 50.6859 147.66 52.0693 146.319 53.0349C146.089 53.2001 145.749 53.0381 145.632 52.8026C145.49 52.5201 145.624 52.2382 145.851 52.0751C147.964 50.5534 149.068 47.5809 147.804 45.0868C147.494 44.4741 148.399 43.9769 148.711 44.5911Z" fill="#B3D5FF"/>
<path d="M153.235 46.2992C153.855 47.6788 153.924 49.2782 153.488 50.7294C152.989 52.3883 151.847 53.7152 150.464 54.612C150.228 54.7654 149.895 54.5864 149.788 54.3456C149.659 54.0562 149.807 53.7811 150.04 53.6299C152.22 52.2169 153.457 49.3038 152.307 46.7485C152.025 46.121 152.952 45.6707 153.235 46.2992Z" fill="#B3D5FF"/>
<path d="M99.5292 157.346C99.5292 157.346 96.8711 158.961 97.5847 161.158C98.2984 163.356 101.915 163.965 104.153 163.965C106.928 163.965 108.54 162.111 110.226 162.454C111.913 162.798 112.995 163.97 116.417 164.318C119.91 164.673 125.19 164.335 127.044 162.378C128.898 160.42 126.218 159.498 126.218 159.498L99.5292 157.346Z" fill="#D4883B"/>
<path d="M102.462 118.152C101.718 113.735 100.823 109.948 98.7359 108.684C97.3317 107.834 92.8505 104.62 90.0727 102.614C88.7263 101.639 87.7811 100.951 87.7811 100.951C87.7811 100.951 73.9975 115.312 75.0413 115.549C75.3133 115.61 76.5815 116.035 78.3053 116.629C83.1639 118.3 91.6571 121.309 91.6571 121.309C87.5601 125.568 90.7629 132.354 93.8195 137.246C93.9657 137.48 94.1126 137.725 94.2598 137.975C98.2174 137.707 102.043 136.325 105.545 134.301C104.188 127.35 102.813 120.232 102.462 118.152Z" fill="#FFAB96"/>
<path d="M108.572 149.713C108.572 149.713 102.762 152.791 101.493 151.765C100.701 151.124 99.0896 147.51 97.2434 143.694C96.8932 142.963 96.5294 142.229 96.1656 141.505C95.5366 140.26 94.894 139.05 94.2582 137.974C98.2158 137.707 102.044 136.325 105.546 134.302C105.832 135.774 106.121 137.239 106.396 138.647C106.57 139.525 106.736 140.382 106.896 141.206C107.848 146.056 108.572 149.713 108.572 149.713Z" fill="#319C91"/>
<path d="M106.896 141.206C103.897 142.657 100.555 143.546 97.2433 143.694C96.8931 142.963 96.5293 142.229 96.1655 141.505C97.2399 141.498 98.3279 141.394 99.4227 141.196C101.915 140.742 104.183 139.774 106.396 138.647C106.57 139.525 106.736 140.382 106.896 141.206Z" fill="#FDDE44"/>
<path d="M87.7811 100.951C87.7811 100.951 73.9975 115.312 75.0413 115.549C75.3133 115.61 76.5815 116.035 78.3053 116.629C79.3321 114.332 80.8077 112.273 82.3853 110.326C84.5953 107.6 86.9277 104.89 89.7395 102.848C89.8483 102.769 89.9605 102.69 90.0727 102.614C88.7263 101.639 87.7811 100.951 87.7811 100.951Z" fill="#ED8368"/>
<path d="M45.3288 141.224C44.0912 141.559 42.8162 141.905 41.5582 142.25C40.7694 142.463 39.9874 142.675 39.2258 142.888C34.4148 144.202 30.3824 145.321 30.3824 145.321L26.792 138.888C29.0292 137.92 31.909 136.148 35.343 134.176C35.955 133.826 36.5806 133.466 37.2266 133.106C38.3826 132.462 39.5964 131.803 40.8578 131.159C40.9462 134.989 42.7244 138.56 45.3288 141.224Z" fill="#319C91"/>
<path d="M41.5581 142.25C40.7693 142.463 39.9873 142.675 39.2257 142.888C37.3965 140.245 36.0161 137.268 35.3429 134.176C35.9549 133.826 36.5805 133.466 37.2265 133.106C37.7467 135.734 38.7735 138.233 40.2967 140.54C40.6945 141.142 41.1161 141.707 41.5581 142.25Z" fill="#FDDE44"/>
<path d="M54.9168 122.414C54.9168 122.414 54.8012 123.329 54.6346 124.456C54.4102 125.975 54.0974 127.876 53.8594 128.408C53.8594 128.408 52.479 125.827 44.744 129.287C43.3993 129.889 42.1049 130.519 40.8578 131.158C40.9452 134.988 42.7237 138.561 45.3298 141.224C48.2756 140.427 51.0173 139.696 52.8462 139.23C58.9696 137.668 62.56 138.301 64.3076 136.598C65.2664 135.662 67.0004 130.428 68.3706 125.885C69.4994 122.137 70.3834 118.858 70.3834 118.858L54.9168 122.414Z" fill="#FFAB96"/>
<path d="M70.3833 118.858C70.3833 118.858 69.4993 122.137 68.3705 125.885C63.9539 124.394 59.2381 123.908 54.6345 124.456C54.8011 123.329 54.9167 122.414 54.9167 122.414L70.3833 118.858Z" fill="#ED8368"/>
<path d="M89.6787 101.317C87.7611 102.793 80.2845 107.153 74.9125 118.403C74.9125 118.403 74.1747 118.95 72.7467 119.67C69.6697 121.225 63.3933 123.601 54.3969 123.097C54.3969 123.097 54.8389 113.51 54.3969 111.498C53.9549 109.485 46.7367 101.443 48.8889 92.9937C51.0411 84.5481 76.1093 88.6053 76.1093 88.6053C76.1093 88.6053 89.2639 100.543 89.6787 101.317Z" fill="#FDDE44"/>
<path d="M67.6881 112.941C66.8857 112.724 66.035 112.687 65.2163 112.565C64.4153 112.446 63.617 112.306 62.8244 112.136C61.2206 111.791 59.6464 111.309 58.1178 110.689C57.8842 110.594 57.718 111.007 57.9464 111.119C59.4537 111.864 61.0455 112.364 62.6694 112.732C63.485 112.917 64.3068 113.069 65.1317 113.199C65.9466 113.328 66.7939 113.505 67.6198 113.473C67.902 113.463 67.9768 113.019 67.6881 112.941Z" fill="#FDC026"/>
<path d="M70.0399 115.299C69.2168 115.201 68.3695 115.29 67.5426 115.29C66.7338 115.29 65.9249 115.269 65.1177 115.217C63.4844 115.111 61.8619 114.865 60.267 114.476C60.0232 114.416 59.9127 114.849 60.1537 114.927C61.7439 115.442 63.3858 115.704 65.0423 115.83C65.8742 115.893 66.7083 115.923 67.5423 115.931C68.3661 115.939 69.2287 115.99 70.0423 115.837C70.3201 115.785 70.3361 115.334 70.0399 115.299Z" fill="#FDC026"/>
<path d="M57.9053 47.4192L54.8147 57.8556L51.5983 57.5964L47.2123 57.24C45.2165 60.2424 31.7491 69.7248 31.7491 69.7248C31.7491 69.7248 33.9591 72.2988 34.2515 75.2004C34.2889 75.5748 34.2277 75.9528 34.0917 76.2984C33.3199 78.2712 33.6973 79.4304 33.3947 80.1072C32.1979 80.8344 31.3955 77.6556 31.3955 77.6556C31.3309 78.0408 31.0283 78.9048 30.6815 79.6392C30.4741 80.0784 30.2497 80.4708 30.0491 80.6904C28.8149 82.0476 27.0299 83.1276 25.0851 83.4192C24.5921 83.4912 24.1093 83.2932 23.7659 82.9188C23.7353 82.8864 23.7047 82.854 23.6775 82.818C23.6741 82.8144 23.6741 82.8144 23.6707 82.8108C23.5415 82.6524 23.3953 82.5408 23.2321 82.4724C23.0995 82.4148 22.9533 82.386 22.7969 82.3788C22.3617 82.3572 21.9061 82.494 21.7191 81.9684C21.6715 81.8388 21.6307 81.7164 21.5763 81.6048C21.4879 81.4284 21.3655 81.2916 21.1445 81.2304C21.0901 81.216 21.0255 81.2052 20.9609 81.2016C20.5665 81.1656 20.0293 81.2592 19.8083 80.9064C19.6791 80.7012 19.6723 80.4276 19.5635 80.208C19.5193 80.118 19.4615 80.0388 19.4003 79.9632C19.3323 79.8876 19.2575 79.8192 19.1793 79.7616C19.0603 79.6752 18.9311 79.614 18.7951 79.5564C18.5469 79.452 18.2851 79.362 18.0879 79.1676C18.0879 79.164 18.0845 79.164 18.0845 79.1604C17.8465 78.9228 17.8975 78.5088 18.1559 78.2928C19.7199 76.9968 24.2453 75.3264 24.2453 75.3264C24.2453 75.3264 23.9563 73.944 24.0651 71.2188C24.1739 68.4972 27.3053 68.0868 27.3053 68.0868C29.9471 63.0396 40.8339 49.8744 42.8943 48.4416C44.3597 47.4228 50.7517 46.9728 54.3285 46.8C55.7837 46.7244 56.7731 46.6992 56.7731 46.6992L57.9053 47.4192Z" fill="#FFAB96"/>
<path d="M57.9054 47.4192L54.8148 57.8556L51.5984 57.5964C52.258 56.3004 52.8292 54.9576 53.278 53.5644C53.9784 51.3936 54.3728 49.086 54.3286 46.8C55.7838 46.7244 56.7732 46.6992 56.7732 46.6992L57.9054 47.4192Z" fill="#ED8368"/>
<path d="M78.8935 48.5388C78.8935 48.5388 63.8451 66.3156 61.7949 64.0872C61.6113 63.8892 61.3903 63.702 61.1353 63.5328C60.9313 63.3888 60.7035 63.2592 60.4621 63.1332C60.3227 63.0612 60.1765 62.9928 60.0269 62.9244C59.7889 62.82 59.5407 62.7192 59.2823 62.6256C59.1157 62.5644 58.9457 62.5068 58.7723 62.4492C58.4901 62.3592 58.1977 62.2728 57.9053 62.1936C57.5381 62.0928 57.1675 62.0028 56.8003 61.9236C54.6413 61.4448 52.6727 61.2864 52.6727 61.2864C52.7237 56.4264 56.7731 46.6992 56.7731 46.6992C59.8692 46.4742 66.2377 46.6297 72.0755 47.3245C76.026 47.7925 78.8935 48.5388 78.8935 48.5388Z" fill="#24736B"/>
<path d="M58.6842 62.167C58.7114 62.2606 58.742 62.3542 58.7726 62.4478C58.4904 62.3578 58.198 62.2714 57.9056 62.1922C57.2766 60.1006 56.6442 57.9766 56.2158 55.831C56.1512 55.5178 56.5626 55.4026 56.668 55.7014C57.416 57.8218 58.0212 60.0142 58.6842 62.167Z" fill="#1D5C55"/>
<path d="M60.4557 54.6069C60.4421 55.8705 60.3027 57.1413 60.2313 58.4049C60.1599 59.6433 60.0953 60.8853 60.0511 62.1273C60.0409 62.3937 60.0341 62.6565 60.0273 62.9229C59.7893 62.8185 59.5411 62.7177 59.2827 62.6241C59.2861 62.4297 59.2929 62.2317 59.2997 62.0373C59.3439 60.7665 59.4119 59.4957 59.5139 58.2285C59.6125 56.9973 59.6941 55.7409 59.9321 54.5313C59.9933 54.2109 60.4591 54.2937 60.4557 54.6069Z" fill="#1D5C55"/>
<path d="M63.6245 54.4305C62.5671 57.3897 61.7273 60.4353 61.1357 63.5313C60.9317 63.3873 60.7039 63.2577 60.4625 63.1317C61.0507 60.0717 61.9483 57.0837 63.1553 54.2182C63.2743 53.9374 63.7299 54.1425 63.6245 54.4305Z" fill="#1D5C55"/>
<path d="M99.1136 40.1097C98.624 40.1133 97.8624 39.5013 97.2402 38.7309L97.2368 38.7273C96.7506 38.1261 96.3766 37.5609 96.3766 37.5609C96.3766 37.5609 95.9924 38.6301 95.3362 38.7778C94.5168 38.9685 93.4832 35.6278 93.4832 35.6278C93.4832 35.6278 93.2316 37.1793 92.436 37.2801C90.923 37.4781 90.7054 35.545 89.597 35.041C88.4852 34.537 87.8256 35.4046 87.0844 36.8626C86.7002 37.6186 86.0508 38.5581 85.517 39.2889C85.0614 39.9117 84.6874 40.3833 84.6296 40.4517C84.6228 40.4553 84.6228 40.4589 84.6228 40.4589C84.6228 40.4589 83.3002 37.6185 81.777 39.8253C80.6482 41.4561 81.8926 42.9753 82.6134 43.6521C81.743 45.0021 80.9236 46.2081 80.9508 45.9309C81.0052 45.3441 79.2848 41.1141 78.9142 36.5242C78.8326 35.5198 79.0026 34.6774 79.3188 33.9754C80.4408 31.4734 83.409 30.757 83.409 30.757C84.599 27.877 88.6688 28.1002 91.4976 28.5178C94.3264 28.939 95.9686 32.773 98.8484 35.743C101.732 38.7093 100.416 40.0989 99.1136 40.1097Z" fill="#4F2D33"/>
<path d="M85.517 39.2889C85.0614 39.9117 84.6874 40.3833 84.6296 40.4517C84.6228 40.4553 84.6228 40.4589 84.6228 40.4589C84.6228 40.4589 83.3002 37.6185 81.777 39.8253C80.6482 41.4561 81.8926 42.9753 82.6134 43.6521C81.743 45.0021 80.9236 46.2081 80.9508 45.9309C81.0052 45.3441 79.2848 41.1141 78.9142 36.5241C78.8326 35.5197 79.0026 34.6773 79.3188 33.9753C79.3732 34.0401 79.4378 34.0905 79.5092 34.1337C79.8492 34.3353 80.2674 34.2669 80.655 34.2633C81.046 34.2561 81.5016 34.3677 81.658 34.7493C81.7124 34.8861 81.7192 35.0409 81.7192 35.1921C81.7124 35.7177 81.641 36.3117 81.9742 36.6969C82.3312 37.1073 82.9398 37.0497 83.46 36.9993C83.9802 36.9453 84.6194 36.9885 84.8676 37.4745C85.1498 38.0289 84.7928 38.9217 85.3164 39.2241C85.3776 39.2601 85.4456 39.2817 85.517 39.2889Z" fill="#331D21"/>
<path d="M86.8941 49.8478C86.9043 50.0926 86.7309 50.6578 86.4657 51.349C86.2889 51.8134 86.0713 52.3354 85.8333 52.8574C85.1601 54.355 84.3509 55.849 84.0143 55.9786C83.3853 56.2198 78.8837 49.387 79.2543 48.703C79.6249 48.0154 82.4435 42.799 82.5659 42.7126C82.6067 42.6838 82.6509 42.6658 82.6985 42.655C83.0453 42.583 83.5179 43.0294 84.0177 43.7314C85.3403 45.589 86.8737 49.2322 86.8941 49.8478Z" fill="#FFAB96"/>
<path d="M86.4656 51.349C86.2888 51.8134 86.0712 52.3354 85.8332 52.8574C83.2696 50.2618 81.8178 46.3486 82.6984 42.655C83.0452 42.583 83.5178 43.0294 84.0176 43.7314C84.055 44.203 84.106 44.671 84.1672 45.1282C84.3372 46.3918 84.6364 47.6374 85.109 48.8146C85.4694 49.711 85.925 50.5606 86.4656 51.349Z" fill="#ED8368"/>
<path d="M97.1247 42.583C96.5229 43.6018 95.7613 45.3838 95.8429 46.5286C95.9211 47.6734 92.2355 53.995 90.8347 54.3334C89.4305 54.6754 83.0555 50.647 83.0555 44.0266C83.0555 44.0266 82.8651 43.8934 82.6135 43.6522C81.8927 42.9754 80.6483 41.4562 81.7771 39.8254C83.3003 37.6186 84.6229 40.459 84.6229 40.459C84.6229 40.459 84.6229 40.4554 84.6297 40.4518C84.7521 40.3006 86.3705 38.263 87.0845 36.8626C87.8257 35.4046 88.4853 34.537 89.5971 35.041C90.7055 35.545 90.9231 37.4782 92.4361 37.2802C93.2317 37.1794 93.4833 35.6278 93.4833 35.6278C93.4833 35.6278 94.5169 38.9686 95.3363 38.7778C95.9925 38.6302 96.3767 37.561 96.3767 37.561C96.3767 37.561 96.7507 38.1262 97.2369 38.7274L97.2403 38.731C97.4375 40.2214 97.5021 41.9458 97.1247 42.583Z" fill="#FFAB96"/>
<path d="M92.5612 43.0794C92.328 44.0492 91.3158 44.6123 90.3009 44.3387L90.2876 44.3351C90.1166 43.7911 90.0898 43.1302 90.2516 42.457C90.4134 41.7838 90.7364 41.2132 91.1322 40.8222L91.1454 40.8258C92.16 41.099 92.7941 42.1096 92.5612 43.0794Z" fill="#4F2D33"/>
<path d="M97.5599 44.8236C97.3266 45.7934 96.3144 46.3565 95.2995 46.0829L95.2863 46.0793C95.1153 45.5353 95.0884 44.8743 95.2502 44.2011C95.4121 43.5279 95.7351 42.9573 96.1308 42.5664L96.1441 42.57C97.159 42.8432 97.7931 43.8537 97.5599 44.8236Z" fill="#4F2D33"/>
<path d="M93.527 43.4397C93.3285 43.2353 92.9858 43.4988 93.1371 43.7583C93.2962 44.0319 93.4876 44.2818 93.6209 44.5719C93.7219 44.7923 93.8184 45.1083 93.7236 45.3485C93.6256 45.5954 93.3244 45.7473 93.1109 45.8557C92.844 45.9914 92.541 46.0857 92.2571 46.1729C91.9777 46.2585 92.0504 46.6661 92.3231 46.6895C92.7294 46.724 93.0898 46.6175 93.4529 46.4281C93.7933 46.2506 94.1601 45.9957 94.3043 45.6077C94.5899 44.8391 94.0255 43.9535 93.527 43.4397Z" fill="#ED8368"/>
<path d="M92.2545 39.0179C92.2215 38.9549 92.1763 38.8901 92.1172 38.8245C92.1311 38.8415 92.1447 38.8587 92.1586 38.8757C91.5919 38.0124 89.9153 38.1611 89.2265 38.7705C89.0585 38.9192 88.9807 39.1255 89.0493 39.3516C89.1207 39.5856 89.3356 39.8016 89.5842 39.7825C89.9663 39.753 90.3536 39.7659 90.7351 39.7955C90.6936 39.7839 90.6518 39.7728 90.6103 39.7613C91.0285 39.875 92.7693 40.0021 92.2545 39.0179Z" fill="#331D21"/>
<path d="M95.3887 39.9733C95.4437 39.9308 95.5107 39.8923 95.5903 39.8596C95.5709 39.8689 95.5515 39.8779 95.5321 39.8873C96.39 39.3577 97.8506 40.2412 98.2328 41.1016C98.3259 41.3114 98.3144 41.5336 98.1617 41.7071C98.0036 41.8874 97.7228 41.9872 97.5052 41.859C97.1703 41.6617 96.8143 41.5004 96.4563 41.3564C96.4984 41.3647 96.5409 41.373 96.5831 41.3813C96.1591 41.2981 94.5298 40.6361 95.3887 39.9733Z" fill="#331D21"/>
<path d="M83.8874 41.256C83.9044 41.0846 83.8857 40.9082 83.8422 40.7416C83.7742 40.4802 83.6494 40.2397 83.5151 40.009C83.4672 39.9265 83.4169 39.8441 83.3478 39.7807C83.2788 39.7174 83.1877 39.6745 83.0969 39.6868C82.7525 39.7328 82.9412 40.4485 82.9987 40.6642C83.0483 40.8506 83.1071 41.0339 83.1676 41.2168C83.0752 41.274 82.9847 41.3356 82.9007 41.405C82.7239 41.5516 82.4751 41.7676 82.402 42.0012C82.2894 42.3612 82.5611 42.6154 82.8885 42.5156C83.2152 42.4163 83.4631 42.1344 83.6528 41.8493C83.7178 41.7517 83.779 41.6506 83.8215 41.5397C83.8565 41.449 83.8776 41.3532 83.8874 41.256Z" fill="#ED8368"/>
<path d="M87.8512 33.3522C87.5781 32.9342 87.2164 32.5782 86.8366 32.2715C86.467 31.973 86.057 31.7369 85.6007 31.6296C85.2736 31.5525 85.1369 32.063 85.4616 32.1631C85.8421 32.2801 86.2158 32.513 86.5163 32.7704C86.8621 33.0667 87.1681 33.4166 87.5265 33.696C87.7169 33.8447 87.9824 33.5531 87.8512 33.3522Z" fill="#331D21"/>
<path d="M91.8839 33.3238C90.9231 32.062 89.7592 30.928 88.3146 30.3336C88.1799 30.2782 88.0249 30.3944 87.9882 30.5298C87.9447 30.6911 88.0419 30.8171 88.1735 30.8754C89.5155 31.469 90.4885 32.6743 91.547 33.6809C91.7795 33.9019 92.0743 33.5736 91.8839 33.3238Z" fill="#331D21"/>
<path d="M95.4685 33.9516C94.9735 33.0624 94.4659 32.2056 93.7818 31.4615C93.4758 31.1285 93.1361 30.8261 92.7767 30.5593C92.4041 30.2828 92.0128 30.0942 91.5874 29.9289C91.346 29.835 91.1736 30.2591 91.4106 30.3728C92.9981 31.136 94.082 32.7438 95.0568 34.2061C95.2309 34.4675 95.627 34.2363 95.4685 33.9516Z" fill="#331D21"/>
<path d="M129.21 93.9924C128.843 94.3632 128.35 94.5504 127.881 94.7556C127.415 94.9644 126.936 95.2236 126.667 95.6808C126.46 96.0408 126.402 96.4872 126.147 96.8112C125.824 97.218 125.28 97.3152 124.845 97.578C124.42 97.83 124.097 98.2404 123.706 98.55C123.311 98.8596 122.866 99.2556 122.383 99.18C119.615 98.7408 114.9 95.5908 114.9 95.5908C114.9 95.5908 94.7375 87.444 93.4115 85.9284C93.1361 85.6152 92.8607 85.2372 92.5921 84.8232C91.5551 83.232 90.6269 81.0864 90.3889 79.794C90.3889 79.794 92.9865 76.9824 95.8697 76.6224C96.3049 76.5684 97.0767 76.8096 98.0729 77.2632C103.017 79.4952 113.492 86.8536 115.947 88.596C116.304 88.8516 116.702 89.028 117.123 89.1324C122.108 90.3456 124.974 90.2952 128.697 91.944C129.003 92.0808 129.329 92.2356 129.503 92.5344C129.771 92.9916 129.574 93.618 129.21 93.9924Z" fill="#FFAB96"/>
<path d="M98.0729 77.2632C97.6887 77.4972 97.3215 77.76 96.9713 78.0444C94.8837 79.7328 93.3911 82.1772 92.5921 84.8232C91.5551 83.232 90.6269 81.0864 90.3889 79.794C90.3889 79.794 92.9865 76.9824 95.8697 76.6224C96.3049 76.5684 97.0767 76.8096 98.0729 77.2632Z" fill="#ED8368"/>
<path d="M97.3967 75.7282C97.3661 76.7938 89.4373 82.6006 87.9787 82.9822C86.5439 83.3566 80.4069 75.2241 80.1723 74.9145C80.1689 74.9109 80.1689 74.9073 80.1655 74.9037L79.7881 75.9441L76.9355 83.7886L76.8947 83.8966C76.8063 84.1414 76.7689 84.4006 76.7893 84.6598C76.7927 84.739 76.8063 84.8182 76.8233 84.8974C77.0511 85.9666 77.503 87.9019 77.6026 89.0291C76.704 89.5306 68.3413 92.4703 61.1537 93.4553C54.3728 94.3848 48.2371 93.7156 47.9981 93.361C47.5051 92.6302 53.8189 72.8841 59.3439 63.4809C64.8689 54.0777 74.3923 48.7065 79.6521 47.9649C82.6849 51.5685 97.4307 74.659 97.3967 75.7282Z" fill="#319C91"/>
<path d="M76.8946 83.8965C76.8062 84.1413 76.7688 84.4005 76.7892 84.6597C74.5282 84.9405 72.2672 85.2465 70.0198 85.6713C66.6844 86.3049 63.3728 87.0717 60.0612 87.8241C59.7416 87.8961 59.5852 87.3885 59.9116 87.3021C61.7952 86.8125 63.6822 86.3265 65.5726 85.8729C68.8502 85.0881 72.1516 84.4149 75.487 83.9685C75.9698 83.9037 76.4526 83.8425 76.9354 83.7885L76.8946 83.8965Z" fill="#24736B"/>
<path d="M80.1655 74.9037L79.7881 75.9441C79.7269 75.8469 79.6691 75.7497 79.6113 75.6525C79.2101 74.9865 77.3843 72.5421 77.0001 71.8797C76.8437 71.6061 77.2347 71.2749 77.4251 71.5341C77.8909 72.1677 79.7813 74.2737 80.1655 74.9037Z" fill="#24736B"/>
<path d="M23.1271 77.9205C21.8521 78.5469 20.6111 79.2201 19.4007 79.9617C19.3327 79.8861 19.2579 79.8177 19.1797 79.7601C19.0607 79.6737 18.9315 79.6125 18.7955 79.5549C20.1079 78.7053 21.4951 77.9853 22.9299 77.4237C23.2019 77.3157 23.3889 77.7909 23.1271 77.9205Z" fill="#ED8368"/>
<path d="M25.1603 79.6486C23.9329 80.2498 22.7395 80.8978 21.5767 81.6034C21.4883 81.427 21.3659 81.2902 21.1449 81.229C21.0905 81.2146 21.0259 81.2038 20.9613 81.2002C22.2363 80.3866 23.5759 79.6918 24.9631 79.1518C25.2351 79.0438 25.4221 79.519 25.1603 79.6486Z" fill="#ED8368"/>
<path d="M27.6184 80.8006C26.2958 81.4486 25.014 82.147 23.7662 82.9174C23.7356 82.885 23.705 82.8526 23.6778 82.8166C23.6744 82.813 23.6744 82.813 23.671 82.8094C23.5418 82.651 23.3956 82.5394 23.2324 82.471C24.5618 81.607 25.966 80.8726 27.4212 80.3038C27.6932 80.1958 27.8802 80.671 27.6184 80.8006Z" fill="#ED8368"/>
<path d="M31.3959 77.6542C31.3313 78.0394 31.0287 78.9034 30.6819 79.6378C30.7125 79.1878 30.7363 78.8602 30.7533 78.6802C30.8349 77.881 30.8961 76.8874 30.6887 76.1026C30.4847 75.3286 29.6959 74.9938 29.5395 74.1874C29.3933 73.4494 29.6653 72.733 30.0257 72.1138C30.2059 71.8078 30.6275 72.0742 30.4779 72.391C30.1107 73.1722 29.8761 74.0182 30.5289 74.6986C31.0117 75.2026 31.2123 75.2314 31.3245 75.9586C31.4435 76.6966 31.3823 76.909 31.3959 77.6542Z" fill="#ED8368"/>
<path d="M126.218 159.497C125.963 160.811 122.466 161.022 119.007 161.012C115.509 161.003 112.843 159.835 110.524 158.658C108.205 157.481 106.808 158.791 103.948 159.565C101.089 160.339 99.4367 158.355 99.5319 157.142C99.6271 155.933 100.596 150.493 100.596 150.493C101.881 149.834 106.09 150.885 106.09 150.885C106.09 150.885 106.903 148.801 108.185 147.75C108.545 147.455 109.83 148.535 111.629 150.093C112.363 150.731 113.183 151.443 114.06 152.174C114.315 152.387 114.577 152.603 114.842 152.815C115.726 153.535 116.654 154.251 117.606 154.91C117.691 154.971 117.78 155.033 117.865 155.09C118.082 155.238 118.303 155.385 118.524 155.526C119.49 156.149 120.469 156.707 121.39 157.189C124.002 158.561 126.15 159.367 126.218 159.497Z" fill="#FDDE44"/>
<path d="M21.8663 140.275C21.5895 139.968 20.8259 140.025 20.4522 140.014C19.3833 139.985 18.5085 140.85 18.2181 141.893C17.804 143.379 18.1763 144.94 18.929 146.231C19.3163 146.894 19.7991 147.495 20.3428 148.021C20.8572 148.518 21.5032 148.865 21.9669 149.416C22.7194 150.309 22.8853 151.573 23.195 152.724C23.7513 154.789 24.8671 156.639 26.4067 158.037C27.9227 159.414 29.6849 160.047 31.5162 160.757C33.4147 161.494 35.4724 162.404 37.5345 162.035C38.3148 161.896 39.4633 161.445 39.4103 160.422C39.3807 159.854 38.9863 159.288 38.5977 158.919C38.5977 158.919 34.1325 157.87 31.0949 154.485C26.2268 149.061 21.8891 140.3 21.8663 140.275Z" fill="#D4883B"/>
<path d="M38.5971 158.917C35.3909 160.289 32.9497 158.615 30.8927 157.535C29.0125 156.548 27.1833 154.755 26.3605 152.711C25.6567 150.954 25.5139 148.891 24.3443 147.437C23.7833 146.742 23.0319 146.245 22.4369 145.575C21.3897 144.395 20.2677 141.464 21.8657 140.276C22.7803 139.596 28.3869 138.127 28.3869 138.127C29.6517 138.732 30.2841 142.537 30.2841 142.537C30.2841 142.537 32.1609 144.074 33.7045 144.434C33.6603 144.924 33.5923 145.395 33.5107 145.842C33.3135 146.976 33.0279 147.977 32.8103 148.812C32.7933 148.877 32.7763 148.938 32.7627 148.999C32.5009 150.025 32.3581 150.788 32.6369 151.242C32.6913 151.332 32.7457 151.422 32.8001 151.508C32.8239 151.548 32.9157 151.71 33.0721 151.969C33.1503 152.102 33.2455 152.257 33.3577 152.437C33.7181 153.017 34.2417 153.823 34.9115 154.734C35.8669 156.03 37.1147 157.542 38.5971 158.917Z" fill="#FDDE44"/>
<path d="M32.7525 145.593C32.0453 145.381 31.3177 145.223 30.5935 145.107C29.9441 145.007 29.2675 144.938 28.6283 145.125C28.0979 145.284 27.6219 145.741 28.0367 146.321C28.2271 146.587 28.5331 146.731 28.8017 146.886C29.1281 147.073 29.4613 147.249 29.7911 147.422C30.7805 147.93 31.7903 148.38 32.8103 148.812C33.0279 147.977 33.3135 146.976 33.5107 145.842C33.2591 145.752 33.0075 145.669 32.7525 145.593Z" fill="#FDC026"/>
<path d="M32.8001 151.508C32.7457 151.422 32.6913 151.332 32.6369 151.242C32.3581 150.788 32.5009 150.025 32.7627 148.999C32.7151 149.003 32.6675 149.006 32.6199 149.013C31.8889 149.111 31.1613 149.262 30.4507 149.453C29.8149 149.625 29.1655 149.838 28.6453 150.277C28.2135 150.637 27.9415 151.253 28.5365 151.616C28.8085 151.785 29.1417 151.793 29.4477 151.825C29.8149 151.865 30.1889 151.893 30.5561 151.915C31.3925 151.965 32.2323 151.976 33.0721 151.969C32.9157 151.71 32.8239 151.548 32.8001 151.508Z" fill="#FDC026"/>
<path d="M33.3577 152.437C33.1265 152.585 32.9021 152.732 32.6777 152.887C32.1303 153.269 31.5795 153.693 31.2191 154.287C30.9233 154.777 30.8553 155.454 31.5285 155.594C31.8413 155.659 32.1575 155.551 32.4567 155.475C32.8137 155.385 33.1775 155.285 33.5311 155.18C33.9935 155.043 34.4559 154.892 34.9115 154.734C34.2417 153.823 33.7181 153.017 33.3577 152.437Z" fill="#FDC026"/>
<path d="M118.524 155.526C118.099 155.951 117.702 156.404 117.351 156.897C117.093 157.265 116.665 157.794 116.712 158.287C116.76 158.769 117.185 158.978 117.6 158.942C118.096 158.899 118.592 158.6 119.045 158.395C119.64 158.125 120.224 157.837 120.799 157.524C120.996 157.416 121.197 157.304 121.391 157.189C120.469 156.707 119.49 156.149 118.524 155.526ZM114.842 152.815C114.812 152.84 114.781 152.869 114.75 152.898C113.768 153.809 112.666 154.827 112.061 156.077C111.854 156.512 111.609 157.218 112.19 157.466C112.755 157.711 113.53 157.196 114.012 156.926C115.209 156.257 116.41 155.583 117.606 154.91C116.654 154.251 115.726 153.535 114.842 152.815ZM114.06 152.174C113.183 151.443 112.364 150.731 111.629 150.093C110.949 150.457 110.289 150.86 109.657 151.317C109.048 151.757 108.467 152.243 107.916 152.757C107.427 153.218 106.941 153.722 106.665 154.363C106.437 154.892 106.461 155.573 107.148 155.609C107.464 155.627 107.763 155.472 108.049 155.353C108.392 155.209 108.736 155.054 109.072 154.896C110.527 154.212 111.925 153.405 113.319 152.599C113.567 152.455 113.812 152.315 114.06 152.174Z" fill="#FDC026"/>
<path d="M74.9125 118.403C74.9125 118.403 74.1747 118.95 72.7467 119.67C71.5771 118.143 70.3225 116.693 68.9251 115.379C67.3033 113.859 65.5217 112.549 63.7231 111.282C61.9925 110.065 60.2347 108.881 58.5653 107.567C56.7021 106.105 54.6349 104.726 53.4517 102.541C53.3735 102.39 53.2375 102.231 53.2749 102.066C53.4959 101.144 55.0327 102.973 55.2095 103.149C56.1139 104.071 61.1357 107.441 62.5875 108.413C64.3113 109.561 66.0215 110.785 67.6433 112.063C70.1627 114.047 72.6039 116.153 74.9125 118.403Z" fill="#FDC026"/>
</g>
<defs>
<clipPath id="clip0_408_362">
<path d="M0 50C0 22.3858 22.3858 0 50 0H155C163.284 0 170 6.71573 170 15V130C170 157.614 147.614 180 120 180H15C6.71573 180 0 173.284 0 165V50Z" fill="white"/>
</clipPath>
</defs>
</svg>
