<svg width="32" height="30" viewBox="0 0 32 30" fill="none" xmlns="http://www.w3.org/2000/svg">
<path d="M29.712 14.8666C29.712 13.92 29.6199 13.0098 29.4486 12.136H15.8043V17.3059H23.6011C23.2586 18.9685 22.2314 20.3763 20.6904 21.3229V24.6846H25.3922C28.1316 22.3545 29.712 18.9321 29.712 14.8666Z" fill="#4285F4"/>
<path d="M15.8043 27.9127C19.7158 27.9127 22.9952 26.7234 25.3922 24.6845L20.6904 21.3229C19.3998 22.1238 17.7535 22.6093 15.8043 22.6093C12.0376 22.6093 8.83723 20.267 7.69142 17.1117H2.87111V20.5583C5.25492 24.9151 10.1411 27.9127 15.8043 27.9127Z" fill="#34A853"/>
<path d="M7.69141 17.0996C7.40167 16.2986 7.23045 15.4491 7.23045 14.5632C7.23045 13.6772 7.40167 12.8277 7.69141 12.0268V8.58014H2.8711C1.88334 10.3763 1.31702 12.403 1.31702 14.5632C1.31702 16.7234 1.88334 18.7501 2.8711 20.5462L6.62462 17.852L7.69141 17.0996Z" fill="#FBBC05"/>
<path d="M15.8043 6.52918C17.9379 6.52918 19.8344 7.20879 21.3489 8.51947L25.4976 4.69665C22.9821 2.53644 19.7158 1.21362 15.8043 1.21362C10.1411 1.21362 5.25492 4.21121 2.87111 8.58015L7.69141 12.0268C8.83722 8.87142 12.0376 6.52918 15.8043 6.52918Z" fill="#EA4335"/>
</svg>
