<?xml version="1.0" encoding="utf-8"?>
<!-- Generator: Adobe Illustrator 27.5.0, SVG Export Plug-In . SVG Version: 6.00 Build 0)  -->
<svg version="1.1" id="Layer_1" xmlns="http://www.w3.org/2000/svg" xmlns:xlink="http://www.w3.org/1999/xlink" x="0px" y="0px"
	 viewBox="0 0 491.5 491.5" style="enable-background:new 0 0 491.5 491.5;" xml:space="preserve">
<g>
	<path style="fill:#484848;" d="M245.8,35.5L245.8,35.5c-115.9,0-210.2,94.3-210.2,210.2s94.3,210.2,210.2,210.2
		C361.7,456,456,361.7,456,245.8S361.7,35.5,245.8,35.5z M360,290.9h-69.1V360c0,19.8-16.1,36-36,36l0,0h-18.4
		c-19.8,0-36-16.1-36-36v-69.1h-69.1c-19.9,0-36-16.1-36-36v-18.4c0-19.8,16.1-36,36-36h69.1v-69.1c0-19.9,16.1-36,36-36h18.4
		c19.8,0,36,16.1,36,36v69.1H360c19.8,0,36,16.1,36,36v18.4C396,274.8,379.8,290.9,360,290.9z"/>
	<path style="fill:#7B7B7B;" d="M360,210.2h-73.9c-2.6,0-4.8-2.1-4.8-4.8v-73.9c0-14.6-11.8-26.4-26.4-26.4h-18.4
		c-14.6,0-26.4,11.8-26.4,26.4v73.9c0,2.6-2.1,4.8-4.8,4.8h-73.9l0,0c-14.6,0-26.4,11.8-26.4,26.4V255c0,14.6,11.8,26.4,26.4,26.4
		h73.9c2.7,0,4.8,2.2,4.8,4.8V360c0,14.6,11.8,26.4,26.4,26.4h18.4c14.6,0,26.4-11.8,26.4-26.4v-73.9c0-2.7,2.1-4.8,4.8-4.8H360
		c14.6,0,26.4-11.8,26.4-26.4v-18.4C386.4,222,374.6,210.2,360,210.2z"/>
</g>
</svg>
