<svg width="64" height="26" viewBox="0 0 64 26" fill="none" xmlns="http://www.w3.org/2000/svg">
<path opacity="0.2" d="M23.1219 12.7917C23.1222 14.8182 22.5888 16.8091 21.5754 18.5641C20.562 20.319 19.1044 21.7761 17.3491 22.7887C15.5939 23.8014 13.6029 24.3339 11.5766 24.3327C9.55018 24.3315 7.55986 23.7966 5.80583 22.7818L1.31184 24.2808C1.14242 24.3373 0.960616 24.3455 0.786799 24.3044C0.612981 24.2634 0.454022 24.1748 0.327739 24.0485C0.201455 23.9222 0.112837 23.7632 0.0718172 23.5894C0.0307973 23.4155 0.0389967 23.2337 0.0954962 23.0643L1.59429 18.5699C0.708368 17.0373 0.186863 15.3215 0.070134 13.5552C-0.0465949 11.7888 0.244581 10.0193 0.921131 8.38348C1.59768 6.74768 2.64147 5.28948 3.97173 4.1217C5.30199 2.95392 6.88306 2.10787 8.5926 1.64901C10.3021 1.19016 12.0943 1.1308 13.8305 1.47553C15.5666 1.82026 17.2002 2.55983 18.6048 3.63703C20.0094 4.71423 21.1474 6.10017 21.9307 7.68762C22.714 9.27507 23.1216 11.0215 23.1219 12.7917Z" fill="black"/>
<path d="M18.9495 10.8925C19.0389 10.9818 19.1098 11.0878 19.1582 11.2046C19.2066 11.3213 19.2315 11.4464 19.2315 11.5728C19.2315 11.6992 19.2066 11.8243 19.1582 11.9411C19.1098 12.0578 19.0389 12.1639 18.9495 12.2532L15.1034 16.0997C15.0141 16.1891 14.908 16.26 14.7913 16.3084C14.6746 16.3568 14.5494 16.3817 14.4231 16.3817C14.2967 16.3817 14.1716 16.3568 14.0549 16.3084C13.9381 16.26 13.8321 16.1891 13.7428 16.0997L10.5769 12.9323L7.41106 16.0997C7.23063 16.2801 6.98593 16.3815 6.73077 16.3815C6.47561 16.3815 6.2309 16.2801 6.05048 16.0997C5.87006 15.9192 5.7687 15.6745 5.7687 15.4193C5.7687 15.1642 5.87006 14.9194 6.05048 14.739L9.89663 10.8925C9.98594 10.803 10.092 10.7321 10.2087 10.6837C10.3254 10.6353 10.4506 10.6104 10.5769 10.6104C10.7033 10.6104 10.8284 10.6353 10.9451 10.6837C11.0619 10.7321 11.1679 10.803 11.2572 10.8925L14.4231 14.0598L17.5889 10.8925C17.6782 10.803 17.7843 10.7321 17.901 10.6837C18.0177 10.6353 18.1429 10.6104 18.2692 10.6104C18.3956 10.6104 18.5207 10.6353 18.6374 10.6837C18.7542 10.7321 18.8602 10.803 18.9495 10.8925ZM25 13.4961C25.0005 15.6544 24.4422 17.776 23.3795 19.6545C22.3169 21.533 20.786 23.1044 18.9359 24.2156C17.0859 25.3269 14.9797 25.9402 12.8223 25.9958C10.6649 26.0515 8.52988 25.5476 6.625 24.5332L2.53245 25.8975C2.19361 26.0105 1.83 26.0269 1.48236 25.9449C1.13473 25.8628 0.816811 25.6856 0.564244 25.433C0.311677 25.1804 0.134441 24.8624 0.0524008 24.5148C-0.0296388 24.1671 -0.01324 23.8034 0.0997593 23.4646L1.46394 19.3716C0.572294 17.6951 0.0742753 15.8374 0.00768911 13.9396C-0.0588971 12.0418 0.307699 10.1538 1.07965 8.41882C1.8516 6.68388 3.00862 5.14761 4.46288 3.92663C5.91714 2.70566 7.63042 1.83206 9.47268 1.37216C11.3149 0.91226 13.2377 0.878138 15.0951 1.27239C16.9526 1.66663 18.6957 2.47889 20.1924 3.64749C21.6891 4.8161 22.8999 6.31035 23.7329 8.01681C24.5659 9.72328 24.9992 11.5971 25 13.4961ZM23.0769 13.4961C23.0765 11.8735 22.7028 10.2727 21.9847 8.81767C21.2667 7.36262 20.2236 6.09228 18.9361 5.10492C17.6486 4.11756 16.1512 3.43966 14.5598 3.12367C12.9684 2.80767 11.3257 2.86205 9.75869 3.28259C8.19168 3.70313 6.74242 4.47857 5.52302 5.54891C4.30362 6.61924 3.34678 7.95579 2.72652 9.45513C2.10625 10.9545 1.8392 12.5764 1.94603 14.1955C2.05285 15.8146 2.53068 17.3874 3.34255 18.7922C3.41069 18.9102 3.453 19.0413 3.46667 19.1768C3.48035 19.3123 3.46508 19.4492 3.42187 19.5784L1.92308 24.074L6.41827 22.5739C6.54752 22.5308 6.68444 22.5158 6.81995 22.5296C6.95547 22.5435 7.08648 22.5861 7.20433 22.6544C8.81223 23.5845 10.6367 24.0747 12.4942 24.0757C14.3517 24.0768 16.1767 23.5885 17.7856 22.6602C19.3945 21.7319 20.7306 20.3962 21.6595 18.7875C22.5884 17.1787 23.0772 15.3537 23.0769 13.4961Z" fill="black"/>
<path opacity="0.2" d="M45.8865 11V24H40.5295C40.2928 24 40.0657 23.8946 39.8982 23.7071C39.7308 23.5196 39.6367 23.2652 39.6367 23V12C39.6367 11.7348 39.7308 11.4804 39.8982 11.2929C40.0657 11.1054 40.2928 11 40.5295 11H45.8865Z" fill="black"/>
<path d="M63.0732 8.015C62.8218 7.69591 62.5126 7.44037 62.1663 7.26537C61.8199 7.09037 61.4443 6.99991 61.0643 7H54.8145V5C54.8145 3.67392 54.3442 2.40215 53.507 1.46447C52.6698 0.526784 51.5344 2.56378e-07 50.3504 2.56378e-07C50.1845 -0.00013275 50.0219 0.0514889 49.8808 0.149077C49.7396 0.246665 49.6255 0.386361 49.5513 0.5525L45.3349 10H40.5293C40.0557 10 39.6015 10.2107 39.2667 10.5858C38.9318 10.9609 38.7437 11.4696 38.7437 12V23C38.7437 23.5304 38.9318 24.0391 39.2667 24.4142C39.6015 24.7893 40.0557 25 40.5293 25H59.7251C60.3776 25.0003 61.0078 24.7337 61.4973 24.2503C61.9868 23.767 62.3019 23.1001 62.3835 22.375L63.7227 10.375C63.7702 9.95253 63.7368 9.52358 63.6248 9.11667C63.5128 8.70976 63.3248 8.33422 63.0732 8.015ZM40.5293 12H44.9934V23H40.5293V12ZM61.9504 10.125L60.6112 22.125C60.584 22.3667 60.479 22.589 60.3158 22.7501C60.1526 22.9112 59.9426 23.0001 59.7251 23H46.7791V11.2362L50.876 2.0575C51.4833 2.19362 52.0296 2.5612 52.4221 3.09768C52.8146 3.63416 53.029 4.3064 53.0289 5V8C53.0289 8.26522 53.1229 8.51957 53.2904 8.70711C53.4578 8.89464 53.6849 9 53.9217 9H61.0643C61.191 8.99995 61.3163 9.0301 61.4317 9.08846C61.5472 9.14681 61.6503 9.23202 61.7341 9.33843C61.8179 9.44485 61.8806 9.57002 61.9179 9.70564C61.9552 9.84125 61.9663 9.98421 61.9504 10.125Z" fill="black"/>
</svg>
