<svg width="312" height="169" viewBox="0 0 312 169" fill="none" xmlns="http://www.w3.org/2000/svg">
<g filter="url(#filter0_dd_381_458)">
<path d="M307.759 125.681V125.669V46.481C307.759 46.4521 307.749 46.4243 307.746 46.3959C307.748 46.3781 307.759 46.3618 307.759 46.3439C307.761 45.8811 307.35 45.4655 306.741 45.317L179.714 14.2605L173.182 11.0415L175.792 10.4212V9.16064L159.169 13.1101L149.465 10.7376L158.13 8.67834L153.722 6.50681L156.81 5.77316V4.51207L140.187 8.46151L130.483 6.089V7.34901L140.187 9.72206L146.089 8.31978L147.49 8.66249V62.1178L122.154 55.9233V2.46803L133.77 5.30819L138.502 4.18414L121.623 0.0577669C121.406 0.00429802 121.18 0.00161232 120.956 0.0220326C120.859 0.00792649 120.758 0 120.655 0C120.248 0 119.881 0.117551 119.611 0.306976L5.0549 27.5237C5.04315 27.5264 5.03383 27.5326 5.02208 27.5352C4.89024 27.5699 4.76568 27.6151 4.65342 27.6728C4.63738 27.6813 4.62433 27.6907 4.60904 27.699C4.50554 27.7568 4.41454 27.8229 4.33585 27.8974C4.32634 27.9068 4.31552 27.9142 4.30601 27.9236C4.22657 28.004 4.16466 28.0921 4.11804 28.1865C4.10853 28.205 4.102 28.2232 4.09398 28.2422C4.05538 28.3361 4.02834 28.4343 4.02704 28.5371C4.02704 28.5396 4.02555 28.5418 4.02555 28.5444V28.5461V28.5491V107.698V107.709L4 107.703V114.902L190.995 160.621L307.783 132.874V125.675L307.759 125.681ZM152.571 6.7802L155.184 8.26268L150.82 7.19586L152.571 6.7802ZM290.21 43.5557L301.535 46.3244L290.21 49.015V43.5557ZM235.433 30.1633L284.214 42.0899V50.4397L235.433 62.0294V30.1633ZM235.433 64.304L284.214 52.7137V78.7297L235.433 66.8036V64.304ZM172.048 11.3107L175.379 13.2L169.818 11.8408L172.048 11.3107ZM153.487 12.981L159.169 14.3706L165.087 12.9647L229.437 28.6972V40.9015L153.487 22.3327V12.981ZM153.487 24.6133L229.437 43.1821V63.4544L225.759 64.3276L153.487 46.6578V24.6133ZM200.77 82.5438L192.167 80.4405V74.5834L225.745 66.6051L229.437 67.5078V89.5528L211.681 85.2113V79.9568L200.77 82.5438ZM196.035 83.6668L192.167 84.5841V82.7211L196.035 83.6668ZM119.156 2.68903V55.1902L67.7328 42.6175L74.0068 35.1069L80.5466 36.7058L97.1694 32.7564V31.4958L80.5466 35.4453L70.8425 33.0728V34.3328L72.2177 34.6692L63.4029 41.559L46.2287 37.3602L52.8399 29.446L59.3791 31.045L76.0019 27.0961V25.8355L59.3791 29.7846L49.675 27.4121V28.6726L51.0503 29.009L41.7627 36.2688L10.2487 28.5639L119.156 2.68903ZM42.4562 98.567V106.771V108.645V117.105L24.9075 112.815L21.0178 111.864L7.02318 108.442V106.985V30.0558L42.4562 38.7188V98.567ZM81.4301 89.3078V97.5112V99.3857V126.633L45.4537 117.838V107.934V106.059V97.8549V39.4514L81.4301 48.2473V89.3078ZM189.169 91.7706V92.5614V94.0885V94.8794V96.4065V97.1984V98.7255V99.517V101.043V101.835V103.363V104.154V106.659V108.534V121.896V123.343V141.403V143.278V152.975L169.055 148.057L165.165 147.106L96.9815 130.436L96.0899 130.218V128.772V126.267V125.476V123.949V123.158V121.63V120.839V119.313V118.521V116.993V116.202V114.674V113.884V111.893L100.406 110.867L101.369 110.637L107.659 109.143L108.622 108.915L114.911 107.421L115.874 107.192L119.602 106.306L123.127 105.469L129.417 103.975L130.379 103.746L136.669 102.251L137.633 102.022L143.922 100.528L144.885 100.3L151.174 98.8057L152.138 98.5764L158.427 97.0824L159.389 96.8531L165.679 95.359L166.643 95.1308L172.932 93.6356L173.896 93.4074L174.864 93.1765L180.185 91.9128L181.148 91.684L187.438 90.19L188.4 89.9607L189.169 89.7781L189.169 91.7706ZM189.169 85.2952L165.543 90.8977L113.242 103.3L110.238 104.013L93.0917 108.079V129.485L84.4285 127.367V98.674V96.7989V88.5955V48.9799L119.156 57.4703V80.3445L120.79 79.9566L122.154 80.2903V58.2039L147.49 64.398V86.4849L153.487 87.9501V73.2642L189.169 81.9887L189.169 85.2952ZM189.169 79.7079L153.486 70.9839V65.8642L189.169 74.5877V79.7079ZM190.65 72.6695L153.486 63.5835V48.9384L221.028 65.4516L190.65 72.6695ZM304.761 124.936V126.392L192.167 153.143V142.566V140.691V124.078V122.63V107.822V105.946V103.441V102.649V101.122V100.331V98.8041V98.0133V97.4076V96.4851V95.6942V94.1671V93.3762V91.8491V91.0572V89.0657L194.689 88.4664L195.652 88.2376L201.941 86.7435L202.906 86.5147L205.328 85.9391L208.683 86.7593V87.1334V87.9243V89.4514V90.2433V91.7704V92.5613V94.0884V94.8803V96.4074V97.1983V98.7254V99.5168V101.445V102.022V102.536H211.681V102.178V87.4929L229.437 91.8334V106.519L235.433 107.986V71.3648L240.242 72.5408V109.162L246.239 110.628V74.0072L272.075 80.3235V116.944L278.071 118.411V81.7897L284.214 83.2912V119.912L285.843 120.31L290.209 121.378V51.2894L304.76 47.8322L304.761 124.936Z" fill="#002F51"/>
<path d="M89.4639 97.4775L113.242 103.3L165.543 90.8978L153.486 87.9501L147.49 86.4849L141.697 85.068L89.4639 97.4775Z" fill="#0E5ADD"/>
<path d="M194.689 98.2048L192.167 98.8041V100.331L194.689 99.7319V98.2048Z" fill="#0E5ADD"/>
<path d="M192.167 97.4078V98.0133L193.423 97.7142L192.167 97.4078Z" fill="#0E5ADD"/>
<path d="M198.232 98.8897L195.652 98.2599V99.5031L198.232 98.8897Z" fill="#0E5ADD"/>
<path d="M181.148 96.7848V98.3119L187.437 96.8178V96.2505L185.446 95.7641L181.148 96.7848Z" fill="#0E5ADD"/>
<path d="M188.399 96.5896L188.613 96.5387L188.399 96.4867V96.5896Z" fill="#0E5ADD"/>
<path d="M178.995 94.1871L174.863 93.1765L173.896 93.4073V95.3984L178.995 94.1871Z" fill="#0E5ADD"/>
<path d="M202.906 100.098L203.038 100.066L202.906 100.033V100.098Z" fill="#0E5ADD"/>
<path d="M188.399 98.9081L189.169 98.7254V97.1983L188.399 97.3809V98.9081Z" fill="#0E5ADD"/>
<path d="M188.399 101.226L189.169 101.043V99.5168L188.399 99.6989V101.226Z" fill="#0E5ADD"/>
<path d="M195.652 100.294V101.821L201.941 100.327V99.7971L199.873 99.2922L195.652 100.294Z" fill="#0E5ADD"/>
<path d="M183.804 95.3626L181.148 94.7135V95.9939L183.804 95.3626Z" fill="#0E5ADD"/>
<path d="M194.689 102.05V100.523L192.167 101.122V102.649L194.689 102.05Z" fill="#0E5ADD"/>
<path d="M202.906 100.89V103.395L208.683 102.022V101.445L204.683 100.468L202.906 100.89Z" fill="#0E5ADD"/>
<path d="M194.689 102.841L192.167 103.441V105.946L194.689 105.347V102.841Z" fill="#0E5ADD"/>
<path d="M166.642 97.1217L172.931 95.6277V93.6355L166.642 95.1306V97.1217Z" fill="#0E5ADD"/>
<path d="M100.406 110.867L96.0897 111.893V113.884L100.406 112.859V110.867Z" fill="#0E5ADD"/>
<path d="M165.679 97.3511V95.359L159.389 96.8531V98.8451L165.679 97.3511Z" fill="#0E5ADD"/>
<path d="M188.399 103.545L189.169 103.362V101.835L188.399 102.017V103.545Z" fill="#0E5ADD"/>
<path d="M100.406 115.968L96.0897 116.994V118.521L100.406 117.495V115.968Z" fill="#0E5ADD"/>
<path d="M188.399 106.842L189.169 106.659V104.154L188.399 104.336V106.842Z" fill="#0E5ADD"/>
<path d="M42.4562 108.645L24.9077 112.815L42.4562 117.105V108.645Z" fill="#0E5ADD"/>
<path d="M107.659 111.135V109.143L101.369 110.637V112.629L107.659 111.135Z" fill="#0E5ADD"/>
<path d="M158.427 99.0734V97.0824L152.137 98.5764V100.567L158.427 99.0734Z" fill="#0E5ADD"/>
<path d="M122.164 107.689V106.934L119.602 106.306L115.874 107.192V109.183L122.164 107.689Z" fill="#0E5ADD"/>
<path d="M114.911 109.412V107.421L108.622 108.915V110.906L114.911 109.412Z" fill="#0E5ADD"/>
<path d="M126.731 106.604L129.416 105.966V103.975L123.127 105.469V105.721L126.731 106.604Z" fill="#0E5ADD"/>
<path d="M151.174 100.797V98.8057L144.885 100.3V102.291L151.174 100.797Z" fill="#0E5ADD"/>
<path d="M136.668 104.242V102.251L130.379 103.746V105.737L136.668 104.242Z" fill="#0E5ADD"/>
<path d="M143.922 102.52V100.528L137.632 102.022V104.014L143.922 102.52Z" fill="#0E5ADD"/>
<path d="M100.406 113.65L96.0897 114.675V116.202L100.406 115.177V113.65Z" fill="#0E5ADD"/>
<path d="M45.4536 117.838L81.4301 126.633V99.3856L45.4536 107.934V117.838Z" fill="#0E5ADD"/>
<path d="M84.4285 98.674V127.367L93.0917 129.485V108.079L110.238 104.013L86.4637 98.1902L84.4285 98.674Z" fill="#0E5ADD"/>
<path d="M123.729 107.317L123.127 107.169V107.46L123.729 107.317Z" fill="#0E5ADD"/>
<path d="M100.406 118.287L96.0897 119.313V120.839L100.406 119.814V118.287Z" fill="#0E5ADD"/>
<path d="M96.0897 126.267V128.772L100.406 127.747V125.241L96.0897 126.267Z" fill="#0E5ADD"/>
<path d="M100.406 122.924L96.0897 123.949V125.476L100.406 124.451V122.924Z" fill="#0E5ADD"/>
<path d="M100.406 120.605L96.0897 121.631V123.158L100.406 122.132V120.605Z" fill="#0E5ADD"/>
<path d="M189.169 123.343L158.475 115.826L96.9814 130.436L165.165 147.106L189.169 141.403V123.343Z" fill="#0E5ADD"/>
<path d="M281.954 119.359L278.071 118.411L272.076 116.944L246.239 110.628L240.242 109.162L235.433 107.986L229.437 106.52L213.77 102.689L192.167 107.822V122.63L229.601 131.798L281.954 119.359Z" fill="#0E5ADD"/>
<path d="M192.167 124.078V140.691L226.599 132.511L192.167 124.078Z" fill="#0E5ADD"/>
<path d="M189.169 108.534L161.476 115.113L189.169 121.896V108.534Z" fill="#0E5ADD"/>
<path d="M158.475 115.826L189.169 123.343V121.896L161.476 115.113V115.113L189.169 108.534V106.659L188.399 106.842V104.336L189.169 104.154V103.362L188.399 103.545V102.017L189.169 101.835V101.043L188.399 101.226V99.6989L189.169 99.5168V98.7254L188.399 98.908V97.3809L189.169 97.1983V96.4064L188.613 96.5386L188.399 96.5895V96.4866V95.0622L189.169 94.8791V94.0883L188.399 94.2703V92.7432L189.169 92.5612V91.7703L188.399 91.9523V89.9603L187.437 90.1896V92.1816L181.148 93.6757V91.6836L180.184 91.9124V93.9039L178.995 94.1867L173.896 95.398V93.407L172.931 93.6353V95.6273L166.642 97.1213V95.1304L165.679 95.3586V97.3507L159.389 98.8447V96.8527L158.427 97.082V99.0729L152.137 100.567V98.576L151.174 98.8053V100.796L144.884 102.291V100.299L143.921 100.528V102.52L137.632 104.014V102.022L136.668 102.251V104.242L130.379 105.737V103.746L129.416 103.974V105.966L126.731 106.603L123.127 105.721V105.468L119.602 106.305L122.164 106.934V107.689L115.874 109.183V107.191L114.911 107.421V109.412L108.622 110.906V108.915L107.659 109.143V111.135L101.368 112.629V110.637L100.406 110.866V112.858L96.0895 113.883V114.674L100.406 113.649V115.176L96.0895 116.201V116.993L100.406 115.967V117.494L96.0895 118.52V119.312L100.406 118.286V119.813L96.0895 120.839V121.63L100.406 120.605V122.132L96.0895 123.157V123.949L100.406 122.923V124.45L96.0895 125.476V126.267L100.406 125.241V127.747L96.0895 128.772V130.218L96.981 130.435L158.474 115.826H158.475V115.826ZM187.437 96.8179L181.148 98.3119V96.7848L185.446 95.7641L187.437 95.2908V96.2507V96.8179ZM181.148 94.4668L187.437 92.9728V94.4999L183.804 95.3627L181.148 95.9939V94.7135V94.4668H181.148Z" fill="#D4D4D4"/>
<path d="M45.4536 106.059L81.4301 97.5111V89.3078L45.4536 97.8548V106.059Z" fill="#0E5ADD"/>
<path d="M137.807 84.1166L122.154 80.2905L120.79 79.9566L119.156 80.3445L84.4285 88.5956V96.7989L137.807 84.1166Z" fill="#0E5ADD"/>
<path d="M42.4562 98.567L7.02332 106.985V108.442L21.0177 111.864L42.4562 106.771V98.567Z" fill="#0E5ADD"/>
<path d="M285.844 120.31L192.167 142.566V153.143L304.761 126.392V124.936L290.21 121.378L285.844 120.31Z" fill="#0E5ADD"/>
<path d="M189.169 143.278L169.055 148.057L189.169 152.975V143.278Z" fill="#0E5ADD"/>
<path d="M285.844 120.31L284.214 119.912L281.954 119.359L229.601 131.798L192.167 122.63V124.078L226.599 132.511L192.167 140.691V142.566L285.844 120.31Z" fill="#D4D4D4"/>
<path d="M189.169 141.403L165.165 147.106L169.055 148.057L189.169 143.278V141.403Z" fill="#D4D4D4"/>
<path d="M42.4563 106.771L21.0178 111.864L24.9078 112.815L42.4563 108.645V106.771Z" fill="#D4D4D4"/>
<path d="M45.4536 107.934L81.4301 99.3856V97.5111L45.4536 106.059V107.934Z" fill="#D4D4D4"/>
<path d="M141.697 85.068L137.807 84.1166L84.4285 96.7989V98.6739L86.4637 98.1902L110.238 104.013L113.242 103.3L89.4641 97.4775L141.697 85.068Z" fill="#D4D4D4"/>
<path d="M213.77 102.689L211.681 102.178V102.536H208.683V102.022L202.906 103.395V100.89L204.683 100.468L208.683 99.5168V98.7254L203.042 100.066L202.906 100.098V100.033V98.5712L208.683 97.1983V96.4074L202.906 97.7798V96.2532L208.683 94.8803V94.0884L202.906 95.4618V93.9347L208.683 92.5613V91.7704L202.906 93.1427V91.6156L208.683 90.2433V89.4514L202.906 90.8248V89.2977L208.683 87.9243V87.1334L202.906 88.5068V86.5147L201.942 86.7435V88.7351L195.652 90.2291V88.2376L194.689 88.4664V90.4579L192.167 91.0572V91.8491L194.689 91.2493V92.7764L192.167 93.3762V94.1671L194.689 93.5683V95.0954L192.167 95.6942V96.4851L194.689 95.8863V97.4134L193.422 97.7141L192.167 98.0133V98.8041L194.689 98.2048V99.7319L192.167 100.331V101.122L194.689 100.523V102.05L192.167 102.649V103.441L194.689 102.841V105.347L192.167 105.946V107.822L213.77 102.689ZM201.942 100.327L195.652 101.821V100.294L199.874 99.2922L201.942 98.8V99.7971V100.327ZM195.652 91.0212L201.942 89.5272V91.0542L195.652 92.5483V91.0212ZM195.652 93.339L201.942 91.845V93.3721L195.652 94.8661V93.339ZM195.652 95.657L201.942 94.163V95.69L195.652 97.1841V95.657ZM195.652 97.976L201.942 96.482V98.0091L198.232 98.8897L195.652 99.5031V98.2599V97.976Z" fill="#D4D4D4"/>
<path d="M49.675 27.4119L59.3792 29.7844L76.002 25.8355L66.2971 23.4629L49.675 27.4119Z" fill="#3878BD"/>
<path d="M70.8424 33.0728L80.5465 35.4453L97.1694 31.4958L87.4645 29.1232L70.8424 33.0728Z" fill="#3878BD"/>
<path d="M149.465 10.7376L159.169 13.1101L175.792 9.16064L166.087 6.78799L158.13 8.67834L149.465 10.7376Z" fill="#3878BD"/>
<path d="M130.483 6.089L140.187 8.46151L156.81 4.51207L147.106 2.13956L138.502 4.18413L133.77 5.30819L130.483 6.089Z" fill="#3878BD"/>
<path d="M201.941 103.624V101.118L195.652 102.612V105.118L201.941 103.624Z" fill="#0E5ADD"/>
<path d="M107.659 126.024V123.519L101.369 125.013V127.518L107.659 126.024Z" fill="#0E5ADD"/>
<path d="M107.659 121.2L101.369 122.694V124.221L107.659 122.727V121.2Z" fill="#0E5ADD"/>
<path d="M107.659 118.882L101.369 120.376V121.903L107.659 120.408V118.882Z" fill="#0E5ADD"/>
<path d="M107.659 116.563L101.369 118.057V119.584L107.659 118.09V116.563Z" fill="#0E5ADD"/>
<path d="M107.659 114.245L101.369 115.739V117.266L107.659 115.772V114.245Z" fill="#0E5ADD"/>
<path d="M107.659 111.926L101.369 113.421V114.947L107.659 113.453V111.926Z" fill="#0E5ADD"/>
<path d="M114.911 121.796L108.622 123.29V125.795L114.911 124.301V121.796Z" fill="#0E5ADD"/>
<path d="M114.911 119.477L108.622 120.971V122.498L114.911 121.004V119.477Z" fill="#0E5ADD"/>
<path d="M114.911 117.159L108.622 118.653V120.18L114.911 118.686V117.159Z" fill="#0E5ADD"/>
<path d="M114.911 114.84L108.622 116.335V117.861L114.911 116.367V114.84Z" fill="#0E5ADD"/>
<path d="M114.911 112.522L108.622 114.016V115.543L114.911 114.049V112.522Z" fill="#0E5ADD"/>
<path d="M114.911 110.203L108.622 111.698V113.224L114.911 111.731V110.203Z" fill="#0E5ADD"/>
<path d="M122.164 122.578V120.073L115.874 121.567V124.072L122.164 122.578Z" fill="#0E5ADD"/>
<path d="M122.164 117.753L115.874 119.249V120.776L122.164 119.281V117.753Z" fill="#0E5ADD"/>
<path d="M122.164 115.435L115.874 116.93V118.457L122.164 116.963V115.435Z" fill="#0E5ADD"/>
<path d="M122.164 113.118L115.874 114.612V116.139L122.164 114.645V113.118Z" fill="#0E5ADD"/>
<path d="M122.164 110.798L115.874 112.293V113.82L122.164 112.326V110.798Z" fill="#0E5ADD"/>
<path d="M122.164 108.48L115.874 109.975V111.502L122.164 110.007V108.48Z" fill="#0E5ADD"/>
<path d="M129.416 118.35L123.127 119.844V122.349L129.416 120.855V118.35Z" fill="#0E5ADD"/>
<path d="M123.127 119.052L129.416 117.558V116.031L123.127 117.525V119.052Z" fill="#0E5ADD"/>
<path d="M123.127 116.733L129.416 115.239V113.712L123.127 115.206V116.733Z" fill="#0E5ADD"/>
<path d="M129.416 111.394L123.127 112.888V114.415L129.416 112.921V111.394Z" fill="#0E5ADD"/>
<path d="M123.127 112.096L129.416 110.603V109.076L123.127 110.57V112.096Z" fill="#0E5ADD"/>
<path d="M123.127 108.251V109.778L129.416 108.284V106.757L123.127 108.251Z" fill="#0E5ADD"/>
<path d="M136.668 119.132V116.626L130.379 118.121V120.627L136.668 119.132Z" fill="#0E5ADD"/>
<path d="M136.668 114.308L130.379 115.802V117.329L136.668 115.835V114.308Z" fill="#0E5ADD"/>
<path d="M136.668 111.99L130.379 113.484V115.011L136.668 113.517V111.99Z" fill="#0E5ADD"/>
<path d="M136.668 109.671L130.379 111.165V112.692L136.668 111.198V109.671Z" fill="#0E5ADD"/>
<path d="M130.379 108.847V110.374L136.668 108.879V107.352L130.379 108.847Z" fill="#0E5ADD"/>
<path d="M130.379 108.055L136.668 106.561V105.034L130.379 106.528V108.055Z" fill="#0E5ADD"/>
<path d="M143.922 114.903L137.632 116.397V118.902L143.922 117.408V114.903Z" fill="#0E5ADD"/>
<path d="M137.632 115.606L143.922 114.112V112.584L137.632 114.078V115.606Z" fill="#0E5ADD"/>
<path d="M143.922 110.266L137.632 111.761V113.288L143.922 111.794V110.266Z" fill="#0E5ADD"/>
<path d="M143.922 109.476V107.949L137.632 109.443V110.97L143.922 109.476Z" fill="#0E5ADD"/>
<path d="M143.922 105.629L137.632 107.123V108.651L143.922 107.157V105.629Z" fill="#0E5ADD"/>
<path d="M143.922 103.312L137.632 104.806V106.333L143.922 104.839V103.312Z" fill="#0E5ADD"/>
<path d="M151.174 115.686V113.18L144.885 114.675V117.18L151.174 115.686Z" fill="#0E5ADD"/>
<path d="M151.174 112.389V110.862L144.885 112.356V113.883L151.174 112.389Z" fill="#0E5ADD"/>
<path d="M144.885 111.564L151.174 110.07V108.543L144.885 110.037V111.564Z" fill="#0E5ADD"/>
<path d="M151.174 106.225L144.885 107.719V109.246L151.174 107.752V106.225Z" fill="#0E5ADD"/>
<path d="M151.174 103.907L144.885 105.401V106.928L151.174 105.434V103.907Z" fill="#0E5ADD"/>
<path d="M151.174 101.588L144.885 103.082V104.609L151.174 103.115V101.588Z" fill="#0E5ADD"/>
<path d="M158.427 113.962V111.457L152.137 112.952V115.456L158.427 113.962Z" fill="#0E5ADD"/>
<path d="M158.427 109.139L152.137 110.633V112.16L158.427 110.666V109.139Z" fill="#0E5ADD"/>
<path d="M158.427 106.821L152.137 108.315V109.842L158.427 108.348V106.821Z" fill="#0E5ADD"/>
<path d="M158.427 104.502L152.137 105.996V107.523L158.427 106.029V104.502Z" fill="#0E5ADD"/>
<path d="M158.427 102.184L152.137 103.678V105.204L158.427 103.711V102.184Z" fill="#0E5ADD"/>
<path d="M158.427 99.8653L152.137 101.359V102.886L158.427 101.392V99.8653Z" fill="#0E5ADD"/>
<path d="M159.389 113.733L165.679 112.239V109.734L159.389 111.228V113.733Z" fill="#0E5ADD"/>
<path d="M165.679 107.415L159.389 108.909V110.436L165.679 108.942V107.415Z" fill="#0E5ADD"/>
<path d="M165.679 105.097L159.389 106.591V108.118L165.679 106.624V105.097Z" fill="#0E5ADD"/>
<path d="M165.679 102.779L159.389 104.273V105.8L165.679 104.306V102.779Z" fill="#0E5ADD"/>
<path d="M165.679 100.46L159.389 101.954V103.482L165.679 101.987V100.46Z" fill="#0E5ADD"/>
<path d="M165.679 98.1418L159.389 99.6364V101.164L165.679 99.669V98.1418Z" fill="#0E5ADD"/>
<path d="M172.931 108.011L166.642 109.505V112.011L172.931 110.517V108.011Z" fill="#0E5ADD"/>
<path d="M166.642 108.714L172.931 107.22V105.693L166.642 107.187V108.714Z" fill="#0E5ADD"/>
<path d="M166.642 106.395L172.931 104.901V103.374L166.642 104.868V106.395Z" fill="#0E5ADD"/>
<path d="M166.642 104.077L172.931 102.583V101.056L166.642 102.549V104.077Z" fill="#0E5ADD"/>
<path d="M166.642 101.759L172.931 100.265V98.7375L166.642 100.232V101.759Z" fill="#0E5ADD"/>
<path d="M166.642 99.4397L172.931 97.9457V96.4184L166.642 97.9125V99.4397Z" fill="#0E5ADD"/>
<path d="M180.184 108.793V106.287L173.896 107.782V110.287L180.184 108.793Z" fill="#0E5ADD"/>
<path d="M173.896 106.991L180.184 105.496V103.969L173.896 105.464V106.991Z" fill="#0E5ADD"/>
<path d="M180.184 101.651L173.896 103.145V104.673L180.184 103.178V101.651Z" fill="#0E5ADD"/>
<path d="M180.184 99.3326L173.896 100.827V102.354L180.184 100.86V99.3326Z" fill="#0E5ADD"/>
<path d="M173.896 98.5087V100.036L180.184 98.5412V97.0141L173.896 98.5087Z" fill="#0E5ADD"/>
<path d="M180.184 94.6962L173.896 96.1902V97.7173L180.184 96.2232V94.6962Z" fill="#0E5ADD"/>
<path d="M181.148 106.059V108.564L187.437 107.07V104.565L181.148 106.059Z" fill="#0E5ADD"/>
<path d="M187.437 102.246L181.148 103.74V105.267L187.437 103.773V102.246Z" fill="#0E5ADD"/>
<path d="M181.148 101.422V102.949L187.437 101.455V99.9276L181.148 101.422Z" fill="#0E5ADD"/>
<path d="M187.437 99.1369V97.6098L181.148 99.1038V100.631L187.437 99.1369Z" fill="#0E5ADD"/>
</g>
<defs>
<filter id="filter0_dd_381_458" x="0" y="0" width="311.783" height="168.621" filterUnits="userSpaceOnUse" color-interpolation-filters="sRGB">
<feFlood flood-opacity="0" result="BackgroundImageFix"/>
<feColorMatrix in="SourceAlpha" type="matrix" values="0 0 0 0 0 0 0 0 0 0 0 0 0 0 0 0 0 0 127 0" result="hardAlpha"/>
<feOffset dy="4"/>
<feGaussianBlur stdDeviation="2"/>
<feComposite in2="hardAlpha" operator="out"/>
<feColorMatrix type="matrix" values="0 0 0 0 0 0 0 0 0 0 0 0 0 0 0 0 0 0 0.25 0"/>
<feBlend mode="normal" in2="BackgroundImageFix" result="effect1_dropShadow_381_458"/>
<feColorMatrix in="SourceAlpha" type="matrix" values="0 0 0 0 0 0 0 0 0 0 0 0 0 0 0 0 0 0 127 0" result="hardAlpha"/>
<feOffset dy="4"/>
<feGaussianBlur stdDeviation="2"/>
<feComposite in2="hardAlpha" operator="out"/>
<feColorMatrix type="matrix" values="0 0 0 0 0 0 0 0 0 0 0 0 0 0 0 0 0 0 0.25 0"/>
<feBlend mode="normal" in2="effect1_dropShadow_381_458" result="effect2_dropShadow_381_458"/>
<feBlend mode="normal" in="SourceGraphic" in2="effect2_dropShadow_381_458" result="shape"/>
</filter>
</defs>
</svg>
