<svg width="214" height="190" viewBox="0 0 214 190" fill="none" xmlns="http://www.w3.org/2000/svg">
<g filter="url(#filter0_d_872_590)">
<path d="M202.724 112.022H1.25004" stroke="#263238" stroke-width="2.5" stroke-linecap="round" stroke-linejoin="round"/>
<path d="M29.9242 168.406C26.3292 167.439 14.3239 153.549 11.4844 149.635C8.64488 145.722 5.64998 134.993 6.99857 126.552C8.34717 118.111 29.4828 100.473 45.5886 91.7032C61.6945 82.9339 102.977 61.5085 117.38 59.0769C131.784 56.6454 169.889 65.8886 176.388 69.9394C182.887 73.9901 29.9237 168.406 29.9237 168.406H29.9242Z" fill="#EC644E"/>
<path d="M11.4852 149.634C11.4852 149.634 5.37791 137.912 7.63555 125.862C9.2107 117.454 32.155 102.176 48.2609 93.405C64.371 84.6386 105.652 63.2136 120.056 60.7779C133.157 58.5652 165.888 66.021 176.577 70.4347C176.618 70.208 176.558 70.0423 176.389 69.9372C169.892 65.8877 131.785 56.6437 117.38 59.0752C102.98 61.5068 61.6944 82.9317 45.589 91.7023C29.4836 100.473 8.34845 118.111 6.99846 126.55C5.64893 134.993 8.64477 145.722 11.4852 149.634V149.634Z" fill="white"/>
<path d="M30.6455 167.96C41.9538 160.965 182.627 73.8288 176.389 69.937C174.747 68.9133 162.062 67.3344 159.818 68.079C131.693 77.3878 98.3785 89.5862 84.1787 96.3422C49.8245 112.682 28.4478 125.615 24.3075 141.708C22.1598 150.058 28.2245 163.198 30.6455 167.96V167.96Z" fill="#263238"/>
<path d="M29.9242 168.406C26.3292 167.439 14.3239 153.549 11.4844 149.635C8.64488 145.722 5.64998 134.993 6.99857 126.552C8.34717 118.111 29.4828 100.473 45.5886 91.7032C61.6945 82.9339 102.977 61.5085 117.38 59.0769C131.784 56.6454 169.889 65.8886 176.388 69.9394C182.887 73.9901 29.9237 168.406 29.9237 168.406H29.9242Z" stroke="#263238" stroke-width="2.5" stroke-linecap="round" stroke-linejoin="round"/>
<path d="M9.33952 125.069C11.3949 117.68 20.9797 107.785 26.383 103.365C31.7858 98.9454 38.8035 93.0507 42.6195 92.7529C44.3687 92.6163 46.1508 92.8713 48.1875 94.4274C49.2702 95.2542 52.1509 96.4681 53.9156 98.0886C55.0905 99.1671 56.2959 102.38 54.3369 105.681C52.3779 108.983 33.6151 123.163 28.9847 129.673C24.372 136.158 21.7128 140.373 21.1225 150.529L19.4851 149.567" fill="#9ABAE3"/>
<path d="M9.33952 125.069C11.3949 117.68 20.9797 107.785 26.383 103.365C31.7858 98.9454 38.8035 93.0507 42.6195 92.7529C44.3687 92.6163 46.1508 92.8713 48.1875 94.4274C49.2702 95.2542 52.1509 96.4681 53.9156 98.0886C55.0905 99.1671 56.2959 102.38 54.3369 105.681C52.3779 108.983 33.6151 123.163 28.9847 129.673C24.372 136.158 21.7128 140.373 21.1225 150.529L19.4851 149.567" stroke="#263238" stroke-width="2.5" stroke-linecap="round" stroke-linejoin="round"/>
<path d="M19.4856 149.568C19.0934 146.756 19.1097 139.677 24.8655 130.184C30.6427 120.655 48.5789 106.994 50.5379 103.693C52.4969 100.392 51.4919 98.2639 50.3169 97.1854C48.5522 95.5649 46.6274 95.7294 45.68 94.7804C44.733 93.8315 43.8155 92.7899 42.0667 92.9261C38.2508 93.2239 29.92 98.7531 24.5167 103.173C19.114 107.593 9.52916 117.488 7.47327 124.876" fill="#EC644E"/>
<path d="M7.48158 124.851C11.8592 117.731 21.3345 108.932 25.7758 105.299C31.1791 100.878 38.2057 95.2962 42.0226 94.9968C43.7691 94.8593 44.6856 95.903 45.634 96.8498C46.5776 97.7967 49.7883 97.6895 51.5437 99.2839C51.3387 98.3656 50.8462 97.6696 50.3173 97.1841C48.5526 95.5657 46.6282 95.7277 45.6798 94.7813C44.7315 93.8306 43.8149 92.7908 42.0684 92.9286C38.252 93.2239 29.9208 98.7539 24.5176 103.172C19.1185 107.59 9.55198 117.469 7.48158 124.852V124.851Z" fill="white"/>
<path d="M19.4861 149.568C19.0939 146.756 18.6735 140.149 25.1604 129.705C30.977 120.34 48.5799 106.994 50.5388 103.693C52.4978 100.392 51.4928 98.2639 50.3179 97.1854C48.5532 95.5649 46.6284 95.7294 45.6809 94.7804C44.734 93.8315 43.8165 92.7899 42.0677 92.9261C38.2517 93.2239 29.921 98.7531 24.5177 103.173C19.1149 107.593 9.53014 117.488 7.47425 124.876" stroke="#263238" stroke-width="2.5" stroke-linecap="round" stroke-linejoin="round"/>
<path d="M168.188 66.7729C162.344 65.037 151.118 66.9337 143.73 69.0018C133.732 71.8005 110.153 81.6442 95.8092 88.2324C81.4657 94.8202 79.1964 95.1433 75.6168 95.4024C72.0373 95.6616 66.4229 92.7553 64.7803 92.0448C63.1378 91.3346 60.8516 90.877 59.8653 88.9882C59.2614 87.8316 59.2025 85.0728 59.3766 84.5849C60.1312 82.4702 65.7615 80.7916 97.7265 67.7551C116.217 60.2138 120.299 60.8857 120.299 60.8857" fill="#9ABAE3"/>
<path d="M168.188 66.7729C162.344 65.037 151.118 66.9337 143.73 69.0018C133.732 71.8005 110.153 81.6442 95.8092 88.2324C81.4657 94.8202 79.1964 95.1433 75.6168 95.4024C72.0373 95.6616 66.4229 92.7553 64.7803 92.0448C63.1378 91.3346 60.8516 90.877 59.8653 88.9882C59.2614 87.8316 59.2025 85.0728 59.3766 84.5849C60.1312 82.4702 65.7615 80.7916 97.7265 67.7551C116.217 60.2138 120.299 60.8857 120.299 60.8857" stroke="#263238" stroke-width="2.5" stroke-linecap="round" stroke-linejoin="round"/>
<path d="M169.254 67.0568C163.409 65.3209 152.614 65.2378 142.439 67.4779C132.264 69.718 109.143 78.8511 94.7991 85.4389C80.4556 92.0271 78.2087 91.8319 74.6296 92.0911C71.0501 92.3502 66.3916 89.9295 64.749 89.2193C63.1065 88.5092 60.0114 87.7122 59.5447 85.6723C59.078 83.6324 58.1521 81.6855 97.4939 65.6406C115.985 58.0993 118.313 59.3178 118.313 59.3178" fill="#EC644E"/>
<path d="M169.149 67.0289C167.384 66.5152 165.182 66.151 162.683 65.9487L168.962 67.0086L169.254 67.0571C169.222 67.0493 169.186 67.0368 169.149 67.0289Z" fill="#EC644E"/>
<path d="M162.683 65.9477L120.066 58.771L161.889 65.8912C162.159 65.9116 162.423 65.9277 162.683 65.9477Z" fill="#EC644E"/>
<path d="M59.5424 85.6743C60.0119 87.7134 63.1084 88.5104 64.75 89.218C66.3458 89.9099 70.8011 92.2198 74.3348 92.1064C72.3238 91.4145 70.5502 90.5287 69.6608 90.1441C68.0192 89.4361 64.9232 88.6391 64.4537 86.5963C63.9884 84.5572 61.1386 82.3566 100.481 66.3121C118.972 58.7712 120.066 58.7712 120.066 58.7712C120.066 58.7712 115.985 58.0997 97.4945 65.6406C58.1517 81.685 59.0771 83.6315 59.5424 85.6743Z" fill="white"/>
<path d="M169.254 67.0575C163.409 65.3216 152.614 65.2385 142.439 67.4786C132.264 69.7187 109.143 78.8518 94.7991 85.4396C80.4556 92.0278 78.2087 91.8326 74.6296 92.0918C71.0501 92.3509 66.3916 89.9302 64.749 89.22C63.1065 88.5099 60.0114 87.7129 59.5447 85.673C59.078 83.6331 58.1521 81.6862 97.4939 65.6413C115.985 58.1 120.067 58.772 120.067 58.772" stroke="#263238" stroke-width="2.5" stroke-linecap="round" stroke-linejoin="round"/>
<path d="M37.8859 148.941C36.953 152.526 36.7868 156.247 37.5376 160.048C39.8954 172.007 47.6832 174.523 53.5625 174.869C62.9147 175.416 84.1794 170.34 84.1794 170.34" stroke="#263238" stroke-width="2.5" stroke-linecap="round" stroke-linejoin="round"/>
<path d="M20.5997 159.693C22.085 159.305 27.3703 165.48 26.1195 166.079C25.3523 166.446 22.7712 166.801 21.4016 166.92C20.0319 167.04 16.2501 165.756 14.3333 165.536C12.4164 165.316 8.82096 163.742 6.75805 160.895C4.69514 158.047 4.10299 154.677 4.16291 153.251C4.22282 151.824 5.00033 148.334 5.53583 147.254C6.07087 146.174 9.13551 144.873 9.13551 144.873C9.13551 144.873 9.92051 147.689 12.297 150.708C12.297 150.708 10.3062 151.789 9.67898 152.575C9.0522 153.362 7.9311 156.818 7.94935 157.419C7.94935 157.419 11.6927 160.105 15.9449 160.38C18.1862 160.524 20.5997 159.693 20.5997 159.693V159.693Z" fill="#EC644E" stroke="#263238" stroke-width="2.5" stroke-linecap="round" stroke-linejoin="round"/>
<path opacity="0.6" d="M4.25304 152.328C5.03289 154.4 6.3871 156.273 7.95102 157.414C7.93744 156.807 9.05012 153.36 9.67925 152.575C10.3042 151.786 12.2964 150.706 12.2964 150.706C9.92079 147.688 9.13625 144.872 9.13625 144.872C9.13625 144.872 6.07207 146.175 5.53376 147.255C5.09608 148.145 4.48943 150.67 4.25257 152.328H4.25304Z" fill="#263238"/>
<path d="M6.7571 160.893C8.82282 163.741 12.4159 165.315 14.3356 165.537C16.2506 165.756 20.031 167.038 21.4034 166.921C22.7712 166.8 25.3523 166.448 26.1181 166.08C27.3722 165.481 22.0873 159.303 20.6006 159.692C20.6006 159.692 18.1838 160.525 15.9449 160.379C12.5297 160.157 9.44725 158.385 8.36641 157.697C8.22505 157.608 8.08837 157.515 7.95169 157.414C6.38777 156.273 5.03356 154.4 4.25371 152.328C4.20362 152.684 4.17179 153 4.16243 153.251C4.10298 154.675 4.69606 158.044 6.7571 160.893V160.893Z" fill="#EC644E" stroke="#263238" stroke-width="2.5" stroke-linecap="round" stroke-linejoin="round"/>
<path d="M63.9962 59.1326C65.0377 63.6593 66.7743 67.7063 68.9543 70.7271C71.9688 74.9071 75.936 78.4067 79.7725 81.0825C79.9714 81.1763 80.095 81.2581 80.1245 81.2756L63.9962 59.133V59.1326Z" fill="#9ABAE3" stroke="#263238" stroke-width="2.5" stroke-linecap="round" stroke-linejoin="round"/>
<path d="M63.996 59.1321L63.9913 59.1259L70.2947 101.981L81.5473 107.228L124.897 87.5195C131.383 85.0755 137.963 81.1958 143.026 76.1662C152.531 66.725 161.258 50.0999 158.311 37.3014C154.912 22.5402 142.283 15.2398 131.751 10.3327C121.219 5.42226 107.279 0.335749 91.6494 6.23042C78.0998 11.3381 67.6191 27.1442 64.2506 39.4456C62.4527 45.9997 62.5851 53.0066 63.9955 59.1321L80.1238 81.2748C80.0944 81.2577 79.9708 81.1755 79.7718 81.0816C82.4625 82.9588 85.0871 84.4289 87.2684 85.4455C89.4488 86.4589 92.3 87.5436 95.5683 88.4444C96.1838 88.7239 97.3246 89.434 97.3831 90.8867C97.465 92.8776 95.7209 93.3664 89.2639 96.5198C82.8112 99.676 81.0811 99.9405 79.2026 99.0676C77.3274 98.1909 76.5911 96.7772 75.8557 90.2704C75.1199 83.7636 74.5839 82.2112 76.4802 81.1435C77.8583 80.364 79.1624 80.7884 79.7723 81.0821C75.9358 78.4067 71.9686 74.9066 68.9541 70.7267C66.7741 67.7059 65.0375 63.6588 63.996 59.1321Z" fill="#9ABAE3" stroke="#263238" stroke-width="2.5" stroke-linecap="round" stroke-linejoin="round"/>
<path d="M63.9962 59.1326C65.0377 63.6593 66.7743 67.7063 68.9543 70.7271C71.9688 74.9071 75.936 78.4067 79.7725 81.0825C79.9714 81.1763 80.095 81.2581 80.1245 81.2756L63.9962 59.133V59.1326Z" fill="#9ABAE3" stroke="#263238" stroke-width="2.5" stroke-linecap="round" stroke-linejoin="round"/>
<g opacity="0.4">
<path d="M63.9962 59.1326C65.0377 63.6593 66.7743 67.7063 68.9543 70.7271C71.9688 74.9071 75.936 78.4067 79.7725 81.0825C79.9714 81.1763 80.095 81.2581 80.1245 81.2756L63.9962 59.133V59.1326Z" fill="#263238" stroke="#263238" stroke-width="2.5" stroke-linecap="round" stroke-linejoin="round"/>
<path d="M63.996 59.1321L63.9913 59.1259L70.2947 101.981L81.5473 107.228L124.897 87.5195C131.383 85.0755 137.963 81.1958 143.026 76.1662C152.531 66.725 161.258 50.0999 158.311 37.3014C154.912 22.5402 142.283 15.2398 131.751 10.3327C121.219 5.42226 107.279 0.335749 91.6494 6.23042C78.0998 11.3381 67.6191 27.1442 64.2506 39.4456C62.4527 45.9997 62.5851 53.0066 63.9955 59.1321L80.1238 81.2748C80.0944 81.2577 79.9708 81.1755 79.7718 81.0816C82.4625 82.9588 85.0871 84.4289 87.2684 85.4455C89.4488 86.4589 92.3 87.5436 95.5683 88.4444C96.1838 88.7239 97.3246 89.434 97.3831 90.8867C97.465 92.8776 95.7209 93.3664 89.2639 96.5198C82.8112 99.676 81.0811 99.9405 79.2026 99.0676C77.3274 98.1909 76.5911 96.7772 75.8557 90.2704C75.1199 83.7636 74.5839 82.2112 76.4802 81.1435C77.8583 80.364 79.1624 80.7884 79.7723 81.0821C75.9358 78.4067 71.9686 74.9066 68.9541 70.7267C66.7741 67.7059 65.0375 63.6588 63.996 59.1321Z" fill="#263238" stroke="#263238" stroke-width="2.5" stroke-linecap="round" stroke-linejoin="round"/>
<path d="M63.9962 59.1326C65.0377 63.6593 66.7743 67.7063 68.9543 70.7271C71.9688 74.9071 75.936 78.4067 79.7725 81.0825C79.9714 81.1763 80.095 81.2581 80.1245 81.2756L63.9962 59.133V59.1326Z" fill="#263238" stroke="#263238" stroke-width="2.5" stroke-linecap="round" stroke-linejoin="round"/>
</g>
<path d="M61.4079 56.7996L67.7104 99.6541L78.9621 104.899L122.317 85.1911L92.6081 85.9694C92.7476 86.0134 94.722 86.6376 94.7992 88.5591C94.8816 90.5513 93.1361 91.0384 86.6801 94.1926C80.2245 97.3467 78.494 97.6129 76.6174 96.7379C74.7408 95.8633 74.0063 94.448 73.2714 87.942C72.536 81.436 71.9977 79.8845 73.894 78.8143C75.7214 77.7802 77.4206 78.8687 77.5409 78.9459L61.4084 56.7996H61.4079Z" fill="#9ABAE3" stroke="#263238" stroke-width="2.5" stroke-linecap="round" stroke-linejoin="round"/>
<path d="M61.6644 37.117C58.5431 48.5126 61.2431 61.2845 66.3683 68.3989C71.4968 75.5125 79.3936 80.653 84.6822 83.1182C89.9689 85.5825 99.2222 88.4364 108.733 88.1461C118.246 87.855 131.633 82.5816 140.439 73.836C149.947 64.3955 158.671 47.7709 155.725 34.9716C152.328 20.2112 139.697 12.9112 129.166 8.0024C118.635 3.09322 104.693 -1.99246 89.0654 3.90014C75.5135 9.00866 65.0323 24.8147 61.6644 37.117Z" fill="#9ABAE3"/>
<path d="M66.3684 68.3994C71.496 75.5117 79.3937 80.6522 84.6828 83.1186C89.3802 85.3097 97.2175 87.8056 105.584 88.1287C98.3368 87.4804 91.715 85.3056 87.577 83.3798C82.3999 80.9657 74.6683 75.9332 69.6465 68.9667C64.6285 61.9997 61.9833 49.4956 65.0409 38.3359C68.3382 26.2924 78.5999 10.8161 91.8714 5.8151C107.171 0.0433542 120.821 5.02563 131.134 9.83057C136.68 12.4154 142.821 15.6791 147.823 20.3907C142.456 14.6999 135.438 10.9253 129.164 8.00203C118.633 3.09493 104.693 -1.99158 89.0665 3.89935C75.5132 9.00746 65.032 24.8135 61.664 37.1149C58.5442 48.5114 61.2432 61.2829 66.3675 68.399L66.3684 68.3994Z" fill="white"/>
<path d="M61.6644 37.117C58.5431 48.5126 61.2431 61.2845 66.3683 68.3989C71.4968 75.5125 79.3936 80.653 84.6822 83.1182C89.9689 85.5825 99.2222 88.4364 108.733 88.1461C118.246 87.855 131.633 82.5816 140.439 73.836C149.947 64.3955 158.671 47.7709 155.725 34.9716C152.328 20.2112 139.697 12.9112 129.166 8.0024C118.635 3.09322 104.693 -1.99246 89.0654 3.90014C75.5135 9.00866 65.0323 24.8147 61.6644 37.117Z" stroke="#263238" stroke-width="2.5" stroke-linecap="round" stroke-linejoin="round"/>
<path d="M85.4133 81.8851C90.8437 84.4163 99.8073 87.0247 108.679 86.754C117.215 86.4927 130.464 81.6529 139.269 72.9081C144.105 68.106 148.486 61.6387 151.287 55.1643C154.483 47.7783 155.485 40.8923 154.187 35.2505C151.004 21.4196 139.384 14.3384 128.436 9.23573C117.489 4.13302 104.324 -0.339274 89.6805 5.18205C83.7071 7.43377 77.8844 12.073 72.842 18.5985C68.4222 24.3184 64.9045 31.1877 63.1912 37.4454C60.0704 48.8393 63.0934 61.2641 67.6925 67.6484C72.4764 74.2844 79.9838 79.3534 85.4137 81.8846L85.4133 81.8851Z" stroke="#263238" stroke-width="2.5" stroke-linecap="round" stroke-linejoin="round"/>
<path d="M67.7196 99.6587L81.7491 106.198C82.1507 106.385 82.3052 106.826 82.0942 107.182L80.5513 109.788C80.3403 110.144 79.8436 110.281 79.442 110.094L65.4125 103.555C65.0108 103.367 64.8563 102.927 65.0673 102.57L66.6102 99.9649C66.8213 99.6086 67.3179 99.4715 67.7196 99.6587Z" fill="#263238" stroke="#263238" stroke-width="2.5" stroke-linecap="round" stroke-linejoin="round"/>
<path d="M66.547 104.083L78.3073 109.565C78.8529 109.819 79.0628 110.418 78.7761 110.902L78.4452 111.461C78.1586 111.945 77.4839 112.131 76.9383 111.877L65.178 106.395C64.6324 106.141 64.4225 105.542 64.7091 105.058L65.04 104.499C65.3267 104.015 66.0014 103.829 66.547 104.083Z" fill="#9ABAE3" stroke="#263238" stroke-width="2.5" stroke-linecap="round" stroke-linejoin="round"/>
<path d="M65.1778 106.395L76.9381 111.877C77.4837 112.131 77.6936 112.73 77.407 113.214L77.0758 113.773C76.7892 114.257 76.1145 114.444 75.5689 114.189L63.8086 108.708C63.263 108.453 63.0531 107.855 63.3398 107.371L63.6709 106.811C63.9576 106.327 64.6322 106.141 65.1778 106.395Z" fill="#9ABAE3" stroke="#263238" stroke-width="2.5" stroke-linecap="round" stroke-linejoin="round"/>
<path d="M63.8087 108.707L75.569 114.188C76.1146 114.443 76.3245 115.041 76.0379 115.525L75.7067 116.085C75.4201 116.569 74.7454 116.755 74.1998 116.501L62.4395 111.019C61.8939 110.764 61.6839 110.166 61.9706 109.682L62.3017 109.123C62.5884 108.639 63.2631 108.452 63.8087 108.707Z" fill="#9ABAE3" stroke="#263238" stroke-width="2.5" stroke-linecap="round" stroke-linejoin="round"/>
<path d="M62.4396 111.02L74.1998 116.502C74.7454 116.756 74.9554 117.355 74.6687 117.839L74.3376 118.398C74.0509 118.882 73.3762 119.068 72.8306 118.814L61.0703 113.332C60.5247 113.078 60.3148 112.479 60.6015 111.995L60.9326 111.436C61.2193 110.952 61.894 110.766 62.4396 111.02Z" fill="#9ABAE3" stroke="#263238" stroke-width="2.5" stroke-linecap="round" stroke-linejoin="round"/>
<path d="M61.0706 113.332L72.8309 118.814C73.3765 119.068 73.5865 119.667 73.2998 120.151L72.9687 120.71C72.682 121.194 72.0073 121.38 71.4617 121.126L59.7014 115.644C59.1558 115.39 58.9459 114.791 59.2326 114.307L59.5637 113.748C59.8504 113.264 60.525 113.078 61.0706 113.332Z" fill="#9ABAE3" stroke="#263238" stroke-width="2.5" stroke-linecap="round" stroke-linejoin="round"/>
<path d="M59.702 115.643L71.4623 121.125C72.0079 121.379 72.2178 121.978 71.9312 122.462L71.6 123.021C71.3134 123.505 70.6387 123.691 70.0931 123.437L58.3328 117.955C57.7872 117.701 57.5773 117.102 57.8639 116.618L58.1951 116.059C58.4817 115.575 59.1564 115.389 59.702 115.643Z" fill="#9ABAE3" stroke="#263238" stroke-width="2.5" stroke-linecap="round" stroke-linejoin="round"/>
<path d="M58.3324 117.955L70.0927 123.437C70.6383 123.692 70.8482 124.29 70.5615 124.774L70.2304 125.333C69.9437 125.817 69.2691 126.004 68.7235 125.749L56.9632 120.268C56.4176 120.013 56.2076 119.415 56.4943 118.931L56.8254 118.371C57.1121 117.887 57.7868 117.701 58.3324 117.955Z" fill="#9ABAE3" stroke="#263238" stroke-width="2.5" stroke-linecap="round" stroke-linejoin="round"/>
<path d="M56.9632 120.267L68.7235 125.749C69.2691 126.003 69.479 126.601 69.1924 127.085L68.8615 127.644C68.5748 128.128 67.9001 128.315 67.3545 128.06L55.5942 122.578C55.0486 122.324 54.8387 121.726 55.1254 121.242L55.4563 120.683C55.7429 120.199 56.4176 120.012 56.9632 120.267Z" fill="#9ABAE3" stroke="#263238" stroke-width="2.5" stroke-linecap="round" stroke-linejoin="round"/>
<path d="M55.5936 122.579L67.3539 128.061C67.8995 128.315 68.1094 128.914 67.8228 129.398L67.4916 129.957C67.205 130.441 66.5303 130.627 65.9847 130.373L54.2244 124.891C53.6788 124.637 53.4689 124.038 53.7555 123.554L54.0867 122.995C54.3733 122.511 55.048 122.325 55.5936 122.579Z" fill="#9ABAE3" stroke="#263238" stroke-width="2.5" stroke-linecap="round" stroke-linejoin="round"/>
<path d="M54.2249 124.892L65.9852 130.373C66.5308 130.628 66.7408 131.226 66.4541 131.71L66.123 132.269C65.8363 132.753 65.1616 132.94 64.616 132.685L52.8557 127.204C52.3101 126.949 52.1002 126.351 52.3869 125.867L52.718 125.307C53.0047 124.823 53.6793 124.637 54.2249 124.892Z" fill="#9ABAE3" stroke="#263238" stroke-width="2.5" stroke-linecap="round" stroke-linejoin="round"/>
<g opacity="0.4">
<path d="M73.8557 110.438C73.8599 110.441 73.8636 110.441 73.8683 110.447L76.9386 111.877C77.4848 112.13 78.1566 111.945 78.4459 111.46L78.7749 110.902C79.0605 110.417 78.8508 109.818 78.3082 109.564L75.2253 108.129C75.7178 108.357 75.9069 108.894 75.6457 109.332L75.2108 110.066C74.9534 110.503 74.3476 110.667 73.8552 110.439L73.8557 110.438Z" fill="#263238" stroke="#263238" stroke-width="2.5" stroke-linecap="round" stroke-linejoin="round"/>
<path d="M72.4989 112.757L75.5692 114.187C76.1159 114.444 76.7876 114.258 77.0769 113.773L77.4055 113.212C77.6953 112.73 77.4856 112.131 76.9393 111.877L73.869 110.448C74.354 110.677 74.5347 111.211 74.2805 111.644L73.8456 112.379C73.591 112.808 72.99 112.979 72.4989 112.757Z" fill="#263238" stroke="#263238" stroke-width="2.5" stroke-linecap="round" stroke-linejoin="round"/>
<path d="M71.1332 115.069L74.1997 116.5C74.746 116.753 75.4215 116.567 75.707 116.082L76.0398 115.524C76.3254 115.039 76.1161 114.443 75.5694 114.186L72.4991 112.757C72.9841 112.989 73.1652 113.524 72.9106 113.953L72.4757 114.688C72.2216 115.121 71.6205 115.292 71.1332 115.069Z" fill="#263238" stroke="#263238" stroke-width="2.5" stroke-linecap="round" stroke-linejoin="round"/>
<path d="M71.1331 115.07C71.6143 115.303 71.795 115.834 71.5408 116.267L71.1059 117.001C70.8485 117.438 70.239 117.603 69.7503 117.374L69.7756 117.388L72.8299 118.813C73.3762 119.067 74.0517 118.881 74.3372 118.396L74.67 117.838C74.9556 117.353 74.7459 116.753 74.1996 116.501L71.1331 115.07" fill="#263238"/>
<path d="M71.1331 115.07C71.6143 115.303 71.795 115.834 71.5408 116.267L71.1059 117.001C70.8485 117.438 70.239 117.603 69.7503 117.374L69.7756 117.388L72.8299 118.813C73.3762 119.067 74.0517 118.881 74.3372 118.396L74.67 117.838C74.9556 117.353 74.7459 116.753 74.1996 116.501L71.1331 115.07" stroke="#263238" stroke-width="2.5" stroke-linecap="round" stroke-linejoin="round"/>
<path d="M68.3933 119.693L71.4635 121.123C72.0065 121.38 72.682 121.194 72.9675 120.709L73.2999 120.147C73.5859 119.666 73.3762 119.067 72.8299 118.813L69.7755 117.388C70.2455 117.623 70.422 118.151 70.1711 118.58L69.7362 119.315C69.4816 119.744 68.8843 119.915 68.3933 119.693Z" fill="#263238" stroke="#263238" stroke-width="2.5" stroke-linecap="round" stroke-linejoin="round"/>
<path d="M67.024 122.006L70.0942 123.436C70.6405 123.689 71.3122 123.503 71.5978 123.019L71.9306 122.461C72.2161 121.976 72.0069 121.38 71.4639 121.123L68.3936 119.693C68.8748 119.926 69.056 120.461 68.8014 120.89L68.3665 121.625C68.1123 122.058 67.515 122.228 67.024 122.006V122.006Z" fill="#263238" stroke="#263238" stroke-width="2.5" stroke-linecap="round" stroke-linejoin="round"/>
<path d="M65.6407 124.31L65.6538 124.319L68.724 125.749C69.2703 126.002 69.942 125.816 70.2313 125.331L70.5604 124.774C70.8497 124.289 70.64 123.689 70.0937 123.436L67.0234 122.006C67.5084 122.239 67.6891 122.77 67.4349 123.203L67 123.937C66.7388 124.375 66.1336 124.542 65.6407 124.31Z" fill="#263238" stroke="#263238" stroke-width="2.5" stroke-linecap="round" stroke-linejoin="round"/>
<path d="M64.2832 126.628L67.3534 128.058C67.9002 128.315 68.5757 128.129 68.8612 127.644L69.1903 127.086C69.4796 126.601 69.2698 126.001 68.7236 125.748L65.6533 124.319C66.1383 124.551 66.3189 125.082 66.0648 125.515L65.6299 126.25C65.3753 126.679 64.7742 126.85 64.2832 126.628V126.628Z" fill="#263238" stroke="#263238" stroke-width="2.5" stroke-linecap="round" stroke-linejoin="round"/>
<path d="M62.9092 128.939L65.9842 130.372C66.53 130.625 67.2059 130.439 67.4914 129.954L67.8242 129.396C68.1098 128.911 67.9005 128.315 67.3538 128.059L64.2836 126.629C64.7685 126.862 64.9497 127.396 64.695 127.826L64.2601 128.56C64.0027 128.997 63.3974 129.165 62.9092 128.939V128.939Z" fill="#263238" stroke="#263238" stroke-width="2.5" stroke-linecap="round" stroke-linejoin="round"/>
<path d="M61.5398 131.252L64.6147 132.685C65.161 132.939 65.8364 132.752 66.122 132.268L66.4548 131.71C66.7403 131.225 66.5302 130.626 65.9844 130.372L62.9094 128.94C63.3939 129.169 63.583 129.703 63.3251 130.139L62.8902 130.874C62.6328 131.311 62.0313 131.478 61.5393 131.253L61.5398 131.252Z" fill="#263238" stroke="#263238" stroke-width="2.5" stroke-linecap="round" stroke-linejoin="round"/>
</g>
<path d="M69.7495 117.375L69.7751 117.389" stroke="#263238" stroke-width="2.5" stroke-linecap="round" stroke-linejoin="round"/>
<path d="M46.2805 137.475L58.811 143.315C60.1357 143.933 61.7259 143.327 62.01 142.094L64.5298 132.643L52.942 127.242L45.5994 134.445C44.6164 135.352 44.9558 136.857 46.2805 137.475Z" fill="#263238" stroke="#263238" stroke-width="2.5" stroke-linecap="round" stroke-linejoin="round"/>
<path d="M97.3724 16.0574C96.5748 15.6844 96.2672 14.8048 96.6881 14.0963C97.1089 13.3879 98.1003 13.1154 98.8979 13.4884C99.697 13.8617 100.005 14.7417 99.5837 15.4498C99.1629 16.1583 98.1715 16.4311 97.3724 16.0574Z" stroke="#263238" stroke-width="2.5" stroke-linecap="round" stroke-linejoin="round"/>
<path d="M105.848 20.0183C105.05 19.6454 104.743 18.7658 105.163 18.0573C105.584 17.3488 106.576 17.0764 107.373 17.4493C108.172 17.8226 108.48 18.7027 108.059 19.4107C107.638 20.1192 106.647 20.3916 105.848 20.0183Z" stroke="#263238" stroke-width="2.5" stroke-linecap="round" stroke-linejoin="round"/>
<path d="M114.324 23.9788C113.526 23.6059 113.219 22.7263 113.639 22.0178C114.06 21.3093 115.051 21.0365 115.849 21.4094C116.648 21.7828 116.956 22.6628 116.535 23.3708C116.114 24.0793 115.123 24.3522 114.324 23.9788Z" stroke="#263238" stroke-width="2.5" stroke-linecap="round" stroke-linejoin="round"/>
<path d="M122.799 27.94C122 27.5666 121.693 26.6866 122.114 25.9785C122.534 25.27 123.526 24.9976 124.325 25.371C125.124 25.7443 125.432 26.6239 125.011 27.3324C124.59 28.0409 123.598 28.3133 122.799 27.94Z" stroke="#263238" stroke-width="2.5" stroke-linecap="round" stroke-linejoin="round"/>
<path d="M131.275 31.9014C130.476 31.528 130.169 30.648 130.59 29.94C131.01 29.2315 132.002 28.959 132.801 29.3324C133.599 29.7053 133.906 30.5849 133.485 31.2934C133.065 32.0019 132.073 32.2743 131.275 31.9014Z" stroke="#263238" stroke-width="2.5" stroke-linecap="round" stroke-linejoin="round"/>
<path d="M139.752 35.8623C138.953 35.489 138.645 34.609 139.066 33.9009C139.486 33.1924 140.478 32.92 141.277 33.2933C142.075 33.6663 142.382 34.5458 141.962 35.2543C141.541 35.9628 140.549 36.2353 139.752 35.8623Z" stroke="#263238" stroke-width="2.5" stroke-linecap="round" stroke-linejoin="round"/>
<path d="M104.546 13.0931C103.747 12.7202 103.44 11.8406 103.861 11.1321C104.282 10.4236 105.273 10.1512 106.071 10.5237C106.87 10.8971 107.178 11.7771 106.757 12.4852C106.336 13.1936 105.345 13.4665 104.546 13.0931Z" stroke="#263238" stroke-width="2.5" stroke-linecap="round" stroke-linejoin="round"/>
<path d="M113.022 17.0544C112.224 16.6815 111.916 15.8019 112.337 15.0934C112.758 14.3849 113.749 14.1125 114.547 14.4854C115.346 14.8588 115.654 15.7388 115.233 16.4469C114.813 17.1553 113.821 17.4278 113.022 17.0544Z" stroke="#263238" stroke-width="2.5" stroke-linecap="round" stroke-linejoin="round"/>
<path d="M121.497 21.0161C120.7 20.6432 120.392 19.7636 120.813 19.0551C121.233 18.3466 122.225 18.0742 123.023 18.4471C123.822 18.8204 124.129 19.7 123.708 20.4085C123.288 21.117 122.296 21.3895 121.497 21.0161Z" stroke="#263238" stroke-width="2.5" stroke-linecap="round" stroke-linejoin="round"/>
<path d="M129.973 24.9773C129.174 24.604 128.866 23.724 129.287 23.0159C129.707 22.3074 130.699 22.035 131.498 22.4083C132.296 22.7812 132.603 23.6608 132.183 24.3693C131.762 25.0778 130.771 25.3498 129.973 24.9773Z" stroke="#263238" stroke-width="2.5" stroke-linecap="round" stroke-linejoin="round"/>
<path d="M138.448 28.9373C137.649 28.5639 137.342 27.6839 137.762 26.9758C138.183 26.2674 139.175 25.9949 139.974 26.3683C140.772 26.7412 141.079 27.6208 140.659 28.3293C140.238 29.0378 139.246 29.3102 138.448 28.9373Z" stroke="#263238" stroke-width="2.5" stroke-linecap="round" stroke-linejoin="round"/>
<path d="M82.7643 22.4277C81.9653 22.0543 81.6577 21.1743 82.0785 20.4658C82.4989 19.7573 83.4908 19.4849 84.2898 19.8583C85.088 20.2312 85.395 21.1108 84.9742 21.8193C84.5539 22.5278 83.5619 22.8002 82.7643 22.4277Z" stroke="#263238" stroke-width="2.5" stroke-linecap="round" stroke-linejoin="round"/>
<path d="M91.2384 26.3887C90.4407 26.0157 90.1332 25.1361 90.554 24.4276C90.9748 23.7192 91.9663 23.4467 92.7639 23.8197C93.563 24.193 93.8705 25.073 93.4497 25.7811C93.0289 26.4896 92.0374 26.7624 91.2384 26.3887Z" stroke="#263238" stroke-width="2.5" stroke-linecap="round" stroke-linejoin="round"/>
<path d="M99.7144 30.3496C98.9163 29.9767 98.6093 29.0971 99.0296 28.3886C99.4504 27.6801 100.442 27.4077 101.24 27.7806C102.039 28.1539 102.346 29.0339 101.925 29.742C101.504 30.4505 100.513 30.7229 99.714 30.3496H99.7144Z" stroke="#263238" stroke-width="2.5" stroke-linecap="round" stroke-linejoin="round"/>
<path d="M108.19 34.3107C107.392 33.9378 107.085 33.0582 107.505 32.3497C107.926 31.6412 108.917 31.3684 109.715 31.7417C110.514 32.1151 110.821 32.9951 110.401 33.7031C109.98 34.4116 108.988 34.6841 108.189 34.3107H108.19Z" stroke="#263238" stroke-width="2.5" stroke-linecap="round" stroke-linejoin="round"/>
<path d="M116.666 38.2717C115.867 37.8984 115.559 37.0184 115.98 36.3103C116.401 35.6018 117.392 35.3294 118.191 35.7027C118.99 36.0761 119.298 36.9557 118.877 37.6642C118.456 38.3727 117.465 38.6451 116.666 38.2717Z" stroke="#263238" stroke-width="2.5" stroke-linecap="round" stroke-linejoin="round"/>
<path d="M125.141 42.2324C124.342 41.859 124.035 40.979 124.455 40.271C124.876 39.5625 125.868 39.2896 126.667 39.6634C127.464 40.0363 127.772 40.9159 127.351 41.6244C126.93 42.3329 125.939 42.6053 125.141 42.2324Z" stroke="#263238" stroke-width="2.5" stroke-linecap="round" stroke-linejoin="round"/>
<path d="M133.617 46.1936C132.818 45.8199 132.511 44.9403 132.931 44.2322C133.352 43.5237 134.344 43.2513 135.143 43.6246C135.94 43.9976 136.248 44.8771 135.827 45.5856C135.407 46.2941 134.415 46.5666 133.617 46.1936Z" stroke="#263238" stroke-width="2.5" stroke-linecap="round" stroke-linejoin="round"/>
<path d="M142.093 50.1547C141.294 49.7814 140.987 48.9014 141.407 48.1929C141.828 47.4844 142.82 47.212 143.619 47.5853C144.417 47.9582 144.724 48.8378 144.304 49.5463C143.883 50.2548 142.891 50.5273 142.094 50.1543L142.093 50.1547Z" stroke="#263238" stroke-width="2.5" stroke-linecap="round" stroke-linejoin="round"/>
<path d="M89.9368 19.4655C89.1377 19.0922 88.8302 18.2122 89.251 17.5041C89.6718 16.7956 90.6632 16.5228 91.4623 16.8965C92.2604 17.2695 92.5675 18.1491 92.1471 18.8575C91.7263 19.566 90.7349 19.8385 89.9372 19.466L89.9368 19.4655Z" stroke="#263238" stroke-width="2.5" stroke-linecap="round" stroke-linejoin="round"/>
<path d="M98.4117 23.4261C97.6136 23.0532 97.306 22.1736 97.7269 21.4651C98.1477 20.7566 99.1391 20.4837 99.9368 20.8567C100.736 21.23 101.043 22.1096 100.623 22.8181C100.202 23.5266 99.2103 23.799 98.4112 23.4257L98.4117 23.4261Z" stroke="#263238" stroke-width="2.5" stroke-linecap="round" stroke-linejoin="round"/>
<path d="M106.887 27.3865C106.089 27.0135 105.782 26.1339 106.202 25.4255C106.623 24.717 107.614 24.4445 108.412 24.8175C109.211 25.1908 109.519 26.0708 109.098 26.7789C108.677 27.4874 107.686 27.7598 106.887 27.3865H106.887Z" stroke="#263238" stroke-width="2.5" stroke-linecap="round" stroke-linejoin="round"/>
<path d="M115.363 31.3473C114.565 30.9744 114.257 30.0948 114.678 29.3863C115.099 28.6778 116.09 28.4054 116.888 28.7779C117.687 29.1512 117.995 30.0312 117.574 30.7393C117.154 31.4478 116.162 31.7202 115.363 31.3469V31.3473Z" stroke="#263238" stroke-width="2.5" stroke-linecap="round" stroke-linejoin="round"/>
<path d="M123.839 35.3089C123.04 34.9355 122.732 34.0559 123.153 33.3474C123.574 32.6389 124.565 32.3665 125.364 32.7399C126.162 33.1128 126.47 33.9924 126.049 34.7009C125.628 35.4094 124.637 35.6818 123.839 35.3089Z" stroke="#263238" stroke-width="2.5" stroke-linecap="round" stroke-linejoin="round"/>
<path d="M132.314 39.27C131.515 38.8967 131.208 38.0167 131.629 37.3086C132.049 36.6001 133.041 36.3277 133.84 36.701C134.638 37.074 134.945 37.9536 134.524 38.6621C134.104 39.3705 133.112 39.643 132.314 39.27Z" stroke="#263238" stroke-width="2.5" stroke-linecap="round" stroke-linejoin="round"/>
<path d="M140.79 43.2309C139.991 42.8576 139.683 41.9776 140.104 41.2695C140.525 40.561 141.516 40.2881 142.315 40.6619C143.113 41.0348 143.421 41.9144 143 42.6229C142.579 43.3314 141.588 43.6034 140.79 43.2309Z" stroke="#263238" stroke-width="2.5" stroke-linecap="round" stroke-linejoin="round"/>
<path d="M76.6294 32.7605C75.8304 32.3871 75.5228 31.5071 75.9436 30.799C76.3645 30.0905 77.3559 29.8177 78.1549 30.1915C78.9526 30.5644 79.2601 31.444 78.8393 32.1525C78.4185 32.861 77.427 33.1334 76.6294 32.7605Z" stroke="#263238" stroke-width="2.5" stroke-linecap="round" stroke-linejoin="round"/>
<path d="M85.1041 36.721C84.3065 36.3481 83.9989 35.4685 84.4197 34.76C84.8401 34.0515 85.832 33.7787 86.6296 34.1516C87.4287 34.5254 87.7362 35.405 87.3154 36.1134C86.8951 36.8219 85.9031 37.0944 85.1041 36.721Z" stroke="#263238" stroke-width="2.5" stroke-linecap="round" stroke-linejoin="round"/>
<path d="M93.5792 40.6819C92.7816 40.3089 92.474 39.4294 92.8948 38.7209C93.3152 38.0124 94.3071 37.7399 95.1047 38.1129C95.9038 38.4862 96.2113 39.3662 95.7905 40.0743C95.3697 40.7828 94.3782 41.0552 93.5792 40.6819Z" stroke="#263238" stroke-width="2.5" stroke-linecap="round" stroke-linejoin="round"/>
<path d="M102.055 44.6421C101.258 44.2691 100.95 43.3896 101.371 42.6811C101.792 41.9726 102.783 41.7001 103.581 42.0731C104.38 42.4464 104.687 43.3264 104.267 44.0345C103.846 44.743 102.854 45.0158 102.055 44.6421Z" stroke="#263238" stroke-width="2.5" stroke-linecap="round" stroke-linejoin="round"/>
<path d="M110.531 48.6035C109.732 48.2302 109.425 47.3506 109.845 46.6421C110.266 45.9336 111.258 45.6612 112.057 46.0345C112.856 46.4079 113.163 47.2879 112.742 47.996C112.322 48.7044 111.33 48.9773 110.531 48.6035Z" stroke="#263238" stroke-width="2.5" stroke-linecap="round" stroke-linejoin="round"/>
<path d="M119.007 52.5647C118.208 52.1914 117.9 51.3118 118.321 50.6033C118.742 49.8948 119.733 49.6224 120.532 49.9957C121.33 50.3686 121.637 51.2482 121.217 51.9567C120.796 52.6652 119.804 52.9381 119.007 52.5647Z" stroke="#263238" stroke-width="2.5" stroke-linecap="round" stroke-linejoin="round"/>
<path d="M127.483 56.5257C126.684 56.1523 126.376 55.2723 126.797 54.5642C127.218 53.8557 128.209 53.5833 129.009 53.9567C129.806 54.3296 130.114 55.2092 129.693 55.9177C129.272 56.6262 128.28 56.899 127.483 56.5257Z" stroke="#263238" stroke-width="2.5" stroke-linecap="round" stroke-linejoin="round"/>
<path d="M135.958 60.4865C135.159 60.1132 134.852 59.2332 135.273 58.5251C135.694 57.8166 136.685 57.5438 137.484 57.9175C138.282 58.2905 138.589 59.1701 138.168 59.8785C137.748 60.587 136.756 60.8599 135.958 60.4865Z" stroke="#263238" stroke-width="2.5" stroke-linecap="round" stroke-linejoin="round"/>
<path d="M83.8027 29.7961C83.0037 29.4228 82.6961 28.5427 83.117 27.8347C83.5378 27.1262 84.5292 26.8533 85.3283 27.2271C86.1264 27.6 86.4334 28.4796 86.0131 29.1881C85.5923 29.8966 84.6008 30.169 83.8027 29.7961Z" stroke="#263238" stroke-width="2.5" stroke-linecap="round" stroke-linejoin="round"/>
<path d="M92.2772 33.7574C91.4796 33.3845 91.172 32.5049 91.5928 31.7964C92.0137 31.0879 93.0051 30.815 93.8027 31.188C94.6018 31.5613 94.9093 32.4413 94.4885 33.1494C94.0677 33.8579 93.0762 34.1312 92.2772 33.7574Z" stroke="#263238" stroke-width="2.5" stroke-linecap="round" stroke-linejoin="round"/>
<path d="M100.753 37.7183C99.9551 37.3453 99.6481 36.4657 100.068 35.7572C100.489 35.0487 101.481 34.7763 102.278 35.1492C103.077 35.5226 103.385 36.4026 102.964 37.1107C102.543 37.8192 101.552 38.0916 100.753 37.7183Z" stroke="#263238" stroke-width="2.5" stroke-linecap="round" stroke-linejoin="round"/>
<path d="M109.229 41.6794C108.431 41.3064 108.124 40.4268 108.544 39.7184C108.965 39.0099 109.957 38.737 110.754 39.1104C111.553 39.4837 111.861 40.3637 111.44 41.0718C111.019 41.7803 110.028 42.0527 109.229 41.6794Z" stroke="#263238" stroke-width="2.5" stroke-linecap="round" stroke-linejoin="round"/>
<path d="M117.704 45.6392C116.905 45.2658 116.597 44.3862 117.018 43.6778C117.439 42.9693 118.43 42.6968 119.229 43.0702C120.027 43.4431 120.335 44.3227 119.914 45.0312C119.493 45.7397 118.501 46.0125 117.704 45.6392Z" stroke="#263238" stroke-width="2.5" stroke-linecap="round" stroke-linejoin="round"/>
<path d="M126.18 49.6009C125.381 49.2275 125.074 48.3479 125.494 47.6394C125.915 46.9309 126.907 46.6585 127.706 47.0318C128.503 47.4048 128.811 48.2844 128.39 48.9929C127.97 49.7014 126.978 49.9738 126.18 49.6009Z" stroke="#263238" stroke-width="2.5" stroke-linecap="round" stroke-linejoin="round"/>
<path d="M134.656 53.562C133.857 53.1886 133.55 52.3086 133.97 51.6001C134.391 50.8916 135.383 50.6192 136.182 50.9925C136.979 51.3655 137.287 52.2451 136.866 52.9536C136.446 53.662 135.454 53.9349 134.656 53.562Z" stroke="#263238" stroke-width="2.5" stroke-linecap="round" stroke-linejoin="round"/>
<path d="M72.0206 40.5214C72.8183 40.8943 73.1258 41.7739 72.705 42.4824C72.2842 43.1909 71.2928 43.4637 70.4951 43.0908C69.6961 42.7174 69.3885 41.8374 69.8093 41.1293C70.2302 40.4209 71.2216 40.148 72.0206 40.5218V40.5214Z" stroke="#263238" stroke-width="2.5" stroke-linecap="round" stroke-linejoin="round"/>
<path d="M78.9701 47.0518C78.172 46.6789 77.8649 45.7993 78.2852 45.0908C78.7061 44.3823 79.6975 44.1095 80.4956 44.4824C81.2946 44.8558 81.6022 45.7358 81.1814 46.4438C80.761 47.1523 79.7691 47.4252 78.9701 47.0518Z" stroke="#263238" stroke-width="2.5" stroke-linecap="round" stroke-linejoin="round"/>
<path d="M87.4452 51.0133C86.6475 50.6403 86.34 49.7607 86.7608 49.0522C87.1812 48.3437 88.1731 48.0709 88.9707 48.4438C89.7697 48.8172 90.0773 49.6972 89.6565 50.4053C89.2361 51.1138 88.2442 51.3866 87.4452 51.0133Z" stroke="#263238" stroke-width="2.5" stroke-linecap="round" stroke-linejoin="round"/>
<path d="M95.921 54.9741C95.1234 54.6012 94.8158 53.7216 95.2366 53.0131C95.657 52.3046 96.6489 52.0322 97.4465 52.4051C98.2456 52.7785 98.5531 53.6585 98.1323 54.3665C97.7115 55.075 96.72 55.3479 95.921 54.9741Z" stroke="#263238" stroke-width="2.5" stroke-linecap="round" stroke-linejoin="round"/>
<path d="M104.397 58.9353C103.598 58.5619 103.291 57.6823 103.712 56.9734C104.132 56.2649 105.124 55.9925 105.923 56.3658C106.722 56.7392 107.029 57.6192 106.609 58.3273C106.188 59.0358 105.196 59.3082 104.397 58.9348V58.9353Z" stroke="#263238" stroke-width="2.5" stroke-linecap="round" stroke-linejoin="round"/>
<path d="M112.873 62.8958C112.074 62.5224 111.766 61.6428 112.187 60.9343C112.608 60.2259 113.6 59.9534 114.399 60.3268C115.197 60.6997 115.504 61.5793 115.083 62.2878C114.663 62.9963 113.671 63.2687 112.874 62.8958H112.873Z" stroke="#263238" stroke-width="2.5" stroke-linecap="round" stroke-linejoin="round"/>
<path d="M121.349 66.8566C120.55 66.4833 120.242 65.6033 120.663 64.8952C121.084 64.1867 122.075 63.9139 122.874 64.2876C123.672 64.6606 123.979 65.5402 123.559 66.2487C123.138 66.9572 122.147 67.2296 121.349 66.8566H121.349Z" stroke="#263238" stroke-width="2.5" stroke-linecap="round" stroke-linejoin="round"/>
<path d="M131.35 68.2486C132.147 68.6215 132.455 69.5011 132.034 70.2096C131.613 70.9181 130.622 71.1905 129.824 70.8176C129.025 70.4442 128.718 69.5642 129.138 68.8562C129.559 68.1477 130.551 67.8748 131.35 68.2486Z" stroke="#263238" stroke-width="2.5" stroke-linecap="round" stroke-linejoin="round"/>
<path d="M77.668 40.1292C76.8689 39.7558 76.5614 38.8758 76.9822 38.1677C77.4026 37.4592 78.3945 37.1868 79.1935 37.5602C79.9911 37.9331 80.2987 38.8127 79.8779 39.5212C79.4575 40.2297 78.4656 40.5025 77.668 40.1296V40.1292Z" stroke="#263238" stroke-width="2.5" stroke-linecap="round" stroke-linejoin="round"/>
<path d="M86.1429 44.0884C85.3453 43.7155 85.0377 42.8359 85.4586 42.1274C85.8789 41.4189 86.8708 41.1461 87.6685 41.519C88.4675 41.8924 88.775 42.7724 88.3542 43.4805C87.9339 44.1889 86.942 44.4618 86.1429 44.088V44.0884Z" stroke="#263238" stroke-width="2.5" stroke-linecap="round" stroke-linejoin="round"/>
<path d="M94.619 48.0499C93.8214 47.6769 93.5138 46.7973 93.9346 46.0889C94.3555 45.3804 95.3469 45.1075 96.1445 45.4805C96.9436 45.8538 97.2511 46.7338 96.8303 47.4419C96.4095 48.1504 95.418 48.4236 94.619 48.0499Z" stroke="#263238" stroke-width="2.5" stroke-linecap="round" stroke-linejoin="round"/>
<path d="M103.094 52.0108C102.296 51.6379 101.989 50.7583 102.41 50.0498C102.831 49.3413 103.822 49.0685 104.62 49.4414C105.419 49.8147 105.726 50.6948 105.305 51.4028C104.885 52.1113 103.893 52.3842 103.094 52.0108Z" stroke="#263238" stroke-width="2.5" stroke-linecap="round" stroke-linejoin="round"/>
<path d="M111.57 55.9724C110.771 55.599 110.463 54.719 110.884 54.0105C111.305 53.302 112.296 53.0296 113.095 53.4029C113.893 53.7759 114.2 54.6555 113.78 55.364C113.359 56.0724 112.368 56.3449 111.57 55.9724H111.57Z" stroke="#263238" stroke-width="2.5" stroke-linecap="round" stroke-linejoin="round"/>
<path d="M120.046 59.9329C119.247 59.5595 118.939 58.6799 119.36 57.9715C119.781 57.263 120.772 56.9905 121.571 57.3639C122.369 57.7368 122.676 58.6164 122.256 59.3249C121.835 60.0334 120.843 60.3062 120.046 59.9329Z" stroke="#263238" stroke-width="2.5" stroke-linecap="round" stroke-linejoin="round"/>
<path d="M128.522 63.8943C127.723 63.521 127.415 62.6414 127.836 61.9329C128.257 61.2244 129.248 60.952 130.047 61.3253C130.845 61.6982 131.152 62.5778 130.732 63.2863C130.311 63.9948 129.319 64.2672 128.522 63.8943Z" stroke="#263238" stroke-width="2.5" stroke-linecap="round" stroke-linejoin="round"/>
<path d="M74.3611 54.8151C75.1601 55.1884 75.4677 56.0685 75.0468 56.7765C74.626 57.485 73.6346 57.7579 72.8355 57.3841C72.0374 57.0112 71.7304 56.1316 72.1507 55.4231C72.5715 54.7146 73.563 54.4417 74.3606 54.8147L74.3611 54.8151Z" stroke="#263238" stroke-width="2.5" stroke-linecap="round" stroke-linejoin="round"/>
<path d="M82.8367 58.7753C83.6357 59.1486 83.9433 60.0287 83.5224 60.7367C83.1016 61.4452 82.1102 61.7181 81.3111 61.3443C80.513 60.9714 80.206 60.0918 80.6263 59.3833C81.0471 58.6748 82.0386 58.402 82.8362 58.7749L82.8367 58.7753Z" stroke="#263238" stroke-width="2.5" stroke-linecap="round" stroke-linejoin="round"/>
<path d="M91.3127 62.7362C92.1118 63.1096 92.4193 63.9896 91.9985 64.6977C91.5782 65.4062 90.5863 65.679 89.7872 65.3052C88.9891 64.9323 88.682 64.0527 89.1028 63.3442C89.5232 62.6357 90.5151 62.3633 91.3127 62.7362Z" stroke="#263238" stroke-width="2.5" stroke-linecap="round" stroke-linejoin="round"/>
<path d="M99.7881 66.6976C100.587 67.0714 100.895 67.951 100.474 68.6595C100.053 69.368 99.0616 69.6404 98.2626 69.267C97.4635 68.8937 97.156 68.0137 97.5768 67.3052C97.9976 66.5967 98.989 66.3243 99.7881 66.6976Z" stroke="#263238" stroke-width="2.5" stroke-linecap="round" stroke-linejoin="round"/>
<path d="M108.264 70.6588C109.061 71.0317 109.369 71.9113 108.948 72.6198C108.528 73.3283 107.536 73.6007 106.738 73.2282C105.939 72.8549 105.632 71.9749 106.053 71.2664C106.473 70.5579 107.465 70.2855 108.264 70.6588Z" stroke="#263238" stroke-width="2.5" stroke-linecap="round" stroke-linejoin="round"/>
<path d="M116.74 74.6197C117.538 74.9927 117.845 75.8723 117.424 76.5808C117.004 77.2892 116.012 77.5617 115.214 77.1892C114.415 76.8158 114.108 75.9362 114.528 75.2273C114.949 74.5188 115.941 74.2464 116.74 74.6197Z" stroke="#263238" stroke-width="2.5" stroke-linecap="round" stroke-linejoin="round"/>
<path d="M73.0597 47.8906C73.8573 48.2635 74.1649 49.1431 73.7441 49.8516C73.3233 50.5601 72.3318 50.8329 71.5342 50.46C70.7351 50.0866 70.4276 49.2066 70.8484 48.4986C71.2692 47.7901 72.2607 47.5176 73.0597 47.891V47.8906Z" stroke="#263238" stroke-width="2.5" stroke-linecap="round" stroke-linejoin="round"/>
<path d="M80.0091 54.4207C79.2115 54.0478 78.9039 53.1682 79.3248 52.4597C79.7451 51.7512 80.737 51.4784 81.5347 51.8513C82.3337 52.2247 82.6412 53.1047 82.2204 53.8127C81.8001 54.5212 80.8082 54.7945 80.0091 54.4207Z" stroke="#263238" stroke-width="2.5" stroke-linecap="round" stroke-linejoin="round"/>
<path d="M88.484 58.3812C87.6863 58.0082 87.3788 57.1286 87.7996 56.4202C88.22 55.7117 89.2119 55.4388 90.0095 55.8118C90.8086 56.1851 91.1161 57.0651 90.6953 57.7732C90.2749 58.4817 89.283 58.7549 88.484 58.3812Z" stroke="#263238" stroke-width="2.5" stroke-linecap="round" stroke-linejoin="round"/>
<path d="M96.9598 62.3426C96.1622 61.9697 95.8546 61.0901 96.2755 60.3816C96.6963 59.6731 97.6877 59.4002 98.4853 59.7732C99.2844 60.1465 99.5919 61.0265 99.1711 61.7346C98.7503 62.4431 97.7589 62.7155 96.9598 62.3422V62.3426Z" stroke="#263238" stroke-width="2.5" stroke-linecap="round" stroke-linejoin="round"/>
<path d="M105.436 66.3032C104.637 65.9298 104.329 65.0498 104.75 64.3413C105.171 63.6328 106.162 63.3604 106.961 63.7338C107.759 64.1067 108.066 64.9863 107.646 65.6948C107.225 66.4033 106.234 66.6757 105.436 66.3032Z" stroke="#263238" stroke-width="2.5" stroke-linecap="round" stroke-linejoin="round"/>
<path d="M113.911 70.2641C113.112 69.8908 112.805 69.0108 113.226 68.3023C113.646 67.5938 114.638 67.3213 115.437 67.6947C116.235 68.0676 116.542 68.9472 116.122 69.6557C115.701 70.3642 114.709 70.6366 113.911 70.2641Z" stroke="#263238" stroke-width="2.5" stroke-linecap="round" stroke-linejoin="round"/>
<path d="M123.913 71.6561C124.711 72.029 125.018 72.9086 124.598 73.6171C124.177 74.3256 123.185 74.5985 122.388 74.2251C121.589 73.8518 121.281 72.9722 121.702 72.2637C122.123 71.5552 123.114 71.2828 123.913 71.6561Z" stroke="#263238" stroke-width="2.5" stroke-linecap="round" stroke-linejoin="round"/>
<path d="M75.3997 62.1825C76.1988 62.5559 76.5063 63.4359 76.086 64.1435C75.6652 64.8525 74.6732 65.1253 73.8742 64.752C73.0761 64.379 72.769 63.4994 73.1899 62.7905C73.6102 62.0824 74.6016 61.81 75.3997 62.183V62.1825Z" stroke="#263238" stroke-width="2.5" stroke-linecap="round" stroke-linejoin="round"/>
<path d="M83.8756 66.1437C84.6746 66.5171 84.9822 67.3971 84.5618 68.1047C84.141 68.8136 83.1491 69.0865 82.35 68.7131C81.5519 68.3402 81.2449 67.4606 81.6657 66.7517C82.086 66.0436 83.0775 65.7712 83.8756 66.1441V66.1437Z" stroke="#263238" stroke-width="2.5" stroke-linecap="round" stroke-linejoin="round"/>
<path d="M92.3509 70.1051C93.15 70.4785 93.4575 71.3585 93.0371 72.0662C92.6163 72.7751 91.6244 73.0479 90.8254 72.6746C90.0277 72.3016 89.7202 71.422 90.141 70.7131C90.5614 70.0051 91.5528 69.7326 92.3509 70.1056V70.1051Z" stroke="#263238" stroke-width="2.5" stroke-linecap="round" stroke-linejoin="round"/>
<path d="M100.827 74.0662C101.625 74.4391 101.932 75.3187 101.512 76.0268C101.091 76.7357 100.099 77.0086 99.3014 76.6356C98.5023 76.2619 98.1948 75.3823 98.6161 74.6734C99.0364 73.9657 100.028 73.6929 100.827 74.0662Z" stroke="#263238" stroke-width="2.5" stroke-linecap="round" stroke-linejoin="round"/>
<path d="M109.303 78.0276C110.101 78.4006 110.408 79.2802 109.988 79.9882C109.567 80.6971 108.575 80.97 107.777 80.597C106.978 80.2237 106.671 79.3437 107.092 78.6348C107.512 77.9271 108.504 77.6543 109.303 78.0276Z" stroke="#263238" stroke-width="2.5" stroke-linecap="round" stroke-linejoin="round"/>
<path d="M105.417 89.4448C105.417 89.4448 83.3894 99.4745 81.9135 100.002C80.4376 100.528 79.36 101.654 74.8991 99.5742C70.4507 97.5006 70.872 96.5152 70.4942 94.6762C70.1479 92.9901 68.6116 78.3801 68.6116 78.3801" stroke="white" stroke-width="2.5" stroke-linecap="round" stroke-linejoin="round"/>
<path d="M196.91 116.406C193.098 135.519 184.006 143.562 174.659 146.035C165.311 148.507 134.234 157.482 113.613 162.413C92.9916 167.343 67.1188 176.254 54.6131 176.28C42.1074 176.305 34.3252 172.289 29.9251 168.405C28.0565 166.756 21.886 154.488 24.3692 144.348C26.8525 134.207 36.4087 127.176 43.8684 122.039C52.919 115.807 61.8625 114.349 103.107 94.0245C121.711 84.8569 140.511 72.0057 157.766 67.5006C161.235 66.5948 164.846 66.9881 168.252 67.5047C175.91 68.6659 183.069 72.6195 189.412 80.6363C199.205 93.0129 198.729 107.288 196.91 116.406L196.91 116.406Z" fill="#EC644E" stroke="#263238" stroke-width="2.5" stroke-linecap="round" stroke-linejoin="round"/>
<path opacity="0.4" d="M28.8728 167.046C29.2875 167.697 29.6526 168.167 29.926 168.406C34.3261 172.289 42.1054 176.306 54.613 176.278C67.1206 176.254 92.9892 167.346 113.614 162.414C134.233 157.482 165.309 148.506 174.657 146.034C184.005 143.562 193.097 135.519 196.909 116.405C198.729 107.29 199.203 93.0136 189.413 80.6341C186.763 77.2927 183.977 74.6547 181.073 72.636C182.208 73.7768 183.316 75.031 184.406 76.4064C194.201 88.7818 193.722 103.058 191.903 112.177C188.09 131.288 179.003 139.33 169.655 141.802C160.307 144.278 129.227 153.251 108.607 158.183C87.9871 163.114 62.1143 172.022 49.6062 172.051C40.2265 172.071 33.5051 169.813 28.8723 167.046H28.8728Z" fill="#263238"/>
<path d="M45.6342 154.916C45.8275 155.059 46.0209 155.206 46.2142 155.35C49.0041 157.449 51.7303 159.427 53.4089 160.475C58.0636 163.376 62.4797 165.234 69.4843 164.407C76.4889 163.584 149.709 144.915 155.203 143.476C160.693 142.037 171.586 138.311 173.81 133.422C176.034 128.533 181.405 108.644 183.073 100.923C184.134 96.0167 184.73 89.6851 184.187 84.2357C184.157 83.9304 184.124 83.6285 184.087 83.3299C179.632 83.305 166.927 84.065 149.993 92.1794C128.748 102.358 98.7784 118.421 85.1773 125.904C72.05 133.125 53.1224 144.53 45.6342 154.916Z" fill="#9ABAE3"/>
<path opacity="0.4" d="M45.6346 154.917C45.8261 155.059 46.0222 155.204 46.2137 155.35C49.0045 157.45 51.7312 159.428 53.4093 160.475C58.065 163.376 62.4787 165.233 69.4829 164.407C76.4912 163.582 149.71 144.916 155.204 143.476C160.694 142.036 171.584 138.31 173.809 133.423C176.034 128.532 181.406 108.644 183.074 100.921C184.132 96.014 184.73 89.6828 184.187 84.2334C184.155 83.9298 184.123 83.6266 184.087 83.3272C183.595 83.323 182.997 83.3313 182.304 83.3596C182.673 88.5458 182.09 94.3794 181.095 98.9592C179.431 106.682 174.059 126.57 171.834 131.461C169.609 136.348 158.715 140.074 153.225 141.514C147.735 142.954 74.5121 161.62 67.5084 162.446C60.5043 163.271 56.0906 161.414 51.4349 158.513C50.0853 157.672 48.0603 156.227 45.8673 154.601C45.7854 154.706 45.7123 154.812 45.6346 154.917V154.917Z" fill="#263238"/>
<path d="M184.038 83.3302C179.538 83.3107 166.864 84.0939 149.99 92.1788C128.749 102.357 98.7786 118.42 85.1761 125.903C72.0525 133.123 53.124 144.528 45.6349 154.916" stroke="#263238" stroke-width="2.5" stroke-linecap="round" stroke-linejoin="round"/>
<path d="M195.566 91.736C192.259 84.7404 186.038 76.6363 174.854 74.5362C160.114 71.7687 137.524 84.2105 113.196 96.1402C84.6034 110.162 63.7941 121.495 52.8218 130.24C40.6667 139.928 35.1764 148.09 37.5361 160.049C39.8962 172.008 47.6812 174.524 53.5638 174.869C62.9159 175.417 84.1793 170.343 84.1793 170.343" stroke="#263238" stroke-width="2.5" stroke-linecap="round" stroke-linejoin="round"/>
<path d="M182.609 77.28C184.846 82.1992 184.743 93.199 183.074 100.921C181.405 108.643 177.611 126.476 173.811 133.422C171.216 138.165 160.695 142.037 155.201 143.477C149.708 144.917 76.4878 163.583 69.4827 164.408C62.4781 165.233 58.0625 163.378 53.411 160.477C48.759 157.575 37.8524 149.068 37.8524 149.068" stroke="#263238" stroke-width="2.5" stroke-linecap="round" stroke-linejoin="round"/>
<path d="M27.7683 140.023C27.6012 140.659 26.819 142.667 26.3382 142.673C25.8579 142.68 24.3011 142.35 24.31 141.709C24.3188 141.068 24.9283 139.293 25.4764 139.174C26.0246 139.055 27.9096 139.486 27.7678 140.023L27.7683 140.023Z" fill="#263238" stroke="#263238" stroke-width="2.5" stroke-linecap="round" stroke-linejoin="round"/>
<path d="M26.0845 144.723C26.2787 145.149 25.2194 153.548 25.0289 153.636C24.8384 153.724 23.3527 153 23.1041 152.737C22.8555 152.474 23.5376 143.807 23.8671 143.707C24.1966 143.607 25.952 144.432 26.0845 144.723Z" fill="#9ABAE3" stroke="#263238" stroke-width="2.5" stroke-linecap="round" stroke-linejoin="round"/>
<path d="M25.3325 142.103C24.3827 142.577 24.6233 144.565 24.9749 144.659Z" fill="#263238"/>
<path d="M25.3325 142.103C24.3827 142.577 24.6233 144.565 24.9749 144.659" stroke="#263238" stroke-width="2.5" stroke-linecap="round" stroke-linejoin="round"/>
<path d="M154.101 126.938C154.507 123.245 158.037 120.474 162.136 120.474C162.396 120.474 162.656 120.482 162.92 120.506C163.536 120.559 164.133 120.672 164.694 120.846C168.182 121.877 170.54 124.948 170.166 128.33C169.76 132.023 166.24 134.795 162.14 134.795C161.881 134.795 161.616 134.783 161.347 134.762C158.529 134.52 156.185 133.006 154.972 130.923C154.941 130.878 154.918 130.834 154.891 130.785C154.248 129.633 153.951 128.309 154.102 126.938L154.101 126.938ZM163.9 122.744C163.518 122.63 163.116 122.558 162.697 122.521C160.143 122.298 157.808 123.593 156.833 125.571C158.233 125.114 159.92 125.389 161.206 125.891C161.425 125.976 161.648 126.065 161.876 126.158C164.63 127.255 165.953 127.59 166.532 126.676C167.038 125.867 165.834 123.8 163.9 122.744ZM161.57 132.748C164.634 133.015 167.384 131.101 167.858 128.436C166.016 130.025 163.011 128.828 160.941 128.003C160.722 127.914 160.503 127.829 160.289 127.744C159.049 127.263 157.781 127.235 157.207 127.679C156.573 128.169 156.787 129.31 157.006 130.014C157.881 131.498 159.555 132.574 161.57 132.748Z" fill="white"/>
<path d="M168.256 153.404C169.07 160.782 162.988 167.347 154.672 168.069C146.357 168.79 138.956 163.394 138.143 156.017C137.33 148.64 143.412 142.074 151.727 141.353C160.043 140.631 167.443 146.027 168.256 153.404Z" fill="#9ABAE3"/>
<path opacity="0.4" d="M146.695 166.828C149.095 167.848 151.831 168.316 154.672 168.067C162.989 167.346 169.068 160.781 168.256 153.405C167.649 147.896 163.367 143.489 157.771 141.916C162.409 143.868 165.811 147.873 166.347 152.735C167.163 160.114 161.08 166.679 152.763 167.4C150.652 167.582 148.597 167.37 146.695 166.829V166.828Z" fill="#263238"/>
<path d="M138.142 156.016C138.857 162.501 144.663 167.456 151.704 168.071C145.883 166.759 141.343 162.332 140.725 156.726C139.939 149.577 145.831 143.214 153.89 142.516C156.989 142.247 159.953 142.855 162.48 144.11C159.534 142.078 155.735 141.002 151.726 141.351C143.413 142.074 137.33 148.64 138.142 156.015V156.016Z" fill="white"/>
<path d="M151.727 141.353C160.043 140.631 167.443 146.027 168.256 153.404C169.07 160.782 162.988 167.347 154.672 168.069C146.357 168.79 138.956 163.394 138.143 156.017C137.33 148.64 143.412 142.074 151.727 141.353Z" stroke="#263238" stroke-width="2.5" stroke-linecap="round" stroke-linejoin="round"/>
<path d="M148.261 142.03C143.092 144.744 138.882 150.86 141.432 153.689C144.051 156.596 150.608 152.636 155.797 151.022C160.987 149.407 169.621 151.792 166.706 160.754" stroke="#263238" stroke-width="2.5" stroke-linecap="round" stroke-linejoin="round"/>
<path d="M200.365 163.241C201.178 170.619 195.096 177.184 186.781 177.905C178.465 178.627 171.065 173.231 170.252 165.854C169.439 158.476 175.521 151.911 183.836 151.189C192.151 150.468 199.552 155.864 200.365 163.241Z" fill="#9ABAE3"/>
<path opacity="0.4" d="M178.803 176.666C181.203 177.685 183.939 178.153 186.78 177.904C195.097 177.184 201.176 170.618 200.364 163.243C199.757 157.734 195.475 153.327 189.879 151.753C194.517 153.706 197.919 157.71 198.455 162.572C199.27 169.951 193.188 176.516 184.871 177.237C182.76 177.42 180.705 177.207 178.803 176.666V176.666Z" fill="#263238"/>
<path d="M170.251 165.853C170.966 172.339 176.772 177.294 183.812 177.908C177.992 176.597 173.451 172.17 172.834 166.564C172.048 159.414 177.94 153.052 185.998 152.354C189.098 152.085 192.062 152.693 194.589 153.948C191.643 151.915 187.844 150.839 183.835 151.188C175.521 151.912 169.439 158.477 170.251 165.853V165.853Z" fill="white"/>
<path d="M200.365 163.241C201.178 170.619 195.096 177.184 186.781 177.905C178.465 178.627 171.065 173.231 170.252 165.854C169.439 158.476 175.521 151.911 183.836 151.189C192.151 150.468 199.552 155.864 200.365 163.241Z" stroke="#263238" stroke-width="2.5" stroke-linecap="round" stroke-linejoin="round"/>
<path d="M199.601 160.166C196.541 155.58 189.649 151.845 186.459 154.107C183.182 156.431 187.646 162.248 189.466 166.852C191.286 171.456 188.597 179.117 178.496 176.531" stroke="#263238" stroke-width="2.5" stroke-linecap="round" stroke-linejoin="round"/>
</g>
<defs>
<filter id="filter0_d_872_590" x="0" y="0" width="214.974" height="189.219" filterUnits="userSpaceOnUse" color-interpolation-filters="sRGB">
<feFlood flood-opacity="0" result="BackgroundImageFix"/>
<feColorMatrix in="SourceAlpha" type="matrix" values="0 0 0 0 0 0 0 0 0 0 0 0 0 0 0 0 0 0 127 0" result="hardAlpha"/>
<feOffset dx="7" dy="6"/>
<feGaussianBlur stdDeviation="2"/>
<feComposite in2="hardAlpha" operator="out"/>
<feColorMatrix type="matrix" values="0 0 0 0 0.360577 0 0 0 0 0.360577 0 0 0 0 0.360577 0 0 0 0.4 0"/>
<feBlend mode="normal" in2="BackgroundImageFix" result="effect1_dropShadow_872_590"/>
<feBlend mode="normal" in="SourceGraphic" in2="effect1_dropShadow_872_590" result="shape"/>
</filter>
</defs>
</svg>
