<svg width="35" height="35" viewBox="0 0 35 35" fill="none" xmlns="http://www.w3.org/2000/svg">
<path d="M6.66667 3.33333C6.66667 3.99261 6.47117 4.63707 6.1049 5.18524C5.73863 5.7334 5.21803 6.16064 4.60895 6.41293C3.99986 6.66523 3.32964 6.73124 2.68303 6.60262C2.03643 6.474 1.44249 6.15653 0.976312 5.69036C0.510137 5.22418 0.192668 4.63024 0.0640506 3.98364C-0.0645668 3.33703 0.00144425 2.66681 0.253736 2.05772C0.506028 1.44864 0.933271 0.928041 1.48143 0.56177C2.0296 0.195499 2.67406 1.79989e-06 3.33333 1.79989e-06C4.21739 1.79989e-06 5.06524 0.351191 5.69036 0.976312C6.31548 1.60143 6.66667 2.44928 6.66667 3.33333ZM17.5 1.79989e-06C16.8407 1.79989e-06 16.1963 0.195499 15.6481 0.56177C15.0999 0.928041 14.6727 1.44864 14.4204 2.05772C14.1681 2.66681 14.1021 3.33703 14.2307 3.98364C14.3593 4.63024 14.6768 5.22418 15.143 5.69036C15.6092 6.15653 16.2031 6.474 16.8497 6.60262C17.4963 6.73124 18.1665 6.66523 18.7756 6.41293C19.3847 6.16064 19.9053 5.7334 20.2716 5.18524C20.6378 4.63707 20.8333 3.99261 20.8333 3.33333C20.8333 2.44928 20.4821 1.60143 19.857 0.976312C19.2319 0.351191 18.3841 1.79989e-06 17.5 1.79989e-06ZM31.6667 6.66667C32.3259 6.66667 32.9704 6.47117 33.5186 6.1049C34.0667 5.73863 34.494 5.21803 34.7463 4.60895C34.9986 3.99986 35.0646 3.32964 34.936 2.68303C34.8073 2.03643 34.4899 1.44249 34.0237 0.976312C33.5575 0.510137 32.9636 0.192668 32.317 0.0640506C31.6704 -0.0645668 31.0001 0.00144425 30.3911 0.253736C29.782 0.506028 29.2614 0.933271 28.8951 1.48143C28.5288 2.0296 28.3333 2.67406 28.3333 3.33333C28.3333 4.21739 28.6845 5.06524 29.3096 5.69036C29.9348 6.31548 30.7826 6.66667 31.6667 6.66667ZM3.33333 14.1667C2.67406 14.1667 2.0296 14.3622 1.48143 14.7284C0.933271 15.0947 0.506028 15.6153 0.253736 16.2244C0.00144425 16.8335 -0.0645668 17.5037 0.0640506 18.1503C0.192668 18.7969 0.510137 19.3908 0.976312 19.857C1.44249 20.3232 2.03643 20.6407 2.68303 20.7693C3.32964 20.8979 3.99986 20.8319 4.60895 20.5796C5.21803 20.3273 5.73863 19.9001 6.1049 19.3519C6.47117 18.8037 6.66667 18.1593 6.66667 17.5C6.66667 16.6159 6.31548 15.7681 5.69036 15.143C5.06524 14.5179 4.21739 14.1667 3.33333 14.1667ZM17.5 14.1667C16.8407 14.1667 16.1963 14.3622 15.6481 14.7284C15.0999 15.0947 14.6727 15.6153 14.4204 16.2244C14.1681 16.8335 14.1021 17.5037 14.2307 18.1503C14.3593 18.7969 14.6768 19.3908 15.143 19.857C15.6092 20.3232 16.2031 20.6407 16.8497 20.7693C17.4963 20.8979 18.1665 20.8319 18.7756 20.5796C19.3847 20.3273 19.9053 19.9001 20.2716 19.3519C20.6378 18.8037 20.8333 18.1593 20.8333 17.5C20.8333 16.6159 20.4821 15.7681 19.857 15.143C19.2319 14.5179 18.3841 14.1667 17.5 14.1667ZM31.6667 14.1667C31.0074 14.1667 30.3629 14.3622 29.8148 14.7284C29.2666 15.0947 28.8394 15.6153 28.5871 16.2244C28.3348 16.8335 28.2688 17.5037 28.3974 18.1503C28.526 18.7969 28.8435 19.3908 29.3096 19.857C29.7758 20.3232 30.3698 20.6407 31.0164 20.7693C31.663 20.8979 32.3332 20.8319 32.9423 20.5796C33.5514 20.3273 34.072 19.9001 34.4382 19.3519C34.8045 18.8037 35 18.1593 35 17.5C35 16.6159 34.6488 15.7681 34.0237 15.143C33.3986 14.5179 32.5507 14.1667 31.6667 14.1667ZM3.33333 28.3333C2.67406 28.3333 2.0296 28.5288 1.48143 28.8951C0.933271 29.2614 0.506028 29.782 0.253736 30.3911C0.00144425 31.0001 -0.0645668 31.6704 0.0640506 32.317C0.192668 32.9636 0.510137 33.5575 0.976312 34.0237C1.44249 34.4899 2.03643 34.8073 2.68303 34.936C3.32964 35.0646 3.99986 34.9986 4.60895 34.7463C5.21803 34.494 5.73863 34.0667 6.1049 33.5186C6.47117 32.9704 6.66667 32.3259 6.66667 31.6667C6.66667 30.7826 6.31548 29.9348 5.69036 29.3096C5.06524 28.6845 4.21739 28.3333 3.33333 28.3333ZM17.5 28.3333C16.8407 28.3333 16.1963 28.5288 15.6481 28.8951C15.0999 29.2614 14.6727 29.782 14.4204 30.3911C14.1681 31.0001 14.1021 31.6704 14.2307 32.317C14.3593 32.9636 14.6768 33.5575 15.143 34.0237C15.6092 34.4899 16.2031 34.8073 16.8497 34.936C17.4963 35.0646 18.1665 34.9986 18.7756 34.7463C19.3847 34.494 19.9053 34.0667 20.2716 33.5186C20.6378 32.9704 20.8333 32.3259 20.8333 31.6667C20.8333 30.7826 20.4821 29.9348 19.857 29.3096C19.2319 28.6845 18.3841 28.3333 17.5 28.3333ZM31.6667 28.3333C31.0074 28.3333 30.3629 28.5288 29.8148 28.8951C29.2666 29.2614 28.8394 29.782 28.5871 30.3911C28.3348 31.0001 28.2688 31.6704 28.3974 32.317C28.526 32.9636 28.8435 33.5575 29.3096 34.0237C29.7758 34.4899 30.3698 34.8073 31.0164 34.936C31.663 35.0646 32.3332 34.9986 32.9423 34.7463C33.5514 34.494 34.072 34.0667 34.4382 33.5186C34.8045 32.9704 35 32.3259 35 31.6667C35 30.7826 34.6488 29.9348 34.0237 29.3096C33.3986 28.6845 32.5507 28.3333 31.6667 28.3333Z" fill="#92C650"/>
</svg>
