<svg width="87" height="91" viewBox="0 0 87 91" fill="none" xmlns="http://www.w3.org/2000/svg">
<g filter="url(#filter0_d_872_1124)">
<path fill-rule="evenodd" clip-rule="evenodd" d="M45.8284 31.2564C47.077 31.6208 46.4275 33.3729 45.1499 32.9807C43.8444 32.5799 44.5444 30.8817 45.8284 31.2564ZM42.7459 29.129C43.258 29.3378 43.4309 29.9431 43.2053 30.338C42.9163 30.8441 42.2936 31.0045 41.8395 30.7963C40.6976 30.273 41.5515 28.6415 42.7459 29.129ZM39.5725 26.962C40.794 27.3463 40.0471 29.1256 38.7828 28.6625C38.2291 28.4597 38.0877 27.8845 38.2833 27.4801C38.5226 26.9854 39.152 26.8295 39.5725 26.962ZM48.4092 28.249C49.673 28.708 48.7733 30.4027 47.6249 29.9723C46.4169 29.5193 47.1373 27.7873 48.4092 28.249ZM51.5439 30.4028C52.8025 30.7959 52.0024 32.4662 50.8659 32.1144C49.5376 31.7034 50.3074 30.0168 51.5439 30.4028ZM45.1745 26.0714C46.0849 26.2528 46.0583 27.3669 45.3085 27.7329C44.1143 28.3159 43.2033 26.7199 44.4383 26.1336C44.742 25.9891 44.8432 26.0055 45.1745 26.0714ZM42.1004 23.9557C43.3486 24.379 42.5588 26.0166 41.3679 25.6694C40.1243 25.3069 40.8615 23.536 42.1004 23.9557ZM69.1656 33.0319C70.5303 33.2784 69.9071 35.1771 68.6335 34.876C67.37 34.577 67.8534 32.7949 69.1656 33.0319ZM66.1048 30.9298C66.6907 31.0921 66.9419 31.6873 66.7527 32.1039C66.5007 32.6592 65.8757 32.8359 65.4473 32.7118C64.1465 32.3357 64.9236 30.6022 66.1048 30.9298ZM62.913 28.7373C63.5491 28.9194 63.745 29.4925 63.5957 29.9205C63.4158 30.4355 62.798 30.6557 62.3838 30.5684C61.1001 30.2982 61.5363 28.3434 62.913 28.7373ZM68.6485 27.927C69.9199 28.2756 69.2288 30.102 67.9796 29.693C66.6736 29.2652 67.4386 27.5952 68.6485 27.927ZM60.0754 15.3413C61.1261 15.9025 62.5586 16.9984 63.5843 17.6965C64.8378 18.5497 73.3655 24.28 73.7552 24.7155C73.501 24.9436 72.1806 25.3142 71.757 25.4396C71.077 25.6408 70.4528 25.8687 69.7866 26.1174C69.1128 26.3686 68.477 26.5546 67.8122 26.7657C67.1712 26.9692 66.5127 27.1311 65.8336 27.4038C65.1604 27.6741 64.5486 27.8704 63.8711 28.1025C62.5222 28.5651 59.0624 29.5949 57.9332 30.0459C57.9141 30.2028 57.9175 30.0903 57.9279 30.275C57.9532 30.7165 57.8751 31.1815 57.244 31.3508C56.4938 31.5518 56.3037 31.0119 55.9583 30.6123C55.742 30.7017 55.3919 30.855 55.1841 30.9239L41.8689 21.773L42.0039 21.5777C41.3796 21.4065 38.5002 19.2519 37.7343 18.7443C34.6723 22.5219 32.781 27.3827 32.7583 31.5574C32.7532 32.4835 32.7278 33.1219 32.8632 34.002L33.0898 35.7888C33.1974 36.5709 33.8863 38.0613 34.5597 38.6862C35.0259 38.7631 39.5872 37.2026 40.4456 36.9251C40.8289 36.8009 41.0423 36.6658 41.2694 36.7602C41.6755 36.4407 42.4063 36.3124 42.8758 36.0781C42.2756 35.8618 42.0143 35.7509 41.9666 35.2052C41.9266 34.7464 42.18 34.349 42.728 34.2352C43.1185 34.1541 43.6299 34.2551 43.8221 34.7377C43.9753 35.1214 43.9363 35.4179 43.5782 35.859L47.5904 34.4779C47.637 34.3147 47.603 34.4582 47.623 34.3153C47.6432 34.1706 47.6028 34.3509 47.6371 34.1538C47.6571 34.0397 47.6966 33.9231 47.7634 33.8224C48.4456 32.7925 49.5184 33.8272 49.621 33.8961C50.1061 33.7933 50.6523 33.5704 51.1052 33.4184L54.0408 32.4939C54.5367 32.3709 54.9522 32.2672 55.463 32.0976L61.1906 30.1743C63.1591 31.392 65.1193 32.8194 67.0262 34.1295C67.9486 34.7632 72.3008 37.559 72.7075 38.101C74.3226 35.8574 75.4897 33.0838 76.0029 30.7729C76.3026 29.4237 76.3085 28.505 76.3402 27.3039C76.3628 26.4498 76.0644 24.7515 75.7539 23.9771C75.4005 24.0008 75.0654 24.2037 74.7246 24.313C74.3912 24.4198 74.0788 24.5177 73.7962 24.5918L60.9582 15.821C60.6264 15.5954 60.4047 15.3636 60.0754 15.3413Z" fill="#3D4B56"/>
<path fill-rule="evenodd" clip-rule="evenodd" d="M47.1721 19.6458C46.1932 20.306 44.8913 18.8692 46.0369 18.0986C47.068 17.4054 48.2781 18.9001 47.1721 19.6458ZM37.546 18.8149C38.3133 19.3236 41.1989 21.4836 41.8251 21.6552L46.5329 19.9731C46.8314 19.8726 50.9299 18.5542 51.2672 18.3482C51.2539 18.0382 51.0654 17.4455 51.8686 17.1161C52.3885 16.9027 52.8221 17.2244 53.2015 17.691C55.0775 16.9335 58.7771 15.9156 59.937 15.4047C60.267 15.4271 60.489 15.6593 60.8221 15.885L73.6888 24.6769C73.972 24.6026 74.2851 24.5044 74.6192 24.3974C74.9608 24.2883 75.297 24.0847 75.6509 24.0608C75.4286 22.821 74.0814 20.5564 73.2859 19.5484C72.128 18.0812 70.5486 16.5625 68.9639 15.334C64.1569 11.6073 58.3747 8.89823 52.2464 9.5861C50.8026 9.74799 48.4333 10.4309 47.1329 11.0571C43.6657 12.7254 40.1047 15.367 37.546 18.8149Z" fill="#6391AB"/>
<path fill-rule="evenodd" clip-rule="evenodd" d="M41.3858 36.7323C41.1585 36.6378 40.9449 36.7731 40.5613 36.8973C39.7017 37.1752 35.1369 38.7372 34.6706 38.66C35.0578 39.5817 37.493 41.8453 38.5079 42.6649C41.7769 45.3043 48.4814 49.8202 53.1394 49.7836C53.5261 49.7805 54.0655 49.7233 54.4242 49.6791C54.8759 49.6233 55.2056 49.5191 55.634 49.462C58.19 49.1211 61.8538 47.7388 64.0077 46.4319C67.5933 44.2562 70.1681 41.6993 72.7345 38.2522C72.0337 38.3216 54.2438 45.1623 53.7535 45.2323L41.3858 36.7323Z" fill="#6391AB"/>
<path fill-rule="evenodd" clip-rule="evenodd" d="M50.8945 26.9107C50.5236 27.1143 49.8875 27.0951 49.5696 26.5671C49.2959 26.1119 49.4759 25.5529 49.975 25.3011C51.007 24.7807 52.1064 26.2453 50.8945 26.9107ZM52.7215 27.8738C53.4267 26.7591 55.1223 27.7067 54.4859 28.6956C53.7923 29.7735 52.1312 28.8067 52.7215 27.8738ZM46.387 23.5433C47.145 22.3891 48.7573 23.3839 48.1332 24.3572C47.4296 25.4542 45.7851 24.4602 46.387 23.5433ZM58.3955 27.1771C59.0297 25.972 60.7278 26.8998 60.2638 27.8878C59.6667 29.1605 57.8741 28.1677 58.3955 27.1771ZM55.1935 24.8929C55.956 23.7328 57.6067 24.7848 56.9825 25.7576C56.2629 26.8796 54.5735 25.8361 55.1935 24.8929ZM52.005 22.7131C52.7387 21.6444 54.4262 22.5378 53.805 23.5704C53.1104 24.7252 51.351 23.6656 52.005 22.7131ZM48.8707 20.5705C49.6492 19.3933 51.2284 20.4387 50.6437 21.3978C49.9123 22.5983 48.2382 21.5266 48.8707 20.5705ZM54.4958 19.84C55.0283 18.621 56.835 19.3771 56.4055 20.4191C55.899 21.6485 54.0225 20.9229 54.4958 19.84ZM62.4492 25.2772C61.442 25.9145 60.1294 24.5515 61.2878 23.7706C62.3659 23.0438 63.534 24.5912 62.4492 25.2772ZM57.7414 21.8684C58.4633 20.7887 60.1958 21.7848 59.4823 22.7828C59.1509 23.2464 58.5229 23.3629 58.0792 23.1052C57.5886 22.8198 57.4897 22.2446 57.7414 21.8684ZM67.8018 22.8201C69.0697 23.0345 68.6117 24.9055 67.3188 24.6399C66.0775 24.3843 66.3123 22.5681 67.8018 22.8201ZM63.4365 21.1862C64.0947 19.9613 65.8827 20.9062 65.2399 21.9798C64.5747 23.0905 62.8967 22.191 63.4365 21.1862ZM61.4603 18.4613C62.8306 18.8945 61.9297 20.6027 60.7919 20.2312C59.4376 19.7889 60.2589 18.0817 61.4603 18.4613ZM58.2751 16.2504C58.7265 16.4899 58.9895 16.7099 58.9471 17.1719C58.9115 17.5604 58.6331 17.9382 58.1909 18.0357C57.8279 18.1158 57.4009 18.0548 57.0967 17.6403C56.8226 17.2667 56.9847 17.0017 57.1014 16.5812C56.539 16.7888 55.8545 16.9697 55.236 17.1988C54.5967 17.4356 53.9711 17.6246 53.2934 17.8743C53.1419 18.2469 53.1139 18.6488 52.6259 18.8418C52.2067 19.0075 51.8527 18.8477 51.4529 18.5423C50.5052 18.8896 44.9463 20.6818 44.5064 20.9199C46.1257 21.8399 44.262 23.4665 43.3322 22.3859C43.0156 22.0182 43.1876 21.8015 43.2065 21.4032C42.8849 21.4778 42.3314 21.6591 42.0938 21.8029C43.634 22.964 50.6044 27.6222 52.3143 28.7908L55.118 30.7132C56.0862 30.5852 55.7378 30.3255 56.1759 29.8855C56.6394 29.4198 57.1002 29.5388 57.644 29.9013L61.155 28.8C61.5346 28.678 64.4391 27.7706 64.7086 27.6059C63.073 26.6102 64.9333 25.1016 65.8699 26.1401C66.1689 26.4714 66.0224 26.7649 66.0129 27.1331C66.2869 27.1316 70.5896 25.6679 71.4384 25.3737C71.9039 25.2124 72.8801 24.9297 73.2661 24.7222C71.7058 23.5469 66.694 20.2106 65.0468 19.089L60.0244 15.6486L58.2751 16.2504Z" fill="#D4D6D9"/>
<path fill-rule="evenodd" clip-rule="evenodd" d="M53.1113 42.4933C51.8795 43.1139 50.9666 41.4499 52.1732 40.897C53.3704 40.3487 54.2662 41.9112 53.1113 42.4933ZM48.5248 39.1675C49.1643 37.9794 50.8789 38.8487 50.3795 39.8688C50.1018 40.436 49.4857 40.5989 49.0155 40.386C48.4846 40.1458 48.3134 39.5602 48.5248 39.1675ZM46.7115 38.1186C45.64 38.661 44.4225 37.1159 45.7799 36.5036C46.819 36.0349 47.928 37.5026 46.7115 38.1186ZM55.5024 37.8299C56.7581 38.1888 56.0959 39.9258 54.8281 39.5793C54.232 39.4165 54.0012 38.8369 54.1657 38.4259C54.3592 37.9425 54.8536 37.6449 55.5024 37.8299ZM52.3594 35.6546C52.9425 35.8549 53.086 36.4447 52.899 36.8387C52.649 37.3656 52.0511 37.5709 51.5697 37.3902C50.3018 36.9141 51.0942 35.2202 52.3594 35.6546ZM58.5546 39.9752C59.8451 40.245 59.3969 42.0002 58.0822 41.7798C56.7486 41.5562 57.2978 39.7123 58.5546 39.9752ZM64.4163 39.1302C65.5948 39.5449 64.8549 41.2958 63.6785 40.863C62.3948 40.3911 63.201 38.7026 64.4163 39.1302ZM58.0319 34.788C59.2937 35.147 58.6152 36.8062 57.4156 36.5396C56.111 36.2501 56.6901 34.4064 58.0319 34.788ZM61.2273 36.9707C61.8031 37.1452 62.0041 37.706 61.8281 38.1173C61.613 38.6196 60.9739 38.835 60.5496 38.7048C59.245 38.3039 59.9343 36.5785 61.2273 36.9707ZM63.7728 33.964C64.9761 34.3233 64.3182 36.0457 63.0933 35.7164C62.1312 35.4578 62.165 34.2837 63.0291 33.9624C63.3266 33.8521 63.486 33.8785 63.7728 33.964ZM60.6397 31.8097C61.2012 32.0375 61.317 32.5621 61.1457 32.9623C60.9213 33.4868 60.2613 33.6692 59.8382 33.5271C58.5321 33.0882 59.3497 31.2868 60.6397 31.8097ZM66.9009 36.0954C67.4565 36.2675 67.6118 36.8479 67.4466 37.2357C67.2259 37.7541 66.5972 37.9754 66.1626 37.8303C64.9514 37.425 65.5595 35.6799 66.9009 36.0954ZM53.7591 45.0095C54.1787 44.9472 55.6287 44.3596 56.1126 44.1848C56.9091 43.8974 57.6242 43.6486 58.417 43.3473C59.9803 42.7534 61.5104 42.1924 63.0808 41.6099C64.6242 41.0377 66.188 40.3889 67.7402 39.8507C68.5684 39.5634 69.2973 39.2485 70.0972 38.9622L72.4371 38.0628L61.306 30.4726L54.872 32.558C55.3677 32.9103 55.53 33.0834 55.5108 33.5242C55.4902 33.9885 55.0274 34.3321 54.6406 34.3924C54.2829 34.4482 53.7871 34.2711 53.5666 33.9025C53.3299 33.5067 53.5762 33.3194 53.6373 32.8987C52.8872 33.0748 52.3655 33.3026 51.6828 33.5125C51.0238 33.7152 50.356 33.9759 49.7585 34.1055C49.6609 34.5098 49.7301 34.8904 49.0733 35.14C48.6088 35.3167 48.2277 35.1322 47.8144 34.6976L41.7114 36.7769L53.7591 45.0095Z" fill="#DADEE0"/>
<path fill-rule="evenodd" clip-rule="evenodd" d="M20.2531 69.84L20.8999 70.2777C19.8166 72.2691 21.3128 72.7663 23.2436 73.6826C25.8831 74.9352 27.5724 76.7269 29.1652 78.8464C29.3989 79.1572 29.6143 79.4801 29.2495 79.7847C28.8158 80.1475 28.4784 79.8817 28.0622 79.5656C27.3448 79.0211 26.8231 78.4249 26.2319 77.8007L24.8782 76.1859C24.6446 75.8179 24.7977 76.0978 24.7831 75.8649C25.3895 76.3021 25.9355 76.7247 26.4548 77.236C26.7881 77.5644 27.4184 78.4447 27.8506 78.4907C27.8843 78.1079 27.1838 77.6128 26.9015 77.3456C25.5864 76.0999 24.5352 75.0962 22.7659 74.2859C21.2484 73.5908 19.5822 72.9769 19.6608 71.2084C19.6815 70.7457 19.9425 70.2648 20.2531 69.84ZM20.1739 68.7921L22.0438 70.05L21.6917 70.446L19.9227 69.2519L20.1739 68.7921ZM18.7652 67.0925C19.608 67.7297 20.5137 68.4071 21.4012 69.0216C22.3164 69.6554 23.4878 70.3767 24.327 71.038C24.1847 71.072 24.2478 71.2112 23.6501 70.8393C23.3851 70.6747 23.1184 70.4988 22.8662 70.3187C22.3519 69.9517 21.8154 69.6366 21.3021 69.2663C20.7908 68.8978 20.2894 68.5356 19.7597 68.1879C18.8423 67.5854 18.6738 67.5073 18.7652 67.0925ZM23.1026 64.2598C23.4869 64.6783 23.8683 65.1741 24.261 65.6186C24.6396 66.0471 25.1382 66.5119 25.458 66.953L26.2717 67.8905C26.1489 68.2374 25.7619 68.9568 25.5958 69.3112C25.3278 69.8831 25.0661 70.3445 24.5728 70.82L23.122 69.8903C22.4541 69.4139 19.6779 67.6556 19.4191 67.2303L18.8759 66.8896C19.3348 66.2032 20.0605 65.7953 20.6825 65.3084C21.4024 64.7448 21.8396 64.1743 22.4289 63.4911L23.1026 64.2598ZM23.5365 63.7182L22.8454 62.9303C22.6069 63.2393 22.575 63.1964 22.7738 63.483C22.9004 63.6656 22.9786 63.7627 23.1558 63.8943C23.175 64.0407 23.0757 63.9325 23.2805 64.1734L26.4921 67.6904L26.7194 67.4072L23.5365 63.7182ZM25.8823 61.1178L25.1353 60.2449L23.0919 62.7431L23.684 63.4431C23.693 63.4625 23.7038 63.4881 23.7113 63.5009L23.8118 63.6561C23.8386 63.6901 23.9096 63.76 23.9426 63.7963L24.798 64.8019C25.065 65.1109 25.7136 65.9201 26.014 66.1158C26.0356 66.3264 26.1617 66.3964 26.4013 66.658C26.5773 66.8498 26.673 66.9681 26.8791 67.1393L28.8831 64.6525L28.1007 63.6968L25.8823 61.1178ZM26.2925 60.5556L28.5517 63.1524C29.371 64.1705 29.5248 63.972 29.1378 64.4265C28.8902 64.2112 28.1808 63.5954 28.1554 63.3139L26.2406 61.1996C25.9606 60.8766 26.051 60.9582 26.0339 60.8342C25.7886 60.6863 25.7391 60.5693 25.5619 60.3298C25.3295 60.0159 25.2857 60.034 25.5628 59.7135L26.2925 60.5556ZM28.71 57.6316L31.0345 60.2889L31.784 61.153L29.5821 63.848C29.4051 63.7048 29.2655 63.5698 29.1138 63.4072L28.68 62.8707C28.3876 62.6082 26.46 60.4775 26.3551 60.1494L25.8034 59.5017L28.0142 56.8482L28.71 57.6316ZM29.2121 57.1294C29.0665 56.918 28.6944 56.4391 28.433 56.2632C28.195 56.5894 28.1615 56.5141 28.3567 56.8013C28.4984 57.0096 28.5641 57.0796 28.7758 57.2147C28.7992 57.46 29.0974 57.6853 29.2734 57.8989C29.4629 58.129 29.6595 58.347 29.8556 58.565C30.1932 58.9412 30.6955 59.5746 31.0369 59.8725C31.0612 59.9239 31.0422 59.9182 31.1366 60.0473C31.1385 60.0498 31.2479 60.1715 31.263 60.1883L32.0049 60.9523L32.2764 60.6017L31.4866 59.71L29.2121 57.1294ZM30.1621 55.9801L29.2843 55.3686L28.6618 56.0635C28.8638 56.3057 28.9871 56.5423 29.2762 56.7109C29.3008 56.8836 29.2239 56.7652 29.4907 57.0727L30.3224 58.0246C30.6406 58.3907 31.1127 59.0067 31.4743 59.2918C31.5365 59.5116 32.2066 60.1833 32.4476 60.3913C32.9829 59.7373 33.3978 59.2611 33.8191 58.551L32.9054 57.8972L30.1621 55.9801ZM33.0111 56.5167L34.5238 57.6389L34.0173 58.2985C33.3808 57.9279 29.561 55.6155 29.5768 55.2048C29.4358 55.0503 29.4755 55.0818 29.6525 54.8411C29.7442 54.7164 29.8644 54.6153 29.9836 54.5138L33.0111 56.5167ZM34.4074 57.1552L33.3916 56.4821C34.0861 55.3915 36.6552 54.21 38.0512 53.8009C38.5882 53.6436 39.256 53.4993 39.6797 53.3554L40.4586 54.3183C39.9319 54.6406 37.1103 55.2302 34.4074 57.1552ZM31.9764 48.4097L33.1731 48.8847C33.1373 49.0605 33.1012 50.879 32.9066 51.9637C32.7642 52.7579 32.201 54.4729 31.5305 55.2549L30.5549 54.5794C31.375 52.4404 31.3999 52.2984 31.7321 49.9955L31.9764 48.4097ZM38.32 53.4146L39.0612 53.222L38.9408 52.9451C38.9342 52.9296 38.9234 52.9009 38.9182 52.888L38.8701 52.7667C39.169 52.3658 39.0402 52.0339 38.9521 51.6966C38.7214 51.6887 38.4325 51.8045 38.1967 51.8828C37.9363 51.9692 37.7144 52.0505 37.4675 52.1328C36.9801 52.2946 36.5831 52.4326 36.0488 52.3419L35.9182 52.2934C35.1058 51.8837 35.0328 51.2685 35.0547 50.7093C35.0664 50.4132 35.0868 50.1716 35.117 49.8478C35.1317 49.6883 35.142 49.5649 35.1494 49.4178C35.1627 49.1608 35.193 49.1984 35.1072 48.9872C34.864 48.9848 34.4937 49.0478 34.253 49.2083C34.0666 49.3324 34.064 49.3964 33.8683 49.4386C33.7491 49.4642 33.7576 49.4364 33.6318 49.4445C33.4982 49.453 33.5613 49.4456 33.4428 49.4761C33.3216 49.8123 33.3326 50.5441 33.2904 50.9514C33.0238 53.5443 32.7135 53.3297 31.7693 55.4177L33.1282 56.331C33.4957 56.0283 33.7679 55.7283 34.1685 55.4228C34.5236 55.1516 34.8711 54.9829 35.2102 54.7395L35.814 54.3964C36.2282 54.2052 36.643 54.0329 37.0623 53.8714C37.4796 53.7101 37.9756 53.5837 38.32 53.4146ZM40.8174 54.2588L41.8179 53.8768C41.7634 53.5912 41.7838 53.7191 41.4825 53.3887C41.1535 53.0277 41.0769 52.7395 40.0928 53.2651C40.2082 53.5673 40.5468 54.0467 40.8174 54.2588ZM32.1136 47.0487C31.9639 47.4365 32.0327 47.6478 31.9506 48.1518L33.1103 48.5643C33.1808 48.2458 33.1847 47.8193 33.2228 47.4905L32.1136 47.0487ZM35.6784 44.0959C35.4631 44.4364 35.4924 45.3226 35.5108 45.6388C35.5804 46.8202 35.4517 48.9768 35.3445 50.1883C35.0875 53.0991 37.0498 51.9857 38.7194 51.4257C39.2884 51.2349 39.739 51.1465 40.3 50.9772C42.2656 50.3842 44.8451 50.2528 44.1997 48.807C43.9884 48.3338 43.0501 47.9354 42.5575 47.6313C41.2645 46.8329 40.0573 46.0225 38.851 45.1195C38.3345 44.7328 37.7515 44.2187 37.2401 43.8767C36.716 43.5261 36.0413 43.5223 35.6784 44.0959ZM42.2308 53.8091C41.9807 53.5787 41.5212 53.1487 41.4129 52.8428C42.8768 52.2496 46.621 51.4993 48.3797 51.2618C48.6266 51.4379 48.5946 51.4419 48.7626 51.6904C48.9074 51.9049 48.9419 51.9015 48.9832 52.1514C48.6549 52.2987 48.528 52.2192 48.1693 52.2974L46.4575 52.6461C45.7348 52.7625 42.7758 53.5482 42.2308 53.8091ZM31.9712 40.5199L32.9813 40.6808C33.101 41.0525 33.1867 42.6427 33.1841 43.0858C33.1794 43.8349 33.3021 46.7 33.1909 47.1266L32.0603 46.7966L31.957 40.7509C31.9434 40.5074 31.9326 40.7156 31.9712 40.5199ZM46.0128 48.9237C46.1132 49.1788 46.1618 50.7884 44.9228 50.8914C44.0226 50.9665 40.395 52.1235 39.3804 52.4013C39.2589 52.2266 39.3383 52.4605 39.2859 52.201L39.2475 51.5518C39.8534 51.255 41.5732 50.8952 42.3714 50.6786C44.2027 50.1823 44.5976 50.2395 44.5156 48.7884C43.6836 47.8747 42.2112 47.1673 40.911 46.309L37.2028 43.5613C36.6994 43.2866 35.8932 43.3548 35.4734 43.8625C35.1738 44.2249 35.2429 45.198 35.2649 45.513L35.1623 48.7591C34.7456 48.8001 34.6741 48.7911 34.2743 48.9018L34.3133 45.4298C34.3818 44.0355 33.9887 42.7452 35.8484 42.5647C36.8412 42.4682 37.7008 43.181 38.6011 43.8337C40.3949 45.1341 42.2432 46.4603 44.2148 47.5285C45.1901 48.0567 45.9562 48.4037 46.9425 48.8882C47.8419 49.3299 48.9019 49.5584 49.7015 49.9751C49.4104 50.1552 48.1606 50.2654 47.7173 50.3123C47.1278 50.3749 46.3613 50.6907 45.7679 50.6209C45.9927 50.2674 46.1102 49.9949 46.1409 49.646C46.1558 49.4838 46.1666 48.9004 46.0128 48.9237ZM33.9732 39.1805C35.3445 40.6858 35.3415 40.8634 37.0724 42.4994C36.0336 42.2944 35.4025 42.0664 34.3305 43.0297C34.2788 42.4275 34.2099 41.7545 34.1818 41.1365L33.9732 39.1805ZM39.3804 53.1318L44.2874 51.8194C44.6086 51.7398 44.95 51.634 45.2546 51.5915L51.1561 50.565C52.0587 50.4424 55.1985 50.0687 56.1026 49.8393L57.073 49.6455C58.5553 49.3669 61.4066 48.3323 62.7771 47.6143C65.4086 46.2357 67.839 44.5597 70.0593 42.2366C73.8563 38.2643 76.607 33.6881 76.9976 28.566C77.1199 26.9614 76.9372 25.5973 76.56 24.0469C75.5556 19.9209 71.5721 15.9085 67.8081 13.4207C65.1153 11.6406 62.1227 10.0989 59.1332 9.34627C56.1554 8.59638 53.9293 8.59987 51.0644 9.13852C48.8327 9.55812 45.8145 10.9009 43.496 12.5334C38.5074 16.046 34.1285 21.6627 32.8572 27.2616C32.5571 28.5831 32.3419 29.8411 32.2998 31.0136L32.3391 33.7244C32.3527 34.3914 32.8839 37.3089 32.9975 38.2122L33.4594 43.2066C33.4606 43.3803 33.4736 43.4307 33.4795 43.6294C33.5392 45.6726 33.4118 47.1908 33.3977 49.0951L33.8233 49.2036C34.0931 48.7319 34.1193 43.3077 34.0409 42.5394C34.0109 42.2444 33.9788 42.2059 33.9827 41.9097L33.8178 39.9622C33.7507 39.5925 33.5338 39.0465 33.8551 38.719C34.1304 38.8782 35.0626 40.0824 35.3835 40.4355C38.3039 43.6471 43.9075 47.4964 48.144 49.1137L49.8 49.6931C50.4909 49.8615 50.2557 49.9369 50.2502 50.009C50.1575 50.2658 49.2721 50.3606 48.9594 50.375C48.1957 50.41 47.397 50.6655 46.7804 50.7503C46.4912 50.79 46.3742 50.7552 46.0888 50.8258C44.7281 51.1621 43.2979 51.4614 41.9485 51.8705C41.3497 52.0518 39.523 52.5057 39.1849 52.8455L39.3804 53.1318ZM68.3179 12.53C69.8674 13.5922 71.1734 14.6539 72.515 15.8857C73.126 16.4468 73.6428 16.962 74.2022 17.5536C74.6986 18.0787 75.1449 18.8539 75.5575 19.264C76.7823 20.8697 77.6555 23.0629 77.936 24.4967C78.4195 26.9689 78.4222 27.0903 78.1253 29.9552C77.9624 31.5267 77.082 33.9754 76.2565 35.7048C73.5563 41.3625 67.1886 47.4139 61.1127 49.6068C59.2654 50.2735 58.3804 50.4582 56.7194 50.9171C56.437 50.995 56.2738 50.9569 55.9753 51.0399L52.298 51.6146C51.951 51.6846 51.5085 51.8577 51.1607 51.8683C50.9752 51.8739 50.9808 51.8507 50.808 51.8686C50.3397 51.9167 49.8629 52.0914 49.3623 52.1735L48.6949 51.2226C49.399 50.9295 53.3932 50.59 54.533 50.3801C54.7996 50.331 55.0108 50.2811 55.275 50.2199C56.0206 50.0464 56.3959 50.0596 57.4398 49.7622C58.2966 49.5178 59.3437 49.2748 60.2618 48.9414C64.2115 47.508 67.9126 45.0182 71.0968 41.5303C74.615 37.6762 77.526 32.1353 77.2643 27.1982L77.222 26.512C77.2168 25.5825 77.0733 24.8049 76.8034 23.9061C76.5433 23.0393 75.9038 21.4555 75.4659 20.7353L74.7888 19.6562C74.7135 19.513 74.7421 19.5443 74.7221 19.4814C74.3481 19.1809 73.7506 18.279 73.3414 17.832C72.8448 17.2894 72.3244 16.7733 71.7914 16.2421C70.5617 15.017 69.2232 14.1431 67.8098 13.0976C67.5035 12.9665 65.3315 11.5405 64.1617 10.9685C61.8124 9.81933 59.5458 9.02754 56.9291 8.67557C55.4307 8.47404 53.2072 8.44697 51.7757 8.75672C51.6213 8.79008 51.5299 8.82043 51.3764 8.84594C47.3434 9.51504 43.4947 11.9334 40.428 14.6553C38.3795 16.4733 36.387 19.0289 35.0494 21.3083C33.2629 24.3524 31.8862 28.6324 32.0475 31.9018C32.0623 32.2026 32.0526 32.4076 32.0459 32.6998C32.041 32.9124 32.049 32.8513 32.0807 33.0676L32.1884 34.2771C32.2897 35.3889 32.4235 36.2633 32.6124 37.3603C32.6838 37.7737 33.0398 40.1733 32.9718 40.4546C32.6285 40.3866 32.2296 40.3481 31.8962 40.1674C31.8781 39.7517 31.8333 39.0383 31.7165 38.6023L31.1774 33.8301C31.1684 33.6475 31.1529 33.6551 31.1208 33.466L31.13 30.6422C31.5448 24.3704 34.786 18.5319 40.0862 13.7417C45.8301 8.55104 53.2015 6.2114 60.6866 8.69592C63.245 9.54465 66.0528 10.9862 68.3179 12.53ZM18.5307 67.588L19.9331 68.6279C19.4589 69.2256 19.4406 69.2085 20.023 69.6661C19.5611 70.4381 19.2994 71.0352 19.4132 71.772C19.7406 73.8916 22.4322 74.0957 23.8432 75.2445C24.2116 75.5444 24.6835 76.3403 25.0091 76.749C25.8308 77.7804 26.7702 78.8846 27.834 79.7205C28.5329 80.2695 29.132 80.4432 29.657 79.6623C29.7718 79.3665 29.7306 79.2423 29.6324 78.9716C28.4358 77.3827 26.959 75.6559 25.1265 74.4349C23.4862 73.3421 21.2456 72.7837 20.8545 71.7326C20.7358 71.4137 20.7651 70.8393 21.1475 70.4378C21.7951 70.8398 21.826 70.793 22.2888 70.222C22.8909 70.6348 23.5456 71.0937 24.1737 71.3637C25.8926 70.2619 25.516 69.4804 26.472 68.1821C27.265 67.1056 28.2591 65.69 29.2313 64.7283C29.7473 64.2178 34.7371 58.0178 34.8824 57.6564L34.6551 57.3318C35.9291 56.1052 39.4233 54.9987 41.0663 54.3987C41.8149 54.1251 44.674 53.2514 45.5199 53.0973L50.9563 52.0867C51.2589 52.0226 51.4635 52.0289 51.7618 51.9804L55.9475 51.2752C57.8013 50.7879 58.7377 50.7178 60.8678 49.9288C68.0867 47.2551 74.3918 41.1564 77.2366 34.0685C77.9424 32.3097 78.2604 31.0364 78.4757 29.2672C78.546 28.6895 78.5163 28.1208 78.6279 27.6565L78.521 26.4391C78.5057 25.8314 78.3687 25.1914 78.2597 24.5581C78.2226 24.3426 78.1533 24.2047 78.0917 23.9422C77.9985 23.5445 77.8505 23.1187 77.6732 22.6688C77.04 21.0625 76.1117 19.4337 74.8319 17.897C71.1745 13.5059 64.1205 8.80027 57.9127 7.73451C56.9241 7.56457 55.9475 7.50339 55.0585 7.46124C54.5842 7.4386 54.1042 7.44311 53.6495 7.45934C49.2131 7.61887 44.9739 9.51859 41.4185 12.3022C34.8027 17.4822 30.7842 24.49 30.8343 32.2255L30.8866 33.5501C30.8887 33.9861 30.9662 34.3839 30.9811 34.816L31.4177 38.6427C31.4994 39.3216 31.6512 39.7185 31.6684 40.5249L31.89 43.7415C31.8715 44.1766 31.8884 44.5653 31.8667 45.0241L31.5907 48.9483C31.4402 50.2323 31.1422 53.044 30.3276 54.3477L29.8471 54.213L23.9466 61.2464C23.3055 62.004 21.4437 64.2751 20.9107 64.7534C19.6052 65.9245 18.3679 66.2172 18.5307 67.588Z" fill="#060A0D"/>
<path fill-rule="evenodd" clip-rule="evenodd" d="M34.6226 38.6489C33.9505 38.0252 33.2632 36.5379 33.1555 35.7572L32.9294 33.9738C32.7942 33.0953 32.8196 32.4582 32.8247 31.5339C32.8471 27.3671 34.7347 22.5157 37.7909 18.7455C40.339 15.3129 43.8854 12.6825 47.3375 11.021C48.6325 10.3975 50.9917 9.7178 52.4296 9.55635C58.5325 8.8712 64.2903 11.5688 69.0772 15.2794C70.6553 16.5026 72.2281 18.0148 73.3812 19.4756C74.1733 20.4793 75.5149 22.734 75.7362 23.9685C76.0461 24.7413 76.3437 26.4367 76.3214 27.2888C76.2897 28.4876 76.2837 29.4047 75.9847 30.7511C75.4728 33.0577 74.3077 35.8258 72.6957 38.065L72.5804 38.2424C70.021 41.6802 67.4535 44.2297 63.8779 46.3993C61.7299 47.7026 58.0765 49.0808 55.5273 49.421C55.1004 49.4782 54.7713 49.5819 54.3209 49.6375C53.9632 49.6817 53.4256 49.7388 53.0397 49.7418C48.3946 49.7783 41.7085 45.2752 38.4488 42.6428C37.4369 41.8257 35.0087 39.5682 34.6226 38.6489ZM44.1669 51.9507C44.489 51.871 44.8313 51.7649 45.1367 51.7223L51.0545 50.6933C51.9595 50.5704 55.1079 50.1957 56.0145 49.9657L56.9876 49.7715C58.474 49.4922 61.3331 48.4551 62.7074 47.7353C65.3461 46.3533 67.7832 44.6732 70.0096 42.3443C73.817 38.3623 76.5753 33.7748 76.967 28.64C77.0896 27.0315 76.9064 25.664 76.5282 24.1099C75.5211 19.9736 71.5265 15.9513 67.7522 13.4574C65.052 11.6729 62.0512 10.1274 59.0535 9.37299C56.0674 8.62125 53.8352 8.62475 50.9624 9.16473C48.7246 9.58536 45.6981 10.9314 43.3733 12.568C38.371 16.0892 33.98 21.7198 32.7052 27.3325C32.4043 28.6572 32.1885 29.9183 32.1463 31.0937L32.1857 33.8112C32.1993 34.4798 32.732 37.4045 32.8459 38.3101L33.3091 43.3168C33.3103 43.4908 33.3233 43.5414 33.3292 43.7406C33.3891 45.7888 33.2613 47.3108 33.2472 49.2198L33.6739 49.3285C33.9445 48.8557 33.9707 43.4181 33.8922 42.6479C33.8621 42.3521 33.8299 42.3135 33.8338 42.0167L33.6684 40.0644C33.6012 39.6937 33.3837 39.1464 33.7058 38.8181C33.9819 38.9777 34.9167 40.1849 35.2385 40.5388C38.1669 43.7583 43.7859 47.6171 48.034 49.2384L49.6946 49.8193C50.3874 49.988 50.1516 50.0636 50.146 50.1359C50.0531 50.3934 49.1652 50.4884 48.8517 50.5028C48.0858 50.5379 47.285 50.7941 46.6667 50.879C46.3767 50.9188 46.2594 50.884 45.9732 50.9547C44.6088 51.2919 43.1746 51.5919 41.8215 52.002C41.221 52.1838 39.3893 52.6387 39.0503 52.9794L39.2466 53.2661L44.1669 51.9507Z" fill="#FAFCFA"/>
<path fill-rule="evenodd" clip-rule="evenodd" d="M67.5208 13.0906L68.0285 12.523C65.7652 10.9802 62.9595 9.53984 60.4036 8.69117C52.9245 6.20834 45.559 8.54639 39.8198 13.7336C34.5236 18.5203 31.2853 24.3551 30.8708 30.6226L30.8616 33.4445C30.8937 33.6335 30.9092 33.6259 30.9181 33.8083L31.4568 38.5773C31.5736 39.013 31.6185 39.7261 31.6364 40.1414C31.9695 40.322 32.3681 40.3604 32.7111 40.4284C32.7791 40.1472 32.4228 37.7493 32.352 37.3361C32.1633 36.2399 32.0296 35.366 31.9284 34.255L31.8207 33.0463C31.7891 32.8302 31.7811 32.8917 31.786 32.6788C31.7926 32.3868 31.8021 32.1818 31.7876 31.8814C31.6265 28.6141 33.002 24.337 34.7871 21.295C36.1234 19.0174 38.1145 16.4637 40.1613 14.6466C43.2255 11.9264 47.0714 9.50993 51.1009 8.8411C51.2542 8.8156 51.3456 8.78527 51.4998 8.75193C52.9304 8.44258 55.1519 8.46944 56.6491 8.67084C59.2634 9.02238 61.5285 9.81382 63.8759 10.9622C65.0448 11.5347 67.2146 12.9599 67.5208 13.0906Z" fill="#515E6C"/>
<path fill-rule="evenodd" clip-rule="evenodd" d="M74.7731 19.8117C74.7927 19.8746 74.7645 19.8432 74.8395 19.986L75.514 21.0617C75.9502 21.7797 76.5871 23.3587 76.8463 24.2228C77.1154 25.119 77.2584 25.8943 77.2633 26.8206L77.3054 27.5048C77.5658 32.4265 74.6663 37.9506 71.1618 41.7928C67.9902 45.2698 64.3032 47.7521 60.3688 49.1812C59.4541 49.5133 58.411 49.7561 57.5579 49.9995C56.5183 50.2961 56.1444 50.283 55.4014 50.4557C55.1385 50.517 54.9279 50.5665 54.6624 50.6154C53.5269 50.8247 49.5482 51.1632 48.8469 51.4554L49.5117 52.4034C50.0102 52.3218 50.4853 52.1473 50.9518 52.0994C51.1239 52.0815 51.1183 52.1047 51.3031 52.0991C51.6498 52.0887 52.0903 51.916 52.436 51.8462L56.099 51.2732C56.3966 51.1902 56.5589 51.2284 56.8402 51.1508C58.4946 50.6936 59.3763 50.5092 61.2165 49.8446C67.2688 47.6584 73.6115 41.6254 76.3015 35.9852C77.124 34.2609 78.0008 31.82 78.1631 30.2533C78.4591 27.3969 78.4563 27.2759 77.9745 24.8115C77.6951 23.3822 76.8252 21.1957 75.6052 19.5949C75.2661 20.054 75.2572 19.9529 74.7731 19.8117Z" fill="#26323B"/>
<path fill-rule="evenodd" clip-rule="evenodd" d="M60.025 15.6485L65.0472 19.0888C66.6946 20.2106 71.706 23.5466 73.2663 24.7218C72.8804 24.9294 71.9044 25.2123 71.4387 25.3734C70.5899 25.6675 66.2873 27.1312 66.0134 27.1326C66.0225 26.7643 66.1691 26.4708 65.8704 26.1397C64.9338 25.1013 63.0735 26.6098 64.7091 27.6055C64.44 27.7701 61.5352 28.6775 61.1556 28.7995L57.6447 29.9008C57.1009 29.5383 56.6401 29.4193 56.1766 29.885C55.7386 30.3249 56.0869 30.5846 55.1188 30.7126L52.3152 28.7903C50.6056 27.622 43.6354 22.9639 42.095 21.8026C42.3326 21.6588 42.8861 21.4776 43.2076 21.4029C43.189 21.8014 43.017 22.0181 43.3333 22.3857C44.2631 23.4662 46.1267 21.8396 44.5075 20.9197C44.9474 20.6816 50.5061 18.8895 51.4538 18.5421C51.8538 18.8473 52.2075 19.0074 52.6267 18.8417C53.115 18.6484 53.143 18.247 53.2942 17.8742C53.9719 17.6245 54.5974 17.4356 55.2368 17.1987C55.8553 16.9696 56.54 16.789 57.1021 16.5811C56.9852 17.0014 56.8231 17.2664 57.0974 17.6402C57.4016 18.0547 57.8283 18.1155 58.1915 18.0356C58.6335 17.9379 58.912 17.5605 58.9478 17.1718C58.9901 16.7099 58.727 16.4901 58.2757 16.2504L60.025 15.6485ZM41.8653 21.6387L41.7299 21.8345L55.0799 31.0114C55.2882 30.9423 55.6392 30.7886 55.856 30.6989C56.2024 31.0996 56.393 31.641 57.1452 31.4394C57.7779 31.2697 57.8562 30.8034 57.8308 30.3607C57.8204 30.1754 57.817 30.2882 57.8362 30.1309C58.9685 29.6788 62.4371 28.6459 63.7896 28.1819C64.4688 27.9492 65.0822 27.7524 65.7572 27.4813C66.4383 27.2076 67.0986 27.0457 67.741 26.8414C68.4075 26.6296 69.045 26.4432 69.7206 26.1913C70.3887 25.942 71.0141 25.7135 71.6961 25.5115C72.1208 25.3858 73.4441 25.0142 73.6995 24.7854C73.3091 24.3489 64.7591 18.6023 63.502 17.7465C62.4737 17.0464 61.0374 15.9474 59.984 15.3846C58.8237 15.8957 55.1226 16.914 53.2458 17.6719C52.8664 17.2051 52.4328 16.8834 51.9125 17.0967C51.1087 17.4265 51.2975 18.0193 51.3109 18.3294C50.9732 18.5353 46.8733 19.8545 46.5747 19.955L41.8653 21.6387Z" fill="#0D1214"/>
<path fill-rule="evenodd" clip-rule="evenodd" d="M53.7562 45.0086L41.7071 36.7753L47.8109 34.6957C48.2243 35.1303 48.6055 35.3149 49.07 35.1382C49.7269 34.8885 49.6577 34.5079 49.7553 34.1036C50.3529 33.9739 51.0208 33.7131 51.6799 33.5105C52.3627 33.3005 52.8844 33.0726 53.6346 32.8965C53.5736 33.3173 53.3272 33.5046 53.5639 33.9005C53.7843 34.2694 54.2806 34.4465 54.638 34.3905C55.0249 34.3302 55.4878 33.9865 55.5084 33.5222C55.5276 33.0813 55.3653 32.9082 54.8695 32.5558L61.3044 30.4701L72.437 38.0614L70.0968 38.9609C69.2965 39.2471 68.5678 39.5623 67.7394 39.8496C66.1871 40.3878 64.6231 41.0368 63.0795 41.609C61.5085 42.1915 59.9782 42.7525 58.415 43.3467C57.6223 43.6478 56.9071 43.8966 56.1103 44.1844C55.6257 44.3583 54.1755 44.9461 53.7562 45.0086ZM41.3424 36.7793L53.7251 45.2909C54.216 45.2209 72.0281 38.3708 72.7298 38.3014L72.8455 38.1232C72.4383 37.5798 68.0771 34.7778 67.1525 34.143C65.2416 32.8302 63.2775 31.3994 61.305 30.1791L55.5656 32.1066C55.0537 32.2765 54.6373 32.3805 54.1404 32.5037L51.1988 33.4303C50.7447 33.5825 50.1976 33.806 49.7115 33.909C49.6085 33.8398 48.5331 32.8031 47.85 33.8352C47.7831 33.9361 47.7438 34.0532 47.7235 34.1673C47.6891 34.3649 47.7296 34.1841 47.7094 34.3292C47.6893 34.4724 47.7234 34.3286 47.6767 34.4922L43.6562 35.8763C44.0151 35.4343 44.0544 35.1368 43.9007 34.7525C43.7076 34.2689 43.1956 34.1676 42.8043 34.2489C42.2552 34.3629 42.0012 34.7612 42.0413 35.2211C42.0891 35.7679 42.351 35.8791 42.9524 36.0958C42.4817 36.3305 41.7494 36.4591 41.3424 36.7793Z" fill="#0D1214"/>
<path fill-rule="evenodd" clip-rule="evenodd" d="M44.6162 48.7693C44.9455 48.7024 45.3278 48.9805 45.9332 48.9184C45.9504 48.9167 45.9781 48.9129 45.9943 48.9114C46.0113 48.9099 46.0452 48.9087 46.0592 48.9077C46.0734 48.9064 46.1035 48.905 46.1256 48.9058C46.2804 48.8822 46.2698 49.4707 46.2555 49.6344C46.2248 49.9861 46.1061 50.2612 45.8794 50.6177C46.4778 50.6881 47.2508 50.3695 47.8452 50.3065C48.2926 50.2589 49.5527 50.148 49.8462 49.9663C49.0404 49.546 47.9712 49.3159 47.0639 48.8702C46.0691 48.3818 45.2964 48.0318 44.3132 47.4988C42.3249 46.4215 40.461 45.0839 38.6519 43.7724C37.744 43.1141 36.8772 42.3952 35.876 42.4925C34.0006 42.6746 34.3969 43.9759 34.3279 45.3821L34.2885 48.8839C34.6914 48.7721 34.7639 48.7813 35.1841 48.74L35.2875 45.4661C35.2653 45.1483 35.1956 44.1669 35.4978 43.8014C35.9212 43.2894 36.7342 43.2206 37.2418 43.4976L40.9814 46.2689C42.2921 47.1345 43.7772 47.8478 44.6162 48.7693Z" fill="#2A343C"/>
<path fill-rule="evenodd" clip-rule="evenodd" d="M19.6335 67.0351C19.8934 67.4619 22.681 69.227 23.3516 69.7052C24.543 68.9347 24.8634 67.8008 25.6972 66.7567C25.3761 66.3139 24.8755 65.8473 24.4953 65.4173C24.1011 64.9715 23.7179 64.4737 23.3322 64.0533C23.0708 64.6661 20.8353 66.6021 20.229 67.4227L19.6335 67.0351Z" fill="#3A4853"/>
<path fill-rule="evenodd" clip-rule="evenodd" d="M23.5858 73.5084C21.6333 72.581 20.1203 72.0778 21.2158 70.0624L20.5617 69.6193C20.2479 70.0495 19.984 70.5362 19.9631 71.0045C19.8833 72.7942 21.5685 73.4157 23.103 74.1192C24.8924 74.9395 25.9554 75.9554 27.285 77.2159C27.5704 77.4864 28.2786 77.9878 28.2447 78.3749C27.8076 78.3284 27.1702 77.4374 26.8332 77.105C26.3082 76.5875 25.7563 76.16 25.1428 75.7173C25.1578 75.9528 25.003 75.6695 25.239 76.0423L26.6078 77.6766C27.2054 78.3086 27.7332 78.9117 28.4587 79.4629C28.8792 79.7825 29.2204 80.0515 29.6593 79.6846C30.0281 79.3763 29.8104 79.0495 29.5741 78.7349C27.9631 76.5896 26.2548 74.7762 23.5858 73.5084Z" fill="#2A343C"/>
<path fill-rule="evenodd" clip-rule="evenodd" d="M35.2977 54.6491L33.8077 53.6176L35.3587 51.9144C35.5439 52.0524 35.6235 52.2729 36.0065 52.2004C35.1932 51.7904 35.1201 51.1746 35.142 50.6148C35.1537 50.3184 35.1742 50.0766 35.2043 49.7524C35.2191 49.5927 35.2293 49.4692 35.2368 49.3219C35.2501 49.0647 35.2804 49.1023 35.1946 48.8909C34.9511 48.8885 34.5804 48.9516 34.3394 49.1122C34.1528 49.2365 34.1501 49.3005 33.9542 49.3428C33.8349 49.3684 33.8433 49.3406 33.7174 49.3487C33.5837 49.3571 33.6468 49.3498 33.5282 49.3803C33.4068 49.7168 33.4178 50.4494 33.3757 50.8571C33.1087 53.4526 32.7981 53.2379 31.8527 55.328L33.2132 56.2422C33.5811 55.9392 33.8537 55.6389 34.2548 55.3331C34.6105 55.0613 34.9584 54.8925 35.2977 54.6491Z" fill="#547992"/>
<path fill-rule="evenodd" clip-rule="evenodd" d="M26.515 60.0089C26.6198 60.338 28.5535 62.4742 28.8467 62.7373L28.9979 62.7743L31.2079 60.149L28.8765 57.4848L26.7544 60.0786C26.5705 60.0812 26.839 60.2854 26.515 60.0089Z" fill="#394551"/>
<path fill-rule="evenodd" clip-rule="evenodd" d="M23.876 63.2765C23.885 63.296 23.8958 63.3216 23.9034 63.3345L24.0043 63.4901C24.0311 63.5242 24.1023 63.5943 24.1355 63.6308L24.9937 64.6394C25.2616 64.9492 25.9123 65.7608 26.2137 65.9571C26.5335 65.9449 27.0371 65.0855 27.2629 64.8235C27.6133 64.4166 28.1204 64.0112 28.3069 63.5308L26.0813 60.9445C25.7312 61.3499 25.3602 61.7334 25.0052 62.1416C24.8166 62.3581 24.6251 62.5808 24.4456 62.8036C23.8827 63.5025 24.1245 63.3167 23.876 63.2765Z" fill="#394651"/>
<path fill-rule="evenodd" clip-rule="evenodd" d="M34.549 57.1071C37.2551 55.1802 40.0803 54.5901 40.6073 54.2676L39.8274 53.3036C39.4031 53.4473 38.7343 53.5919 38.1969 53.7496C36.7992 54.1592 34.2271 55.3419 33.5318 56.4336L34.549 57.1071Z" fill="#2D4350"/>
<path fill-rule="evenodd" clip-rule="evenodd" d="M31.7939 49.874C31.4613 52.1792 31.4361 52.3212 30.6154 54.4625L31.592 55.1386C32.2631 54.3561 32.8274 52.6394 32.9697 51.8442C33.1645 50.7584 33.2005 48.9383 33.2365 48.7621L32.0385 48.2867L31.7939 49.874Z" fill="#7CABC4"/>
<path fill-rule="evenodd" clip-rule="evenodd" d="M42.3731 53.856C42.9196 53.5942 45.89 52.806 46.6154 52.6888L48.3336 52.3389C48.6942 52.2604 48.821 52.3402 49.1506 52.1923C49.1092 51.9416 49.0743 51.9452 48.9292 51.7298C48.7607 51.4801 48.7928 51.4762 48.5448 51.2998C46.7795 51.538 43.0212 52.2909 41.5518 52.8862C41.661 53.193 42.122 53.6248 42.3731 53.856Z" fill="#354A56"/>
<path fill-rule="evenodd" clip-rule="evenodd" d="M67.5464 13.3418C68.9772 14.401 70.3316 15.2868 71.5762 16.5283C72.1157 17.0666 72.6424 17.5896 73.145 18.1394C73.5591 18.5923 74.1639 19.5063 74.5424 19.8108C75.0345 19.9546 75.0436 20.0574 75.3874 19.5906C74.9697 19.1745 74.518 18.3895 74.0157 17.8574C73.4495 17.2579 72.9267 16.7355 72.308 16.1672C70.9503 14.919 69.6284 13.8431 68.0602 12.7668L67.5464 13.3418Z" fill="#36434D"/>
<path fill-rule="evenodd" clip-rule="evenodd" d="M31.9196 40.3828C31.8812 40.5789 31.8917 40.3698 31.9052 40.6143L32.0088 46.6794L33.1434 47.0105C33.255 46.5826 33.1322 43.7084 33.1366 42.9568C33.1392 42.5122 33.0532 40.9169 32.933 40.544L31.9196 40.3828Z" fill="#547992"/>
<path fill-rule="evenodd" clip-rule="evenodd" d="M44.6304 48.7955C44.7126 50.248 44.3172 50.1907 42.484 50.6875C41.6846 50.9041 39.9631 51.2642 39.3568 51.5614L39.3953 52.2113C39.4475 52.4713 39.3682 52.2369 39.4899 52.4118C40.5055 52.1337 44.137 50.9756 45.0381 50.9005C46.2786 50.7972 46.2297 49.1864 46.1293 48.931C46.1073 48.9301 46.0775 48.9315 46.0633 48.9328C46.0495 48.9338 46.0158 48.935 45.9989 48.9365C45.9829 48.938 45.9553 48.9418 45.9383 48.9435C45.3368 49.0052 44.9573 48.7292 44.6304 48.7955Z" fill="#546373"/>
<path fill-rule="evenodd" clip-rule="evenodd" d="M36.161 52.2877L35.1038 54.179C35.5072 54.3615 35.5774 54.2495 35.926 54.3432C36.3404 54.1519 36.7555 53.9795 37.175 53.8179C37.5932 53.657 38.0894 53.5305 38.4338 53.3615C38.6609 53.1556 38.5797 53.1825 38.8469 53.1442L38.9842 52.7129C39.2832 52.3117 39.1544 51.9797 39.0662 51.6423C38.8354 51.6344 38.5463 51.7502 38.3104 51.8285C38.0498 51.915 37.8279 51.9963 37.5807 52.0786C37.0929 52.2408 36.6956 52.3784 36.161 52.2877Z" fill="#7CABC4"/>
<path fill-rule="evenodd" clip-rule="evenodd" d="M29.407 56.584C29.4318 56.758 29.3543 56.6387 29.6231 56.9486L30.4612 57.9076C30.7819 58.2766 31.2576 58.8972 31.6219 59.1845L31.8156 59.3885L33.0642 57.7791L30.2998 55.8481L29.5509 56.6974L29.407 56.584Z" fill="#3A4A56"/>
<path fill-rule="evenodd" clip-rule="evenodd" d="M19.622 67.0061L20.213 67.3915C20.8151 66.5758 23.0343 64.6523 23.2938 64.0432L22.6224 63.2762C22.0347 63.958 21.5991 64.5268 20.8814 65.089C20.2614 65.5747 19.5374 65.9816 19.0804 66.6662L19.622 67.0061Z" fill="#546373"/>
<path fill-rule="evenodd" clip-rule="evenodd" d="M23.3946 69.7236L24.8442 70.6527C25.3369 70.1778 25.5986 69.7168 25.8663 69.1449C26.0321 68.791 26.4193 68.072 26.5417 67.7252L25.7287 66.7883C24.8992 67.8279 24.5801 68.9566 23.3946 69.7236Z" fill="#232D34"/>
<path fill-rule="evenodd" clip-rule="evenodd" d="M34.1096 41.0296C34.1378 41.6516 34.2073 42.329 34.2593 42.9352C35.3383 41.9659 35.9736 42.1953 37.0196 42.4014C35.2774 40.7549 35.2803 40.5757 33.8996 39.0608L34.1096 41.0296Z" fill="#515E6C"/>
<path fill-rule="evenodd" clip-rule="evenodd" d="M28.8864 62.7513L29.3191 63.2866C29.4706 63.449 29.6097 63.5837 29.786 63.7264L31.9816 61.0376L31.2343 60.1755L29.037 62.7879L28.8864 62.7513Z" fill="#232A2D"/>
<path fill-rule="evenodd" clip-rule="evenodd" d="M26.2521 65.9704C26.2737 66.1806 26.3995 66.2505 26.6385 66.5115C26.814 66.7029 26.9095 66.821 27.1152 66.9919L29.1141 64.5101L28.3336 63.5563C28.1482 64.0343 27.6437 64.4376 27.2956 64.8426C27.0713 65.103 26.5701 65.9582 26.2521 65.9704Z" fill="#232D34"/>
<path fill-rule="evenodd" clip-rule="evenodd" d="M26.4926 59.9841C26.8143 60.2589 26.5479 60.0561 26.7306 60.0535L28.8383 57.4745L28.1454 56.6929L25.9433 59.3381L26.4926 59.9841Z" fill="#546373"/>
<path fill-rule="evenodd" clip-rule="evenodd" d="M23.8524 63.2523C24.0992 63.2923 23.8593 63.4773 24.4185 62.7818C24.5966 62.5605 24.7871 62.3388 24.9744 62.1235C25.3271 61.7176 25.6957 61.3363 26.0435 60.9331L25.299 60.0625L23.2622 62.5541L23.8524 63.2523Z" fill="#546373"/>
<path fill-rule="evenodd" clip-rule="evenodd" d="M29.6761 55.0788L32.8047 57.3228C32.9087 57.1662 33.0371 56.9862 33.1075 56.8487C33.2132 56.6417 33.1852 56.6221 33.151 56.4073L30.0879 54.3787C29.9673 54.4814 29.8457 54.5838 29.7529 54.7101C29.5736 54.9542 29.5337 54.922 29.6761 55.0788Z" fill="#515E6C"/>
<path fill-rule="evenodd" clip-rule="evenodd" d="M69.2385 33.2061C67.9274 32.9692 67.4443 34.75 68.7068 35.0485C69.9794 35.349 70.6019 33.4523 69.2385 33.2061Z" fill="#0D1214"/>
<path fill-rule="evenodd" clip-rule="evenodd" d="M62.9151 28.846C61.5394 28.4521 61.1036 30.4061 62.386 30.6763C62.8 30.7635 63.4174 30.5434 63.5971 30.0287C63.7466 29.6008 63.5508 29.028 62.9151 28.846Z" fill="#0D1214"/>
<path fill-rule="evenodd" clip-rule="evenodd" d="M67.7942 22.9379C66.3099 22.687 66.0754 24.4968 67.3128 24.7512C68.6014 25.016 69.0579 23.1515 67.7942 22.9379Z" fill="#0D1214"/>
<path fill-rule="evenodd" clip-rule="evenodd" d="M61.3978 18.5256C60.2004 18.1473 59.3821 19.848 60.7316 20.289C61.8656 20.6591 62.7637 18.9574 61.3978 18.5256Z" fill="#0D1214"/>
<path fill-rule="evenodd" clip-rule="evenodd" d="M52.3484 35.6001C51.0863 35.1667 50.2963 36.856 51.5608 37.3309C52.0412 37.5113 52.6372 37.3063 52.8865 36.7809C53.073 36.388 52.9297 35.8001 52.3484 35.6001Z" fill="#0A0C0D"/>
<path fill-rule="evenodd" clip-rule="evenodd" d="M55.521 37.8039C54.8741 37.6191 54.381 37.9159 54.1877 38.3982C54.0237 38.8081 54.2538 39.3861 54.8484 39.5485C56.113 39.8941 56.7735 38.1618 55.521 37.8039Z" fill="#0D1214"/>
<path fill-rule="evenodd" clip-rule="evenodd" d="M68.6461 28.1059C67.4374 27.7745 66.6728 29.443 67.9777 29.8704C69.2254 30.2791 69.916 28.4543 68.6461 28.1059Z" fill="#0D1214"/>
<path fill-rule="evenodd" clip-rule="evenodd" d="M63.4059 21.2758C62.8677 22.2774 64.5404 23.1734 65.2034 22.0666C65.8441 20.9968 64.0623 20.0554 63.4059 21.2758Z" fill="#0A0C0D"/>
<path fill-rule="evenodd" clip-rule="evenodd" d="M60.5676 31.8702C59.281 31.3487 58.4656 33.1452 59.7685 33.583C60.1905 33.7247 60.8488 33.5428 61.0726 33.0198C61.2433 32.6202 61.1281 32.0973 60.5676 31.8702Z" fill="#0D1214"/>
<path fill-rule="evenodd" clip-rule="evenodd" d="M63.7303 34.0529C63.4443 33.9677 63.2853 33.9413 62.9889 34.0516C62.1271 34.3719 62.0933 35.5427 63.0529 35.8006C64.2743 36.1289 64.9305 34.4112 63.7303 34.0529Z" fill="#0D100F"/>
<path fill-rule="evenodd" clip-rule="evenodd" d="M66.1427 31.0714C64.9628 30.7443 64.1861 32.4761 65.4858 32.8518C65.914 32.9755 66.5382 32.7988 66.7901 32.2444C66.979 31.8278 66.728 31.2336 66.1427 31.0714Z" fill="#0D1214"/>
<path fill-rule="evenodd" clip-rule="evenodd" d="M48.5625 39.0685C48.3517 39.4602 48.5224 40.0441 49.0519 40.2837C49.5211 40.4957 50.1354 40.3336 50.4124 39.7679C50.9103 38.7509 49.2001 37.8839 48.5625 39.0685Z" fill="#111415"/>
<path fill-rule="evenodd" clip-rule="evenodd" d="M45.8439 31.1554C44.5604 30.7808 43.8608 32.4779 45.1658 32.8786C46.4429 33.2708 47.0918 31.52 45.8439 31.1554Z" fill="#111415"/>
<path fill-rule="evenodd" clip-rule="evenodd" d="M58.4581 27.1755C57.9383 28.1629 59.7251 29.1522 60.3207 27.8838C60.7835 26.8993 59.0906 25.9745 58.4581 27.1755Z" fill="#0D100F"/>
<path fill-rule="evenodd" clip-rule="evenodd" d="M48.384 28.1851C47.1131 27.7237 46.3932 29.4544 47.6003 29.907C48.748 30.3368 49.647 28.6435 48.384 28.1851Z" fill="#0D1214"/>
<path fill-rule="evenodd" clip-rule="evenodd" d="M52.0124 22.6585C51.3604 23.6077 53.1146 24.664 53.8068 23.5128C54.4258 22.4835 52.7438 21.5933 52.0124 22.6585Z" fill="#0A0C0D"/>
<path fill-rule="evenodd" clip-rule="evenodd" d="M48.851 20.4896C48.2206 21.4423 49.8891 22.5101 50.6181 21.314C51.2009 20.3582 49.6272 19.3163 48.851 20.4896Z" fill="#111415"/>
<path fill-rule="evenodd" clip-rule="evenodd" d="M55.228 24.8648C54.6099 25.8048 56.294 26.8448 57.0114 25.7266C57.6336 24.7571 55.9881 23.7086 55.228 24.8648Z" fill="#0D1214"/>
<path fill-rule="evenodd" clip-rule="evenodd" d="M47.163 19.5175C48.2662 18.7737 47.0591 17.2834 46.0308 17.9747C44.8882 18.7431 46.1867 20.1758 47.163 19.5175Z" fill="#0D1214"/>
<path fill-rule="evenodd" clip-rule="evenodd" d="M54.4566 19.8308C53.9851 20.9101 55.8553 21.6331 56.3602 20.4079C56.7881 19.3697 54.9873 18.616 54.4566 19.8308Z" fill="#111415"/>
<path fill-rule="evenodd" clip-rule="evenodd" d="M58.6035 39.9775C57.3502 39.7153 56.8023 41.5537 58.1324 41.7768C59.4435 41.9966 59.8905 40.2464 58.6035 39.9775Z" fill="#0A0E11"/>
<path fill-rule="evenodd" clip-rule="evenodd" d="M53.1748 42.4196C54.3274 41.839 53.4335 40.2804 52.2391 40.8276C51.0353 41.3792 51.9459 43.0388 53.1748 42.4196Z" fill="#0A0C0D"/>
<path fill-rule="evenodd" clip-rule="evenodd" d="M62.4599 25.318C63.5416 24.6339 62.3768 23.0919 61.302 23.8163C60.1472 24.5946 61.4558 25.9532 62.4599 25.318Z" fill="#111415"/>
<path fill-rule="evenodd" clip-rule="evenodd" d="M58.0048 34.8055C56.6664 34.4248 56.0891 36.2635 57.3902 36.5522C58.5865 36.8179 59.2631 35.1635 58.0048 34.8055Z" fill="#0D100F"/>
<path fill-rule="evenodd" clip-rule="evenodd" d="M61.23 37.0164C59.9402 36.6253 59.2528 38.346 60.554 38.7458C60.9772 38.8757 61.6146 38.6609 61.8291 38.1599C62.0045 37.75 61.8042 37.1905 61.23 37.0164Z" fill="#0D1214"/>
<path fill-rule="evenodd" clip-rule="evenodd" d="M57.7292 21.8859C57.4783 22.2609 57.5769 22.8341 58.0661 23.1182C58.5084 23.3751 59.1344 23.259 59.4647 22.7969C60.1757 21.8026 58.449 20.8097 57.7292 21.8859Z" fill="#0A0C0D"/>
<path fill-rule="evenodd" clip-rule="evenodd" d="M64.4482 39.2041C63.2364 38.7779 62.4321 40.4614 63.7123 40.932C64.8856 41.3636 65.6235 39.6176 64.4482 39.2041Z" fill="#0D100F"/>
<path fill-rule="evenodd" clip-rule="evenodd" d="M42.726 28.9952C41.5328 28.5083 40.6793 30.1383 41.82 30.6615C42.2738 30.8695 42.8963 30.7094 43.1848 30.2035C43.4107 29.8084 43.2376 29.2038 42.726 28.9952Z" fill="#0D1214"/>
<path fill-rule="evenodd" clip-rule="evenodd" d="M45.1138 25.9752C44.783 25.9091 44.6822 25.8929 44.3782 26.0373C43.1443 26.6231 44.0547 28.2175 45.2477 27.6353C45.9969 27.2696 46.0232 26.1563 45.1138 25.9752Z" fill="#111415"/>
<path fill-rule="evenodd" clip-rule="evenodd" d="M66.8873 36.2121C65.5497 35.7976 64.9433 37.5381 66.1512 37.9418C66.5844 38.0867 67.2114 37.8661 67.4317 37.3488C67.5959 36.9623 67.4413 36.3837 66.8873 36.2121Z" fill="#0C0D12"/>
<path fill-rule="evenodd" clip-rule="evenodd" d="M46.7156 37.9883C47.9299 37.3739 46.8234 35.9092 45.786 36.3769C44.4312 36.9877 45.6465 38.5295 46.7156 37.9883Z" fill="#0A0E11"/>
<path fill-rule="evenodd" clip-rule="evenodd" d="M42.0046 23.8272C40.767 23.4076 40.0304 25.1769 41.2727 25.5393C42.4625 25.8862 43.2517 24.2501 42.0046 23.8272Z" fill="#0D1214"/>
<path fill-rule="evenodd" clip-rule="evenodd" d="M39.5173 26.7964C39.0971 26.664 38.4678 26.8198 38.2289 27.3138C38.0334 27.7179 38.175 28.2928 38.728 28.4953C39.9917 28.9578 40.7377 27.1803 39.5173 26.7964Z" fill="#0D1214"/>
<path fill-rule="evenodd" clip-rule="evenodd" d="M51.5542 30.3717C50.3186 29.9859 49.5494 31.6712 50.8767 32.0819C52.0123 32.4333 52.8118 30.7644 51.5542 30.3717Z" fill="#111415"/>
<path fill-rule="evenodd" clip-rule="evenodd" d="M50.9439 26.8068C52.1522 26.1439 51.0563 24.6839 50.0274 25.2027C49.5299 25.4537 49.3507 26.0105 49.6233 26.4643C49.9399 26.9908 50.5743 27.0097 50.9439 26.8068Z" fill="#0D1214"/>
<path fill-rule="evenodd" clip-rule="evenodd" d="M35.3159 54.6686L35.9214 54.3247C35.5722 54.2305 35.5016 54.343 35.0973 54.1602L36.1569 52.265L36.0259 52.2163C35.6423 52.2889 35.5624 52.0683 35.377 51.9299L33.8236 53.6356L35.3159 54.6686Z" fill="#5E8DA7"/>
<path fill-rule="evenodd" clip-rule="evenodd" d="M46.4134 23.4175C45.8132 24.331 47.4526 25.3217 48.1539 24.2285C48.7763 23.2588 47.169 22.2673 46.4134 23.4175Z" fill="#0A0E11"/>
<path fill-rule="evenodd" clip-rule="evenodd" d="M52.8022 27.8007C52.2137 28.7304 53.8696 29.694 54.5611 28.6198C55.1954 27.6342 53.5052 26.6897 52.8022 27.8007Z" fill="#0A0C0D"/>
<path fill-rule="evenodd" clip-rule="evenodd" d="M31.6475 59.1961C31.7097 59.416 32.3804 60.0882 32.6216 60.2964C33.1573 59.6419 33.5725 59.1653 33.9943 58.4547L33.0798 57.8005L31.8396 59.399L31.6475 59.1961Z" fill="#272E36"/>
<path fill-rule="evenodd" clip-rule="evenodd" d="M23.3604 63.7014C23.3798 63.8495 23.2795 63.74 23.4864 63.9836L26.7318 67.5399L26.9615 67.2536L23.7449 63.5231L23.7201 63.7229C23.6696 63.8652 23.6846 63.7979 23.5727 63.9324L23.3604 63.7014Z" fill="#2C3942"/>
<path fill-rule="evenodd" clip-rule="evenodd" d="M29.6783 55.0801C29.6624 55.4963 33.5298 57.8407 34.174 58.2167L34.6868 57.548L33.1553 56.4102C33.1895 56.6252 33.2176 56.6448 33.1118 56.852C33.0413 56.9896 32.9126 57.1696 32.8088 57.3266L29.6783 55.0801Z" fill="#272E36"/>
<path fill-rule="evenodd" clip-rule="evenodd" d="M18.9782 66.8481C18.8854 67.2702 19.0564 67.3497 19.9875 67.9629C20.5249 68.317 21.034 68.6853 21.5529 69.0604C22.0741 69.437 22.6186 69.7576 23.1404 70.1314C23.3963 70.3147 23.6669 70.4936 23.936 70.6612C24.5422 71.0394 24.4787 70.8977 24.6229 70.8634C23.7712 70.1904 22.5824 69.4563 21.6535 68.8113C20.7528 68.186 19.8338 67.4968 18.9782 66.8481Z" fill="#272E36"/>
<path fill-rule="evenodd" clip-rule="evenodd" d="M28.9126 57.0746C28.9363 57.3226 29.2376 57.5503 29.4153 57.7662C29.6068 57.9988 29.8054 58.2192 30.0035 58.4396C30.3446 58.8198 30.8521 59.46 31.1969 59.7612C31.5535 60.0815 31.2602 59.8572 31.4845 59.8384L31.6512 59.5969L29.3536 56.9877L29.1004 57.2765L28.9126 57.0746Z" fill="#363E47"/>
<path fill-rule="evenodd" clip-rule="evenodd" d="M26.2053 60.6693C26.2225 60.7941 26.1315 60.7118 26.4141 61.0385L28.3482 63.1751L28.556 63.3471L28.7484 63.0119L26.4666 60.3877C26.386 60.5456 26.3865 60.683 26.2053 60.6693Z" fill="#36434D"/>
<path fill-rule="evenodd" clip-rule="evenodd" d="M41.9678 53.8716C41.9129 53.5842 41.9335 53.7128 41.6303 53.3805C41.2992 53.0172 41.2221 52.7272 40.2316 53.2561C40.348 53.5603 40.6885 54.0425 40.9609 54.2559L41.9678 53.8716Z" fill="#4A5A67"/>
<path fill-rule="evenodd" clip-rule="evenodd" d="M32.1202 46.9257C31.9696 47.3158 32.0388 47.5284 31.9562 48.0353L33.123 48.4503C33.1939 48.1299 33.1978 47.7009 33.2362 47.3701L32.1202 46.9257Z" fill="#7CABC4"/>
<path fill-rule="evenodd" clip-rule="evenodd" d="M21.9575 70.2436L22.3134 69.8424L20.4217 68.5684L20.1676 69.0341L21.9575 70.2436Z" fill="#2A343C"/>
<path fill-rule="evenodd" clip-rule="evenodd" d="M29.3865 56.5726L29.5295 56.6853L30.2756 55.8394L29.3944 55.2258L28.7695 55.9231C28.9725 56.166 29.0963 56.4033 29.3865 56.5726Z" fill="#546373"/>
<path fill-rule="evenodd" clip-rule="evenodd" d="M28.3684 63.1788C28.394 63.4627 29.1094 64.0838 29.3591 64.3009C29.7494 63.8425 29.5941 64.043 28.768 63.0159L28.5759 63.3504L28.3684 63.1788Z" fill="#232D34"/>
<path fill-rule="evenodd" clip-rule="evenodd" d="M31.2167 59.7656C31.2413 59.8174 31.2221 59.8116 31.3173 59.9418C31.3192 59.9443 31.4295 60.067 31.4447 60.0839L32.1928 60.8543L32.4665 60.5008L31.6701 59.6017L31.5038 59.8426C31.2799 59.8613 31.5726 60.085 31.2167 59.7656Z" fill="#293337"/>
<path fill-rule="evenodd" clip-rule="evenodd" d="M28.8939 57.0712L29.0807 57.2729L29.3333 56.9851C29.1865 56.7721 28.8116 56.2895 28.5482 56.1123C28.3083 56.441 28.2746 56.3651 28.4713 56.6545C28.6138 56.8647 28.6804 56.9354 28.8939 57.0712Z" fill="#4A5A67"/>
<path fill-rule="evenodd" clip-rule="evenodd" d="M23.3376 63.6975L23.5497 63.9275C23.6611 63.7938 23.6461 63.8608 23.6966 63.7188L23.7213 63.5197L23.025 62.7261C22.7848 63.0373 22.7526 62.9942 22.9529 63.2828C23.0803 63.4671 23.1589 63.5651 23.3376 63.6975Z" fill="#515E6C"/>
<path fill-rule="evenodd" clip-rule="evenodd" d="M26.1857 60.6646C26.367 60.6783 26.366 60.5413 26.4464 60.3839L25.7111 59.5355C25.4319 59.8583 25.4765 59.8401 25.7102 60.1564C25.8888 60.3978 25.9384 60.5159 26.1857 60.6646Z" fill="#515E6C"/>
<path fill-rule="evenodd" clip-rule="evenodd" d="M38.4461 53.3805L39.1862 53.1882L39.066 52.9117C39.0594 52.8962 39.0486 52.8675 39.0434 52.8547L38.9954 52.7336L38.8584 53.164C38.5914 53.202 38.6722 53.175 38.4461 53.3805Z" fill="#68889A"/>
</g>
<defs>
<filter id="filter0_d_872_1124" x="18.5163" y="7.4458" width="68.1116" height="82.7454" filterUnits="userSpaceOnUse" color-interpolation-filters="sRGB">
<feFlood flood-opacity="0" result="BackgroundImageFix"/>
<feColorMatrix in="SourceAlpha" type="matrix" values="0 0 0 0 0 0 0 0 0 0 0 0 0 0 0 0 0 0 127 0" result="hardAlpha"/>
<feOffset dx="4" dy="6"/>
<feGaussianBlur stdDeviation="2"/>
<feComposite in2="hardAlpha" operator="out"/>
<feColorMatrix type="matrix" values="0 0 0 0 0 0 0 0 0 0 0 0 0 0 0 0 0 0 0.38 0"/>
<feBlend mode="normal" in2="BackgroundImageFix" result="effect1_dropShadow_872_1124"/>
<feBlend mode="normal" in="SourceGraphic" in2="effect1_dropShadow_872_1124" result="shape"/>
</filter>
</defs>
</svg>
