<svg width="140" height="177" viewBox="0 0 140 177" fill="none" xmlns="http://www.w3.org/2000/svg">
<g clip-path="url(#clip0_1125_652)">
<path fill-rule="evenodd" clip-rule="evenodd" d="M92.587 68.4806V114.134C92.587 126.733 82.3586 136.961 69.7601 136.961H24.1064C11.5079 136.961 1.27954 126.733 1.27954 114.134V68.4806C1.27954 55.882 11.5079 45.6537 24.1064 45.6537H69.7601C82.3586 45.6537 92.587 55.882 92.587 68.4806Z" fill="#DEEFFF" fill-opacity="0.5"/>
<path fill-rule="evenodd" clip-rule="evenodd" d="M138.241 22.8269V68.4806C138.241 81.0791 128.012 91.3075 115.414 91.3075H69.7603C57.1617 91.3075 46.9333 81.0791 46.9333 68.4806V22.8269C46.9333 10.2284 57.1617 0 69.7603 0H115.414C128.012 0 138.241 10.2284 138.241 22.8269Z" fill="#D7EBFF" fill-opacity="0.5"/>
<path fill-rule="evenodd" clip-rule="evenodd" d="M118.736 101.675V112.434C118.736 115.403 116.325 117.813 113.356 117.813H102.598C99.6289 117.813 97.2185 115.403 97.2185 112.434V101.675C97.2185 98.7062 99.6289 96.2958 102.598 96.2958H113.356C116.325 96.2958 118.736 98.7062 118.736 101.675Z" fill="#D7EBFF" fill-opacity="0.5"/>
<path fill-rule="evenodd" clip-rule="evenodd" d="M43.357 24.5275V35.2861C43.357 38.255 40.9466 40.6654 37.9777 40.6654H27.2191C24.2502 40.6654 21.8398 38.255 21.8398 35.2861V24.5275C21.8398 21.5587 24.2502 19.1483 27.2191 19.1483H37.9777C40.9466 19.1483 43.357 21.5586 43.357 24.5275Z" fill="#D7EBFF" fill-opacity="0.5"/>
<path fill-rule="evenodd" clip-rule="evenodd" d="M43.5969 16.1986C44.5285 16.1986 45.2848 16.955 45.2848 17.8866C45.2848 18.8182 44.5285 19.5745 43.5969 19.5745C42.6653 19.5745 41.9089 18.8182 41.9089 17.8866C41.9089 16.955 42.6653 16.1986 43.5969 16.1986Z" fill="#83A4D4" fill-opacity="0.5" stroke="#E4EFFF" stroke-opacity="0.7" stroke-width="0.24" stroke-miterlimit="10" stroke-linecap="round" stroke-linejoin="round"/>
<path fill-rule="evenodd" clip-rule="evenodd" d="M104.491 121.866C103.56 121.866 102.803 122.622 102.803 123.554C102.803 124.486 103.56 125.242 104.491 125.242C105.423 125.242 106.179 124.486 106.179 123.554C106.179 122.622 105.423 121.866 104.491 121.866Z" fill="#83A4D4" fill-opacity="0.5" stroke="#E4EFFF" stroke-opacity="0.7" stroke-width="0.24" stroke-miterlimit="10" stroke-linecap="round" stroke-linejoin="round"/>
<path fill-rule="evenodd" clip-rule="evenodd" d="M13.7512 7.08765C18.4032 7.08765 22.1799 10.8644 22.1799 15.5164C22.1799 20.1683 18.4032 23.945 13.7512 23.945C9.09926 23.945 5.32251 20.1683 5.32251 15.5164C5.32251 10.8644 9.09926 7.08765 13.7512 7.08765Z" fill="#83A4D4" fill-opacity="0.5" stroke="#E4EFFF" stroke-opacity="0.5" stroke-width="0.24" stroke-miterlimit="10" stroke-linecap="round" stroke-linejoin="round"/>
<path fill-rule="evenodd" clip-rule="evenodd" d="M124.158 117.993C122.02 117.993 120.285 119.728 120.285 121.866C120.285 124.004 122.02 125.739 124.158 125.739C126.296 125.739 128.031 124.004 128.031 121.866C128.031 119.728 126.296 117.993 124.158 117.993Z" fill="#83A4D4" fill-opacity="0.5" stroke="#E4EFFF" stroke-opacity="0.7" stroke-width="0.24" stroke-miterlimit="10" stroke-linecap="round" stroke-linejoin="round"/>
<path fill-rule="evenodd" clip-rule="evenodd" d="M15.6462 32.8773C15.7515 32.6925 15.9869 32.628 16.1716 32.7333C16.3563 32.8385 16.4208 33.0739 16.3156 33.2587L15.0258 35.5224C14.9206 35.7072 14.6852 35.7717 14.5004 35.6665C14.3157 35.5612 14.2512 35.3258 14.3564 35.141L15.6462 32.8773Z" fill="#83A4D4" fill-opacity="0.5"/>
<path fill-rule="evenodd" clip-rule="evenodd" d="M13.9476 33.8609C13.7623 33.7566 13.6965 33.5216 13.8007 33.3362C13.9049 33.151 14.14 33.0851 14.3253 33.1894L16.7368 34.5458C16.9221 34.6501 16.9879 34.8851 16.8837 35.0704C16.7795 35.2558 16.5444 35.3216 16.3591 35.2173L13.9476 33.8609Z" fill="#83A4D4" fill-opacity="0.5"/>
<path fill-rule="evenodd" clip-rule="evenodd" d="M123.854 105.234C123.749 105.418 123.513 105.483 123.329 105.378C123.144 105.273 123.079 105.037 123.185 104.852L124.474 102.589C124.58 102.404 124.815 102.339 125 102.445C125.184 102.55 125.249 102.785 125.144 102.97L123.854 105.234Z" fill="#83A4D4" fill-opacity="0.5"/>
<path fill-rule="evenodd" clip-rule="evenodd" d="M125.552 104.25C125.738 104.354 125.804 104.589 125.699 104.775C125.595 104.96 125.36 105.026 125.175 104.922L122.763 103.565C122.578 103.461 122.512 103.226 122.616 103.041C122.721 102.855 122.956 102.789 123.141 102.894L125.552 104.25Z" fill="#83A4D4" fill-opacity="0.5"/>
<path fill-rule="evenodd" clip-rule="evenodd" d="M26.3712 12.445C26.2723 12.1677 26.4171 11.8622 26.6945 11.7633C26.9719 11.6644 27.2774 11.8093 27.3763 12.0866L28.5885 15.4858C28.6874 15.7632 28.5425 16.0687 28.2651 16.1676C27.9877 16.2665 27.6822 16.1216 27.5833 15.8443L26.3712 12.445Z" fill="#83A4D4" fill-opacity="0.5"/>
<path fill-rule="evenodd" clip-rule="evenodd" d="M25.8697 15.1172C25.5929 15.2175 25.2866 15.0744 25.1861 14.7975C25.0857 14.5208 25.2289 14.2145 25.5058 14.114L29.1084 12.807C29.3852 12.7066 29.6915 12.8497 29.7919 13.1266C29.8924 13.4034 29.7492 13.7097 29.4723 13.8101L25.8697 15.1172Z" fill="#83A4D4" fill-opacity="0.5"/>
<path fill-rule="evenodd" clip-rule="evenodd" d="M118.784 134.336C118.955 134.817 118.704 135.345 118.224 135.517C117.744 135.688 117.215 135.437 117.044 134.957L114.946 129.073C114.775 128.593 115.026 128.064 115.506 127.893C115.986 127.721 116.515 127.972 116.686 128.452L118.784 134.336Z" fill="#83A4D4" fill-opacity="0.5"/>
<path fill-rule="evenodd" clip-rule="evenodd" d="M119.652 129.711C120.132 129.537 120.662 129.785 120.836 130.264C121.009 130.743 120.761 131.274 120.282 131.447L114.046 133.71C113.567 133.884 113.037 133.636 112.863 133.157C112.689 132.677 112.937 132.147 113.416 131.973L119.652 129.711Z" fill="#83A4D4" fill-opacity="0.5"/>
<path fill-rule="evenodd" clip-rule="evenodd" d="M97.5061 130.343H42.0139V124.794C61.8399 117.232 61.7768 102.415 64.2108 80.4H75.3093C77.7433 102.415 77.6802 117.232 97.5061 124.794V130.343Z" fill="#FDDF19"/>
<path fill-rule="evenodd" clip-rule="evenodd" d="M62.7849 93.4412C62.7849 93.4412 63.5906 86.0105 64.2109 80.4H75.3094C75.9525 86.2172 76.7462 93.3957 76.7462 93.3957L69.7601 96.0738L62.7849 93.4412Z" fill="#E1C821"/>
<path fill-rule="evenodd" clip-rule="evenodd" d="M54.5055 130.147L46.6716 129.615L46.9348 125.74C61.1374 121.401 61.7963 111.051 64.5402 95.7943L69.2867 96.1168C66.5428 111.374 68.9713 121.933 54.7687 126.272L54.5055 130.147Z" fill="#FFEB64"/>
<path fill-rule="evenodd" clip-rule="evenodd" d="M104.276 130.343V163.638H35.2444V130.343H104.276Z" fill="#8E4D00"/>
<path fill-rule="evenodd" clip-rule="evenodd" d="M102.164 130.343H104.276V163.638H35.2444V162.219C35.2444 162.219 79.1062 161.924 95.8096 161.812C99.3261 161.788 102.164 158.931 102.164 155.415C102.164 146.232 102.164 130.343 102.164 130.343Z" fill="#633A09"/>
<path fill-rule="evenodd" clip-rule="evenodd" d="M105.885 130.343V129.698H33.635V130.343H105.885Z" fill="#552E00"/>
<path fill-rule="evenodd" clip-rule="evenodd" d="M105.885 127.755V127.11H33.635V127.755H105.885Z" fill="#ED9228"/>
<path fill-rule="evenodd" clip-rule="evenodd" d="M105.885 129.698V127.755H33.635V129.698H105.885Z" fill="#B86A0F"/>
<path fill-rule="evenodd" clip-rule="evenodd" d="M105.885 166.871V166.226H33.635V166.871H105.885Z" fill="#552E00"/>
<path fill-rule="evenodd" clip-rule="evenodd" d="M105.885 164.284V163.638H33.635V164.284H105.885Z" fill="#ED9228"/>
<path fill-rule="evenodd" clip-rule="evenodd" d="M105.885 166.226V164.284H33.635V166.226H105.885Z" fill="#B86A0F"/>
<path fill-rule="evenodd" clip-rule="evenodd" d="M96.3836 134.508V159.473H42.1895V134.508H96.3836Z" fill="#E2C6A5"/>
<path fill-rule="evenodd" clip-rule="evenodd" d="M88.733 76.4495C87.4149 76.7797 86.0766 75.9776 85.7464 74.6595C85.4162 73.3413 86.2182 72.0031 87.5364 71.6728C111.034 65.7863 118.91 49.8805 117.771 38.8516C117.135 32.6975 113.607 28.0818 108.267 29.5845C104.906 30.5304 103.295 33.4757 103.32 36.2797C103.336 38.0608 103.996 39.811 105.384 40.8816C106.706 41.902 108.232 40.7029 108.235 39.4594C108.237 38.9466 107.853 38.5077 107.182 38.1382C105.992 37.4826 105.558 35.984 106.213 34.7937C106.869 33.6034 108.367 33.1693 109.558 33.8248C112.217 35.2894 113.164 37.4384 113.16 39.4709C113.149 44.1612 107.365 48.6293 102.376 44.7805C99.804 42.7966 98.4257 39.6246 98.3961 36.3239C98.3529 31.5052 101.157 26.4698 106.933 24.8443C113.361 23.0355 118.541 26.2787 121.125 32.2467C126.283 44.1579 120.235 68.5577 88.733 76.4495Z" fill="#FDDF19"/>
<path fill-rule="evenodd" clip-rule="evenodd" d="M93.3386 75.1229C91.8678 75.6052 90.3332 76.0487 88.733 76.4496C87.4149 76.7798 86.0766 75.9777 85.7464 74.6596C85.4162 73.3415 86.2182 72.0032 87.5364 71.673C90.8285 70.8482 93.814 69.8268 96.511 68.6497C95.5227 70.9018 94.4676 73.0628 93.3386 75.1229ZM104.217 32.7319C103.605 33.8252 103.309 35.0658 103.32 36.2798C103.331 37.4551 103.622 38.617 104.217 39.579C104.252 39.5973 104.281 39.6431 104.302 39.7122C104.588 40.6265 103.703 45.6116 102.376 44.7807C99.3805 42.9051 98.4257 39.6247 98.3961 36.324C98.3706 33.4773 99.3387 30.5551 101.326 28.3048C102.644 29.6756 103.716 31.1192 104.217 32.7319Z" fill="#E1C821"/>
<path fill-rule="evenodd" clip-rule="evenodd" d="M50.7867 76.4495C52.1048 76.7797 53.4431 75.9776 53.7733 74.6595C54.1035 73.3413 53.3015 72.0031 51.9833 71.6728C28.4858 65.7863 20.6094 49.8805 21.7491 38.8516C22.385 32.6975 25.9126 28.0818 31.2525 29.5845C34.6138 30.5304 36.2247 33.4757 36.1995 36.2797C36.1835 38.0608 35.5239 39.811 34.1361 40.8816C32.8134 41.902 31.2873 40.7029 31.2844 39.4594C31.2832 38.9466 31.6668 38.5077 32.3377 38.1382C33.528 37.4826 33.9621 35.984 33.3065 34.7937C32.6509 33.6034 31.1524 33.1693 29.9621 33.8248C27.303 35.2894 26.3554 37.4384 26.3601 39.4709C26.3711 44.1612 32.1546 48.6293 37.1439 44.7805C39.7157 42.7966 41.0939 39.6246 41.1235 36.3239C41.1668 31.5052 38.363 26.4698 32.5864 24.8443C26.1583 23.0355 20.9783 26.2787 18.3944 32.2467C13.2372 44.1579 19.285 68.5577 50.7867 76.4495Z" fill="#FDDF19"/>
<path d="M45.6191 24.5909C44.378 25.1497 43.2282 25.7564 42.2171 26.4262C42.1988 26.4382 42.1806 26.4488 42.1623 26.4608C41.9615 26.5937 41.7681 26.7291 41.5783 26.8664C41.5746 26.8697 41.5673 26.8729 41.5637 26.8766C41.1695 27.1624 40.8044 27.4584 40.4577 27.7629C40.4504 27.7683 40.4431 27.7734 40.4358 27.7789C40.3007 27.8983 40.1729 28.0198 40.0452 28.1422C39.9576 28.2268 39.87 28.3134 39.786 28.3995C39.6948 28.4897 39.6072 28.5802 39.5196 28.6715C39.3444 28.8616 39.1728 29.0529 39.0158 29.2493V29.2514C38.9684 29.3124 38.9246 29.3763 38.8771 29.438C38.6581 29.7231 38.461 30.0162 38.2822 30.314C38.242 30.3779 38.2019 30.4407 38.1654 30.5049C38.0923 30.6345 38.023 30.7663 37.9573 30.8984C37.9171 30.9813 37.877 31.0656 37.8368 31.1499C37.793 31.2448 37.7492 31.3398 37.7091 31.4358C37.6981 31.4617 37.6835 31.4869 37.6726 31.5128C37.6726 31.5175 37.6689 31.5222 37.6689 31.527C37.5923 31.7172 37.5229 31.9099 37.4609 32.1048C37.428 32.2059 37.4024 32.3089 37.3769 32.4111C37.3367 32.5574 37.3003 32.7045 37.271 32.8535C37.2528 32.9382 37.2345 33.0232 37.2199 33.109C37.1798 33.3474 37.1433 33.5879 37.125 33.8329C37.063 34.6764 37.0192 35.5076 36.9827 36.3318C36.979 36.4449 36.9754 36.5574 36.9717 36.6702C36.9425 37.4645 36.9206 38.2532 36.9133 39.0311C36.9681 70.8956 60.9865 88.4962 69.7616 93.8653C70.3091 93.5302 70.915 93.148 71.5721 92.7173C72.2109 92.2968 72.9044 91.8263 73.6308 91.3138C73.6454 91.3018 73.6636 91.2912 73.6819 91.2791C73.6892 91.2733 73.7001 91.2649 73.7075 91.259C74.39 90.7769 75.1128 90.2465 75.8538 89.6833C76.1787 89.4365 76.5071 89.1828 76.8393 88.9207C76.9598 88.8258 77.0802 88.7356 77.2007 88.6386C77.7117 88.2334 78.23 87.81 78.7557 87.369C78.763 87.3614 78.7739 87.3544 78.7849 87.3468C78.8105 87.3234 78.8396 87.2975 78.8689 87.2737C79.347 86.8708 79.8325 86.4514 80.3216 86.0184C80.4348 85.9206 80.5443 85.8195 80.6538 85.7202C81.1539 85.2742 81.6576 84.8161 82.1613 84.339C82.1796 84.3211 82.2015 84.3043 82.2197 84.2864C82.227 84.2795 82.2343 84.2725 82.2416 84.266C83.3951 83.1731 84.5632 82.0003 85.7239 80.7453C85.7276 80.7414 85.7312 80.7373 85.7349 80.7329C85.7422 80.726 85.7495 80.718 85.7568 80.7107C86.308 80.1146 86.8555 79.4981 87.3994 78.8651C87.4505 78.8071 87.5016 78.749 87.5527 78.6906C88.0966 78.0562 88.6368 77.4051 89.1697 76.7338C89.1843 76.7159 89.1989 76.6987 89.2136 76.6808C89.2172 76.6757 89.2208 76.6702 89.2245 76.6648C89.7903 75.9523 90.3524 75.2182 90.8999 74.4641C91.4146 73.7611 91.9147 73.0354 92.4111 72.2962C92.5717 72.0546 92.7323 71.8118 92.8929 71.5662C93.1083 71.2347 93.3237 70.9007 93.5354 70.562C93.78 70.1689 94.0245 69.7725 94.2618 69.3695C94.3895 69.1526 94.5173 68.934 94.6451 68.7146C94.9553 68.1766 95.2619 67.6323 95.5612 67.0779C95.5649 67.0695 95.5686 67.0614 95.5759 67.0534C95.6343 66.9446 95.689 66.8326 95.7474 66.7231C96.0139 66.2197 96.273 65.7087 96.5286 65.1918C96.6198 65.0056 96.7111 64.8199 96.8023 64.6319C97.0907 64.0325 97.3718 63.4262 97.6419 62.8086C97.7149 62.6483 97.7806 62.4852 97.8499 62.3238C98.0872 61.7737 98.3135 61.2171 98.5362 60.6528C98.5909 60.5188 98.6457 60.3859 98.6968 60.2512C98.9633 59.5584 99.2188 58.8543 99.4633 58.1399C99.5035 58.0283 99.54 57.9151 99.5765 57.8034C99.8101 57.107 100.033 56.4025 100.241 55.6859C100.255 55.6337 100.274 55.5822 100.288 55.5297C100.511 54.7529 100.723 53.9638 100.92 53.1629C100.938 53.0808 100.956 52.9979 100.978 52.9154C101.372 51.2685 101.705 49.5726 101.96 47.8248C101.971 47.7646 101.978 47.7047 101.986 47.6445C102.048 47.2273 102.102 46.8079 102.157 46.3848C102.157 46.3815 102.157 46.3783 102.157 46.375C102.157 46.3673 102.157 46.36 102.161 46.3523C102.325 45.0087 102.446 43.6355 102.519 42.2334C102.522 42.1977 102.522 42.1619 102.526 42.1257C102.526 42.1133 102.526 42.1002 102.526 42.0874C102.548 41.6344 102.566 41.1778 102.581 40.7182C102.581 40.7014 102.581 40.6299 102.581 40.6109C102.595 40.14 102.603 39.6666 102.606 39.1892C102.595 37.4455 102.53 35.6623 102.394 33.8329C102.365 33.4416 102.307 33.059 102.219 32.6852C102.121 32.2563 101.971 31.842 101.799 31.4358C101.522 30.7784 101.168 30.1468 100.723 29.5475C100.683 29.496 100.646 29.4438 100.609 29.3913C100.573 29.3449 100.54 29.2956 100.504 29.2493C100.328 29.0321 100.139 28.82 99.9415 28.6105C99.9159 28.5831 99.8868 28.555 99.8612 28.5272C99.6969 28.356 99.5254 28.1885 99.3465 28.0224C99.2954 27.9735 99.2407 27.925 99.1896 27.8764C98.7552 27.4858 98.2843 27.1109 97.7733 26.7506C97.7441 26.728 97.7112 26.7046 97.6784 26.6817C97.4995 26.5587 97.317 26.4404 97.1308 26.3207C96.7622 26.0801 96.3825 25.8428 95.9774 25.6169C95.5686 25.3866 95.1342 25.1672 94.6925 24.9519C94.5611 24.8883 94.4297 24.8252 94.2983 24.7631C94.1705 24.704 94.0391 24.6488 93.9077 24.5908L45.6191 24.5909Z" fill="#FDDF19"/>
<path fill-rule="evenodd" clip-rule="evenodd" d="M93.9075 24.5908C94.0389 24.6488 94.1703 24.704 94.298 24.7631C94.4294 24.8252 94.5609 24.8883 94.6923 24.9519C94.8769 25.0419 95.0602 25.1326 95.241 25.2245H44.2949C44.7225 25.0064 45.1645 24.7953 45.6188 24.5908H93.9075Z" fill="#BCA618"/>
<path d="M41.4541 57.0697C38.3295 47.7858 37.3038 40.189 40.5525 39.8206C43.8048 39.4527 43.8231 45.7778 46.4111 56.2933C48.7545 65.8043 52.9997 70.3094 50.9373 71.4366C47.7142 73.1975 44.7831 66.9629 41.4541 57.0697Z" fill="#FFEB64"/>
<path d="M38.5596 35.2674C38.5596 33.9957 39.5926 32.9645 40.8628 32.9645C42.1368 32.9645 43.1661 33.9957 43.1661 35.2674C43.1661 36.5391 42.1368 37.5703 40.8628 37.5703C39.5926 37.5703 38.5596 36.5391 38.5596 35.2674Z" fill="#FFEB64"/>
<path d="M41.1538 20.3228H98.3654C98.3654 20.3228 98.3654 21.2781 98.3654 22.4566C98.3654 23.6354 97.4103 24.5908 96.229 24.5908H43.2871C42.1089 24.5908 41.1538 23.6354 41.1538 22.4566C41.1538 21.2781 41.1538 20.3228 41.1538 20.3228Z" fill="#FDDF19"/>
<path fill-rule="evenodd" clip-rule="evenodd" d="M42.4666 170.403H1.76612C0.791375 170.403 0 169.612 0 168.637C0 167.663 0.791375 166.871 1.76612 166.871H137.754C138.729 166.871 139.52 167.663 139.52 168.637C139.52 169.612 138.729 170.403 137.754 170.403H98.9825C98.0078 170.403 97.2164 171.195 97.2164 172.17C97.2164 173.144 98.0078 173.936 98.9825 173.936H109.207C110.181 173.936 110.973 174.727 110.973 175.702C110.973 176.677 110.181 177.468 109.207 177.468H32.2424C31.2677 177.468 30.4763 176.677 30.4763 175.702C30.4763 174.727 31.2677 173.936 32.2424 173.936H42.4666C43.4413 173.936 44.2327 173.144 44.2327 172.17C44.2327 171.195 43.4413 170.403 42.4666 170.403Z" fill="#BDD2E5" fill-opacity="0.7"/>
</g>
<defs>
<clipPath id="clip0_1125_652">
<rect width="140" height="177" fill="white"/>
</clipPath>
</defs>
</svg>
