<svg width="35" height="35" viewBox="0 0 35 35" fill="none" xmlns="http://www.w3.org/2000/svg">
<path d="M12.3961 29.0425C12.3961 30.2208 12.054 31.3726 11.413 32.3523C10.7721 33.332 9.86108 34.0956 8.79522 34.5465C7.72937 34.9974 6.55654 35.1154 5.42503 34.8855C4.29353 34.6557 3.25418 34.0883 2.43841 33.2551C1.62264 32.4219 1.06709 31.3604 0.842024 30.2048C0.616954 29.0492 0.732469 27.8513 1.17396 26.7627C1.61545 25.6742 2.36309 24.7437 3.32233 24.0891C4.28157 23.4345 5.40934 23.0851 6.56301 23.0851C8.11003 23.0851 9.59369 23.7128 10.6876 24.83C11.7815 25.9472 12.3961 27.4625 12.3961 29.0425ZM2.4908 15.9473L5.10474 13.2758L7.71868 15.9473C7.99231 16.2268 8.36343 16.3838 8.7504 16.3838C9.13738 16.3838 9.5085 16.2268 9.78213 15.9473C10.0558 15.6679 10.2095 15.2888 10.2095 14.8936C10.2095 14.4984 10.0558 14.1194 9.78213 13.8399L7.16636 11.1702L9.78213 8.50053C10.0558 8.22107 10.2095 7.84203 10.2095 7.44681C10.2095 7.05158 10.0558 6.67255 9.78213 6.39308C9.5085 6.11362 9.13738 5.95662 8.7504 5.95662C8.36343 5.95662 7.99231 6.11362 7.71868 6.39308L5.10474 9.06463L2.4908 6.39308C2.21717 6.11362 1.84605 5.95662 1.45908 5.95662C1.07211 5.95662 0.700983 6.11362 0.427354 6.39308C0.153724 6.67255 2.88316e-09 7.05158 0 7.44681C-2.88316e-09 7.84203 0.153724 8.22107 0.427354 8.50053L3.04312 11.1702L0.427354 13.8399C0.153724 14.1194 -2.88316e-09 14.4984 0 14.8936C2.88316e-09 15.2888 0.153724 15.6679 0.427354 15.9473C0.700983 16.2268 1.07211 16.3838 1.45908 16.3838C1.84605 16.3838 2.21717 16.2268 2.4908 15.9473ZM31.9569 29.0425L34.5726 26.3729C34.8463 26.0934 35 25.7144 35 25.3191C35 24.9239 34.8463 24.5449 34.5726 24.2654C34.299 23.986 33.9279 23.829 33.5409 23.829C33.1539 23.829 32.7828 23.986 32.5092 24.2654L29.8953 26.937L27.2813 24.2654C27.0077 23.986 26.6366 23.829 26.2496 23.829C25.8626 23.829 25.4915 23.986 25.2179 24.2654C24.9442 24.5449 24.7905 24.9239 24.7905 25.3191C24.7905 25.7144 24.9442 26.0934 25.2179 26.3729L27.8336 29.0425L25.2179 31.7122C24.9442 31.9917 24.7905 32.3707 24.7905 32.766C24.7905 33.1612 24.9442 33.5402 25.2179 33.8197C25.4915 34.0991 25.8626 34.2561 26.2496 34.2561C26.6366 34.2561 27.0077 34.0991 27.2813 33.8197L29.8953 31.1481L32.5092 33.8197C32.6447 33.9581 32.8055 34.0678 32.9826 34.1427C33.1596 34.2176 33.3493 34.2561 33.5409 34.2561C33.7325 34.2561 33.9223 34.2176 34.0993 34.1427C34.2763 34.0678 34.4372 33.9581 34.5726 33.8197C34.7081 33.6813 34.8156 33.517 34.8889 33.3362C34.9623 33.1554 35 32.9616 35 32.766C35 32.5703 34.9623 32.3765 34.8889 32.1957C34.8156 32.0149 34.7081 31.8506 34.5726 31.7122L31.9569 29.0425ZM22.9065 3.41436L22.4782 2.97872H26.2496C26.6364 2.97872 27.0073 2.82181 27.2807 2.5425C27.5542 2.26319 27.7079 1.88436 27.7079 1.48936C27.7079 1.09436 27.5542 0.715534 27.2807 0.436224C27.0073 0.156915 26.6364 0 26.2496 0H18.9583C18.5715 0 18.2006 0.156915 17.9271 0.436224C17.6536 0.715534 17.5 1.09436 17.5 1.48936V8.93617C17.5 9.33117 17.6536 9.71 17.9271 9.98931C18.2006 10.2686 18.5715 10.4255 18.9583 10.4255C19.345 10.4255 19.7159 10.2686 19.9894 9.98931C20.2629 9.71 20.4165 9.33117 20.4165 8.93617V5.08431L20.8431 5.52181C24.1114 8.85984 24.1059 12.1122 23.5245 14.2532C22.6787 17.3753 19.9955 20.1678 17.1445 20.8957C16.7993 20.9841 16.4976 21.1984 16.2964 21.4982C16.0951 21.7979 16.0081 22.1626 16.0518 22.5233C16.0955 22.8841 16.2669 23.216 16.5336 23.4567C16.8004 23.6973 17.1441 23.83 17.5 23.8298C17.6198 23.8299 17.7392 23.8149 17.8554 23.7851C21.7217 22.7984 25.2106 19.2053 26.3371 15.0481C27.449 10.9431 26.2314 6.81197 22.9065 3.41436Z" fill="black"/>
</svg>
