<svg width="319" height="156" viewBox="0 0 319 156" fill="none" xmlns="http://www.w3.org/2000/svg">
<g filter="url(#filter0_d_1125_1013)">
<path fill-rule="evenodd" clip-rule="evenodd" d="M256.96 137.869V122.55C256.96 118.024 257.295 77.2897 256.96 76.5934H162.873C162.539 75.8971 162.539 75.5489 162.873 75.2008L256.96 74.8526V13.9254C249.259 13.5773 241.223 13.9254 233.522 13.9254C225.821 13.5773 217.785 13.9254 209.749 13.9254H168.565C166.557 13.9254 164.213 13.9254 162.539 13.5773C162.539 16.3625 162.873 18.7996 162.873 21.5848V137.869H186.311C202.048 137.869 217.785 138.217 233.522 137.869H256.96Z" fill="#52B0E3"/>
<path fill-rule="evenodd" clip-rule="evenodd" d="M57.0674 137.869C65.1032 138.217 73.1391 137.521 81.175 137.869H146.132C147.806 137.869 150.484 138.217 152.158 137.869C151.824 135.432 152.158 132.995 152.158 130.209V122.55C151.824 117.676 152.158 112.453 152.158 107.231V76.5935H57.0674V137.869Z" fill="#52B0E3"/>
<path fill-rule="evenodd" clip-rule="evenodd" d="M57.0674 13.9259V75.2012L151.824 74.8531V13.9259H57.0674Z" fill="#53B1E4"/>
<path fill-rule="evenodd" clip-rule="evenodd" d="M30.6211 137.869H55.7332C55.3984 135.432 55.7332 132.646 55.7332 130.209C55.7332 124.291 55.7332 77.2897 55.3984 76.5934H53.3894V75.2008H55.3984C55.7332 74.1563 55.7332 46.3039 55.7332 44.5631C55.7332 34.1184 55.3984 24.0219 55.7332 13.9254H50.376C48.7018 13.9254 46.358 13.9254 44.349 13.5773C42.0053 13.5773 28.6121 13.5773 27.2728 13.9254C26.938 16.3625 27.2728 19.1478 26.938 21.5848V44.5631C27.2728 65.4524 26.938 85.9936 26.938 106.883C27.2728 116.979 27.2728 127.772 27.2728 137.869H30.6211Z" fill="#52B0E3"/>
<path fill-rule="evenodd" clip-rule="evenodd" d="M258.635 137.869H286.76V13.5773C278.055 13.9254 267.675 13.5773 258.635 13.9254V74.8526C259.304 75.2008 260.309 74.8526 260.978 75.2008V76.5934H258.635V137.869Z" fill="#53B1E4"/>
<path fill-rule="evenodd" clip-rule="evenodd" d="M256.949 13.926C257.284 13.2297 258.623 13.5778 259.293 13.5778C260.297 13.926 260.967 13.926 261.972 13.926H297.463C297.798 23.6743 297.463 34.8153 297.463 44.5636V75.8976C297.463 85.9941 297.798 96.4387 297.463 106.883C297.463 112.106 297.798 117.328 297.798 122.202L297.463 137.869C294.785 137.869 269.003 138.217 268.668 137.869H233.511C217.774 138.217 202.037 137.869 186.301 137.869H162.863V21.5854C162.863 18.8001 162.528 16.3631 162.528 13.5778C164.202 13.926 166.546 13.926 168.555 13.926H209.738C217.774 13.926 225.81 13.5778 233.511 13.926C241.212 13.926 249.248 13.5778 256.949 13.926ZM50.3606 13.926H151.813V74.8531L152.148 76.5939V107.232C152.148 112.454 151.813 117.676 152.148 122.55V130.21C152.148 132.995 151.813 135.432 152.148 137.869C150.474 138.217 147.795 137.869 146.121 137.869H81.1647C73.1289 137.521 65.093 138.217 57.0572 137.869H23.5744C21.9003 137.869 18.2172 138.217 16.8779 137.869C16.543 136.477 16.8779 109.32 16.8779 106.883C16.543 96.4387 16.543 85.9941 16.543 75.8976V44.5636C16.8779 37.6005 16.543 28.8966 16.543 21.5854V13.5778C18.8868 13.926 30.6058 13.926 33.6192 13.5778C35.963 13.5778 48.3516 13.5778 50.3606 13.926ZM156.836 9.39996H157.84V59.1861C157.84 64.7566 157.84 70.6752 158.175 75.8976L157.84 109.32C157.84 112.802 158.175 141.351 157.84 142.395H156.836C156.501 141.003 156.501 111.061 156.501 109.32C156.836 98.1795 156.501 87.0385 156.836 75.8976C156.836 65.1048 156.501 53.9638 156.501 42.8228C156.501 31.6819 156.836 20.5409 156.836 9.39996ZM161.189 75.5494H162.193V76.942L161.189 76.5939V75.5494ZM160.854 75.5494V76.5939L159.849 76.942C159.514 75.2013 159.514 75.5494 160.854 75.5494ZM158.175 76.5939V75.5494H159.514V76.942L158.175 76.5939ZM155.496 76.942V75.5494C157.171 75.2013 156.501 76.5939 156.501 76.5939L155.496 76.942ZM153.822 75.5494H155.162V76.5939C154.938 76.826 154.715 76.942 154.492 76.942C153.822 76.942 154.157 76.942 153.822 76.5939V75.5494ZM152.483 75.5494H153.487V76.942H152.483V75.5494ZM3.14992 8.35549L15.2037 13.926V42.1265C14.5341 42.1265 7.16785 40.0376 6.83302 39.6894C5.49371 39.6894 4.48923 38.9931 3.14992 38.9931V40.7339L15.2037 43.8673V72.416C14.5341 72.7642 3.81958 72.416 1.14096 72.416C-0.198353 72.416 0.471302 72.416 0.136475 73.1123C0.80613 73.1123 2.48027 72.7642 3.48475 72.7642C3.48475 74.8531 3.81958 76.942 3.48475 79.031H0.136475V79.3791H15.2037V108.276C11.5206 109.669 7.16785 110.365 3.14992 111.758V113.498L15.2037 110.017V137.869C14.5341 138.217 10.1813 139.958 9.17682 140.306C7.16785 141.351 4.82406 142.395 3.14992 143.092C3.14992 143.324 3.26153 143.44 3.48475 143.44H8.17233C8.17233 143.092 16.2082 139.61 16.543 139.61C17.5475 139.262 26.9227 139.61 28.5968 139.61C36.6327 139.61 45.0034 139.61 53.0392 139.262C52.0347 140.306 46.6775 142.743 46.0078 143.44H50.3606L55.383 140.306C56.7223 139.61 56.3875 139.262 58.3965 139.262H70.4503C73.1289 139.262 76.1423 139.61 78.8209 139.262L76.1423 141.351C75.4727 141.699 73.7985 142.743 73.4637 143.092C73.4637 143.788 73.7985 143.44 74.4682 143.44H77.8165C78.8209 143.44 79.1558 142.743 79.4906 142.395L82.8389 139.958C83.5085 139.262 83.5085 139.61 84.8478 139.61C88.5309 139.262 92.214 139.262 95.8971 139.262H117.326C116.991 140.306 114.647 142.743 114.647 143.44H116.991L117.326 143.092L119.67 139.262H154.157V143.788C156.166 143.44 158.175 143.092 160.519 143.788V143.44L160.184 139.262H194.671C195.006 139.958 196.011 141.003 196.011 141.351C196.68 142.047 197.015 142.743 197.35 143.44H199.694C199.694 143.092 198.02 141.003 197.685 140.306C197.461 140.306 197.35 140.19 197.35 139.958C197.015 139.61 197.015 139.958 197.015 139.61C204.046 139.262 211.413 139.262 218.444 139.262C222.127 139.61 225.475 139.262 229.158 139.262C231.502 139.262 230.833 139.262 233.176 141.003C233.846 141.351 235.855 142.743 236.19 143.44H241.212L240.877 143.092L240.543 142.743L235.855 139.262C237.529 139.262 239.538 139.61 241.212 139.262H246.57C248.578 139.262 250.253 139.61 251.927 139.61C253.266 139.61 256.949 139.262 257.619 139.61C257.954 139.61 258.288 139.958 258.623 140.306L264.315 143.44H267.998C268.668 143.44 267.998 143.44 268.333 143.44C266.994 142.743 265.99 142.047 264.65 141.351C263.981 141.003 261.302 139.61 260.967 139.262H297.463C297.798 139.61 305.499 142.743 305.834 143.44H311.191V143.092L299.137 137.869V110.365C299.807 110.365 303.155 111.061 303.49 111.409C304.16 111.409 309.517 112.802 310.522 113.15L311.526 113.498C311.191 112.802 311.526 112.106 311.191 111.409L299.137 108.276V79.3791C300.812 79.031 308.847 79.7273 311.191 79.3791H314.205V72.416H309.852C308.178 72.416 300.142 72.7642 299.472 72.416C299.249 72.1839 299.137 71.7197 299.137 71.0234V43.8673L311.191 40.7339V38.645L299.137 42.1265V13.926L302.151 12.1852C304.83 11.1407 308.513 9.39996 311.191 8.35549C311.526 7.31102 311.526 8.00733 311.191 7.65918H308.178C307.285 7.65918 306.392 7.89128 305.499 8.35549C304.83 8.70364 297.463 12.1852 297.128 12.1852H260.967C260.967 11.837 263.981 10.0963 264.65 9.74811L266.659 8.70364C266.994 8.70364 266.994 8.35549 267.329 8.35549C268.333 7.65918 268.668 8.00733 267.998 7.65918H265.655C264.315 7.65918 264.65 7.65918 263.646 8.00733L258.623 11.1407C256.949 12.1852 257.954 12.1852 255.61 12.1852H235.52C236.19 11.4889 240.543 8.35549 241.212 7.65918H236.19C235.52 8.35549 234.516 9.0518 233.846 9.74811L233.176 10.4444C230.833 12.1852 231.502 12.1852 229.493 12.1852H218.779C211.413 12.1852 203.712 11.837 196.68 12.1852C197.015 11.837 197.35 11.4889 197.685 10.7926L199.694 7.65918H197.685C197.35 8.35549 196.68 9.39996 196.011 10.0963C195.676 10.4444 195.006 11.837 194.671 12.1852H160.184L160.519 8.35549V7.65918C159.514 7.65918 154.827 8.00733 154.157 7.65918V8.70364C153.822 9.74811 154.157 11.1407 154.157 12.1852H120.005C119.335 11.837 119.335 11.4889 119 11.1407L118.331 9.74811C117.996 9.0518 117.326 8.35549 116.991 7.65918H114.647C114.982 8.35549 117.661 11.4889 117.661 12.1852H84.513C83.5085 12.1852 83.1737 11.837 82.504 11.4889C81.8344 10.4444 79.1558 8.70364 78.1513 7.65918H77.4816C76.4771 7.65918 76.1423 7.65918 75.1378 8.00733C73.7985 8.00733 73.7985 7.65918 73.4637 8.00733L78.8209 12.1852H58.3965C56.3875 12.1852 57.0572 11.837 55.383 11.1407C54.7134 10.7926 50.6954 8.35549 50.3606 8.00733C50.0258 8.00733 50.3606 8.00733 50.0258 7.65918H46.3427C46.6775 8.35549 47.3472 8.70364 48.3516 9.0518C48.6865 9.39996 49.3561 9.74811 50.0258 10.0963C51.0303 10.7926 52.3696 11.4889 53.374 12.1852H16.543L8.17233 8.00733C6.83302 7.65918 4.82406 7.65918 3.14992 7.65918V8.35549Z" fill="#3A82AC"/>
<path fill-rule="evenodd" clip-rule="evenodd" d="M77.4925 146.574V147.967C76.8229 147.967 72.4701 148.315 72.1353 147.967V146.574C70.1263 146.226 57.7377 146.574 54.7242 146.574H3.49561V151.1H310.867V146.574H242.563V147.967H237.205V146.574C231.178 146.226 224.147 146.574 218.12 146.574H165.217C163.878 146.574 161.534 146.226 160.53 146.922V147.967H154.168V143.789L153.833 143.441V146.574C153.498 146.226 119.346 146.574 115.663 146.574H96.5777C93.2294 146.574 79.1666 146.226 77.4925 146.574Z" fill="#E9E9E8"/>
<path fill-rule="evenodd" clip-rule="evenodd" d="M72.1353 3.48155C72.4701 3.1334 76.488 3.1334 77.4925 3.1334V5.57048V4.52602C79.8363 4.87417 93.2294 4.52602 96.5777 4.52602H144.458C146.802 4.52602 152.159 4.87417 153.833 4.17786V3.1334H160.53V4.52602H236.87V7.65941H236.201H237.205V3.1334H242.563V7.65941V4.52602C248.255 4.87417 253.947 4.52602 259.639 4.52602H310.867V0H234.192C208.745 0 182.963 0.348155 157.516 0C119.011 0 80.1711 0.348155 42.0008 0H13.2056C11.1966 0 4.83492 0 3.49561 0.348155V4.52602H71.8004V3.82971L72.1353 3.48155Z" fill="#E9E9E8"/>
<path fill-rule="evenodd" clip-rule="evenodd" d="M289.441 129.862C290.445 129.514 295.133 129.514 295.803 129.862V136.129H289.441V129.862ZM289.441 15.6669C290.111 15.3188 294.798 15.6669 295.803 15.6669V21.9337H289.441V15.6669ZM258.637 13.9262C267.677 13.578 278.057 13.9262 286.762 13.578V137.869H268.682C269.016 138.218 294.798 137.869 297.477 137.869L297.812 122.202C297.812 117.328 297.477 112.106 297.477 106.884C297.812 96.4389 297.477 85.9943 297.477 75.8978V44.5638C297.477 34.8155 297.812 23.6745 297.477 13.9262H261.985C260.981 13.9262 260.311 13.9262 259.306 13.578C258.637 13.578 257.297 13.2299 256.963 13.9262H258.637Z" fill="#4998C3"/>
<path fill-rule="evenodd" clip-rule="evenodd" d="M18.5624 129.861H24.9242V136.128H18.5624V129.861ZM18.5624 15.6662H24.9242V21.933H18.5624V15.6662ZM30.6163 137.869H27.268C27.268 127.772 27.268 116.979 26.9331 106.883C26.9331 85.9936 27.268 65.4524 26.9331 44.5631V21.5848C27.268 19.1478 26.9331 16.3625 27.268 13.9254C28.6073 13.5773 42.0004 13.5773 44.3442 13.5773C46.3532 13.9254 48.697 13.9254 50.3711 13.9254C48.3622 13.5773 35.9735 13.5773 33.6297 13.5773C30.6163 13.9254 18.8973 13.9254 16.5535 13.5773V21.5848C16.5535 28.8961 16.8883 37.6 16.5535 44.5631V75.8971C16.5535 85.9936 16.5535 96.4382 16.8883 106.883C16.8883 109.32 16.5535 136.476 16.8883 137.869C18.2276 138.217 21.9107 137.869 23.5849 137.869H30.6163Z" fill="#4897C2"/>
<path fill-rule="evenodd" clip-rule="evenodd" d="M311.202 111.411V103.403C311.537 100.966 311.202 98.1808 311.202 95.3955V79.3804C308.858 79.7286 300.823 79.0323 299.148 79.3804V108.277L311.202 111.411Z" fill="#D3EBED"/>
<path fill-rule="evenodd" clip-rule="evenodd" d="M311.202 40.735C311.537 40.0387 311.202 37.9498 311.202 36.9053V16.3641C311.202 14.2752 310.867 10.0973 311.202 8.35657C308.524 9.40103 304.841 11.1418 302.162 12.1863L299.148 13.9271V42.1276L311.202 38.6461V40.735Z" fill="#C7E5E9"/>
<path fill-rule="evenodd" clip-rule="evenodd" d="M55.7286 137.869H57.0679V76.5939H152.159L151.824 74.8531L57.0679 75.2012V13.9259H55.7286C55.3937 24.0224 55.7286 34.1189 55.7286 44.5636C55.7286 46.3043 55.7286 74.1568 55.3937 75.2012H53.3848V76.5939H55.3937C55.7286 77.2902 55.7286 124.291 55.7286 130.21C55.7286 132.647 55.3937 135.432 55.7286 137.869Z" fill="#FAFCFB"/>
<path fill-rule="evenodd" clip-rule="evenodd" d="M256.961 137.869H258.635V76.5939H260.979V75.2012C260.309 74.8531 259.305 75.2012 258.635 74.8531V13.9259H256.961V74.8531L162.874 75.2012C162.54 75.5494 162.54 75.8975 162.874 76.5939H256.961C257.296 77.2902 256.961 118.024 256.961 122.55V137.869Z" fill="#FDFDFD"/>
<path fill-rule="evenodd" clip-rule="evenodd" d="M3.16455 113.499L3.49938 113.847C3.16455 113.847 3.16455 113.499 3.16455 114.195V139.262C3.16455 140.307 3.49938 142.396 3.16455 143.092C4.83869 142.396 7.18249 141.351 9.19146 140.307C10.1959 139.959 14.5487 138.218 15.2184 137.87V110.017L3.16455 113.499Z" fill="#C8E6E9"/>
<path fill-rule="evenodd" clip-rule="evenodd" d="M311.202 143.093C311.202 133.692 311.537 124.292 311.537 115.24V111.759L311.202 111.41C311.537 112.107 311.202 112.803 311.537 113.499L310.533 113.151C310.198 113.848 310.867 113.151 310.198 113.499C309.528 113.499 309.863 113.151 308.858 114.196L302.162 121.159C301.157 121.855 300.153 122.551 299.483 123.944V115.588C299.818 115.24 300.153 115.24 300.488 114.544L302.832 112.455C303.166 112.107 303.166 112.455 303.166 112.107C303.836 111.41 303.501 112.107 303.501 111.41C303.166 111.062 299.818 110.366 299.148 110.366V137.87L311.202 143.093Z" fill="#C8E6E9"/>
<path fill-rule="evenodd" clip-rule="evenodd" d="M3.16455 17.7568C3.49938 18.8012 3.16455 20.542 3.16455 21.9346V34.8164C3.61099 34.5843 3.94582 34.3522 4.16904 34.1201C4.50386 33.7719 4.50386 33.4238 4.83869 33.4238L9.19146 28.8977C10.5308 27.5051 14.2139 24.0236 14.8835 22.6309C15.2184 24.0236 14.8835 29.9422 14.8835 32.0311C14.5487 32.0311 13.5442 33.0756 12.8746 33.7719L10.8656 35.8608C10.1959 36.5572 9.52629 36.9053 8.85663 37.6016L7.18249 39.3424C6.84766 39.6906 7.18249 39.6906 6.84766 39.6906C7.18249 40.0387 14.5487 42.1276 15.2184 42.1276V13.9271L3.16455 8.35657C3.16455 11.1418 3.49938 14.6234 3.16455 17.7568Z" fill="#C8E6E9"/>
<path fill-rule="evenodd" clip-rule="evenodd" d="M77.4897 5.56962V7.65855H154.165L153.831 4.177C152.156 4.87331 146.799 4.52516 144.455 4.52516H96.5749C93.2267 4.52516 79.8335 4.87331 77.4897 4.52516V5.56962Z" fill="#FDFDFD"/>
<path fill-rule="evenodd" clip-rule="evenodd" d="M160.528 143.441V146.922C161.532 146.226 163.876 146.574 165.215 146.574H218.118C224.145 146.574 231.177 146.226 237.203 146.574V143.441H200.372C199.703 143.441 200.038 143.441 199.368 143.789H198.698L198.363 143.441H160.528Z" fill="#FDFDFD"/>
<path fill-rule="evenodd" clip-rule="evenodd" d="M160.528 7.65903H200.038C205.73 7.31088 212.091 7.65903 218.118 7.65903H236.869V4.52563H160.528V7.65903Z" fill="#FDFDFD"/>
<path fill-rule="evenodd" clip-rule="evenodd" d="M116.999 143.44C116.665 143.788 116.33 143.788 116.33 143.788H115.66C114.656 143.44 115.325 143.788 114.656 143.44H92.557C90.8829 143.092 89.2087 143.44 87.5346 143.44H77.4897V146.573C79.1639 146.225 93.2267 146.573 96.5749 146.573H115.66C119.343 146.573 153.496 146.225 153.831 146.573V143.44H121.352C120.348 143.44 118.004 143.788 117.334 143.092L116.999 143.44Z" fill="#FDFDFD"/>
<path fill-rule="evenodd" clip-rule="evenodd" d="M3.16455 79.7283H3.49938C3.83421 80.0764 5.17352 80.0764 5.84318 80.0764C7.85215 80.0764 13.2094 79.7283 14.2139 80.0764C14.2139 80.7727 13.5442 81.4691 13.2094 81.8172L9.52629 85.6469L5.84318 89.4766L4.50386 90.8693C4.16904 91.2174 3.83421 92.2619 3.16455 92.2619V104.099L8.85663 98.1805C9.86112 97.136 14.2139 92.61 14.8835 92.2619C14.5487 93.6545 14.5487 94.699 14.5487 96.0916C14.5487 96.7879 14.8835 99.225 14.5487 99.5731L10.8656 103.403C9.19146 105.492 7.18249 107.233 5.50835 109.321L4.50386 110.366C4.16904 110.714 3.83421 110.714 3.49938 111.062H3.16455V111.759C7.18249 110.366 11.5353 109.67 15.2184 108.277V79.3801H3.16455V79.7283Z" fill="#DCF1F4"/>
<path fill-rule="evenodd" clip-rule="evenodd" d="M3.49938 72.0693H13.2094C13.879 72.0693 14.2139 72.0693 14.5487 71.7211C14.8835 71.373 14.5487 57.4468 14.5487 55.0097L14.8835 49.4392C13.879 50.1355 13.5442 50.8318 12.5397 51.5281C9.86111 54.3134 7.18249 57.4468 4.16903 60.232C3.49938 60.9283 3.16455 61.9728 3.16455 63.3654C3.16455 64.758 3.49938 71.7211 3.49938 72.0693Z" fill="#C7E5E9"/>
<path fill-rule="evenodd" clip-rule="evenodd" d="M156.849 9.40027C156.849 20.5412 156.514 31.6822 156.514 42.8232C156.514 53.9641 156.849 65.1051 156.849 75.8979C156.514 87.0389 156.849 98.1798 156.514 109.321C156.514 111.062 156.514 141.003 156.849 142.396H157.853C158.188 141.351 157.853 112.802 157.853 109.321L158.188 75.8979C157.853 70.6756 157.853 64.7569 157.853 59.1864V9.40027H156.849Z" fill="#F9FDFD"/>
<path fill-rule="evenodd" clip-rule="evenodd" d="M3.49709 72.068C3.49709 71.7198 3.16226 64.7567 3.16226 63.3641C3.16226 61.9715 3.49709 60.927 4.16675 60.2307C7.1802 57.4455 9.85882 54.3121 12.5374 51.5268C13.5419 50.8305 13.8768 50.1342 14.8812 49.4379L14.5464 55.0084C14.5464 57.4455 14.8812 71.3717 14.5464 71.7198C14.2116 72.068 13.8768 72.068 13.2071 72.068H3.49709ZM3.49709 72.068C3.16226 72.7643 0.48364 72.4161 0.148812 72.4161V79.0311C0.148812 79.7274 -0.186016 78.3348 0.148812 79.0311V79.3792V73.1124C0.48364 72.4161 -0.186016 72.4161 1.1533 72.4161C3.83192 72.4161 14.5464 72.7643 15.2161 72.4161V43.8674L3.16226 40.734V56.401C3.16226 58.4899 2.82744 71.3717 3.49709 72.068Z" fill="#DCF1F4"/>
<path fill-rule="evenodd" clip-rule="evenodd" d="M8.18726 8.00734L16.558 12.1852H53.3891C52.3846 11.4889 51.0453 10.7926 50.0408 10.0963C49.3711 9.74811 48.7015 9.39996 48.3666 9.0518C47.3622 8.70365 46.6925 8.35549 46.3577 7.65918H50.0408H46.0228C45.3532 8.00734 15.2186 7.31102 8.18726 8.00734Z" fill="#CAE7EB"/>
<path fill-rule="evenodd" clip-rule="evenodd" d="M305.508 8.35544C305.508 7.65913 305.843 8.00728 305.508 7.65913C299.147 7.31098 293.12 7.65913 286.758 7.65913H268.008C268.677 8.00728 268.343 7.65913 267.338 8.35544C267.003 8.35544 267.003 8.70359 266.668 8.70359L264.659 9.74806C263.99 10.0962 260.976 11.837 260.976 12.1851H297.138C297.473 12.1851 304.839 8.70359 305.508 8.35544Z" fill="#D1EEF2"/>
<path fill-rule="evenodd" clip-rule="evenodd" d="M160.532 7.65918V8.35549L160.197 12.1852H194.684C195.019 11.837 195.689 10.4444 196.023 10.0963C196.693 9.39996 197.363 8.35549 197.698 7.65918H160.532Z" fill="#CDEAEE"/>
<path fill-rule="evenodd" clip-rule="evenodd" d="M154.168 8.70365V7.65918H117.002C117.337 8.35549 118.006 9.0518 118.341 9.74811L119.011 11.1407C119.346 11.4889 119.346 11.837 120.015 12.1852H154.168C154.168 11.1407 153.833 9.74811 154.168 8.70365Z" fill="#CDEAEE"/>
<path fill-rule="evenodd" clip-rule="evenodd" d="M114.656 7.65918H78.1599C79.1644 8.70365 81.843 10.4444 82.5127 11.4889C83.1823 11.837 83.5172 12.1852 84.5216 12.1852H117.67C117.67 11.4889 114.991 8.35549 114.656 7.65918Z" fill="#CAE7EB"/>
<path fill-rule="evenodd" clip-rule="evenodd" d="M236.199 7.65913H218.118C212.091 7.65913 205.729 7.31098 200.037 7.65913H199.702L197.693 10.7925C197.359 11.4888 197.024 11.837 196.689 12.1851C203.72 11.837 211.421 12.1851 218.788 12.1851H229.502C231.511 12.1851 230.841 12.1851 233.185 10.4444L233.855 9.74806C234.525 9.05175 235.529 8.35544 236.199 7.65913Z" fill="#CAE9ED"/>
<path fill-rule="evenodd" clip-rule="evenodd" d="M268.008 143.439C268.343 143.788 268.343 143.439 268.677 143.439H305.843C305.508 142.743 297.807 139.61 297.473 139.262H260.976C261.311 139.61 263.99 141.002 264.659 141.351C265.999 142.047 267.003 142.743 268.343 143.439C268.008 143.439 268.677 143.439 268.008 143.439Z" fill="#CAE7EB"/>
<path fill-rule="evenodd" clip-rule="evenodd" d="M299.483 72.4161V66.8456C301.492 65.453 301.157 65.453 302.497 64.4086C303.836 63.0159 306.515 59.8825 308.189 58.4899L309.863 56.7491C310.533 56.0528 310.198 56.0528 311.202 55.3565V51.875C310.533 52.2231 311.202 52.2231 309.528 53.6158C308.189 54.6602 306.515 56.7491 304.506 58.4899L299.483 63.7123C299.148 64.0604 299.483 66.1493 299.483 66.8456V58.4899C299.148 56.0528 299.818 56.7491 300.823 55.7047C301.157 55.0084 302.832 53.6158 303.836 52.5713L306.849 49.4379L307.854 48.3934L311.202 45.26V40.734L299.148 43.8674V71.0235C299.148 71.7198 299.26 72.184 299.483 72.4161Z" fill="#C9E6EA"/>
<path fill-rule="evenodd" clip-rule="evenodd" d="M8.18726 143.439H46.0228C46.6925 142.743 52.0497 140.306 53.0542 139.262C45.0183 139.61 36.6476 139.61 28.6118 139.61C26.9376 139.61 17.5624 139.262 16.558 139.61C16.2231 139.61 8.18726 143.091 8.18726 143.439Z" fill="#CDEAEE"/>
<path fill-rule="evenodd" clip-rule="evenodd" d="M117.341 143.091C118.011 143.788 120.355 143.439 121.359 143.439H153.837L154.172 143.788V139.262H119.685L117.341 143.091Z" fill="#CAE7EB"/>
<path fill-rule="evenodd" clip-rule="evenodd" d="M198.033 143.439H198.367L198.702 143.788H199.372C200.042 143.439 199.707 143.439 200.376 143.439H236.203C235.868 142.743 233.859 141.351 233.189 141.002C230.846 139.262 231.515 139.262 229.172 139.262C225.488 139.262 222.14 139.61 218.457 139.262C211.426 139.262 204.059 139.262 197.028 139.61C197.028 139.958 197.028 139.61 197.363 139.958C197.363 140.19 197.475 140.306 197.698 140.306C198.033 141.002 199.707 143.091 199.707 143.439H198.033Z" fill="#CDEAEE"/>
<path fill-rule="evenodd" clip-rule="evenodd" d="M160.532 143.439H197.363C197.028 142.743 196.693 142.047 196.023 141.351C196.023 141.002 195.019 139.958 194.684 139.262H160.197L160.532 143.439Z" fill="#C9E6EC"/>
<path fill-rule="evenodd" clip-rule="evenodd" d="M77.8286 143.439H87.5386C89.2128 143.439 90.8869 143.091 92.5611 143.439H114.66C115.329 143.788 114.66 143.439 115.664 143.788H116.334C116.334 143.788 116.669 143.788 117.004 143.439H114.66C114.66 142.743 117.004 140.306 117.338 139.262H95.9093C92.2262 139.262 88.5431 139.262 84.86 139.61C83.5207 139.61 83.5207 139.262 82.851 139.958L79.5028 142.395C79.1679 142.743 78.8331 143.439 77.8286 143.439Z" fill="#D1EEF2"/>
<path fill-rule="evenodd" clip-rule="evenodd" d="M50.3728 8.00728C50.7076 8.35544 54.7256 10.7925 55.3952 11.1407C57.0694 11.837 56.3997 12.1851 58.4087 12.1851H78.8332L73.4759 8.00728C72.8063 7.65913 72.4714 8.00728 72.1366 7.65913C68.4535 7.31098 64.7704 7.65913 61.0873 7.65913H55.3952C54.3907 7.65913 51.3773 7.31098 50.7076 8.00728H50.3728Z" fill="#D1EEF2"/>
<path fill-rule="evenodd" clip-rule="evenodd" d="M242.562 7.66004C241.893 8.00819 241.558 8.00819 241.223 7.66004C240.553 8.35635 236.201 11.4897 235.531 12.1861H255.621C257.964 12.1861 256.96 12.1861 258.634 11.1416L263.657 8.00819C263.322 7.31188 263.657 7.66004 261.648 7.66004H242.562Z" fill="#CAE7EB"/>
<path fill-rule="evenodd" clip-rule="evenodd" d="M3.16455 38.9942C4.50386 38.9942 5.50835 39.6905 6.84766 39.6905C7.18249 39.6905 6.84766 39.6905 7.18249 39.3423L8.85663 37.6016C9.52628 36.9053 10.1959 36.5571 10.8656 35.8608L12.8746 33.7719C13.5442 33.0755 14.5487 32.0311 14.8835 32.0311C14.8835 29.9422 15.2184 24.0235 14.8835 22.6309C14.2139 24.0235 10.5308 27.5051 9.19145 28.8977L4.83869 33.4237C4.50386 33.4237 4.50386 33.7719 4.16903 34.12C3.83421 34.4682 3.83421 34.4682 3.16455 34.8163V21.9346C3.16455 20.542 3.49938 18.8012 3.16455 17.7567V33.7719C3.16455 34.4682 3.16455 38.2979 3.49938 38.646L3.16455 38.9942Z" fill="#DEF2F5"/>
<path fill-rule="evenodd" clip-rule="evenodd" d="M299.487 72.4168C300.157 72.7649 308.193 72.4168 309.867 72.4168C309.532 72.0686 309.197 72.4168 308.527 72.4168V72.0686C308.862 72.4168 308.862 72.0686 308.527 72.0686C306.853 72.0686 303.84 71.7205 302.166 72.4168C302.166 72.0686 306.518 67.8908 306.853 67.5426C308.193 66.15 309.532 64.4092 311.206 63.0166V55.3572C310.202 56.0535 310.536 56.0535 309.867 56.7498L308.193 58.4906C306.518 59.8832 303.84 63.0166 302.501 64.4092C301.161 65.4537 301.496 65.4537 299.487 66.8463V72.4168Z" fill="#DCF1F4"/>
<path fill-rule="evenodd" clip-rule="evenodd" d="M50.3728 143.439H72.1366L73.4759 143.091C73.8107 142.743 75.4849 141.699 76.1545 141.351L78.8332 139.262C76.1545 139.61 73.1411 139.262 70.4625 139.262H58.4087C56.3997 139.262 56.7345 139.61 55.3952 140.306L50.3728 143.439Z" fill="#C9E6EA"/>
<path fill-rule="evenodd" clip-rule="evenodd" d="M3.16455 104.098V111.061H3.49938C3.83421 110.713 4.16903 110.713 4.50386 110.364L5.50835 109.32C7.18249 107.231 9.19145 105.49 10.8656 103.401L14.5487 99.5716C14.8835 99.2235 14.5487 96.7864 14.5487 96.0901C14.5487 94.6975 14.5487 93.653 14.8835 92.2604C14.2139 92.6085 9.86111 97.1345 8.85663 98.179L3.16455 104.098Z" fill="#C7E5E9"/>
<path fill-rule="evenodd" clip-rule="evenodd" d="M311.203 51.8747V45.2598L307.854 48.3932L306.85 49.4376L303.836 52.571C302.832 53.6155 301.158 55.0081 300.823 55.7044C299.818 56.7489 299.149 56.0526 299.484 58.4897V66.8454C299.484 66.1491 299.149 64.0601 299.484 63.712L304.506 58.4897C306.515 56.7489 308.189 54.66 309.528 53.6155C311.203 52.2229 310.533 52.2229 311.203 51.8747Z" fill="#DEF2F5"/>
<path fill-rule="evenodd" clip-rule="evenodd" d="M241.227 143.439H242.567H260.982C260.647 143.091 260.313 143.091 259.978 142.743L257.634 141.351C257.299 141.002 255.29 139.61 254.62 139.61H257.634C256.964 139.262 253.281 139.61 251.942 139.61C250.268 139.61 248.594 139.262 246.585 139.262H241.227C239.553 139.61 237.544 139.262 235.87 139.262L240.558 142.743L240.893 143.091L241.227 143.439Z" fill="#C7E5EB"/>
<path fill-rule="evenodd" clip-rule="evenodd" d="M3.16455 92.2604C3.83421 92.2604 4.16904 91.2159 4.50386 90.8678L5.84318 89.4752L9.52629 85.6454L13.2094 81.8157C13.5442 81.4676 14.2139 80.7713 14.2139 80.075C13.2094 79.7268 7.85214 80.075 5.84318 80.075C5.17352 80.075 3.83421 80.075 3.49938 79.7268H3.16455V92.2604Z" fill="#C8E5E9"/>
<path fill-rule="evenodd" clip-rule="evenodd" d="M310.536 113.15C309.532 112.802 304.175 111.41 303.505 111.41C303.505 112.106 303.84 111.41 303.17 112.106C303.17 112.454 303.17 112.106 302.835 112.454L300.492 114.543C300.157 115.239 299.822 115.239 299.487 115.587V123.943C300.157 122.551 301.161 121.854 302.166 121.158L308.862 114.195C309.867 113.15 309.532 113.498 310.202 113.498C310.871 113.15 310.202 113.847 310.536 113.15Z" fill="#DEF2F5"/>
<path fill-rule="evenodd" clip-rule="evenodd" d="M309.861 72.4165H311.201V63.0164C309.527 64.409 308.187 66.1498 306.848 67.5424C306.513 67.8905 302.16 72.0684 302.16 72.4165C303.835 71.7202 306.848 72.0684 308.522 72.0684C308.857 72.4165 308.857 72.0684 308.522 72.0684V72.4165C309.192 72.4165 309.527 72.0684 309.861 72.4165Z" fill="#C9E6EA"/>
<path fill-rule="evenodd" clip-rule="evenodd" d="M18.5642 21.9337H24.9259V15.6669H18.5642V21.9337Z" fill="#1D4B74"/>
<path fill-rule="evenodd" clip-rule="evenodd" d="M18.5642 136.128H24.9259V129.861H18.5642V136.128Z" fill="#1D4B74"/>
<path fill-rule="evenodd" clip-rule="evenodd" d="M289.441 21.9339H295.803V15.6671C294.799 15.6671 290.111 15.3189 289.441 15.6671V21.9339Z" fill="#1D4B74"/>
<path fill-rule="evenodd" clip-rule="evenodd" d="M289.441 136.129H295.803V129.862C295.133 129.514 290.446 129.514 289.441 129.862V136.129Z" fill="#1D4B74"/>
<path fill-rule="evenodd" clip-rule="evenodd" d="M154.172 143.789V147.967H160.534V143.441V143.789C158.19 143.093 156.181 143.441 154.172 143.789Z" fill="#4497CB"/>
<path fill-rule="evenodd" clip-rule="evenodd" d="M153.833 4.17777L154.168 7.65932C154.838 8.00748 159.525 7.65932 160.53 7.65932V8.35563V3.1333H153.833V4.17777Z" fill="#4497CB"/>
<path fill-rule="evenodd" clip-rule="evenodd" d="M72.1355 143.44V147.966C72.4703 148.314 76.8231 147.966 77.4927 147.966V143.44H77.8276H74.4793C73.8096 143.44 73.4748 143.788 73.4748 143.092L72.1355 143.44Z" fill="#4394C5"/>
<path fill-rule="evenodd" clip-rule="evenodd" d="M237.203 143.441V147.967H242.56V143.441H237.203Z" fill="#4394C5"/>
<path fill-rule="evenodd" clip-rule="evenodd" d="M72.1355 7.65932C72.4703 8.00747 72.8052 7.65932 73.4748 8.00747C73.8096 7.65932 73.8096 8.00747 75.1489 8.00747C76.1534 7.65932 76.4883 7.65932 77.4927 7.65932V3.1333C76.4883 3.1333 72.4703 3.1333 72.1355 3.48146V7.65932Z" fill="#3A88B9"/>
<path fill-rule="evenodd" clip-rule="evenodd" d="M237.203 7.65932H241.221C241.555 8.00747 241.89 8.00747 242.56 7.65932V3.1333H237.203V7.65932Z" fill="#4394C5"/>
<path fill-rule="evenodd" clip-rule="evenodd" d="M0.136475 73.1132V79.0318H3.48475C3.81958 76.9429 3.48475 74.8539 3.48475 72.765C2.48027 72.765 0.80613 73.1132 0.136475 73.1132Z" fill="#3A8CC2"/>
<path fill-rule="evenodd" clip-rule="evenodd" d="M152.493 76.9425H153.497V75.5499H152.493V76.9425Z" fill="#F9FDFD"/>
<path fill-rule="evenodd" clip-rule="evenodd" d="M160.869 75.5503C159.53 75.5503 159.53 75.2021 159.865 76.9429L160.869 76.5947V75.5503Z" fill="#F9FDFD"/>
<path fill-rule="evenodd" clip-rule="evenodd" d="M159.525 76.9425V75.5499H158.186V76.5944L159.525 76.9425Z" fill="#FAFCFB"/>
<path fill-rule="evenodd" clip-rule="evenodd" d="M156.509 76.5946C156.509 76.5946 157.179 75.202 155.505 75.5501V76.9428L156.509 76.5946Z" fill="#F3FBFB"/>
<path fill-rule="evenodd" clip-rule="evenodd" d="M153.833 76.5944C154.168 76.9425 153.833 76.9425 154.503 76.9425C154.726 76.9425 154.949 76.8265 155.173 76.5944V75.5499H153.833V76.5944Z" fill="#F3FBFB"/>
<path fill-rule="evenodd" clip-rule="evenodd" d="M161.198 76.5944L162.202 76.9425V75.5499H161.198V76.5944Z" fill="#FAFCFB"/>
</g>
<defs>
<filter id="filter0_d_1125_1013" x="0" y="0" width="318.205" height="155.1" filterUnits="userSpaceOnUse" color-interpolation-filters="sRGB">
<feFlood flood-opacity="0" result="BackgroundImageFix"/>
<feColorMatrix in="SourceAlpha" type="matrix" values="0 0 0 0 0 0 0 0 0 0 0 0 0 0 0 0 0 0 127 0" result="hardAlpha"/>
<feOffset dx="2" dy="2"/>
<feGaussianBlur stdDeviation="1"/>
<feComposite in2="hardAlpha" operator="out"/>
<feColorMatrix type="matrix" values="0 0 0 0 0 0 0 0 0 0 0 0 0 0 0 0 0 0 0.3 0"/>
<feBlend mode="normal" in2="BackgroundImageFix" result="effect1_dropShadow_1125_1013"/>
<feBlend mode="normal" in="SourceGraphic" in2="effect1_dropShadow_1125_1013" result="shape"/>
</filter>
</defs>
</svg>
