<svg width="248" height="188" viewBox="0 0 248 188" fill="none" xmlns="http://www.w3.org/2000/svg">
<path d="M138.252 36.1352C115.609 34.6952 91.6739 38.8797 72.5254 48.8864C51.1625 60.0504 41.0523 76.2366 36.7502 95.5666C33.37 110.752 40.0481 128.204 61.8664 131.735C69.6054 132.988 77.8275 132.02 85.6315 131.722C97.9678 131.251 108.39 133.365 117.832 139.745C126.422 145.549 132.983 153.027 142.183 158.306C155.055 165.69 172.193 169.172 187.412 164.275C204.452 158.793 216.649 145.858 223.317 132.809C232.146 115.533 229.352 96.2484 218.941 79.7854C208.668 63.5423 191.234 49.7816 169.994 42.4187C159.959 38.9398 149.186 36.8305 138.252 36.1352Z" fill="#144766"/>
<path d="M167.054 54.5024C164.557 56.7349 161.678 58.5726 158.551 59.8564C150.475 63.1906 140.851 62.5751 133.18 58.429C129.352 56.3712 126.046 53.4853 123.447 50.0604C128.449 54.5789 135.506 57.047 142.244 56.0144C149.036 54.9743 155.229 50.1593 157.206 43.7347C157.33 43.3244 157.439 42.9147 157.532 42.4969C158.614 37.5912 157.416 32.3515 155.245 27.7722C153.829 24.7874 151.993 21.955 151.16 18.7657C149.76 13.3359 151.674 7.22276 155.937 3.48639L155.984 3.3347C156.248 3.41054 156.513 3.49447 156.777 3.5927C166.791 7.08599 174.602 16.0011 176.64 26.1924C176.834 27.1797 176.983 28.1744 177.068 29.1691C177.908 38.4864 174.142 48.1537 167.054 54.5024Z" fill="#D9FE46"/>
<path d="M157.532 42.4963C157.438 42.9141 157.329 43.3238 157.205 43.7341C155.229 50.1587 149.036 54.9731 142.243 56.0138C135.506 57.0464 128.45 54.5783 123.446 50.0598C121.548 47.5768 120.039 44.8202 118.973 41.9039C123.329 47.6147 130.526 52.1481 137.809 52.2849C144.18 52.3912 150.701 48.6704 153.151 43.0583C153.501 42.2607 153.766 41.4102 153.937 40.5374C154.793 36.1401 153.267 31.6372 151.455 27.521C149.634 23.4054 147.471 19.3271 146.95 14.8696C146.42 10.4195 148.786 4.7161 152.792 2.52899C153.866 2.73415 154.932 2.99215 155.982 3.33408L155.936 3.48578C151.672 7.22215 149.758 13.3352 151.159 18.7651C151.991 21.9544 153.827 24.7874 155.243 27.7715C157.415 32.3503 158.613 37.5906 157.532 42.4963Z" fill="#FDFFE1"/>
<path d="M153.937 40.5367C153.766 41.4102 153.502 42.2607 153.151 43.0577C150.7 48.6697 144.181 52.3905 137.809 52.2842C130.527 52.1474 123.33 47.6141 118.973 41.9032C118.553 40.7643 118.211 39.6098 117.93 38.4255C116.242 31.1734 117.464 23.3059 121.128 16.8055C122.754 13.9121 124.87 11.2923 127.43 9.11268C134.191 3.37136 143.815 0.805014 152.793 2.52897C148.786 4.71608 146.421 10.4189 146.95 14.8696C147.471 19.3271 149.634 23.4054 151.455 27.521C153.268 31.6366 154.793 36.1401 153.937 40.5367Z" fill="#D9FE46"/>
<path opacity="0.5" d="M167.054 54.5024C164.557 56.7349 161.678 58.5727 158.551 59.8565C150.475 63.1906 140.851 62.5751 133.18 58.429C129.352 56.3712 126.046 53.4854 123.447 50.0605C121.549 47.5774 120.039 44.8208 118.973 41.9045C118.553 40.7655 118.211 39.6111 117.93 38.4267C116.242 31.1747 117.464 23.3072 121.128 16.8068C122.824 31.6148 135.684 43.1199 151.299 43.1199C151.921 43.1199 152.536 43.105 153.151 43.0589C154.644 42.9756 156.107 42.7854 157.531 42.4969C165.754 40.8184 172.757 35.8977 177.067 29.1691C177.907 38.4864 174.142 48.1537 167.054 54.5024Z" fill="#BCCBE2"/>
<path d="M106.243 178.523C109.929 176.047 114.429 174.325 119.193 173.589L120.977 172.562C123.243 175.93 124.207 179.583 120.92 183.16C115.246 189.341 106.571 187.913 100.971 183.648C101.508 182.551 102.435 181.572 103.437 180.687C104.302 179.912 105.245 179.189 106.243 178.523Z" fill="#EFEFEF"/>
<path d="M86.3393 153.243C85.5673 152.329 84.787 151.417 84.0068 150.505C82.986 149.32 81.9473 148.133 80.8857 146.958C82.0254 146.092 83.3323 145.334 84.6571 144.655C88.0187 142.924 93.1038 141.251 97.1157 141.028C101.622 150.713 109.116 159.415 116.89 167.655C118.324 169.184 119.818 170.838 120.977 172.561L119.193 173.589C114.429 174.325 109.929 176.046 106.242 178.523C104.204 175.75 102.138 172.997 100.023 170.254C97.7322 167.254 95.3873 164.271 92.9981 161.311C90.8232 158.601 88.6047 155.914 86.3393 153.243Z" fill="#EAEAEA"/>
<path d="M82.7524 156.507C83.7324 155.109 84.9536 153.828 86.4347 152.712C87.1838 152.164 87.9979 151.659 88.9005 151.263C89.7962 150.864 90.7748 150.564 91.7866 150.45C89.9835 151.191 88.443 152.121 87.0145 153.192C85.5728 154.248 84.2584 155.428 82.7524 156.507Z" fill="#999999"/>
<path d="M88.9561 165.319C89.9512 163.522 91.518 161.929 93.3536 160.589C95.2023 159.261 97.353 158.165 99.718 157.528C97.6613 158.632 95.7109 159.772 93.9258 161.075C92.1241 162.365 90.518 163.796 88.9561 165.319Z" fill="#999999"/>
<path d="M94.8945 174.796C96.0625 172.981 97.7571 171.385 99.7053 170.033C101.673 168.7 103.911 167.591 106.361 166.92C104.22 168.057 102.166 169.218 100.261 170.531C98.3466 171.834 96.6099 173.278 94.8945 174.796Z" fill="#999999"/>
<path d="M84.0067 150.505C84.787 151.417 85.5672 152.33 86.3392 153.243C85.0468 154.251 83.8692 155.392 82.753 156.507L82.4628 156.656C81.4462 155.458 80.3743 154.277 79.2602 153.126C78.5801 152.433 77.9042 151.752 77.2048 151.103L77.4191 150.963C78.0998 149.412 79.3576 148.097 80.8857 146.958C81.9472 148.133 82.986 149.32 84.0067 150.505Z" fill="#BCBCBC"/>
<path d="M86.3393 153.243C88.6048 155.914 90.8239 158.601 92.9981 161.311C91.4473 162.509 90.0851 163.853 88.9565 165.319C86.9966 162.339 84.8534 159.438 82.4629 156.656L82.7532 156.506C83.8693 155.392 85.0463 154.251 86.3393 153.243Z" fill="#BCBCBC"/>
<path d="M100.023 170.254C98.0722 171.59 96.3452 173.119 94.8952 174.796L94.6533 174.88C92.8938 171.639 91.0236 168.435 88.9565 165.319C90.0851 163.853 91.4473 162.509 92.9981 161.311C95.3873 164.271 97.7322 167.254 100.023 170.254Z" fill="#BCBCBC"/>
<path d="M100.023 170.254C102.138 172.997 104.204 175.751 106.243 178.523C105.245 179.188 104.302 179.911 103.437 180.686C102.435 181.572 101.509 182.551 100.972 183.648C99.1158 182.24 97.5988 180.516 96.6458 178.654C95.9927 177.394 95.3313 176.135 94.6533 174.88L94.8952 174.795C96.3451 173.119 98.0722 171.59 100.023 170.254Z" fill="#BCBCBC"/>
<path d="M9.49093 86.0207C6.24411 87.1878 3.37739 89.0149 1.32342 91.3095C0.694514 88.9083 0.285381 86.4334 0.0884157 83.8876C-0.634483 74.3131 3.10717 64.5371 10.1502 56.6484C26.3927 65.0873 51.37 56.1772 53.9858 41.2149C63.5874 42.6976 72.6443 46.8047 79.6584 52.6431L79.6017 52.6821C73.1164 59.0453 71.1115 68.1459 74.9761 75.6989C78.7834 83.1337 88.3159 88.6478 98.5229 88.9505C98.7357 91.2331 98.8062 93.5314 98.7392 95.8379C98.5892 101.05 97.4703 106.237 96.3714 111.406C94.3631 120.781 92.4121 130.117 96.4136 139.469C96.6341 139.991 96.8704 140.509 97.1151 141.027C93.1039 141.251 88.0187 142.923 84.6565 144.654C83.3316 145.333 82.0247 146.09 80.8851 146.957C76.1261 141.717 70.8032 136.746 63.8389 133.429C58.6881 130.981 52.8676 129.549 47.5606 127.311C44.018 125.823 40.7642 124.001 37.7683 121.934C40.3496 120.063 42.463 117.818 43.9129 115.313C46.8584 110.233 46.9579 104.148 43.953 99.0861C42.8106 97.1538 41.2453 95.3916 39.5099 93.747C33.9727 88.5048 25.949 84.3273 17.2749 84.5548C14.5892 84.6197 11.9347 85.1369 9.49093 86.0207ZM88.1341 133.169C86.0511 126.546 87.5294 119.58 89.5544 112.734C87.6476 116.004 84.7277 118.862 81.1664 121.141C75.1399 125.014 67.2945 127.225 59.4311 126.982C63.8638 127.177 67.7672 129.268 71.1135 131.543C74.4537 133.826 77.5775 136.401 81.5493 137.944C83.6378 138.749 86.5356 139.105 87.9821 137.676C89.2088 136.449 88.6117 134.685 88.1341 133.169Z" fill="#3C9DE5"/>
<path d="M89.5543 112.734C87.5293 119.58 86.0511 126.546 88.1341 133.169C88.6116 134.685 89.2087 136.449 87.982 137.676C86.5355 139.106 83.6377 138.749 81.5492 137.945L81.751 137.766C82.5928 136.407 82.6708 134.831 82.4186 133.337C82.1663 131.843 81.6121 130.384 81.2679 128.901C80.6798 126.389 80.7012 123.791 81.319 121.281L81.167 121.141C84.7276 118.862 87.6475 116.004 89.5543 112.734Z" fill="#096096"/>
<path d="M80.8859 146.958C79.3586 148.096 78.1001 149.411 77.4193 150.962L77.2051 151.103C71.1717 145.348 64.6235 141.171 55.5555 138.038C46.4218 134.891 37.6419 130.857 29.8594 125.972C32.7579 124.987 35.4463 123.614 37.7684 121.934C40.7644 124.001 44.0181 125.823 47.5607 127.311C52.8677 129.549 58.6882 130.981 63.8391 133.429C70.8034 136.747 76.127 141.719 80.8859 146.958Z" fill="#096096"/>
<path d="M82.3081 55.0292C92.3284 64.7737 97.4219 76.6569 98.5235 88.9516C88.3165 88.6488 78.7841 83.1348 74.9768 75.7C71.1121 68.1465 73.117 59.0463 79.6024 52.6832L79.659 52.6442C80.5734 53.4116 81.4621 54.206 82.3081 55.0292Z" fill="#BCCBE2"/>
<path d="M27.3175 44.3997C35.9122 40.6852 45.1834 39.8475 53.9867 41.2154C51.3709 56.1778 26.3935 65.0878 10.1511 56.6489C14.635 51.6255 20.4618 47.3701 27.3175 44.3997Z" fill="#2EE5D3"/>
<path d="M43.953 99.0866C46.958 104.15 46.8585 110.233 43.913 115.313C42.463 117.818 40.3496 120.064 37.7683 121.934C30.4267 116.882 24.5924 110.375 19.6682 103.692C15.5465 98.1151 11.8974 92.1803 9.49097 86.0213C11.934 85.1375 14.5893 84.6203 17.2742 84.5553C25.9483 84.3279 33.9728 88.5059 39.5092 93.7475C41.2453 95.3922 42.8106 97.1544 43.953 99.0866Z" fill="#BCCBE2"/>
<path d="M37.7684 121.934C35.4456 123.614 32.7572 124.987 29.8594 125.972C15.7739 117.12 4.97396 105.484 1.32422 91.31C3.3775 89.0155 6.24421 87.1883 9.49173 86.0213C11.8982 92.1803 15.5472 98.1151 19.669 103.692C24.5924 110.375 30.4268 116.882 37.7684 121.934Z" fill="#7C92A5"/>
<path d="M37.3335 78.1694C36.5685 77.0094 34.7958 76.3791 33.3749 76.7614C31.954 77.1437 31.4218 78.3942 32.1876 79.5541C32.9526 80.7141 34.7253 81.3445 36.1462 80.9622C37.5671 80.5798 38.0986 79.3294 37.3335 78.1694Z" fill="black"/>
<path d="M42.5984 86.1501C41.8334 84.9902 40.0607 84.3598 38.6398 84.7416C37.2189 85.1239 36.6867 86.3738 37.4524 87.5343C38.2175 88.6943 39.9902 89.3247 41.4111 88.9429C42.8313 88.5606 43.3635 87.3101 42.5984 86.1501Z" fill="black"/>
<path d="M47.8628 94.1309C47.0978 92.9709 45.3251 92.3406 43.9042 92.7229C42.4833 93.1052 41.9511 94.3551 42.7168 95.5157C43.4819 96.6756 45.2546 97.306 46.6755 96.9242C48.0964 96.5413 48.6279 95.2909 47.8628 94.1309Z" fill="black"/>
<path d="M53.127 102.112C52.3619 100.952 50.5892 100.321 49.1683 100.704C47.7474 101.086 47.2153 102.336 47.981 103.496C48.7461 104.656 50.5188 105.287 51.9397 104.904C53.3606 104.522 53.8921 103.272 53.127 102.112Z" fill="black"/>
<path d="M35.087 88.1707C34.3219 87.0107 32.5492 86.3803 31.1283 86.7627C29.7074 87.145 29.1752 88.3954 29.941 89.5554C30.706 90.7154 32.4787 91.3457 33.8996 90.9634C35.3205 90.5811 35.852 89.3307 35.087 88.1707Z" fill="black"/>
<path d="M40.3511 96.1514C39.5861 94.9914 37.8134 94.3611 36.3924 94.7434C34.9715 95.1257 34.4394 96.3761 35.2051 97.5361C35.9702 98.6961 37.7429 99.3265 39.1638 98.9442C40.5847 98.5618 41.1162 97.3114 40.3511 96.1514Z" fill="black"/>
<path d="M66.1923 72.8801C67.6132 72.4978 68.1454 71.2474 67.3796 70.0874C66.6146 68.9274 64.8419 68.297 63.421 68.6788C62 69.0612 61.4686 70.3116 62.2336 71.4716C62.9987 72.6316 64.7714 73.2625 66.1923 72.8801Z" fill="black"/>
<path d="M71.4563 80.8609C72.8772 80.4785 73.4093 79.2281 72.6436 78.0681C71.8785 76.9081 70.1059 76.2778 68.6849 76.6596C67.264 77.0419 66.7319 78.2923 67.4976 79.4523C68.2627 80.6123 70.0354 81.2427 71.4563 80.8609Z" fill="black"/>
<path d="M76.7204 88.8411C78.1414 88.4588 78.6735 87.2083 77.9078 86.0483C77.1427 84.8884 75.37 84.258 73.9491 84.6403C72.5282 85.0227 71.996 86.2725 72.7618 87.4331C73.5275 88.5931 75.2995 89.2234 76.7204 88.8411Z" fill="black"/>
<path d="M81.9846 96.8219C83.4055 96.4395 83.9377 95.1891 83.1719 94.0291C82.4069 92.8691 80.6342 92.2388 79.2133 92.6211C77.7923 93.0034 77.2602 94.2533 78.0259 95.4138C78.7917 96.5738 80.5637 97.2042 81.9846 96.8219Z" fill="black"/>
<path d="M78.968 78.8404C80.3889 78.458 80.9204 77.2076 80.1553 76.0476C79.3903 74.8876 77.6176 74.2573 76.1966 74.6391C74.7757 75.0214 74.2436 76.2718 75.0093 77.4318C75.7744 78.5918 77.5471 79.2222 78.968 78.8404Z" fill="black"/>
<path d="M84.2322 86.8206C85.6531 86.4382 86.1845 85.1878 85.4195 84.0278C84.6544 82.8678 82.8817 82.2375 81.4608 82.6193C80.0399 83.0016 79.5077 84.252 80.2735 85.412C81.0385 86.5725 82.8112 87.2029 84.2322 86.8206Z" fill="black"/>
<path d="M39.5811 68.1682C38.8161 67.0082 37.0434 66.3778 35.6224 66.7601C34.2015 67.1425 33.6694 68.3924 34.4351 69.5529C35.2002 70.7129 36.9729 71.3432 38.3938 70.9609C39.8147 70.5786 40.3462 69.3282 39.5811 68.1682Z" fill="black"/>
<path d="M44.8453 76.1489C44.0802 74.9889 42.3075 74.3586 40.8866 74.7409C39.4657 75.1232 38.9335 76.3731 39.6993 77.5336C40.4643 78.6936 42.237 79.324 43.6579 78.9417C45.0788 78.5593 45.6103 77.3089 44.8453 76.1489Z" fill="black"/>
<path d="M50.1096 84.1297C49.3445 82.9697 47.5719 82.3393 46.1509 82.7217C44.73 83.104 44.1986 84.3544 44.9636 85.5144C45.7287 86.6744 47.5014 87.3048 48.9223 86.9224C50.3432 86.5401 50.8747 85.2897 50.1096 84.1297Z" fill="black"/>
<path d="M55.3738 92.1104C54.6087 90.9504 52.836 90.3201 51.4151 90.7024C49.9942 91.0847 49.4627 92.3352 50.2278 93.4952C50.9928 94.6552 52.7655 95.2855 54.1864 94.9032C55.6074 94.5209 56.1395 93.2704 55.3738 92.1104Z" fill="black"/>
<path d="M60.6385 100.091C59.8734 98.9312 58.1007 98.3009 56.6798 98.6832C55.2589 99.0655 54.7267 100.315 55.4925 101.476C56.2575 102.636 58.0302 103.266 59.4511 102.884C60.8714 102.502 61.4035 101.251 60.6385 100.091Z" fill="black"/>
<path d="M65.9026 108.072C65.1376 106.912 63.3649 106.282 61.944 106.664C60.523 107.046 59.9909 108.296 60.7566 109.457C61.5217 110.617 63.2944 111.247 64.7153 110.865C66.1362 110.482 66.6677 109.232 65.9026 108.072Z" fill="black"/>
<path d="M47.0928 66.1476C46.3278 64.9877 44.5551 64.3573 43.1342 64.7396C41.7132 65.122 41.1811 66.3724 41.9468 67.5324C42.7119 68.6924 44.4846 69.3227 45.9055 68.9404C47.3257 68.5581 47.8579 67.3082 47.0928 66.1476Z" fill="black"/>
<path d="M52.357 74.1284C51.5919 72.9684 49.8192 72.338 48.3983 72.7204C46.9774 73.1027 46.4452 74.3531 47.211 75.5131C47.976 76.6731 49.7487 77.3035 51.1697 76.9217C52.5906 76.5388 53.122 75.2884 52.357 74.1284Z" fill="black"/>
<path d="M57.6211 82.1092C56.8561 80.9492 55.0834 80.3188 53.6625 80.7012C52.2416 81.0835 51.7094 82.3334 52.4751 83.4939C53.2402 84.6539 55.0129 85.2843 56.4338 84.9019C57.8547 84.5196 58.3862 83.2692 57.6211 82.1092Z" fill="black"/>
<path d="M62.8853 90.0899C62.1202 88.9299 60.3476 88.2996 58.9266 88.6819C57.5057 89.0642 56.9736 90.3141 57.7393 91.4746C58.5044 92.6346 60.2771 93.265 61.698 92.8827C63.1189 92.5003 63.6504 91.2499 62.8853 90.0899Z" fill="black"/>
<path d="M68.1495 98.0707C67.3844 96.9107 65.6117 96.2803 64.1908 96.6621C62.7699 97.0445 62.2377 98.2949 63.0035 99.4549C63.7685 100.615 65.5412 101.245 66.9621 100.863C68.383 100.481 68.9145 99.2307 68.1495 98.0707Z" fill="black"/>
<path d="M73.4136 106.051C72.6485 104.891 70.8758 104.261 69.4549 104.643C68.034 105.025 67.5025 106.276 68.2676 107.436C69.0326 108.596 70.8053 109.226 72.2262 108.844C73.6471 108.461 74.1793 107.211 73.4136 106.051Z" fill="black"/>
<path d="M54.6038 64.1271C53.8387 62.9671 52.066 62.3368 50.6451 62.7191C49.2242 63.1014 48.6921 64.3513 49.4578 65.5119C50.2229 66.6719 51.9956 67.3022 53.4165 66.9199C54.8374 66.5375 55.3689 65.2871 54.6038 64.1271Z" fill="black"/>
<path d="M59.8677 72.1079C59.1027 70.9479 57.33 70.3176 55.9091 70.6999C54.4881 71.0822 53.956 72.3321 54.7217 73.4926C55.4868 74.6526 57.2595 75.283 58.6804 74.9007C60.1013 74.5183 60.6335 73.2679 59.8677 72.1079Z" fill="black"/>
<path d="M65.1329 80.0887C64.3678 78.9287 62.5951 78.2983 61.1742 78.6806C59.7533 79.063 59.2211 80.3129 59.9869 81.4734C60.7519 82.6334 62.5246 83.2637 63.9455 82.8814C65.3665 82.4991 65.8979 81.2486 65.1329 80.0887Z" fill="black"/>
<path d="M70.397 88.0694C69.632 86.9094 67.8593 86.279 66.4384 86.6614C65.0174 87.0437 64.4853 88.2941 65.251 89.4541C66.0161 90.6141 67.7888 91.2445 69.2097 90.8621C70.6306 90.4798 71.1621 89.2294 70.397 88.0694Z" fill="black"/>
<path d="M75.6612 96.0502C74.8961 94.8902 73.1234 94.2598 71.7025 94.6416C70.2816 95.0239 69.7494 96.2744 70.5152 97.4344C71.2802 98.5943 73.0529 99.2247 74.4739 98.8424C75.8948 98.46 76.4262 97.2102 75.6612 96.0502Z" fill="black"/>
<path d="M80.9253 104.03C80.1603 102.87 78.3876 102.24 76.9667 102.622C75.5457 103.005 75.0136 104.255 75.7794 105.415C76.5444 106.575 78.3171 107.205 79.738 106.823C81.1589 106.441 81.6904 105.191 80.9253 104.03Z" fill="black"/>
<path d="M6.57447 69.34C6.48048 73.7829 7.21789 78.2062 8.67543 82.4714C10.0846 86.7475 12.1123 90.8865 14.5291 94.8718C16.9763 98.8462 19.6945 102.727 22.6863 106.471C25.6732 110.212 28.9664 113.803 32.7225 117.063C36.4331 120.347 40.6343 123.305 45.3663 125.624C50.0672 127.985 55.4551 129.403 60.5527 131.454C63.1112 132.458 65.5681 133.671 67.8121 135.069C70.052 136.474 72.1239 138.03 74.0197 139.699C77.8021 143.051 80.977 146.753 84.0062 150.504C82.3136 148.722 80.6833 146.906 78.939 145.161C77.1911 143.42 75.3742 141.721 73.4122 140.139C71.475 138.539 69.3941 137.052 67.1604 135.73C64.9198 134.413 62.5196 133.298 59.9777 132.366C54.9133 130.502 49.4784 129.037 44.5571 126.649C39.6467 124.287 35.2928 121.28 31.4654 117.944C27.6622 114.582 24.3608 110.909 21.3821 107.104C18.4256 103.292 15.6473 99.3877 13.3535 95.2947C11.0522 91.2104 9.13364 86.9809 7.87513 82.6225C6.6733 78.262 6.09967 73.7731 6.57447 69.34Z" fill="#152F42"/>
<path d="M56.7681 74.7387C57.5594 72.9105 58.4288 71.1049 59.2954 69.2951C60.236 67.5129 61.1856 65.7301 62.1698 63.9582C63.1878 62.1998 64.2673 60.4636 65.3191 58.7144L68.7291 53.5691C73.4044 46.7533 79.095 40.4058 84.9169 34.1824C90.7602 27.9643 96.9926 21.9792 103.584 16.2556C110.218 10.5634 117.174 5.10786 124.517 0L124.748 0.192792C117.784 5.60175 111.113 11.23 104.856 17.1248C98.5566 22.9886 92.6352 29.094 87.1187 35.4079C81.5802 41.7163 76.7045 48.3427 71.6621 54.8797L67.944 59.8197C66.7276 61.4773 65.5396 63.1485 64.2894 64.7976C63.1152 66.4763 61.9065 68.1443 60.6887 69.8128C59.509 71.4949 58.3314 73.1818 57.0763 74.8454L56.7681 74.7387Z" fill="#DAE4F2"/>
<path d="M78.0957 100.3C79.7246 99.1066 81.4075 97.9634 83.0903 96.8148C84.8147 95.7111 86.5466 94.6107 88.3013 93.533C90.0719 92.4722 91.8826 91.4546 93.676 90.4148L99.2001 87.4591C106.638 83.5903 114.641 80.4509 122.65 77.4042C130.674 74.3704 138.865 71.6221 147.191 69.1689C155.536 66.7585 163.998 64.6085 172.582 62.8355L172.678 63.0895C164.259 65.2654 155.947 67.6715 147.815 70.3987C139.662 73.0832 131.67 76.0525 123.87 79.2936C116.055 82.5212 108.592 86.2124 100.989 89.7043L95.3112 92.3682C93.4259 93.2671 91.5578 94.1883 89.649 95.0662C87.7823 95.9922 85.8921 96.895 83.9936 97.7945C82.1131 98.7135 80.2333 99.6373 78.2989 100.511L78.0957 100.3Z" fill="#DAE4F2"/>
<path d="M70.054 95.4442C70.6704 94.5387 71.3553 93.6695 72.0402 92.796C72.7686 91.9512 73.5054 91.1075 74.2732 90.2805C75.0507 89.4606 75.8807 88.6754 76.6886 87.8712L79.2706 85.5702C80.1766 84.8369 81.0896 84.1069 82.0281 83.398C82.9915 82.7097 83.9749 82.0393 84.9681 81.3786L88.0352 79.4794L91.1479 77.6344C95.3243 75.2061 99.6686 72.9679 104.154 70.9349C108.668 68.9409 113.298 67.1192 118.072 65.5828L118.217 65.8222C113.686 67.7355 109.268 69.7874 105.046 72.0581C100.794 74.2892 96.7134 76.7072 92.8266 79.2931L89.9613 81.2752L87.1907 83.3347C86.286 84.036 85.373 84.7281 84.4394 85.4018C83.5312 86.0971 82.5969 86.7713 81.6563 87.4423L76.0452 91.5201C75.1267 92.2171 74.1778 92.8962 73.2199 93.5748C72.2752 94.262 71.3318 94.9535 70.3187 95.6088L70.054 95.4442Z" fill="#DAE4F2"/>
<path d="M62.9053 87.412C63.4879 86.2455 64.1465 85.1045 64.8058 83.9575C65.537 82.8462 66.2772 81.7328 67.054 80.6345C67.8605 79.5525 68.723 78.4965 69.5655 77.427L72.3112 74.3396C73.2899 73.3491 74.2705 72.357 75.2892 71.3909C76.3397 70.447 77.4089 69.515 78.4974 68.5987L81.8651 65.931L85.2937 63.3219C89.8972 59.8738 94.69 56.604 99.5789 53.4414C104.507 50.3129 109.5 47.2634 114.578 44.3012L114.791 44.5064C110.055 47.7957 105.296 51.0569 100.688 54.4389C96.0432 57.7856 91.5164 61.225 87.2115 64.8127C82.8866 68.3924 79.0184 72.2579 74.9637 75.9772L71.9698 78.8068C70.9871 79.7599 70.0354 80.7331 69.0216 81.6765C68.0775 82.6561 67.1038 83.6249 66.1169 84.5932C65.1687 85.5805 64.2232 86.5737 63.199 87.5414L62.9053 87.412Z" fill="#DAE4F2"/>
<path d="M130.969 100.197C130.549 101.195 130.039 102.086 129.441 102.871C128.842 103.656 128.184 104.351 127.466 104.957C126.766 105.551 126.028 106.061 125.252 106.487C124.476 106.913 123.703 107.261 122.932 107.53C122.174 107.799 121.434 107.996 120.713 108.119C120.004 108.242 119.357 108.304 118.773 108.304H108.041L109.884 103.931H120.616C121.244 103.886 121.838 103.774 122.401 103.595C122.98 103.404 123.512 103.152 123.997 102.838C124.483 102.524 124.915 102.148 125.294 101.711C125.678 101.262 125.988 100.758 126.224 100.197L127.06 98.2125C127.231 97.663 127.316 97.1585 127.315 96.6987C127.314 96.239 127.212 95.8466 127.008 95.5214C126.817 95.1963 126.522 94.944 126.123 94.7646C125.728 94.5739 125.221 94.4786 124.6 94.4786H113.905C113.272 94.4786 112.728 94.63 112.271 94.9328C111.815 95.2355 111.467 95.6728 111.226 96.2446L103.647 114.224H98.902L106.48 96.2446C106.953 95.1234 107.574 94.1703 108.342 93.3854C109.123 92.6005 109.944 91.967 110.804 91.4849C111.677 91.0027 112.547 90.6551 113.416 90.4421C114.289 90.2178 115.054 90.1057 115.711 90.1057H126.444C127.514 90.1057 128.421 90.2346 129.164 90.4925C129.912 90.7392 130.519 91.0756 130.984 91.5017C131.466 91.9165 131.817 92.3987 132.035 92.9481C132.266 93.4975 132.4 94.075 132.437 94.6805C132.49 95.2747 132.454 95.8802 132.328 96.4969C132.207 97.1024 132.033 97.6742 131.806 98.2125L130.969 100.197ZM150.884 108.203C150.629 108.808 150.237 109.464 149.708 110.171C149.184 110.866 148.533 111.516 147.754 112.122C146.993 112.716 146.107 113.215 145.097 113.619C144.1 114.022 143.005 114.224 141.812 114.224H133.252C132.595 114.224 131.928 114.118 131.251 113.905C130.587 113.692 130.025 113.35 129.567 112.879C129.125 112.396 128.846 111.774 128.729 111.012C128.617 110.238 128.793 109.302 129.256 108.203C129.511 107.597 129.903 106.942 130.432 106.235C130.961 105.529 131.606 104.878 132.368 104.284C133.146 103.679 134.034 103.174 135.032 102.77C136.041 102.367 137.143 102.165 138.335 102.165H146.895L145.137 106.336H136.577C135.932 106.336 135.355 106.521 134.846 106.891C134.342 107.25 133.977 107.698 133.75 108.237C133.509 108.808 133.521 109.257 133.785 109.582C134.066 109.896 134.487 110.053 135.047 110.053H143.57C144.215 110.053 144.79 109.874 145.294 109.515C145.798 109.156 146.164 108.708 146.39 108.169L148.964 102.064C149.205 101.492 149.201 101.038 148.954 100.702C148.718 100.365 148.309 100.197 147.725 100.197H137.303L139.054 96.0428H149.476C150.133 96.0428 150.794 96.1493 151.458 96.3624C152.135 96.5754 152.694 96.923 153.136 97.4051C153.594 97.8761 153.88 98.4984 153.992 99.2721C154.108 100.035 153.935 100.965 153.472 102.064L150.884 108.203ZM176.633 108.085C176.316 108.836 175.927 109.515 175.465 110.12C175.007 110.715 174.511 111.242 173.977 111.701C173.447 112.15 172.889 112.537 172.301 112.862C171.719 113.176 171.136 113.434 170.552 113.635C169.98 113.837 169.417 113.989 168.864 114.09C168.327 114.179 167.834 114.224 167.383 114.224H158.823C158.008 114.224 157.318 114.129 156.753 113.938C156.189 113.748 155.723 113.495 155.357 113.181C155.007 112.856 154.743 112.486 154.565 112.071C154.399 111.656 154.301 111.225 154.272 110.776C154.246 110.317 154.276 109.857 154.36 109.397C154.461 108.926 154.597 108.489 154.767 108.085L157.262 102.165C157.735 101.044 158.353 100.096 159.117 99.3225C159.898 98.5376 160.719 97.9041 161.579 97.422C162.457 96.9286 163.329 96.5754 164.198 96.3624C165.067 96.1493 165.829 96.0428 166.486 96.0428H175.047L173.203 100.416H164.68C164.047 100.416 163.503 100.567 163.046 100.87C162.595 101.161 162.249 101.593 162.008 102.165L159.527 108.052C159.276 108.646 159.245 109.094 159.434 109.397C159.635 109.7 160.046 109.851 160.666 109.851H169.226C169.871 109.851 170.416 109.7 170.86 109.397C171.304 109.094 171.646 108.657 171.887 108.085L180.203 88.3565H184.948L176.633 108.085ZM204.924 102.064C204.669 102.669 204.277 103.325 203.748 104.032C203.224 104.727 202.572 105.377 201.794 105.983C201.032 106.577 200.147 107.076 199.137 107.48C198.14 107.883 197.045 108.085 195.852 108.085H187.292L189.043 103.931H197.603C198.248 103.931 198.823 103.752 199.327 103.393C199.835 103.023 200.203 102.569 200.43 102.03C200.671 101.459 200.659 101.01 200.395 100.685C200.143 100.36 199.737 100.197 199.177 100.197H190.617C189.972 100.197 189.395 100.382 188.886 100.752C188.382 101.111 188.017 101.559 187.79 102.098L185.216 108.203C184.971 108.786 184.974 109.24 185.226 109.565C185.491 109.89 185.915 110.053 186.499 110.053H195.023L193.265 114.224H184.704C184.047 114.224 183.38 114.118 182.704 113.905C182.039 113.692 181.477 113.35 181.019 112.879C180.577 112.396 180.298 111.774 180.181 111.012C180.069 110.238 180.245 109.302 180.708 108.203L183.296 102.064C183.551 101.459 183.941 100.808 184.465 100.113C184.994 99.4066 185.639 98.7563 186.4 98.162C187.179 97.5565 188.067 97.0519 189.064 96.6483C190.074 96.2446 191.175 96.0428 192.368 96.0428H200.928C201.585 96.0428 202.246 96.1493 202.91 96.3624C203.587 96.5754 204.146 96.923 204.588 97.4051C205.047 97.8761 205.332 98.4984 205.444 99.2721C205.561 100.035 205.387 100.965 204.924 102.064ZM211.663 114.224H209.545C208.864 114.224 208.179 114.118 207.49 113.905C206.813 113.692 206.242 113.344 205.776 112.862C205.314 112.368 205.028 111.735 204.916 110.961C204.808 110.176 204.994 109.218 205.471 108.085L213.786 88.3565H218.532L210.216 108.085C209.99 108.623 209.99 109.055 210.218 109.38C210.451 109.694 210.841 109.851 211.388 109.851H213.506L211.663 114.224ZM219.6 112.021C219.472 112.324 219.285 112.61 219.038 112.879C218.807 113.137 218.54 113.366 218.236 113.568C217.949 113.759 217.636 113.91 217.296 114.022C216.969 114.134 216.647 114.19 216.331 114.19C216.002 114.19 215.716 114.134 215.471 114.022C215.238 113.91 215.053 113.759 214.914 113.568C214.792 113.366 214.725 113.137 214.712 112.879C214.704 112.61 214.763 112.324 214.891 112.021C215.014 111.729 215.19 111.455 215.421 111.197C215.656 110.928 215.917 110.698 216.204 110.507C216.508 110.305 216.824 110.148 217.151 110.036C217.495 109.913 217.831 109.851 218.16 109.851C218.476 109.851 218.748 109.913 218.976 110.036C219.221 110.148 219.404 110.305 219.526 110.507C219.665 110.698 219.738 110.928 219.747 111.197C219.772 111.455 219.723 111.729 219.6 112.021Z" fill="white"/>
<path d="M164.57 122.05H168.352L162.006 137.105H158.225L164.57 122.05ZM150.803 137.105H147.022L153.367 122.05H157.148L150.803 137.105ZM161.107 130.932H153.124L154.366 127.986H162.348L161.107 130.932ZM170.84 137.277C169.798 137.277 168.943 137.091 168.275 136.718C167.623 136.345 167.232 135.779 167.101 135.019C166.976 134.244 167.164 133.262 167.666 132.072L170.422 125.534H174.063L171.515 131.577C171.11 132.538 171.029 133.248 171.271 133.707C171.535 134.151 172.072 134.373 172.881 134.373C173.441 134.373 173.984 134.266 174.511 134.051C175.043 133.821 175.53 133.477 175.973 133.018C176.421 132.545 176.793 131.957 177.09 131.255L179.501 125.534H183.142L178.265 137.105H174.811L176.152 133.922L176.393 134.847C175.634 135.65 174.755 136.259 173.755 136.675C172.776 137.076 171.805 137.277 170.84 137.277ZM188.988 137.277C187.883 137.277 187.024 137.062 186.412 136.632C185.8 136.202 185.468 135.549 185.417 134.675C185.371 133.786 185.632 132.667 186.201 131.319C186.775 129.957 187.464 128.839 188.268 127.964C189.088 127.09 189.986 126.437 190.96 126.007C191.935 125.577 192.952 125.362 194.01 125.362C195.192 125.362 196.148 125.606 196.876 126.093C197.619 126.581 198.076 127.269 198.246 128.158C198.432 129.047 198.268 130.101 197.754 131.319C197.246 132.524 196.525 133.57 195.59 134.459C194.671 135.348 193.631 136.044 192.47 136.546C191.331 137.033 190.17 137.277 188.988 137.277ZM181.638 137.105L188.364 121.146H192.006L189.168 127.878L187.493 131.298L186.113 134.739L185.116 137.105H181.638ZM189.518 134.524C190.125 134.524 190.716 134.395 191.291 134.137C191.883 133.879 192.418 133.513 192.897 133.04C193.399 132.552 193.788 131.979 194.066 131.319C194.35 130.645 194.444 130.072 194.348 129.599C194.267 129.126 194.04 128.76 193.667 128.502C193.309 128.244 192.826 128.115 192.219 128.115C191.612 128.115 191.013 128.244 190.422 128.502C189.831 128.76 189.296 129.126 188.816 129.599C188.337 130.072 187.955 130.645 187.671 131.319C187.393 131.979 187.291 132.552 187.366 133.04C187.446 133.513 187.674 133.879 188.047 134.137C188.421 134.395 188.911 134.524 189.518 134.524Z" fill="#2EE5D3"/>
</svg>
