<svg width="10" height="20" viewBox="0 0 10 20" fill="none" xmlns="http://www.w3.org/2000/svg">
<path d="M10 12.9504L6 16.0004L7.5 11.0504L3.5 8.20036H8.4L10 3.00036V0.000363439C8.67495 -0.0114048 7.31667 0.262863 6.1 0.787863C4.88333 1.31286 3.825 2.02536 2.925 2.92536C2.025 3.82536 1.3125 4.8837 0.7875 6.10036C0.2625 7.31703 0 8.61703 0 10.0004C0 11.3837 0.2625 12.6837 0.7875 13.9004C1.3125 15.117 2.025 16.1754 2.925 17.0754C3.825 17.9754 4.88333 18.6879 6.1 19.2129C7.31667 19.7379 8.67495 20.0121 10 20.0004V12.9504Z" fill="#92C650"/>
</svg>
