<svg width="396" height="191" viewBox="0 0 396 191" fill="none" xmlns="http://www.w3.org/2000/svg">
<path d="M56.522 190.338H0V162.361L56.522 115.402L168.327 25.7729H395.01V190.338H56.522Z" fill="#1A8FCD" fill-opacity="0.17"/>
<path d="M190.799 190.456L252.784 25.9119H257.092L207.54 190.456H190.799Z" fill="white"/>
<path d="M395.499 83.4324H233.07V87.4126H395.499V83.4324Z" fill="white"/>
<path opacity="0.6" d="M160.851 150.189C191.102 138.558 207.037 155.434 221.117 151.754C248.264 144.811 265.973 146.085 289.111 150.72C305.942 152.303 311.539 161.347 306.395 173.425C289.337 191.982 248.047 172.129 224.701 169.966C198.481 166.91 176.23 178.219 152.992 165.783C147.205 161.939 148.25 155.138 160.851 150.189Z" fill="#6EBCE6" fill-opacity="0.14"/>
<g filter="url(#filter0_d_1149_821)">
<path d="M174.612 103.08C167.277 106.674 161.068 112.384 157.081 118.688C156.434 128.021 157.123 137.439 159.009 146.528C157.501 148.656 155.997 150.785 154.237 153.376C152.905 154.679 151.574 155.983 150.242 157.287C149.822 157.697 149.385 158.148 149.301 158.721C149.2 159.443 149.822 160.187 150.654 160.426C153.271 161.316 156.245 161.17 158.757 160.036C161.27 158.903 163.29 156.791 165.021 154.135C165.689 153.786 166.353 153.441 166.899 152.762C166.374 147.962 166.181 143.129 166.277 137.427C168.479 133.824 169.218 129.414 168.247 125.308C172.911 121.47 178.922 119.622 184.695 117.64C190.467 115.658 196.394 113.306 200.385 108.814C201.503 107.559 202.486 106.004 202.318 104.355C202.192 103.088 201.394 101.967 200.427 101.102C196.852 97.8894 191.282 97.8081 186.572 99.0509C181.867 100.306 177.234 101.796 174.612 103.08Z" fill="#FFB387"/>
<path d="M158.862 146.598C158.816 146.082 159.24 145.594 159.757 145.464C160.273 145.339 160.841 145.533 161.231 145.887C161.622 146.24 161.853 146.732 161.975 147.235C162.105 147.779 162.189 148.45 162.718 148.681C163.126 148.856 163.617 148.657 163.928 148.344C164.239 148.031 164.428 147.629 164.68 147.272C164.874 146.996 165.163 146.723 165.508 146.76C165.815 146.792 166.033 147.065 166.167 147.333C166.819 148.653 166.151 150.375 164.844 151.11C163.542 151.845 161.794 151.638 160.58 150.769C159.366 149.895 159.026 148.454 158.862 146.598Z" fill="black"/>
<path d="M156.723 146.267C157.458 145.24 159.269 145.207 160.042 146.21C160.558 146.885 160.592 147.802 161.037 148.521C161.533 149.321 162.554 149.78 163.507 149.634C164.461 149.484 165.28 148.737 165.49 147.827C165.625 147.242 165.524 146.625 165.688 146.044C165.852 145.463 166.461 144.919 167.036 145.134C167.41 145.272 167.608 145.682 167.637 146.068C167.666 146.454 167.566 146.836 167.524 147.222C167.372 148.676 168.074 150.061 168.566 151.441C169.057 152.822 169.309 154.475 168.003 156.047C163.73 157.245 160.92 161.286 156.819 162.955C153.727 164.214 150.232 163.995 146.888 163.755C146.128 163.703 145.246 163.573 144.872 162.931C144.468 162.237 144.905 161.38 145.359 160.714C147.287 157.895 149.644 155.353 152.148 152.989C153.526 150.617 155.185 148.424 156.723 146.267Z" fill="#28738F"/>
<path d="M145.275 162.279C144.733 160.378 145.59 158.214 147.233 157.044C148.875 155.874 151.182 155.7 153.047 156.496C154.912 157.292 156.311 158.989 156.828 160.894C153.618 163.485 148.917 164.208 145.275 162.279Z" fill="#F04741"/>
<path d="M149.426 155.512C150.392 155.045 151.539 155.163 152.602 155.349C153.664 155.536 154.761 155.78 155.807 155.532C155.047 154.805 154.009 154.362 152.942 154.306C151.875 154.253 150.791 154.59 149.426 155.512Z" fill="white"/>
<path d="M151.659 153.025C153.667 152.075 155.961 154.248 158.04 153.756C156.137 152.087 153.978 151.425 151.659 153.025Z" fill="white"/>
<path d="M153.421 150.845C155.429 149.895 157.723 152.067 159.803 151.576C157.9 149.907 155.74 149.245 153.421 150.845Z" fill="white"/>
<path d="M154.85 148.819C156.408 147.869 158.278 149.396 159.807 149.55C158.324 147.881 156.648 147.219 154.85 148.819Z" fill="white"/>
<path d="M145.38 160.722C147.388 161.912 149.926 162.018 152.22 161.506C154.513 160.994 156.627 159.922 158.71 158.862C160.681 157.859 162.651 156.856 164.617 155.848C166.23 155.024 167.873 154.183 169.141 153.018C169.62 153.834 169.217 154.91 168.52 155.564C167.822 156.218 166.894 156.575 166.037 157.014C164.453 157.826 163.075 158.955 161.714 160.089C160.407 161.177 159.088 162.286 157.555 163.049C153.766 164.942 149.233 164.507 144.977 164.024C144.406 162.887 144.54 161.445 145.38 160.722Z" fill="black"/>
<path d="M172.29 104.546C171.681 106.638 173.042 108.859 174.857 110.143C176.671 111.426 178.885 112.035 180.944 112.904C183.002 113.773 185.061 115.053 185.872 116.848C189.732 116.665 193.492 114.976 196.122 112.238C189.115 107.6 180.864 104.733 172.29 104.546Z" fill="black"/>
<path d="M157.656 122.083C158.088 123.001 159.033 123.675 160.067 123.809C160.298 123.837 160.55 123.849 160.735 123.988C161.042 124.219 161.004 124.719 160.731 124.987C160.458 125.255 160.033 125.32 159.643 125.287C158.949 125.226 158.29 124.865 157.878 124.321C157.462 123.78 157.303 123.062 157.656 122.083Z" fill="black"/>
<path d="M166.524 126.94C167.179 126.818 167.763 126.364 168.02 125.767C168.276 125.17 168.205 124.451 167.835 123.915C167.709 123.732 167.537 123.561 167.318 123.496C167.1 123.431 166.827 123.5 166.717 123.695C166.554 123.992 166.831 124.333 167.087 124.56C167.343 124.792 167.621 125.125 167.465 125.425C167.284 125.771 166.738 125.685 166.406 125.901C166.201 126.035 166.096 126.295 166.154 126.526C166.205 126.762 166.419 126.961 166.524 126.94Z" fill="black"/>
<path d="M191.931 87.9879C185.596 93.5926 178.845 98.7546 171.619 103.612C171.703 105.825 173.291 107.787 175.253 108.924C177.219 110.061 179.521 110.508 181.786 110.833C184.05 111.158 186.356 111.39 188.503 112.161C191.818 113.355 194.901 115.849 198.46 115.532C203.429 113.343 208.114 110.549 212.466 107.227C214.873 105.062 218.1 103.77 221.385 103.653C223.758 103.567 226.195 104.103 228.153 105.403C230.11 106.703 231.971 108.482 232.362 110.728C233.58 107.332 234.37 104.266 235.588 100.871C235.967 99.8187 236.324 98.5922 235.534 97.5768C236.836 96.9961 237.534 95.5299 237.529 94.145C237.525 92.756 236.937 91.436 236.252 90.2176C235.71 89.247 235 88.2357 233.509 87.9392C221.994 85.8598 210.189 88.0814 198.527 89.1576C196.22 89.3647 193.578 89.4297 191.931 87.9879Z" fill="#28738F"/>
<path d="M190.924 90.0866C192.722 94.9156 198.133 98.2378 203.422 97.7464C204.766 97.6205 206.388 97.3768 207.24 98.3921C208.118 99.444 207.455 100.991 206.766 102.169C207.547 101.674 208.627 102.648 208.463 103.538C208.299 104.427 207.387 105.008 206.488 105.256C205.589 105.504 204.632 105.528 203.762 105.861C202.892 106.194 202.09 106.974 202.191 107.871C202.275 108.623 202.985 109.195 203.741 109.39C204.497 109.585 205.295 109.48 206.068 109.374C207.816 109.134 209.601 108.887 211.173 108.115C212.748 107.343 214.101 105.942 214.298 104.245C214.412 103.262 214.139 102.275 214.176 101.288C214.281 98.4652 216.974 96.2355 219.823 95.602C222.671 94.9643 225.641 95.5492 228.502 96.1381C227.624 93.884 224.78 92.5519 222.402 93.2829C224.15 92.2473 226.259 91.7883 228.296 92.0036C227.632 90.8258 226.254 90.0582 224.868 90.0907C227.439 89.4124 230.119 89.1241 232.779 89.2337C232.283 86.9919 229.699 85.8425 227.372 85.3958C215.378 83.093 203.51 90.3262 190.924 90.0866Z" fill="black"/>
<path d="M177.603 102.211C182.191 106.488 190.404 104.985 194.991 109.262C195.273 109.526 195.55 109.814 195.916 109.952C196.281 110.09 196.768 110.017 196.949 109.68C197.105 109.396 196.987 109.043 196.844 108.754C195.794 106.646 193.462 105.383 191.11 104.839C188.757 104.295 186.308 104.348 183.896 104.137C181.485 103.925 178.99 103.397 177.603 102.211Z" fill="black"/>
<path d="M229.805 98.7749C231.33 100.753 232.545 102.95 233.393 105.277C233.943 103.852 233.876 102.207 233.208 100.83C232.536 99.445 231.276 98.3444 229.805 98.7749Z" fill="black"/>
<path d="M187.121 95.8129C188.347 98.3796 189.965 100.768 191.901 102.888C192.187 103.2 192.544 103.529 192.968 103.493C193.485 103.448 193.792 102.855 193.704 102.364C193.62 101.872 193.263 101.466 192.922 101.089C191.049 99.0092 189.171 96.9297 187.121 95.8129Z" fill="black"/>
<path d="M260.488 156.043C255.942 150.171 252.594 143.53 248.662 137.26C244.729 130.989 240.037 124.921 233.601 121.034C231.521 119.779 229.043 118.464 228.589 116.132C230.421 114.11 231.395 112.416 232.374 110.723C231.534 108.026 229.265 104.817 225.963 103.148C222.661 101.479 217.969 102.165 215.171 104.541C213.541 105.926 212.877 107.372 212.377 109.411C211.873 111.45 211.81 113.561 211.508 115.487C211.634 118.001 212.591 120.47 214.209 122.444C215.822 124.418 218.086 125.892 220.72 126.355C227.711 135.854 243.885 148.664 247.384 152.494C249.977 155.333 252.216 158.635 252.892 162.363C253.568 166.091 252.413 170.299 249.166 172.618C249.733 172.874 250.287 173.113 250.838 173.333C256.362 175.53 262.735 172.845 264.638 167.371C264.71 167.167 264.764 166.985 264.789 166.834C265.012 165.624 265.592 164.507 266.041 163.167C265.02 160.271 262.336 158.431 260.488 156.043Z" fill="#FFB387"/>
<path d="M252.14 159.829C252.199 158.847 253.044 157.965 254.048 157.831C255.858 157.588 257.505 159.5 259.278 159.066C259.744 158.952 260.152 158.684 260.584 158.489C261.021 158.294 261.538 158.176 261.975 158.371C262.412 158.566 262.66 159.05 262.668 159.517C262.672 159.984 262.471 160.431 262.21 160.824C261.126 162.449 258.963 163.241 256.98 162.985C254.997 162.725 253.224 161.535 252.14 159.829Z" fill="black"/>
<path d="M251.579 159.902C251.503 159.374 251.944 158.867 252.474 158.712C253.003 158.558 253.579 158.684 254.079 158.911C254.578 159.139 255.028 159.455 255.515 159.707C256.729 160.341 258.225 160.532 259.515 160.052C260.804 159.577 261.821 158.375 261.918 157.031C262.804 157.055 263.548 157.705 264.035 158.428C264.522 159.151 264.833 159.971 265.363 160.662C266.115 161.649 267.24 162.294 268.139 163.159C269.736 164.695 270.555 166.953 270.463 169.199C268.438 169.783 266.568 170.852 265.064 172.285C264.216 173.093 263.464 174.036 262.413 174.58C261.418 175.1 260.263 175.213 259.137 175.319C254.822 175.717 250.478 176.119 246.26 175.77C245.559 174.962 245.445 173.788 245.756 172.777C246.067 171.765 246.748 170.9 247.504 170.141C248.26 169.381 249.1 168.703 250.033 167.948C249.899 165.064 250.516 162.152 251.579 159.902Z" fill="#28738F"/>
<path d="M245.594 175.023C245.179 173.91 245.355 172.631 245.935 171.591C246.514 170.552 247.472 169.727 248.548 169.163C250.417 168.184 252.69 167.952 254.732 168.529C256.773 169.11 258.555 170.495 259.575 172.298C259.794 172.688 259.962 173.216 259.643 173.533C259.491 173.679 259.277 173.732 259.067 173.78C254.69 174.767 250.157 175.125 245.594 175.023Z" fill="#F04741"/>
<path d="M248.852 168.927C251.587 168.03 254.641 168.058 257.355 169.008C256.309 168.009 254.872 167.4 253.406 167.335C251.936 167.274 250.448 167.758 248.852 168.927Z" fill="white"/>
<path d="M250.165 167.271C251.076 166.312 252.404 165.74 253.748 165.719C255.092 165.699 256.437 166.235 257.378 167.165C256.937 165.658 255.399 164.517 253.777 164.497C252.16 164.472 250.589 165.573 250.165 167.271Z" fill="white"/>
<path d="M250.466 164.797C251.386 163.858 252.722 163.314 254.058 163.338C255.394 163.363 256.709 163.948 257.595 164.914C257.267 163.444 255.734 162.364 254.18 162.356C252.621 162.348 251.151 163.318 250.466 164.797Z" fill="white"/>
<path d="M250.595 162.587C251.398 161.766 252.318 161.555 253.481 161.478C254.645 161.401 256.048 161.458 256.956 162.164C256.565 161.34 255.687 160.853 254.767 160.666C253.981 160.507 253.049 160.54 252.28 160.759C251.511 160.978 250.809 161.531 250.595 162.587Z" fill="white"/>
<path d="M245.495 172.987C249.107 172.24 252.846 172.069 256.514 172.488C258.035 172.662 259.652 172.918 261.038 172.293C262.878 171.46 263.773 169.295 265.617 168.479C266.449 168.11 267.395 168.057 268.264 167.781C269.134 167.504 270.008 166.887 270.041 166.184C270.932 167.021 271.184 168.422 270.533 169.547C267.42 170.502 264.664 172.504 262.962 175.217C257.4 175.895 251.792 176.204 246.188 176.143C245.171 175.554 244.827 174.096 245.495 172.987Z" fill="black"/>
<path d="M213.366 106.687C216.127 104.27 220.336 103.823 223.877 104.944C227.419 106.065 230.456 108.311 232.372 110.728C231.838 108.851 230.99 107.227 229.755 105.688C227.73 103.169 224.365 101.716 221.075 101.935C217.786 102.154 214.656 104.043 213.366 106.687Z" fill="black"/>
<path d="M216.099 124.171C217.439 124.853 219.069 124.979 220.506 124.516C221.943 124.053 223.165 123.005 223.816 121.681C223.972 121.365 224.098 121.028 224.329 120.751C224.556 120.479 224.921 120.272 225.278 120.345C225.694 120.426 225.955 120.861 225.967 121.271C225.98 121.681 225.808 122.075 225.64 122.449C225.035 123.789 224.43 125.125 223.825 126.466C223.606 126.953 223.464 128.18 222.997 128.452C222.527 128.728 221.93 128.147 221.506 127.591C221.061 127.006 220.947 126.332 219.846 126.177C218.439 125.982 216.977 125.556 216.099 124.171Z" fill="black"/>
<path d="M122.077 54.7527C123.047 55.8655 124.11 56.9255 125.379 57.7094C126.648 58.4932 128.147 58.9847 129.651 58.8912C130.769 58.8222 132 58.278 132.264 57.2261C132.437 56.5438 132.151 55.833 131.811 55.2116C130.538 52.9007 128.374 51.065 125.841 50.1431C125.379 49.9766 124.871 49.8344 124.4 49.9847C123.799 50.1715 123.442 50.7766 123.304 51.3737C123.165 51.9666 123.182 52.588 123.039 53.181C122.896 53.7739 122.531 54.375 122.077 54.7527Z" fill="black"/>
<path d="M127.196 0.047529C119.041 -0.362669 109.883 1.6802 109.883 14.1689C109.883 32.5953 123.07 39.4428 123.654 42.3914C124.238 45.3358 123.839 55.9847 123.839 55.9847C125.805 58.45 127.527 56.265 127.527 56.265C127.527 56.265 128.279 56.0863 128.279 42.6432C128.279 39.5687 140.614 33.6472 142.445 16.557C143.689 4.93742 133.258 0.352132 127.196 0.047529ZM134.904 8.60889C135.249 8.41801 135.719 8.47487 136.005 8.7348C136.291 8.99472 136.366 9.44147 136.182 9.7745C135.997 10.1075 135.564 10.3025 135.178 10.2213C134.787 10.1441 134.476 9.807 134.442 9.43335C134.417 9.10032 134.64 8.75104 134.904 8.60889ZM134.904 17.284C135.249 17.0931 135.719 17.1499 136.005 17.4099C136.291 17.6698 136.366 18.1166 136.182 18.4496C135.997 18.7826 135.564 18.9776 135.178 18.8963C134.787 18.8192 134.476 18.4821 134.442 18.1084C134.417 17.7713 134.64 17.4261 134.904 17.284ZM131.581 5.61973C131.926 5.42884 132.396 5.4857 132.682 5.74563C132.968 6.00556 133.043 6.45231 132.859 6.78534C132.674 7.11837 132.241 7.31332 131.855 7.23209C131.464 7.15492 131.153 6.81783 131.124 6.44418C131.094 6.10709 131.317 5.76187 131.581 5.61973ZM128.431 5.41666C128.775 5.22577 129.246 5.28263 129.531 5.54256C129.817 5.80249 129.893 6.24924 129.708 6.58227C129.523 6.9153 129.09 7.11025 128.704 7.02902C128.313 6.95185 128.002 6.61476 127.973 6.24112C127.943 5.90808 128.166 5.56287 128.431 5.41666ZM125.608 6.98841C125.893 6.72442 126.368 6.67162 126.712 6.8625C126.977 7.00465 127.2 7.35393 127.17 7.68696C127.141 8.06061 126.826 8.40176 126.439 8.47487C126.049 8.5561 125.62 8.36521 125.435 8.02812C125.246 7.69508 125.322 7.2524 125.608 6.98841ZM125.608 10.0304C125.893 9.77044 126.368 9.71359 126.712 9.90447C126.977 10.0507 127.2 10.3959 127.17 10.7289C127.141 11.1026 126.826 11.4478 126.439 11.5209C126.049 11.5981 125.62 11.4072 125.435 11.0701C125.246 10.737 125.322 10.2903 125.608 10.0304ZM125.608 13.1211C125.893 12.8611 126.368 12.8043 126.712 12.9952C126.977 13.1414 127.2 13.4866 127.17 13.8196C127.141 14.1933 126.826 14.5385 126.439 14.6116C126.049 14.6888 125.62 14.4979 125.435 14.1608C125.246 13.8277 125.322 13.381 125.608 13.1211ZM122.805 5.59536C123.091 5.33543 123.566 5.27857 123.91 5.46945C124.175 5.6116 124.393 5.96088 124.368 6.29391C124.339 6.66756 124.024 7.00871 123.637 7.08588C123.247 7.16305 122.818 6.97216 122.633 6.63507C122.444 6.30203 122.52 5.85529 122.805 5.59536ZM114.08 18.9491C113.689 19.0263 113.261 18.8354 113.076 18.4983C112.887 18.1653 112.962 17.7226 113.248 17.4586C113.534 17.1987 114.008 17.1418 114.353 17.3327C114.618 17.4749 114.836 17.8241 114.811 18.1572C114.781 18.5308 114.466 18.8679 114.08 18.9491ZM114.08 15.8584C113.689 15.9356 113.261 15.7447 113.076 15.4076C112.887 15.0746 112.962 14.6319 113.248 14.3679C113.534 14.108 114.008 14.0511 114.353 14.242C114.618 14.3842 114.836 14.7334 114.811 15.0665C114.781 15.4401 114.466 15.7772 114.08 15.8584ZM114.08 13.2673C113.689 13.3444 113.261 13.1536 113.076 12.8165C112.887 12.4834 112.962 12.0407 113.248 11.7768C113.534 11.5168 114.008 11.46 114.353 11.6509C114.618 11.793 114.836 12.1423 114.811 12.4753C114.781 12.849 114.466 13.1861 114.08 13.2673ZM116.953 24.7325C116.563 24.8097 116.134 24.6188 115.949 24.2817C115.76 23.9487 115.836 23.506 116.122 23.242C116.407 22.9821 116.882 22.9252 117.226 23.1161C117.491 23.2582 117.714 23.6075 117.684 23.9406C117.655 24.3142 117.34 24.6513 116.953 24.7325ZM117.163 21.8408C116.773 21.918 116.344 21.7271 116.159 21.39C115.97 21.057 116.046 20.6143 116.332 20.3503C116.617 20.0904 117.092 20.0335 117.437 20.2244C117.701 20.3666 117.924 20.7158 117.894 21.0489C117.865 21.4225 117.55 21.7596 117.163 21.8408ZM117.163 18.9491C116.773 19.0263 116.344 18.8354 116.159 18.4983C115.97 18.1653 116.046 17.7226 116.332 17.4586C116.617 17.1987 117.092 17.1418 117.437 17.3327C117.701 17.4749 117.924 17.8241 117.894 18.1572C117.865 18.5308 117.55 18.8679 117.163 18.9491ZM117.163 10.2741C116.773 10.3512 116.344 10.1603 116.159 9.82324C115.97 9.49021 116.046 9.04752 116.332 8.78353C116.617 8.5236 117.092 8.46674 117.437 8.65763C117.701 8.79978 117.924 9.14905 117.894 9.48209C117.865 9.85573 117.55 10.1969 117.163 10.2741ZM120.276 18.9491C119.886 19.0263 119.457 18.8354 119.272 18.4983C119.083 18.1653 119.159 17.7226 119.445 17.4586C119.73 17.1987 120.205 17.1418 120.55 17.3327C120.814 17.4749 121.033 17.8241 121.007 18.1572C120.978 18.5308 120.663 18.8679 120.276 18.9491ZM120.276 13.2673C119.886 13.3444 119.457 13.1536 119.272 12.8165C119.083 12.4834 119.159 12.0407 119.445 11.7768C119.73 11.5168 120.205 11.46 120.55 11.6509C120.814 11.793 121.033 12.1423 121.007 12.4753C120.978 12.849 120.663 13.1861 120.276 13.2673ZM120.486 10.2741C120.096 10.3512 119.667 10.1603 119.482 9.82324C119.293 9.49021 119.369 9.04752 119.655 8.78353C119.94 8.5236 120.415 8.46674 120.76 8.65763C121.024 8.79978 121.243 9.14905 121.217 9.48209C121.188 9.85573 120.873 10.1969 120.486 10.2741ZM120.486 7.28489C120.096 7.36205 119.667 7.17117 119.482 6.83407C119.293 6.50104 119.369 6.05835 119.655 5.79436C119.94 5.53444 120.415 5.47758 120.76 5.66846C121.024 5.81061 121.243 6.15989 121.217 6.49292C121.188 6.86657 120.873 7.20366 120.486 7.28489ZM122.213 15.6066C122.024 15.2736 122.1 14.8309 122.385 14.5669C122.671 14.307 123.146 14.2501 123.49 14.441C123.755 14.5832 123.973 14.9324 123.948 15.2655C123.919 15.6391 123.604 15.9803 123.217 16.0574C122.826 16.1346 122.398 15.9437 122.213 15.6066ZM128.212 34.3823C127.569 35.5845 126.922 37.1887 126.276 38.3909C126.196 38.5371 126.091 38.7077 125.914 38.7321C125.725 38.7605 125.566 38.6102 125.444 38.4681C124.368 37.2415 123.515 35.8322 122.936 34.3336C122.776 34.0859 124.721 34.0534 125.524 34.0818C126.179 34.1102 128.326 34.1711 128.212 34.3823ZM130.128 15.5579C129.943 15.8909 129.51 16.0859 129.124 16.0046C128.733 15.9275 128.422 15.5904 128.393 15.2167C128.363 14.8837 128.586 14.5344 128.851 14.3923C129.195 14.2014 129.666 14.2583 129.951 14.5182C130.237 14.7781 130.313 15.2249 130.128 15.5579ZM131.581 8.60889C131.926 8.41801 132.396 8.47487 132.682 8.7348C132.968 8.99472 133.043 9.44147 132.859 9.7745C132.674 10.1075 132.241 10.3025 131.855 10.2213C131.464 10.1441 131.153 9.807 131.124 9.43335C131.094 9.10032 131.317 8.75104 131.581 8.60889ZM133.069 18.4496C132.884 18.7826 132.451 18.9776 132.065 18.8963C131.674 18.8192 131.363 18.4821 131.334 18.1084C131.304 17.7754 131.527 17.4261 131.792 17.284C132.136 17.0931 132.607 17.1499 132.892 17.4099C133.178 17.6698 133.253 18.1166 133.069 18.4496ZM133.069 12.7677C132.884 13.1008 132.451 13.2957 132.065 13.2145C131.674 13.1373 131.363 12.8002 131.334 12.4266C131.304 12.0935 131.527 11.7443 131.792 11.6021C132.136 11.4112 132.607 11.4681 132.892 11.728C133.178 11.988 133.253 12.4347 133.069 12.7677ZM134.904 20.1757C135.249 19.9848 135.719 20.0416 136.005 20.3016C136.291 20.5615 136.366 21.0082 136.182 21.3413C135.997 21.6743 135.564 21.8693 135.178 21.788C134.787 21.7109 134.476 21.3738 134.442 21.0001C134.417 20.663 134.64 20.3178 134.904 20.1757ZM136.392 24.233C136.207 24.566 135.774 24.761 135.388 24.6797C134.997 24.6026 134.686 24.2655 134.652 23.8918C134.627 23.5588 134.85 23.2095 135.115 23.0674C135.459 22.8765 135.93 22.9333 136.215 23.1933C136.501 23.4532 136.576 23.8999 136.392 24.233ZM139.265 18.4496C139.08 18.7826 138.648 18.9776 138.261 18.8963C137.87 18.8192 137.56 18.4821 137.53 18.1084C137.501 17.7754 137.723 17.4261 137.988 17.284C138.333 17.0931 138.803 17.1499 139.089 17.4099C139.374 17.6698 139.45 18.1166 139.265 18.4496ZM139.265 15.3589C139.08 15.6919 138.648 15.8869 138.261 15.8056C137.87 15.7285 137.56 15.3914 137.53 15.0177C137.501 14.6847 137.723 14.3354 137.988 14.1933C138.333 14.0024 138.803 14.0592 139.089 14.3192C139.374 14.5791 139.45 15.0259 139.265 15.3589ZM139.265 12.7677C139.08 13.1008 138.648 13.2957 138.261 13.2145C137.87 13.1373 137.56 12.8002 137.53 12.4266C137.501 12.0935 137.723 11.7443 137.988 11.6021C138.333 11.4112 138.803 11.4681 139.089 11.728C139.374 11.988 139.45 12.4347 139.265 12.7677Z" fill="black"/>
<path d="M127.575 0.753451C123.702 0.497585 110.237 0.473216 110.935 13.1731C111.989 32.3427 123.071 39.1171 123.655 42.1184C124.239 45.1157 123.84 55.9636 123.84 55.9636C125.806 58.4736 127.529 56.2479 127.529 56.2479C127.529 56.2479 127.588 56.0489 128.281 42.3743C128.436 39.3202 140.044 31.965 141.396 15.8089C142.388 3.95787 131.444 1.00932 127.575 0.753451ZM134.906 7.71463C135.25 7.51968 135.721 7.57654 136.006 7.84459C136.292 8.10858 136.368 8.56345 136.183 8.90461C135.998 9.2417 135.565 9.44071 135.179 9.35948C134.788 9.28232 134.477 8.9371 134.444 8.55533C134.418 8.21418 134.641 7.86084 134.906 7.71463ZM134.906 16.5481C135.25 16.3532 135.721 16.41 136.006 16.6781C136.292 16.9421 136.368 17.3969 136.183 17.7381C135.998 18.0752 135.565 18.2742 135.179 18.1929C134.788 18.1158 134.477 17.7706 134.444 17.3888C134.418 17.0476 134.641 16.6943 134.906 16.5481ZM131.583 4.66861C131.927 4.47366 132.398 4.53052 132.683 4.79857C132.969 5.06256 133.045 5.51743 132.86 5.85859C132.675 6.19568 132.242 6.39469 131.856 6.31346C131.465 6.23629 131.154 5.89108 131.125 5.50931C131.095 5.16815 131.318 4.81481 131.583 4.66861ZM128.432 4.46554C128.776 4.27059 129.247 4.32745 129.533 4.5955C129.818 4.85949 129.894 5.31436 129.709 5.65552C129.524 5.99261 129.091 6.19162 128.705 6.11039C128.314 6.03323 128.003 5.68801 127.974 5.30624C127.945 4.96509 128.167 4.61175 128.432 4.46554ZM125.609 6.06572C125.894 5.79767 126.369 5.74487 126.714 5.93575C126.978 6.08196 127.201 6.4353 127.172 6.77645C127.142 7.15822 126.827 7.50344 126.441 7.58061C126.05 7.66183 125.621 7.46689 125.437 7.12573C125.248 6.78458 125.323 6.33377 125.609 6.06572ZM125.609 9.16048C125.894 8.89649 126.369 8.83963 126.714 9.03051C126.978 9.18078 127.201 9.53006 127.172 9.87121C127.142 10.253 126.827 10.6023 126.441 10.6794C126.05 10.7566 125.621 10.5616 125.437 10.2205C125.248 9.8834 125.323 9.42853 125.609 9.16048ZM125.609 12.308C125.894 12.044 126.369 11.9872 126.714 12.1781C126.978 12.3283 127.201 12.6776 127.172 13.0188C127.142 13.4005 126.827 13.7498 126.441 13.827C126.05 13.9041 125.621 13.7092 125.437 13.368C125.248 13.031 125.323 12.5761 125.609 12.308ZM122.807 4.64424C123.092 4.38025 123.567 4.32339 123.912 4.51427C124.176 4.66048 124.395 5.01382 124.37 5.35498C124.34 5.73675 124.025 6.08196 123.639 6.16319C123.248 6.24035 122.819 6.04541 122.634 5.70425C122.445 5.36716 122.521 4.91229 122.807 4.64424ZM114.081 18.2457C113.69 18.3229 113.262 18.128 113.077 17.7868C112.888 17.4497 112.964 16.9948 113.249 16.7268C113.535 16.4628 114.01 16.4059 114.354 16.5968C114.619 16.743 114.837 17.0964 114.812 17.4375C114.783 17.8193 114.468 18.1645 114.081 18.2457ZM114.081 15.0982C113.69 15.1754 113.262 14.9804 113.077 14.6393C112.888 14.3022 112.964 13.8473 113.249 13.5792C113.535 13.3153 114.01 13.2584 114.354 13.4493C114.619 13.5955 114.837 13.9488 114.812 14.29C114.783 14.6717 114.468 15.017 114.081 15.0982ZM114.081 12.4583C113.69 12.5355 113.262 12.3405 113.077 11.9994C112.888 11.6623 112.964 11.2074 113.249 10.9394C113.535 10.6754 114.01 10.6185 114.354 10.8094C114.619 10.9556 114.837 11.3089 114.812 11.6501C114.783 12.0319 114.468 12.3771 114.081 12.4583ZM116.955 24.1347C116.564 24.2119 116.135 24.0169 115.951 23.6758C115.762 23.3387 115.837 22.8838 116.123 22.6158C116.409 22.3518 116.883 22.2949 117.228 22.4858C117.492 22.632 117.715 22.9854 117.686 23.3265C117.656 23.7083 117.341 24.0535 116.955 24.1347ZM117.165 21.1902C116.774 21.2674 116.346 21.0725 116.161 20.7313C115.972 20.3942 116.047 19.9393 116.333 19.6713C116.619 19.4073 117.093 19.3504 117.438 19.5413C117.702 19.6875 117.925 20.0409 117.896 20.382C117.866 20.7638 117.551 21.109 117.165 21.1902ZM117.165 18.2457C116.774 18.3229 116.346 18.128 116.161 17.7868C115.972 17.4497 116.047 16.9948 116.333 16.7268C116.619 16.4628 117.093 16.4059 117.438 16.5968C117.702 16.743 117.925 17.0964 117.896 17.4375C117.866 17.8193 117.551 18.1645 117.165 18.2457ZM117.165 9.41228C116.774 9.48945 116.346 9.2945 116.161 8.95335C115.972 8.61625 116.047 8.16138 116.333 7.89333C116.619 7.62934 117.093 7.57248 117.438 7.76337C117.702 7.90958 117.925 8.26291 117.896 8.60407C117.866 8.98584 117.551 9.33105 117.165 9.41228ZM120.278 18.2457C119.887 18.3229 119.458 18.128 119.274 17.7868C119.085 17.4497 119.16 16.9948 119.446 16.7268C119.732 16.4628 120.206 16.4059 120.551 16.5968C120.815 16.743 121.034 17.0964 121.009 17.4375C120.979 17.8193 120.664 18.1645 120.278 18.2457ZM120.278 12.4583C119.887 12.5355 119.458 12.3405 119.274 11.9994C119.085 11.6623 119.16 11.2074 119.446 10.9394C119.732 10.6754 120.206 10.6185 120.551 10.8094C120.815 10.9556 121.034 11.3089 121.009 11.6501C120.979 12.0319 120.664 12.3771 120.278 12.4583ZM120.488 9.41228C120.097 9.48945 119.669 9.2945 119.484 8.95335C119.295 8.61625 119.37 8.16138 119.656 7.89333C119.942 7.62934 120.416 7.57248 120.761 7.76337C121.025 7.90958 121.244 8.26291 121.219 8.60407C121.189 8.98584 120.874 9.33105 120.488 9.41228ZM120.488 6.36626C120.097 6.44342 119.669 6.24848 119.484 5.90732C119.295 5.57023 119.37 5.11536 119.656 4.84731C119.942 4.58332 120.416 4.52646 120.761 4.71734C121.025 4.86355 121.244 5.21689 121.219 5.55805C121.189 5.93981 120.874 6.28503 120.488 6.36626ZM122.214 14.8423C122.025 14.5052 122.101 14.0504 122.387 13.7823C122.672 13.5183 123.147 13.4615 123.491 13.6523C123.756 13.7986 123.975 14.1519 123.949 14.493C123.92 14.8748 123.605 15.22 123.218 15.3013C122.828 15.3784 122.399 15.1835 122.214 14.8423ZM128.482 33.7155C128.445 33.951 128.327 34.1663 128.213 34.3815C127.571 35.604 126.924 36.8224 126.277 38.0449C126.197 38.1952 126.092 38.3658 125.915 38.3942C125.726 38.4226 125.567 38.2683 125.445 38.1261C124.37 36.8752 123.517 35.4416 122.937 33.9145C122.836 33.6383 122.748 33.3134 122.92 33.0738C123.046 32.9032 123.273 32.8342 123.483 32.7854C124.185 32.6311 124.907 32.6961 125.63 32.7286C126.243 32.7529 126.857 32.7773 127.47 32.8057C127.768 32.8179 128.092 32.8423 128.302 33.0454C128.474 33.2159 128.52 33.4759 128.482 33.7155ZM130.129 14.7936C129.944 15.1307 129.512 15.3297 129.125 15.2485C128.734 15.1713 128.424 14.8261 128.394 14.4443C128.365 14.1032 128.587 13.7498 128.852 13.6036C129.197 13.4087 129.667 13.4655 129.953 13.7336C130.238 13.9976 130.314 14.4524 130.129 14.7936ZM131.583 7.71463C131.927 7.51968 132.398 7.57654 132.683 7.84459C132.969 8.10858 133.045 8.56345 132.86 8.90461C132.675 9.2417 132.242 9.44071 131.856 9.35948C131.465 9.28232 131.154 8.9371 131.125 8.55533C131.095 8.21418 131.318 7.86084 131.583 7.71463ZM133.07 17.7381C132.885 18.0752 132.452 18.2742 132.066 18.1929C131.675 18.1158 131.364 17.7706 131.335 17.3888C131.305 17.0476 131.528 16.6943 131.793 16.5481C132.137 16.3532 132.608 16.41 132.893 16.6781C133.179 16.9421 133.255 17.3969 133.07 17.7381ZM133.07 11.9506C132.885 12.2877 132.452 12.4867 132.066 12.4055C131.675 12.3283 131.364 11.9831 131.335 11.6014C131.305 11.2602 131.528 10.9069 131.793 10.7607C132.137 10.5657 132.608 10.6226 132.893 10.8906C133.179 11.1546 133.255 11.6095 133.07 11.9506ZM134.906 19.4926C135.25 19.2976 135.721 19.3545 136.006 19.6226C136.292 19.8865 136.368 20.3414 136.183 20.6826C135.998 21.0197 135.565 21.2187 135.179 21.1374C134.788 21.0603 134.477 20.7151 134.444 20.3333C134.418 19.9921 134.641 19.6388 134.906 19.4926ZM136.393 23.6271C136.208 23.9641 135.775 24.1632 135.389 24.0819C134.998 24.0048 134.687 23.6595 134.654 23.2778C134.628 22.9366 134.851 22.5833 135.116 22.4371C135.46 22.2421 135.931 22.299 136.216 22.567C136.502 22.831 136.578 23.2859 136.393 23.6271ZM139.266 17.7381C139.082 18.0752 138.649 18.2742 138.262 18.1929C137.872 18.1158 137.561 17.7706 137.531 17.3888C137.502 17.0476 137.725 16.6943 137.989 16.5481C138.334 16.3532 138.804 16.41 139.09 16.6781C139.376 16.9421 139.451 17.3969 139.266 17.7381ZM139.266 14.5905C139.082 14.9276 138.649 15.1266 138.262 15.0454C137.872 14.9682 137.561 14.623 137.531 14.2412C137.502 13.9001 137.725 13.5468 137.989 13.4005C138.334 13.2056 138.804 13.2625 139.09 13.5305C139.376 13.7945 139.451 14.2494 139.266 14.5905ZM139.266 11.9506C139.082 12.2877 138.649 12.4867 138.262 12.4055C137.872 12.3283 137.561 11.9831 137.531 11.6014C137.502 11.2602 137.725 10.9069 137.989 10.7607C138.334 10.5657 138.804 10.6226 139.09 10.8906C139.376 11.1546 139.451 11.6095 139.266 11.9506Z" fill="#9E5E45"/>
<path d="M123.634 56.942V43.8278C123.634 43.6085 123.819 43.4298 124.046 43.4298H128.041C128.268 43.4298 128.453 43.6085 128.453 43.8278V56.942C128.453 57.1613 128.268 57.34 128.041 57.34H124.046C123.819 57.34 123.634 57.1613 123.634 56.942Z" fill="#F04741"/>
<path d="M117.372 25.6455C118.952 26.933 119.187 29.321 120.792 30.5801C121.968 31.5061 123.611 31.6076 125.123 31.4979C126.636 31.3883 128.224 31.7822 129.555 31.2989C132.252 30.3201 132.979 26.9167 134.693 24.6708C129.433 30.7303 126.173 28.9799 122.993 28.923C119.813 28.8662 119.649 26.6649 117.372 25.6455Z" fill="black"/>
<path d="M123.503 44.8713C124.04 44.3677 124.952 44.1362 125.738 44.3352C126.523 44.5343 127.111 45.18 127.078 45.842C127.044 46.504 126.351 47.1213 125.549 47.2554C126.233 47.6574 126.876 48.1692 127.095 48.8312C127.313 49.4932 126.956 50.3136 126.166 50.5532C126.674 50.7157 127.061 51.1096 127.141 51.5442C127.221 51.9828 126.99 52.4499 126.561 52.722C126.847 52.7098 127.116 52.856 127.275 53.0469C127.435 53.2378 127.506 53.4652 127.561 53.6926C127.695 54.2612 127.737 54.8582 127.515 55.4065C127.292 55.9548 126.767 56.4462 126.133 56.5072C125.486 56.495 124.83 56.3731 124.28 56.101C123.73 55.8289 123.284 55.3903 123.129 54.8826C122.973 54.3749 123.125 53.7982 123.65 53.4165C123.335 53.1768 123.02 52.9332 122.784 52.6367C122.553 52.3402 122.406 51.9869 122.473 51.6416C122.562 51.1908 122.982 50.8416 123.389 50.5045C122.625 49.9602 122.268 49.0708 122.482 48.2626C122.57 47.9377 122.772 47.6046 123.045 47.4706C122.62 47.0685 122.44 46.504 122.578 45.9842C122.725 45.4684 123.259 45.0988 123.503 44.8713Z" fill="black"/>
<path d="M122.082 44.4412C122.62 43.9376 123.531 43.7061 124.317 43.9051C125.103 44.1041 125.691 44.7498 125.657 45.4118C125.623 46.0738 124.93 46.6912 124.128 46.8252C124.813 47.2273 125.455 47.739 125.674 48.401C125.892 49.063 125.535 49.8834 124.745 50.123C125.254 50.2855 125.64 50.6794 125.72 51.114C125.8 51.5526 125.569 52.0197 125.14 52.2918C125.426 52.2796 125.695 52.4258 125.855 52.6167C126.014 52.8076 126.086 53.035 126.14 53.2625C126.275 53.831 126.317 54.4281 126.094 54.9764C125.871 55.5246 125.346 56.0161 124.712 56.077C124.065 56.0648 123.41 55.943 122.859 55.6709C122.309 55.3947 121.864 54.9601 121.708 54.4524C121.553 53.9448 121.704 53.3681 122.229 52.9863C121.914 52.7467 121.599 52.503 121.364 52.2065C121.133 51.91 120.986 51.5567 121.053 51.2115C121.141 50.7607 121.561 50.4114 121.969 50.0743C121.204 49.5301 120.847 48.6406 121.061 47.8324C121.149 47.5075 121.351 47.1745 121.624 47.0404C121.2 46.6384 121.019 46.0738 121.158 45.554C121.305 45.0382 121.838 44.6686 122.082 44.4412Z" fill="#FFB387"/>
<path d="M121.884 47.0161C122.527 46.9105 123.174 46.8049 123.816 46.6952C123.577 46.4637 123.195 46.415 122.863 46.4962C122.531 46.5734 122.237 46.7561 121.884 47.0161Z" fill="black"/>
<path d="M122.278 50.1201C122.975 50.0389 123.681 50.0023 124.383 50.0186C124.118 49.8074 123.774 49.6937 123.433 49.7058C123.089 49.714 122.753 49.848 122.278 50.1201Z" fill="black"/>
<path d="M122.475 53.0481C123.29 52.9709 124.101 52.8166 124.886 52.5973C124.534 52.4023 124.092 52.4023 123.702 52.5079C123.311 52.6135 122.958 52.8207 122.475 53.0481Z" fill="black"/>
<path d="M162.04 64.8615C156.158 66.5185 149.882 65.0321 143.954 63.5416C138.871 62.2663 133.741 60.9707 129.082 58.6354C127.003 56.3164 126.028 52.714 126.965 49.5745C126.86 49.2415 125.318 47.8769 124.957 46.9509C124.596 46.0249 124.562 45.7365 125.192 44.9608C125.302 44.8268 125.436 44.6928 125.608 44.6521C125.923 44.579 126.209 44.8227 126.44 45.042C127.667 46.2077 129.103 47.158 130.666 47.8484C131.284 50.5371 133.351 52.8439 135.989 53.8146C143.799 53.3435 152.138 52.783 159.813 54.7893C162.367 55.3376 164.653 56.9621 165.674 59.1187C164.93 61.4256 163.985 64.3132 162.04 64.8615Z" fill="#FFB387"/>
<path d="M156.769 54.5141C155.496 54.4654 154.257 55.4117 154.018 56.622C153.778 57.8323 154.559 59.1563 155.761 59.5665C156.202 59.7167 156.744 59.798 156.967 60.196C157.202 60.6143 156.933 61.1382 156.58 61.4713C156.227 61.8043 155.782 62.0601 155.543 62.4785C155.303 62.8968 155.425 63.5588 155.908 63.6522C151.799 65.7397 145.569 63.9406 146.577 64.1883C148.119 64.5701 152.295 66.3774 159.874 65.3092C161.004 65.1508 162.142 64.9275 163.151 64.4076C164.159 63.8878 165.024 63.0268 165.302 61.9546C165.793 60.0457 164.297 58.1491 162.562 57.1215C160.827 56.094 159.067 54.6035 156.769 54.5141Z" fill="black"/>
<path d="M168.778 36.2384C165.737 37.8548 163.674 41.5791 162.132 44.5845C160.586 47.5899 159.254 50.774 156.902 53.0931C156.011 55.5624 157.364 58.5881 159.838 59.6481C161.439 60.3345 163.283 60.2452 164.938 60.7894C165.98 61.1346 166.984 61.7357 168.081 61.6626C169.039 61.5976 169.892 61.0046 170.459 60.2573C171.022 59.506 171.337 58.6084 171.589 57.7149C173.534 50.9121 172.715 42.6797 168.778 36.2384Z" fill="#28738F"/>
<path d="M169.045 38.1216C166.209 40.7046 164.944 44.7944 165.848 48.4578C165.986 49.0223 166.171 49.599 166.049 50.1676C165.923 50.7321 165.339 51.252 164.768 51.0814C164.491 51.0002 164.276 50.7768 163.991 50.7199C163.281 50.5819 162.886 51.6216 163.251 52.2267C163.621 52.8319 164.344 53.1202 164.919 53.5467C165.495 53.9731 165.948 54.7813 165.528 55.354C165.23 55.7642 164.638 55.8291 164.121 55.8454C162.655 55.8901 161.185 55.8129 159.731 55.6139C161.248 57.4943 163.029 59.1757 165.016 60.585C165.869 61.1902 166.814 61.7669 167.868 61.8278C169.587 61.9253 171.091 60.6053 171.834 59.1067C172.914 56.9298 172.813 54.363 172.216 52.0196C171.62 49.6762 170.561 47.4709 169.759 45.1843C168.961 42.9059 168.415 40.4528 169.045 38.1216Z" fill="black"/>
<path d="M128.573 48.2869C127.985 48.5915 127.435 48.9692 126.939 49.4038C126.872 49.4607 126.801 49.5338 126.809 49.6231C126.817 49.7044 126.897 49.7653 126.981 49.7775C127.065 49.7937 127.149 49.7734 127.229 49.7531C127.889 49.5906 128.544 49.4282 129.204 49.2657C129.317 49.2373 129.456 49.1723 129.435 49.0627C129.418 48.9571 129.267 48.9327 129.157 48.9449C128.62 48.9896 128.103 49.1479 127.586 49.3023C127.973 49.2251 128.296 48.9774 128.599 48.7296C128.687 48.6565 128.784 48.5712 128.779 48.4575C128.775 48.3438 128.615 48.2666 128.573 48.2869Z" fill="black"/>
<path d="M131.792 53.9214C131.821 54.6687 131.414 55.3551 131.036 56.0049C130.658 56.6547 130.271 57.3614 130.347 58.1046C131.38 57.6822 132.313 57.0283 133.044 56.2039C133.317 55.8952 133.569 55.55 133.64 55.1479C133.535 54.9814 133.279 54.9977 133.086 55.0505C132.893 55.1073 132.666 55.1764 132.498 55.0667C132.25 54.9002 132.372 54.5347 132.325 54.2504C132.271 53.9661 131.994 53.7305 131.792 53.9214Z" fill="black"/>
<path d="M168.575 36.3145C166.252 40.4896 166.281 45.5866 167.592 50.1557C168.903 54.7247 171.39 58.8795 173.852 62.9774C178.813 71.2463 183.774 79.5112 188.177 88.0076C191.025 90.481 194.067 92.8447 197.617 94.2296C201.167 95.6105 205.334 95.9029 208.762 94.258C210.627 93.3645 212.169 91.9593 213.908 90.8506C218.656 87.8208 224.924 87.1466 230.242 89.0961C231.62 89.5997 232.969 90.2779 234.443 90.3876C235.914 90.4972 237.59 89.8352 237.754 88.3569C236.481 87.7558 235.733 86.4359 235.376 85.1078C235.019 83.7838 234.977 82.3989 234.674 81.0586C233.54 76.0184 229.024 72.4485 226.26 68.0379C224.407 65.0812 223.315 61.6778 221.101 58.9648C219.122 56.5401 216.345 54.7856 214.522 52.2513C211.48 48.0316 211.476 42.2279 208.002 38.1218C195.483 32.3466 180.54 31.6968 168.575 36.3145Z" fill="#F04741"/>
<path d="M177.017 68.6227C186.398 70.5396 196.174 70.629 205.593 68.8785C211.335 67.8104 217.498 65.6457 220.263 60.6624C215.469 54.9724 210.903 49.6642 205.862 44.8149C194.157 50.2694 180.622 51.7111 167.229 48.722C169.186 57.3443 173.442 64.7644 177.017 68.6227Z" fill="#FFAF2E"/>
<path d="M201.911 46.928C200.386 53.4505 204.44 60.7569 210.902 63.1369C211.931 63.5146 213.166 63.9329 213.452 64.9604C213.775 66.1139 212.683 67.1333 211.78 67.9455C210.876 68.7578 210.015 70.1021 210.767 71.0484C211.956 70.2443 213.758 70.9469 214.435 72.1856C215.111 73.4284 214.901 74.9595 214.367 76.2673C213.288 78.9112 211.061 80.9216 209.078 83.0213C207.095 85.121 205.222 87.5985 205.138 90.4414C207.528 90.1978 209.326 88.2808 210.759 86.4126C212.191 84.5484 213.657 82.4852 215.922 81.7054C217.48 81.1693 219.199 81.3318 220.833 81.5958C222.467 81.8638 224.114 82.2253 225.761 82.071C227.407 81.9166 229.109 81.1206 229.806 79.6707C230.504 78.2208 229.743 76.1414 228.122 75.8327C229.403 75.654 231.079 74.9676 230.789 73.7492C230.642 73.1278 230.012 72.7583 229.491 72.3684C226.315 69.9925 226.172 65.4519 224.177 62.085C222.778 59.7253 220.493 57.9993 218.266 56.3382C213.019 52.4149 207.705 48.4591 201.911 46.928Z" fill="black"/>
<path d="M178.247 65.8442C183.851 71.1159 190.98 74.8564 198.605 76.5216C199.811 76.7856 201.252 77.1917 201.571 78.3451C201.874 79.4498 200.811 80.5545 199.651 80.7616C198.492 80.9688 197.32 80.5383 196.244 80.0671C188.943 76.8749 182.7 71.457 178.247 65.8442Z" fill="black"/>
<path d="M190.783 37.7081C190.371 43.0245 186.485 47.9387 181.285 49.7095C180.625 49.9369 179.793 50.3187 179.873 50.9929C179.919 51.3868 180.31 51.6833 180.713 51.7564C181.117 51.8295 181.532 51.728 181.927 51.6061C184.708 50.7573 187.158 48.9378 188.729 46.5619C190.3 44.186 190.968 41.2699 190.783 37.7081Z" fill="black"/>
<path d="M173.23 40.9653C172.915 42.7036 173.066 44.519 173.662 46.1842C173.843 46.6878 173.986 47.3985 173.486 47.63C173.011 47.8493 172.52 47.3376 172.322 46.8665C171.877 45.7902 171.881 44.5799 172.125 43.4468C172.368 42.3137 172.843 41.2374 173.23 40.9653Z" fill="black"/>
<path d="M191.293 84.2277C194.797 83.8744 198.305 83.517 201.809 83.1636C202.162 83.1271 202.535 83.0946 202.859 83.2449C203.388 83.4885 203.577 84.1708 203.397 84.711C203.216 85.2512 202.754 85.6573 202.258 85.9578C200.632 86.9448 198.549 87.0219 196.683 86.5752C194.818 86.1244 193.117 85.2106 191.293 84.2277Z" fill="black"/>
<path d="M195.249 52.1211C192.754 52.3445 190.468 54.1233 189.762 56.4505C189.052 58.7736 189.993 61.4907 192.031 62.904C194.068 64.3174 197.064 64.289 199.047 62.8106C201.03 61.3323 201.815 58.5056 200.824 56.2799C199.858 54.103 197.551 52.7912 195.249 52.1211Z" fill="white"/>
<path d="M185.437 22.9208C185.559 22.3238 185.815 21.7511 186.189 21.2597C186.298 21.1175 186.433 20.9713 186.618 20.9551C186.811 20.9388 186.991 21.0851 187.067 21.2556C187.147 21.4303 187.143 21.6252 187.143 21.812C187.13 23.4447 187.113 25.0733 187.101 26.706C187.096 27.0147 187.092 27.3274 186.975 27.6117C186.857 27.896 186.597 28.1478 186.277 28.1681C185.971 28.1884 185.685 27.9853 185.529 27.7335C185.374 27.4777 185.319 27.1771 185.282 26.8806C185.109 25.5566 185.181 24.1961 185.437 22.9208Z" fill="#F04741"/>
<path d="M166.439 26.1012C166.54 25.0169 166.069 23.9 165.212 23.1933C164.737 22.8034 164.036 22.5435 163.502 22.8521C162.893 23.2095 162.889 24.0462 162.96 24.7285C163.053 25.6423 163.149 26.5683 163.452 27.4374C163.754 28.3106 164.284 29.1351 165.086 29.6346C165.46 29.8661 166.002 30.0002 166.309 29.6956C166.468 29.5372 166.514 29.3097 166.548 29.0904C166.687 28.1482 166.334 27.2059 166.439 26.1012Z" fill="#F04741"/>
<path d="M174.004 32.8738C174.492 36.0905 174.975 39.307 175.462 42.5277C175.647 43.7502 175.861 45.0376 176.668 45.9921C178.092 47.6775 180.881 47.6613 182.864 46.6297C185.217 45.4072 186.792 43.0841 187.624 40.6311C188.456 38.178 188.532 36.1757 188.422 33.7186C185.641 32.5408 186.049 29.6572 184.809 27.9312C184.494 27.4885 184.146 27.0255 183.629 26.8224C182.99 26.5747 182.268 26.8021 181.621 27.0255C180.037 27.5738 178.441 28.1302 177.012 28.9871C175.584 29.8481 173.727 31.0381 174.004 32.8738Z" fill="#FFB387"/>
<path d="M185.584 30.2308C185.618 33.0819 184.786 35.8843 183.673 38.5201C183.169 39.7101 182.593 40.9 181.673 41.8301C180.753 42.7601 179.434 43.3978 178.119 43.2394C176.762 43.0729 175.598 42.0535 175.124 40.8107C174.649 39.5679 174.8 38.1546 175.359 36.9443C175.918 35.734 176.846 34.7146 177.892 33.8617C179.938 32.1965 182.45 31.1325 185.584 30.2308Z" fill="black"/>
<path d="M167.671 12.7059C165.054 14.2776 163.823 17.3196 164.524 20.2194C165.037 22.3394 165.335 24.5123 165.722 26.6607C166.28 29.7595 167.066 32.899 168.856 35.5226C170.645 38.1463 173.62 40.2013 176.838 40.0551C180.564 39.186 183.45 36.1278 184.841 32.6715C186.231 29.2153 186.332 25.4058 186.067 21.7058C185.933 19.7929 185.693 17.8476 184.845 16.1134C183.442 13.2338 180.408 11.2478 177.165 10.7117C173.922 10.1756 170.523 11.0042 167.721 12.6734C167.704 12.6856 167.688 12.6937 167.671 12.7059Z" fill="#FFB387"/>
<path d="M186.169 24.3787C185.904 23.2456 185.643 22.1166 185.379 20.9834C185.278 20.5489 185.169 20.1021 184.908 19.7325C184.648 19.3629 184.19 19.0908 183.732 19.1721C183.455 19.2046 183.245 19.168 183.051 19.0786C182.862 18.9852 182.694 18.8309 182.644 18.6319C182.589 18.4126 182.686 18.1892 182.707 17.9618C182.732 17.6328 182.589 17.3079 182.383 17.048C182.178 16.788 181.905 16.5809 181.636 16.3738C178.098 18.6806 172.965 19.103 168.801 17.2713C168.112 18.3517 167.587 19.2898 166.814 19.9762C166.68 20.1102 166.617 20.5042 166.793 20.7113C166.966 20.9185 167.26 20.9834 167.529 21.0322C167.23 21.3165 166.936 21.5967 166.638 21.881C165.638 23.6639 165.331 25.7921 165.752 27.6847C165.218 27.1527 164.903 26.446 164.735 25.723C164.567 25.0001 164.533 24.2569 164.319 23.5543C162.899 20.89 162.118 17.7709 162.912 14.8751C163.706 11.9794 166.356 9.44915 169.394 9.23389C171.763 7.53218 174.826 6.75646 177.758 7.11792C180.539 7.46314 183.106 8.77496 185.106 10.5051C185.219 11.2158 185.194 11.9509 185.118 12.4749C186.177 14.205 186.627 16.2357 186.723 18.2461C186.82 20.2564 186.58 22.2668 186.169 24.3787Z" fill="black"/>
<path d="M183.738 22.6632C182.843 22.5698 181.513 22.53 180.744 22.9808C180.362 23.2042 179.883 23.4885 179.513 23.2488C179.32 23.1229 179.236 22.8752 179.269 22.6518C179.303 22.4285 179.433 22.2294 179.597 22.067C180.084 21.5837 181.317 21.3981 182.01 21.4956C182.69 21.593 183.251 22.184 183.738 22.6632Z" fill="black"/>
<path d="M169.49 23.4195C170.31 22.7778 171.373 22.66 172.267 23.1108C172.469 23.2124 172.662 23.3423 172.877 23.3911C173.091 23.4398 173.334 23.3992 173.481 23.2043C173.704 22.9078 173.612 22.392 173.376 22.1158C173.141 21.8356 172.809 21.734 172.494 21.6406C171.898 21.466 171.091 21.4213 170.507 21.665C169.705 22.0062 169.406 22.9037 169.49 23.4195Z" fill="black"/>
<path d="M172.167 28.0784C173.028 28.0784 173.726 27.282 173.726 26.2995C173.726 25.3171 173.028 24.5206 172.167 24.5206C171.307 24.5206 170.609 25.3171 170.609 26.2995C170.609 27.282 171.307 28.0784 172.167 28.0784Z" fill="black"/>
<path d="M181.775 28.0729C182.636 28.0729 183.334 27.2765 183.334 26.294C183.334 25.3116 182.636 24.5151 181.775 24.5151C180.915 24.5151 180.217 25.3116 180.217 26.294C180.217 27.2765 180.915 28.0729 181.775 28.0729Z" fill="black"/>
<path d="M174.883 29.9626C174.883 29.1665 175.37 25.3082 176.231 25.3082C177.093 25.3082 178 29.1706 178 29.9626C178 30.7545 177.303 31.4003 176.441 31.4003C175.58 31.4003 174.883 30.7545 174.883 29.9626Z" fill="#F04741"/>
<path d="M172.166 33.0503C174.376 33.1478 176.586 33.2493 178.795 33.3468C178.972 33.3549 179.178 33.3793 179.266 33.5255C179.333 33.6392 179.304 33.7813 179.266 33.9072C178.795 35.3937 177.123 36.4253 175.531 36.21C173.935 35.9948 172.62 34.5571 172.166 33.0503Z" fill="white"/>
<path d="M263.585 76.8924C260.459 74.5856 256.846 72.9001 253.036 71.9741C250.503 71.3568 247.881 71.0725 245.419 70.2318C241.739 68.9728 238.631 66.5603 235.358 64.4931C232.09 62.4299 228.367 60.6348 224.767 60.647C225.91 58.9087 227.061 57.1623 228.502 55.6474C229.943 54.1325 231.703 52.8451 233.451 53.0766C239.467 52.6948 245.146 55.7449 249.957 59.258C254.771 62.7711 259.22 66.8974 264.82 69.5454C265.257 67.8559 267 66.8487 268.592 66.0364C270.185 65.2241 271.932 64.2413 272.411 62.5639C272.478 62.3324 272.516 62.0887 272.646 61.8816C272.777 61.6745 273.016 61.508 273.26 61.5567C273.558 61.6176 273.701 61.9466 273.764 62.239C274.125 63.8798 273.529 65.6831 272.193 66.9258C274.612 66.934 277.032 66.9421 279.297 66.8202C280.225 67.4904 281.124 68.197 281.99 68.9443C282.338 69.2449 282.695 69.5738 282.813 70.0125C282.931 70.447 282.7 71.0034 282.195 71.0319C281.263 70.9303 280.376 70.4755 279.855 69.8053C279.066 69.5332 278.196 69.4886 277.381 69.6673C277.196 69.7079 276.982 69.7932 276.944 69.9719C276.915 70.1099 277.003 70.248 277.129 70.3211C277.255 70.3942 277.398 70.4145 277.545 70.4267C278.398 70.508 279.267 70.4145 279.956 70.2115C280.7 70.5648 281.418 70.9669 282.107 71.4136C282.359 71.5761 282.611 71.7507 282.796 71.9822C283.111 72.3843 283.187 72.9245 283.115 73.42C283.044 73.9195 282.834 74.3866 282.657 74.7561C282.3 74.9795 282.179 75.5319 281.758 75.5806C281.469 75.6131 281.229 75.3653 281.086 75.1176C280.679 74.3987 280.679 73.5377 280.54 72.5386C279.637 72.1975 278.641 72.0919 277.683 72.234C277.536 72.2543 277.364 72.3031 277.322 72.4412C277.272 72.6077 277.457 72.7498 277.62 72.8229C278.511 73.2291 279.57 73.2859 280.418 72.9895C281.086 73.4971 281.763 74.0129 282.246 74.6871C282.729 75.3613 282.989 76.2304 282.737 77.0143C282.599 77.4367 282.225 77.859 281.767 77.8103C281.456 77.7778 281.217 77.5382 281.023 77.3026C280.498 76.6609 280.103 75.9177 279.948 75.0445C278.965 75.276 277.944 75.345 276.839 75.276C276.78 75.5237 276.717 75.7674 276.579 75.9989C277.801 76.9046 278.919 77.9403 279.713 78.9962C279.549 79.5567 279.158 80.0522 278.641 80.3527C278.364 80.5111 278.015 80.6167 277.725 80.4827C277.494 80.3771 277.352 80.1334 277.305 79.8897C277.259 79.646 277.289 79.3942 277.301 79.2196C276.549 78.8906 275.843 78.4601 275.36 77.9565C271.991 77.7737 268.622 77.5869 265.253 77.4042C264.618 77.3676 263.963 77.1727 263.585 76.8924Z" fill="#FFB387"/>
<path d="M234.455 53.0266C232.237 54.0988 230.624 56.2635 230.284 58.6394C230.229 59.0131 230.225 59.4436 230.506 59.7035C231.044 60.2031 231.943 59.602 232.666 59.7685C233.098 59.866 233.422 60.2437 233.565 60.6539C233.707 61.0641 233.703 61.5027 233.699 61.9373C233.695 62.3678 233.644 62.8795 233.262 63.1029C232.842 63.3466 232.317 63.0826 231.893 62.847C229.653 61.5799 227.078 60.8773 224.486 60.8163C224.91 58.5542 226.2 56.4544 228.049 55.0045C229.897 53.5546 232.287 52.7748 234.455 53.0266Z" fill="black"/>
<path d="M264.832 69.4674C264.395 70.572 263.954 71.6727 263.517 72.7774C263 71.5062 262.412 69.4836 262.177 68.1393C263.051 68.1921 264.118 69.1709 264.832 69.4674Z" fill="black"/>
<path d="M234.185 55.7451C234.853 56.2041 235.29 56.9635 235.341 57.7555C235.366 58.1698 235.265 58.6246 234.925 58.8764C234.584 59.1282 233.975 59.0064 233.887 58.6043C233.828 58.3241 234.022 58.0601 234.152 57.8002C234.45 57.2153 234.421 56.4843 234.185 55.7451Z" fill="black"/>
<path d="M271.941 67.1619C271.714 68.4899 271.731 69.8505 271.546 71.1826C271.361 72.5188 270.941 73.8794 269.988 74.8622C270.601 75.1181 271.344 74.7607 271.71 74.2205C272.075 73.6804 272.151 73.0062 272.193 72.3604C272.307 70.61 272.239 68.8555 271.941 67.1619Z" fill="black"/>
<path d="M276.699 68.9475C277.047 69.4064 277.144 70.036 276.943 70.5721C276.901 70.6858 276.804 70.8157 276.682 70.7914C276.565 70.7629 276.536 70.6167 276.536 70.4989C276.527 70.0075 276.561 69.5161 276.699 68.9475Z" fill="black"/>
<path d="M276.773 74.5245C276.895 75.154 276.706 75.8323 276.269 76.3156C276.168 76.4293 276.025 76.539 275.87 76.5105C275.676 76.474 275.605 76.2344 275.618 76.0435C275.643 75.7145 275.802 75.4058 276.013 75.15C276.227 74.8941 276.487 74.6789 276.773 74.5245Z" fill="black"/>
<path d="M277.348 79.3863C277.692 79.0655 277.978 78.6919 278.192 78.2776C277.86 78.0948 277.415 78.2898 277.209 78.6025C277.007 78.9193 276.99 79.3092 277.348 79.3863Z" fill="black"/>
<path d="M280.344 73.0264C280.234 73.8468 280.125 74.6631 280.016 75.4835C280.024 75.4307 280.033 75.3779 280.07 75.3129C280.125 75.7597 280.318 76.1942 280.663 76.641C281.209 76.5476 281.658 76.0846 281.73 75.5525C281.574 75.5688 281.419 75.4957 281.31 75.386C281.201 75.2764 281.133 75.1383 281.07 74.9961C280.885 74.5778 280.755 74.1392 280.68 73.6884C280.629 73.4122 280.57 73.0873 280.344 73.0264Z" fill="black"/>
<path d="M271.597 73.518C272.223 73.9323 272.732 74.513 273.051 75.175C273.215 75.5202 273.337 75.8939 273.601 76.1701C273.954 75.6137 273.95 74.8664 273.593 74.314C273.236 73.7657 272.538 73.4368 271.597 73.518Z" fill="black"/>
<path d="M235.119 53.056C229.023 52.7677 228.695 57.1742 226.83 59.9806C225.839 61.4752 224.188 62.7708 222.36 62.6124C220.738 63.7739 218.529 63.1566 216.491 62.5393C211.87 61.1422 207.009 59.5989 203.791 56.102C201.346 53.4459 200.103 49.7866 200.447 46.2451C200.792 42.7036 201.22 37.9355 207.572 37.9355C212.416 40.8029 215.844 42.2325 221.133 44.2347C223.549 45.1485 226.015 45.973 228.309 47.1467C230.603 48.3164 234.119 50.4283 235.119 53.056Z" fill="#28738F"/>
<path d="M231.543 51.0667C228.636 52.1145 226.207 54.3482 224.981 57.1018C224.762 57.5892 224.577 58.1009 224.224 58.5111C223.872 58.9213 223.3 59.2056 222.775 59.0554C222.116 58.8726 221.809 58.0725 221.96 57.4268C222.116 56.7769 222.599 56.2571 223.086 55.786C225.334 53.6213 228.026 51.8911 231.543 51.0667Z" fill="black"/>
<path d="M210.047 41.6348C212.19 47.4141 215.509 52.7832 219.756 57.3441C219.882 54.3996 217.971 51.7516 215.941 49.5544C213.912 47.3572 211.602 45.2372 210.047 41.6348Z" fill="black"/>
<path d="M220.613 46.8617C220.42 48.6731 220.386 50.5007 220.512 52.3202C220.529 52.576 220.554 52.84 220.676 53.0675C220.798 53.2949 221.05 53.4777 221.311 53.4492C221.764 53.4005 221.92 52.8441 221.945 52.4055C222.029 50.7362 221.781 49.0508 220.613 46.8617Z" fill="black"/>
</g>
<path d="M312.156 23.56C313.13 25.3197 316.59 25.7148 319.281 24.4166C320.912 23.6298 322.09 22.3216 322.537 21.0268C322.832 20.1868 322.816 19.3468 322.42 18.6596C321.415 16.9165 318.165 16.382 315.358 17.4577C313.548 18.1483 312.316 19.8083 311.954 21.3654C311.772 22.1756 311.822 22.9591 312.156 23.56Z" fill="#72A13A"/>
<path d="M312.142 23.9707C313.071 25.2854 316.373 25.5805 318.94 24.6106C320.497 24.0228 321.621 23.0454 322.047 22.078C321.261 22.4625 320.419 22.8073 319.534 23.0801C318.31 23.4572 316.994 23.6904 315.776 23.678C314.364 23.6656 313.122 23.3183 312.363 22.7304C312.202 22.6064 312.067 22.4724 311.95 22.331C311.776 22.9363 311.824 23.5217 312.142 23.9707Z" fill="black"/>
<path d="M316.8 16.9202C317.206 16.8756 317.653 16.9113 317.863 17.0838C318.073 17.2534 318.104 17.5121 317.945 17.759C318.647 17.8214 319.018 18.2884 318.73 18.7494C319.486 18.9219 319.713 19.5584 319.197 20.0789C319.665 20.1949 319.882 20.534 319.713 20.876C319.627 21.0485 319.455 21.224 319.428 21.3936C319.397 21.5869 319.552 21.7386 319.596 21.92C319.665 22.1936 319.452 22.5327 319.056 22.7707C319.208 22.8242 319.27 22.9432 319.211 23.0651C319.153 23.1871 318.853 23.3149 318.633 23.3715C318.812 23.1811 318.915 22.9402 318.675 22.8034C318.991 22.6695 319.225 22.4524 319.28 22.2442C319.335 22.036 319.201 21.8427 318.867 21.6702C319.197 21.4411 319.387 21.1497 319.38 20.8909C319.373 20.6321 319.163 20.4091 318.733 20.2306C318.991 19.9778 319.094 19.6893 319.015 19.4454C318.936 19.2015 318.675 19.0082 318.269 18.8684C318.427 18.6423 318.444 18.4044 318.32 18.217C318.196 18.0296 317.925 17.8958 317.488 17.8482C317.653 17.6192 317.601 17.3842 317.44 17.2058C317.282 17.0273 316.962 16.9381 316.8 16.9202Z" fill="white"/>
<path d="M318.604 17.3742C319.101 17.3183 319.644 17.333 319.886 17.4712C320.129 17.6094 320.154 17.8269 319.942 18.0415C320.791 18.068 321.212 18.4502 320.829 18.85C321.738 18.9676 321.972 19.4997 321.314 19.9612C321.874 20.0406 322.116 20.3198 321.891 20.6197C321.777 20.7696 321.556 20.9254 321.509 21.0695C321.458 21.2341 321.636 21.3576 321.683 21.5075C321.751 21.7368 321.467 22.0337 320.97 22.2513C321.148 22.2895 321.22 22.3894 321.135 22.4953C321.05 22.6011 320.681 22.7216 320.409 22.7775C320.638 22.607 320.778 22.4012 320.494 22.2954C320.885 22.169 321.186 21.9779 321.267 21.7986C321.343 21.6192 321.199 21.4634 320.804 21.3282C321.22 21.1224 321.471 20.8666 321.479 20.6462C321.488 20.4257 321.25 20.2464 320.736 20.1111C321.067 19.8877 321.212 19.6349 321.131 19.432C321.05 19.2292 320.744 19.0763 320.265 18.9705C320.473 18.7735 320.511 18.5677 320.371 18.4149C320.231 18.2591 319.912 18.1562 319.381 18.1327C319.598 17.9328 319.551 17.7329 319.364 17.5888C319.186 17.4477 318.799 17.383 318.604 17.3742Z" fill="white"/>
<path d="M332.917 18.3059C354.057 10.3233 375.069 5.36123 391.851 4.3927C371.191 9.06287 350.527 13.7286 332.917 18.3059Z" fill="#8ACDF1"/>
<path d="M332.917 17.0752C349.432 5.98792 360.611 2.95408 375.265 0.468628C360.377 6.12502 345.486 11.7858 332.917 17.0752Z" fill="#8ACDF1"/>
<path d="M333.63 20.6414C347.379 18.0188 361.226 18.5009 372.465 21.9946C358.839 21.3047 345.209 20.6148 333.63 20.6414Z" fill="#8ACDF1"/>
<defs>
<filter id="filter0_d_1149_821" x="109.883" y="0" width="177.257" height="180.151" filterUnits="userSpaceOnUse" color-interpolation-filters="sRGB">
<feFlood flood-opacity="0" result="BackgroundImageFix"/>
<feColorMatrix in="SourceAlpha" type="matrix" values="0 0 0 0 0 0 0 0 0 0 0 0 0 0 0 0 0 0 127 0" result="hardAlpha"/>
<feOffset dx="2" dy="2"/>
<feGaussianBlur stdDeviation="1"/>
<feComposite in2="hardAlpha" operator="out"/>
<feColorMatrix type="matrix" values="0 0 0 0 0 0 0 0 0 0 0 0 0 0 0 0 0 0 0.25 0"/>
<feBlend mode="normal" in2="BackgroundImageFix" result="effect1_dropShadow_1149_821"/>
<feBlend mode="normal" in="SourceGraphic" in2="effect1_dropShadow_1149_821" result="shape"/>
</filter>
</defs>
</svg>
