<svg width="53" height="53" viewBox="0 0 53 53" fill="none" xmlns="http://www.w3.org/2000/svg">
<g filter="url(#filter0_d_260_688)">
<rect width="45" height="45" rx="22.5" transform="matrix(-1 0 0 1 49 0)" fill="black"/>
<path d="M44.6388 20.287C44.1479 16.2328 42.3124 12.4601 39.4255 9.57163C36.5387 6.68315 32.767 4.84556 28.7131 4.35241C28.6171 4.34096 28.5197 4.34942 28.4272 4.37727C28.3346 4.40512 28.2487 4.45176 28.175 4.51428C28.1013 4.5768 28.0412 4.65386 27.9986 4.74064C27.956 4.82741 27.9317 4.92205 27.9273 5.01863C27.8404 7.14923 28.1958 9.27475 28.9712 11.2612C29.7465 13.2476 30.925 15.0518 32.4323 16.5601C33.9396 18.0685 35.7431 19.2481 37.729 20.0248C39.7149 20.8015 41.8402 21.1583 43.9709 21.0727C44.0676 21.0686 44.1624 21.0445 44.2494 21.002C44.3364 20.9594 44.4137 20.8994 44.4764 20.8257C44.5391 20.7519 44.5859 20.666 44.6138 20.5733C44.6418 20.4806 44.6503 20.3831 44.6388 20.287ZM9.03612 23.9257C9.23299 23.9257 9.42811 23.9134 9.62498 23.9134C11.7072 23.9107 13.7684 24.3292 15.6847 25.1437C17.6009 25.9582 19.3327 27.1518 20.7758 28.6528C22.2188 30.1539 23.3434 31.9312 24.0818 33.8781C24.8202 35.825 25.1573 37.9011 25.0726 39.9815C25.0682 40.0781 25.044 40.1727 25.0014 40.2595C24.9587 40.3463 24.8987 40.4233 24.825 40.4859C24.7512 40.5484 24.6654 40.595 24.5728 40.6229C24.4802 40.6507 24.3829 40.6592 24.2869 40.6477C20.2327 40.1545 16.4608 38.3167 13.5739 35.4278C10.687 32.539 8.85166 28.7659 8.36112 24.7114C8.34962 24.6147 8.35834 24.5167 8.38672 24.4235C8.4151 24.3303 8.46252 24.2441 8.52598 24.1702C8.58944 24.0964 8.66755 24.0365 8.75537 23.9944C8.84319 23.9523 8.93879 23.9289 9.03612 23.9257ZM22.5519 26.4481C20.8582 24.7453 18.8436 23.3953 16.6247 22.4763C14.4058 21.5572 12.0267 21.0873 9.62498 21.0938H9.08182C8.98101 21.0974 8.8806 21.0793 8.78741 21.0407C8.69422 21.0021 8.61043 20.9439 8.54173 20.87C8.47303 20.7961 8.42104 20.7083 8.38926 20.6126C8.35749 20.5169 8.34669 20.4154 8.3576 20.3151C8.84225 16.2461 10.6811 12.4582 13.5785 9.56045C16.4759 6.66271 20.2636 4.82344 24.3326 4.33835C24.4329 4.32744 24.5343 4.33824 24.6301 4.37001C24.7258 4.40178 24.8136 4.45378 24.8875 4.52248C24.9613 4.59118 25.0196 4.67497 25.0582 4.76816C25.0968 4.86135 25.1149 4.96176 25.1113 5.06257C25.0314 7.55539 25.4637 10.0381 26.3817 12.3571C27.2996 14.6762 28.6836 16.7822 30.448 18.545C32.1412 20.2491 34.1555 21.6004 36.3744 22.5206C38.5934 23.4409 40.9728 23.9119 43.375 23.9063H43.9181C44.019 23.9027 44.1194 23.9208 44.2126 23.9594C44.3057 23.9981 44.3895 24.0563 44.4582 24.1302C44.5269 24.204 44.5789 24.2918 44.6107 24.3875C44.6425 24.4833 44.6533 24.5847 44.6424 24.685C44.1577 28.7541 42.3189 32.5419 39.4214 35.4397C36.524 38.3374 32.7364 40.1767 28.6674 40.6618C28.5671 40.6727 28.4656 40.6619 28.3699 40.6301C28.2741 40.5984 28.1863 40.5464 28.1125 40.4777C28.0386 40.409 27.9804 40.3252 27.9418 40.232C27.9032 40.1388 27.885 40.0384 27.8887 39.9376C27.9696 37.4436 27.5377 34.9595 26.6197 32.6392C25.7017 30.3189 24.3172 28.2117 22.5519 26.4481Z" fill="#92C650"/>
</g>
<defs>
<filter id="filter0_d_260_688" x="0" y="0" width="53" height="53" filterUnits="userSpaceOnUse" color-interpolation-filters="sRGB">
<feFlood flood-opacity="0" result="BackgroundImageFix"/>
<feColorMatrix in="SourceAlpha" type="matrix" values="0 0 0 0 0 0 0 0 0 0 0 0 0 0 0 0 0 0 127 0" result="hardAlpha"/>
<feOffset dy="4"/>
<feGaussianBlur stdDeviation="2"/>
<feComposite in2="hardAlpha" operator="out"/>
<feColorMatrix type="matrix" values="0 0 0 0 0.207262 0 0 0 0 0.273858 0 0 0 0 0.706731 0 0 0 0.6 0"/>
<feBlend mode="normal" in2="BackgroundImageFix" result="effect1_dropShadow_260_688"/>
<feBlend mode="normal" in="SourceGraphic" in2="effect1_dropShadow_260_688" result="shape"/>
</filter>
</defs>
</svg>
