<svg width="216" height="168" viewBox="0 0 216 168" fill="none" xmlns="http://www.w3.org/2000/svg">
<path d="M175.969 144.37C191.569 135.95 211.655 110.728 209.703 83.6741C208.135 61.9328 190.932 53.0176 181.49 45.1505C165.317 31.6757 162.475 -5.33243 127.93 0.648506C114.929 2.89938 105.654 15.8875 94.3803 23.7883C79.756 34.0376 61.5205 34.4686 44.6936 31.2337C38.261 29.9968 19.3631 22.318 5.01471 42.1486C-2.16821 52.0758 -0.563461 68.07 3.18413 80.3101C6.47594 91.0616 15.594 98.8422 17.2051 110.105C18.0347 115.905 16.7148 121.801 16.5331 127.678C16.3513 133.555 17.7803 140.237 22.2047 143.041C24.4796 144.482 27.168 144.644 29.7537 144.766C75.9542 146.948 122.239 146.677 168.419 143.954" fill="url(#paint0_linear_404_379)" fill-opacity="0.5"/>
<path d="M197.009 32.2257C197.009 32.2257 200.446 41.8312 193.056 45.0682C185.665 48.3052 173.341 32.0978 172.998 22.5295C172.656 12.9608 189.963 13.3567 197.009 32.2257Z" fill="url(#paint1_linear_404_379)" fill-opacity="0.5"/>
<path d="M88.0849 19.9966C88.0849 19.9966 82.3428 25.4845 73.4765 26.751C64.6102 28.0174 54.0409 15.142 69.2464 5.43266C84.4519 -4.27666 102.288 6.91017 88.0849 19.9966Z" fill="url(#paint2_linear_404_379)" fill-opacity="0.5"/>
<path d="M109.856 160.683C53.7696 160.683 8.30272 151.524 8.30272 140.227C8.30272 128.929 53.7696 119.77 109.856 119.77C165.942 119.77 211.409 128.929 211.409 140.227C211.409 151.524 165.942 160.683 109.856 160.683Z" fill="url(#paint3_linear_404_379)"/>
<path d="M161.353 166.214C146.188 166.214 133.894 163.738 133.894 160.683C133.894 157.628 146.188 155.152 161.353 155.152C176.518 155.152 188.812 157.628 188.812 160.683C188.812 163.738 176.518 166.214 161.353 166.214Z" fill="url(#paint4_linear_404_379)"/>
<path d="M48.6342 165.028C48.6342 166.669 55.2397 168 63.3883 168C71.5366 168 78.1425 166.669 78.1425 165.028C78.1425 163.387 71.537 162.056 63.3883 162.056C55.2397 162.056 48.6342 163.386 48.6342 165.028Z" fill="url(#paint5_linear_404_379)"/>
<path d="M164.319 102.268C164.319 102.268 162.349 103.376 161.352 102.638C161.352 102.638 162.604 99.7616 163.601 99.6561C164.598 99.5505 164.319 102.268 164.319 102.268Z" fill="url(#paint6_linear_404_379)"/>
<path d="M146.866 101.09C146.866 101.09 146.124 102.269 143.806 100.58C141.488 98.8916 140.067 95.4266 140.067 95.4266L146.541 95.0395L147.422 96.0949L146.866 101.09Z" fill="url(#paint7_linear_404_379)"/>
<path d="M159.709 91.5268C159.709 91.5268 163.852 104.47 166.259 107.665C170.142 112.824 189.812 127.054 189.812 127.054L193.866 126.696L195.85 126.523C195.85 126.523 184.68 110.553 179.428 107.319C175.82 105.099 176.09 103.79 175.163 101.059C174.703 99.7037 173.991 96.5545 173.339 93.4771C172.523 89.6145 171.807 85.8574 171.807 85.8574L159.709 91.5268Z" fill="url(#paint8_linear_404_379)"/>
<path opacity="0.3" d="M165.317 95.8327L165.717 99.6531C165.717 99.6531 167.776 98.7328 169.348 100.844C170.928 102.954 172.5 105.593 172.919 107.231C173.339 108.864 180.57 112.875 186.964 119.523C190.384 123.074 192.572 125.345 193.866 126.696L195.85 126.523C195.85 126.523 184.68 110.553 179.428 107.319C175.82 105.099 176.09 103.79 175.163 101.059C174.703 99.7038 173.991 96.5546 173.339 93.4771C171.503 93.4054 170.19 93.57 169.533 93.8233C168.328 94.2961 165.317 95.8327 165.317 95.8327Z" fill="url(#paint9_linear_404_379)"/>
<path d="M121.322 127.263C121.322 127.263 121.245 128.978 120.905 129.47C120.565 129.963 119.445 130.289 117.034 130.209C114.138 130.114 106.797 130.148 105.638 129.743C104.973 129.511 104.93 127.796 105.954 127.493C107.469 127.106 121.322 127.263 121.322 127.263Z" fill="url(#paint10_linear_404_379)"/>
<path d="M116.421 121.782L119.077 123.23L120.534 124.028C120.534 124.028 124.121 119.663 129.684 114.458C135.247 109.253 138.584 102.216 138.584 102.216L146.866 95.8834L140.865 91.0329L137.78 88.5381C137.78 88.5381 130.919 96.411 130.084 97.2553C129.25 98.0996 116.421 121.782 116.421 121.782Z" fill="url(#paint11_linear_404_379)"/>
<path opacity="0.3" d="M119.077 123.23L120.534 124.028C120.534 124.028 124.121 119.663 129.684 114.458C135.247 109.253 138.584 102.216 138.584 102.216L146.866 95.8834L140.865 91.033C140.687 90.957 140.561 90.8979 140.517 90.8684L136.574 91.7633C136.574 91.7633 139.263 94.7225 139.678 96.0945C140.098 97.4665 137.505 99.421 136.574 100.738C135.647 102.055 131.66 109.498 128.923 112.242C126.765 114.407 121.291 120.68 119.077 123.23Z" fill="url(#paint12_linear_404_379)"/>
<path d="M135.091 90.5348C135.963 91.6661 139.219 93.2829 141.989 95.0391H141.993C143.009 95.6849 143.962 96.3477 144.704 97.0105C147.144 99.1887 146.866 101.088 146.866 101.088L156.572 91.3791C156.572 91.3791 159.375 98.4162 161.352 102.638C161.942 101.637 163.421 100.734 165.172 99.9064C169.144 98.0194 174.495 96.5039 173.895 95.0391C173.027 92.9283 170.928 77.9929 170.928 77.9929L165.521 75.4896L164.174 74.8648L161.756 75.3714L151.046 77.6214L147.17 78.4361C147.17 78.4361 140.127 84.9794 135.091 90.5348Z" fill="url(#paint13_linear_404_379)"/>
<path opacity="0.3" d="M151.009 77.2373L151.046 77.6215L151.372 80.8424C151.372 80.8424 152.181 82.3748 157.558 81.9526C162.936 81.5305 163.759 80.9057 165.172 82.0244C166.585 83.1473 168.254 87.4405 168.191 88.1455C168.128 88.8463 165.224 88.2131 164.853 89.2684C164.482 90.3238 166.151 90.0452 167.078 91.8013C168.005 93.5616 169.307 95.533 168.191 96.867C167.078 98.2052 165.172 99.9064 165.172 99.9064C169.144 98.0195 174.495 96.504 173.895 95.0391C173.027 92.9284 170.928 77.9929 170.928 77.9929L165.521 75.4896C164.126 75.401 162.873 75.3672 161.756 75.3714C159.913 75.3841 158.437 75.5107 157.298 75.6923C155.088 76.0426 151.009 77.2373 151.009 77.2373Z" fill="url(#paint14_linear_404_379)"/>
<path d="M106.767 65.1901C106.767 65.1901 105.279 65.0247 104.712 64.9917C104.146 64.9588 102.955 65.1403 102.345 65.1901C101.735 65.24 100.886 65.337 100.653 65.0909C100.421 64.8448 100.494 64.752 100.508 64.6612C100.523 64.5704 101.344 64.3387 101.902 64.1322C102.462 63.9254 103.427 63.7354 103.856 63.7519C104.284 63.7684 106.318 64.2479 106.318 64.2479" fill="url(#paint15_linear_404_379)"/>
<path d="M100.249 64.4286C100.375 64.5873 101.184 64.6865 101.909 64.5198C102.637 64.3572 103.324 64.2897 104.195 64.5198C105.067 64.754 106.705 64.9917 106.59 65.3054C106.555 65.4008 105.429 65.8014 105.429 65.8014C105.429 65.8014 103.847 65.7853 103.366 65.9323C102.888 66.083 102.944 66.4321 103.077 66.6545C103.206 66.8766 104.809 67.3173 105.597 67.2734C105.597 67.2734 105.6 67.2734 105.604 67.2734C105.653 67.2696 105.705 67.2654 105.753 67.2616C106.496 67.2021 107.298 67.0074 107.869 66.7259C108.479 66.4325 110.017 66.5237 110.017 66.5237C110.017 66.5237 121.017 71.2411 124.36 70.5231C126.187 70.1305 130.352 66.0834 132.008 64.4167C132.443 63.9765 132.705 63.7025 132.705 63.7025L130.973 62.4171L128.798 60.8062L126.615 59.1872C126.615 59.1872 123.381 64.0001 122.683 64.7937C122.683 64.7937 119.048 64.2859 114.621 63.8017C111.839 63.4961 109.685 63.3057 109.685 63.3057C109.685 63.3057 107.998 63.0317 107.301 63.0081C106.603 62.9844 103.934 62.7501 103.104 62.9249C102.278 63.0997 101.407 63.5083 100.898 63.6628C100.35 63.8253 99.9216 64.0119 100.249 64.4286Z" fill="url(#paint16_linear_404_379)"/>
<path opacity="0.3" d="M105.752 67.2612C106.495 67.2016 107.297 67.007 107.868 66.7255C108.478 66.4321 110.016 66.5232 110.016 66.5232C110.016 66.5232 121.016 71.2407 124.359 70.5226C126.186 70.13 130.351 66.0829 132.007 64.4163C131.693 63.7894 131.32 63.0714 130.972 62.4166C130.369 61.2819 129.849 60.3295 129.849 60.3295L128.797 60.8057L126.601 61.7978C126.601 61.7978 127.747 64.2221 128.919 65.2496C128.919 65.2496 127.688 66.9758 125.792 68.0349C123.896 69.0903 123.285 69.1262 122.414 69.3563C121.543 69.5863 116.837 68.0746 115.209 67.5909C113.582 67.1067 110.706 66.1822 109.573 66.115C108.44 66.0517 107.889 66.4088 107.339 66.5435C106.836 66.6664 106.251 67.186 105.752 67.2612Z" fill="url(#paint17_linear_404_379)"/>
<path d="M162.87 46.4672C162.87 46.4672 169.814 47.1612 171.328 48.3086C172.248 49.006 171.647 51.7664 170.364 53.1548C169.081 54.5432 161.388 54.8408 161.388 54.8408" fill="url(#paint18_linear_404_379)"/>
<path d="M125.789 60.3853C126.791 62.5087 128.463 64.0749 129.858 65.0922C129.969 65.1725 130.08 65.2484 130.188 65.3244C131.363 66.1434 132.272 66.5444 132.272 66.5444L136.129 63.028C136.129 63.028 137.872 61.5082 140.383 60.3516C142.415 64.0116 144.611 68.3892 145.471 71.5764C147.125 77.6933 149.91 74.4005 147.17 78.1196C146.977 78.3813 146.754 78.6768 146.506 79.0146C150.155 79.1074 150.915 82.9278 158.922 80.6905C166.929 78.4531 167.86 80.4625 171.079 83.2487C173.694 85.5156 171.439 78.1745 170.315 74.2063C168.71 68.5369 164.949 61.9937 161.882 57.2446L164.459 56.9702C162.197 49.5193 163.859 46.4672 163.859 46.4672C163.859 46.4672 157.532 45.6652 153.278 45.3908C148.635 45.0868 136.815 47.3073 135.068 48.6919C131.215 52.3097 125.789 60.3853 125.789 60.3853Z" fill="url(#paint19_linear_404_379)"/>
<path opacity="0.4" d="M129.858 65.0922C129.969 65.1724 130.081 65.2484 130.188 65.3244C131.364 66.1433 132.272 66.5444 132.272 66.5444L136.129 63.0279C136.129 63.0279 137.872 61.5082 140.383 60.3515C140.383 60.3515 139.912 59.3341 138.8 59.5452C137.687 59.7563 137.902 59.6128 136.511 61.0903C135.121 62.5678 132.858 62.8633 131.627 63.6653C131.149 63.9735 130.488 64.5265 129.858 65.0922Z" fill="url(#paint20_linear_404_379)"/>
<path opacity="0.4" d="M146.506 79.0145C150.155 79.1074 150.915 82.9278 158.922 80.6904C166.929 78.4531 167.86 80.4625 171.079 83.2486C173.694 85.5155 171.439 78.1745 170.315 74.2063C168.71 68.5369 164.949 61.9937 161.882 57.2446C161.882 57.2446 161.151 57.7047 159.709 58.1142C158.27 58.5237 158.641 57.9749 158.919 59.5157C159.197 61.0565 162.045 65.3835 162.475 67.5998C162.906 69.816 164.537 71.5215 164.356 73.1932C164.174 74.8649 157.854 74.4617 154.516 72.7183C151.178 70.979 150.265 70.2204 150.142 70.4594C149.963 70.8055 155.537 74.6453 158.875 75.3714C162.212 76.0933 163.74 75.7809 164.111 76.3592C164.482 76.9376 162.182 77.7299 161.059 77.6806C157.42 77.5201 153.99 76.0962 152.365 74.5301C150.745 72.9639 150.714 77.6784 156.879 78.2589C161.033 78.6498 158.085 79.6309 156.045 79.8926C154.005 80.1585 151.595 79.6815 150.297 78.681C148.998 77.6806 147.17 78.1196 147.17 78.1196C146.977 78.3813 146.754 78.6768 146.506 79.0145Z" fill="url(#paint21_linear_404_379)"/>
<path d="M155.636 63.1174C155.636 63.1174 154.608 63.304 154.283 63.4729C153.959 63.6422 153.124 64.158 153.124 64.158L154.082 64.5992L155.636 63.1174Z" fill="url(#paint22_linear_404_379)"/>
<path d="M135.959 58.359C136.356 55.5433 137.732 52.9978 139.764 51.3303C141.233 50.123 143.228 49.2027 145.494 50.085C151.457 52.4068 151.828 61.7826 152.437 62.7873C153.045 63.792 157.885 67.3507 158.775 67.4773C159.42 67.5702 159.947 67.6251 160.243 67.8446C160.358 67.9248 160.44 68.0303 160.477 68.1738C160.61 68.6804 159.783 70.2128 159.783 70.2128C159.783 70.2128 158.956 71.741 158.496 71.8296C158.037 71.9225 157.688 71.2639 157.187 70.4154C156.79 69.7484 153.642 67.5575 151.795 66.5739C151.528 66.4304 151.291 66.3122 151.09 66.2278C150.909 66.1518 150.76 66.1011 150.653 66.0842C149.588 65.9196 142.067 69.7653 137.561 64.746C136.337 63.3783 135.896 61.7404 135.851 60.1742C135.833 59.5494 135.877 58.9373 135.959 58.359ZM138.844 58.7051C138.663 58.5785 138.422 58.6418 138.31 58.8487C138.199 59.0555 138.255 59.3299 138.436 59.4566C138.618 59.5832 138.859 59.5199 138.97 59.313C139.082 59.102 139.026 58.8318 138.844 58.7051ZM143.977 60.3599C143.862 60.5668 143.921 60.837 144.103 60.9678C144.285 61.0945 144.522 61.0312 144.633 60.8243C144.748 60.6132 144.689 60.3431 144.507 60.2164C144.326 60.0898 144.088 60.1531 143.977 60.3599ZM143.907 57.3332C143.725 57.2065 143.484 57.2699 143.373 57.4767C143.261 57.6878 143.317 57.9579 143.499 58.0846C143.68 58.2112 143.921 58.1479 144.033 57.9411C144.144 57.7342 144.088 57.4598 143.907 57.3332ZM143.614 65.0246C143.499 65.2315 143.558 65.5059 143.74 65.6325C143.921 65.7592 144.159 65.6959 144.274 65.489C144.385 65.2822 144.329 65.0078 144.144 64.8811C143.962 64.7545 143.725 64.8178 143.614 65.0246ZM144.578 63.2432C144.467 63.45 144.522 63.7202 144.704 63.8469C144.886 63.9777 145.123 63.9102 145.238 63.7033C145.349 63.4965 145.294 63.2263 145.112 63.0954C144.926 62.9688 144.689 63.0363 144.578 63.2432ZM145.067 59.1822C145.249 59.313 145.486 59.2455 145.601 59.0386C145.713 58.8318 145.653 58.5616 145.472 58.4308C145.29 58.3041 145.053 58.3674 144.941 58.5785C144.826 58.7854 144.886 59.0555 145.067 59.1822ZM145.542 61.4575C145.431 61.6644 145.486 61.9388 145.668 62.0654C145.85 62.1921 146.091 62.1287 146.202 61.9219C146.314 61.715 146.258 61.4406 146.076 61.314C145.894 61.1874 145.653 61.2507 145.542 61.4575ZM146.143 64.3408C146.032 64.5476 146.087 64.8178 146.269 64.9487C146.454 65.0753 146.692 65.0078 146.803 64.8009C146.914 64.5941 146.859 64.3239 146.677 64.1972C146.495 64.0664 146.258 64.1339 146.143 64.3408ZM146.632 60.2797C146.814 60.4106 147.055 60.3431 147.167 60.1362C147.278 59.9294 147.222 59.6592 147.04 59.5325C146.859 59.4017 146.618 59.4692 146.506 59.6761C146.395 59.8829 146.451 60.1531 146.632 60.2797ZM147.107 62.5551C146.996 62.762 147.052 63.0364 147.237 63.163C147.419 63.2896 147.656 63.2263 147.767 63.0195C147.882 62.8126 147.823 62.5382 147.641 62.4116C147.459 62.2849 147.222 62.3483 147.107 62.5551ZM143.669 62.6058C143.781 62.3989 143.725 62.1287 143.543 61.9979C143.361 61.8712 143.124 61.9345 143.009 62.1414C142.898 62.3525 142.953 62.6226 143.139 62.7493C143.321 62.8759 143.558 62.8126 143.669 62.6058ZM142.942 59.1189C142.761 58.988 142.52 59.0555 142.408 59.2624C142.297 59.4692 142.353 59.7394 142.534 59.8703C142.716 59.9969 142.957 59.9336 143.068 59.7225C143.18 59.5157 143.124 59.2455 142.942 59.1189ZM142.579 63.7835C142.397 63.6569 142.156 63.7202 142.045 63.9271C141.934 64.1339 141.989 64.4041 142.171 64.535C142.356 64.6616 142.594 64.5983 142.705 64.3872C142.816 64.1804 142.761 63.9102 142.579 63.7835ZM140.48 62.8295C140.369 63.0363 140.424 63.3065 140.606 63.4374C140.788 63.564 141.025 63.4965 141.14 63.2896C141.251 63.0828 141.196 62.8126 141.01 62.686C140.828 62.5551 140.591 62.6226 140.48 62.8295ZM140.409 59.8027C140.228 59.6761 139.99 59.7394 139.875 59.9462C139.764 60.1531 139.82 60.4275 140.005 60.5541C140.187 60.6808 140.424 60.6175 140.535 60.4106C140.65 60.2038 140.591 59.9294 140.409 59.8027ZM140.969 58.7685C141.151 58.8993 141.388 58.8318 141.5 58.6249C141.615 58.4181 141.555 58.1479 141.374 58.0213C141.192 57.8904 140.955 57.9579 140.843 58.1648C140.728 58.3717 140.788 58.6418 140.969 58.7685ZM141.444 61.0438C141.333 61.2507 141.388 61.5251 141.57 61.6517C141.752 61.7784 141.993 61.715 142.104 61.5082C142.215 61.3013 142.16 61.0269 141.978 60.9003C141.793 60.7737 141.555 60.837 141.444 61.0438ZM139.445 61.5842C139.263 61.4575 139.026 61.5251 138.911 61.7319C138.8 61.9388 138.855 62.2089 139.037 62.3356C139.223 62.4665 139.46 62.3989 139.571 62.1921C139.682 61.9852 139.627 61.715 139.445 61.5842ZM139.809 56.9195C139.627 56.7928 139.386 56.8562 139.274 57.0672C139.163 57.2741 139.219 57.5442 139.401 57.6709C139.582 57.8018 139.823 57.7342 139.935 57.5274C140.046 57.3205 139.99 57.0503 139.809 56.9195ZM140.773 55.138C140.591 55.0114 140.354 55.0747 140.239 55.2816C140.127 55.4884 140.183 55.7628 140.365 55.8894C140.55 56.0161 140.788 55.9528 140.899 55.7459C141.01 55.5391 140.955 55.2647 140.773 55.138ZM141.737 53.3524C141.555 53.2257 141.318 53.2933 141.203 53.5001C141.092 53.707 141.147 53.9771 141.333 54.1038C141.515 54.2346 141.752 54.1671 141.863 53.9602C141.978 53.7534 141.919 53.4832 141.737 53.3524ZM142.338 56.2356C142.156 56.109 141.919 56.1723 141.808 56.3791C141.693 56.586 141.752 56.8604 141.934 56.987C142.115 57.1137 142.353 57.0503 142.468 56.8435C142.579 56.6366 142.523 56.3622 142.338 56.2356ZM143.306 54.4542C143.12 54.3233 142.883 54.3908 142.772 54.5977C142.66 54.8045 142.716 55.0747 142.898 55.2056C143.08 55.3322 143.321 55.2647 143.432 55.0578C143.543 54.851 143.488 54.5808 143.306 54.4542ZM144.27 52.6685C144.088 52.5418 143.847 52.6052 143.736 52.812C143.625 53.0189 143.68 53.2933 143.862 53.4199C144.044 53.5465 144.285 53.4832 144.396 53.2764C144.507 53.0695 144.452 52.7951 144.27 52.6685ZM144.871 55.5517C144.689 55.4251 144.452 55.4884 144.337 55.6953C144.226 55.9021 144.281 56.1723 144.467 56.3031C144.648 56.4298 144.886 56.3665 144.997 56.1554C145.108 55.9485 145.053 55.6784 144.871 55.5517ZM145.835 53.7661C145.653 53.6394 145.416 53.7027 145.305 53.9096C145.19 54.1207 145.249 54.3908 145.431 54.5175C145.613 54.6441 145.85 54.5808 145.961 54.3739C146.076 54.1671 146.017 53.8969 145.835 53.7661ZM146.44 56.6493C146.254 56.5227 146.017 56.586 145.906 56.7928C145.794 56.9997 145.85 57.2741 146.032 57.4007C146.213 57.5274 146.451 57.464 146.566 57.2572C146.677 57.0503 146.621 56.7759 146.44 56.6493ZM147.404 54.8636C147.222 54.737 146.981 54.8045 146.87 55.0114C146.759 55.2182 146.814 55.4884 146.996 55.6151C147.178 55.7459 147.419 55.6784 147.53 55.4715C147.641 55.2647 147.586 54.9945 147.404 54.8636ZM148.005 57.7469C147.823 57.6202 147.586 57.6836 147.471 57.8904C147.359 58.0973 147.415 58.3717 147.597 58.4983C147.782 58.6249 148.019 58.5616 148.131 58.3548C148.242 58.1479 148.186 57.8735 148.005 57.7469ZM148.075 60.7737C147.96 60.9805 148.019 61.2507 148.201 61.3815C148.383 61.5082 148.62 61.4449 148.732 61.2338C148.847 61.0269 148.787 60.7568 148.605 60.6301C148.424 60.4993 148.186 60.5668 148.075 60.7737ZM148.969 55.9654C148.787 55.8346 148.55 55.9021 148.435 56.109C148.324 56.3158 148.379 56.586 148.565 56.7168C148.746 56.8435 148.984 56.7759 149.095 56.5691C149.21 56.3622 149.151 56.0921 148.969 55.9654ZM149.57 58.8445C149.388 58.7178 149.151 58.7811 149.039 58.988C148.924 59.1991 148.984 59.4692 149.165 59.5959C149.347 59.7225 149.585 59.6592 149.7 59.4523C149.811 59.2455 149.755 58.9711 149.57 58.8445ZM151.465 62.935C151.324 62.5551 151.202 62.0612 151.12 61.6939C151.09 61.5631 150.931 61.5546 150.894 61.6813C150.634 62.5424 150.107 63.4289 150.107 63.4289C150.107 63.4289 149.648 64.3619 149.091 65.0162C149.01 65.1091 149.088 65.2653 149.203 65.2357C149.525 65.1555 149.97 65.0584 150.33 65.0331C151.079 64.9782 151.368 64.7756 151.55 64.4379C151.732 64.1001 151.762 63.7202 151.465 62.935Z" fill="url(#paint23_linear_404_379)"/>
<path opacity="0.3" d="M135.851 60.1742C135.895 61.7404 136.337 63.3783 137.56 64.746C142.066 69.7653 149.588 65.9196 150.652 66.0842C150.719 66.0927 150.797 66.118 150.893 66.1518L151.516 65.4595C151.208 65.451 150.493 65.4721 149.691 65.6959C148.627 65.9998 146.449 66.9665 143.235 66.9116C140.312 66.8618 138.321 65.1555 137.735 64.5476C137.149 63.944 136.118 62.2132 135.851 60.1742Z" fill="url(#paint24_linear_404_379)"/>
<path d="M136.742 61.5652C136.44 60.4799 136.484 59.3038 136.665 58.2404C137.079 55.8097 138.265 53.6166 139.986 52.102C140.739 51.4392 141.642 50.8651 142.629 50.6836C145.854 50.0892 147.888 52.5406 148.326 53.1578C148.326 53.1578 145.741 50.3644 142.756 51.0829C141.846 51.302 141.003 51.8732 140.295 52.5174C138.679 53.9869 137.555 56.0646 137.129 58.3683C136.943 59.3781 136.874 60.4925 137.112 61.5154C137.892 64.874 141.247 66.2434 141.247 66.2434C140.566 66.0754 137.727 65.1108 136.742 61.5652Z" fill="url(#paint25_linear_404_379)"/>
<path opacity="0.3" d="M151.09 66.2278C152.681 66.899 156.735 69.6514 157.187 70.4155C157.688 71.264 158.037 71.9225 158.496 71.8296C158.956 71.741 159.783 70.2128 159.783 70.2128C159.783 70.2128 160.61 68.6805 160.477 68.1739C160.44 68.0303 160.358 67.9248 160.243 67.8446C159.839 69.339 158.967 70.8883 158.597 70.8545C158.226 70.8207 157.929 69.4276 157.484 69.111C157.035 68.7944 156.446 68.5496 154.981 67.4773C153.512 66.4051 151.917 65.2569 151.917 65.2569L151.791 65.3117C151.791 65.3117 151.38 65.8605 151.302 65.9998C151.276 66.0505 151.19 66.1349 151.09 66.2278Z" fill="url(#paint26_linear_404_379)"/>
<path d="M150.651 66.0838C150.651 66.0838 151.28 65.8424 151.905 64.6882C152.529 63.5341 152.436 62.786 152.436 62.786C152.513 62.6282 152.828 62.8266 152.923 63.3669C153.072 64.2192 152.567 65.1522 152.567 65.1522C152.567 65.1522 152.062 66.0851 151.326 66.3173C150.86 66.4646 150.562 66.2337 150.651 66.0838Z" fill="url(#paint27_linear_404_379)"/>
<path d="M152.691 68.0924C152.815 68.9806 153.322 68.9818 153.526 69.4293C153.726 69.8726 154.126 69.6974 154.467 70.1782C154.805 70.6594 155.154 70.8486 156.062 70.667C156.426 70.5953 156.876 70.4923 157.068 70.2601C157.068 70.2601 156.887 69.9152 156.722 69.4918C156.978 69.2512 157.18 68.5158 157.18 68.5158C157.473 68.233 157.795 67.8784 158.059 67.5111C158.37 67.0636 158.53 66.5402 158.615 66.1265C158.685 65.7845 158.7 65.5143 158.704 65.4341C158.704 65.413 158.704 65.4046 158.704 65.4046C162.491 63.0659 172.407 55.2647 172.893 52.6305C173.264 50.6084 172.585 49.4053 171.84 48.713C171.836 48.7088 171.836 48.7088 171.836 48.7088C171.158 48.0713 170.423 47.8729 170.423 47.8729L164.065 50.9516C163.008 52.3785 161.554 55.2993 159.893 57.738C157.667 61.0046 156.052 62.8468 156.052 62.8468C156.052 62.8468 153.298 64.6186 152.811 65.1264C152.306 65.6524 151.88 66.2459 151.919 66.9935C151.953 67.6664 152.598 67.4224 152.691 68.0924Z" fill="url(#paint28_linear_404_379)"/>
<path d="M140.008 43.5983C140.106 43.9673 140.228 44.4713 140.346 45.007C140.66 46.368 140.981 47.9194 140.981 47.9194C140.981 47.9194 141.636 48.721 144.111 48.0224C144.222 47.9907 144.334 47.9548 144.452 47.9194C146.715 47.2051 147.171 45.7648 147.171 45.7648C146.084 44.0466 145.272 38.2738 145.272 38.2738L140.008 43.5983Z" fill="url(#paint29_linear_404_379)"/>
<path d="M140.347 45.0066C140.66 46.3676 140.981 47.919 140.981 47.919C140.981 47.919 141.636 48.7206 144.111 48.022C145.837 44.701 145.129 42.1499 145.129 42.1499L142.856 42.4277L140.633 44.5068L140.347 45.0066Z" fill="#FCA597"/>
<path d="M145.093 42.7599C144.873 44.6528 144.096 46.4305 142.829 47.6821C142.474 48.0325 142.075 48.3609 141.636 48.6252C139.661 49.8156 136.872 47.6332 135.478 43.9301C134.084 40.2271 133.328 36.5899 134.316 34.8046C135.303 33.0194 141.694 30.9361 143.756 33.2507C144.994 34.6391 145.669 37.8107 145.093 42.7599Z" fill="url(#paint30_linear_404_379)"/>
<path d="M133.663 40.84C135.057 40.4896 137.497 38.2733 137.497 38.2733C137.279 39.2274 136.318 40.2448 136.318 40.2448C136.318 40.2448 137.06 40.1941 139.022 39.2021C139.971 38.7208 140.631 37.8934 141.061 37.1673C141.488 37.6359 141.918 37.7119 142.181 37.7161L142.767 39.7044L143.298 39.5313C143.298 39.5313 142.927 37.5008 143.591 37.218C144.6 36.7874 145.108 37.7077 145.297 38.8052C145.534 40.4052 145.979 42.1486 145.979 42.1486C145.979 42.1486 146.398 41.7814 146.254 41.317C146.109 40.8569 146.487 37.7119 146.602 35.9938C146.717 34.2756 146.035 31.8103 144.555 30.8183C143.072 29.8262 141.722 30.7212 141.722 30.7212C140.995 29.9191 140.134 29.5392 139.241 29.4759C136.544 29.2775 133.511 31.8863 132.724 34.0435C131.679 36.9225 133.663 40.84 133.663 40.84Z" fill="url(#paint31_linear_404_379)"/>
<path opacity="0.3" d="M158.705 65.4058C162.491 63.0646 172.406 55.2659 172.893 52.6297C173.265 50.6093 172.586 49.4066 171.842 48.7126C171.893 48.8253 172.74 51.1897 171.422 53.1717C168.658 57.3298 158.596 64.6093 158.596 64.6093C158.596 64.6093 158.77 64.8208 158.705 65.4058Z" fill="url(#paint32_linear_404_379)"/>
<path d="M116.24 121.985C116.24 121.985 119.255 123.758 120.372 124.002C120.431 124.015 120.487 124.023 120.535 124.028C120.535 124.028 126.502 117.873 127.767 116.29C127.767 116.29 127.199 116.112 126.191 114.985C124.518 113.119 122.063 111.435 122.063 111.435L116.24 121.985Z" fill="url(#paint33_linear_404_379)"/>
<path opacity="0.2" d="M120.03 122.225L120.372 124.003C120.431 124.015 120.487 124.024 120.535 124.028C120.535 124.028 126.502 117.873 127.767 116.29C127.767 116.29 127.199 116.113 126.191 114.986C126.191 114.986 124.459 117.168 122.882 118.819C121.306 120.473 120.03 122.225 120.03 122.225Z" fill="url(#paint34_linear_404_379)"/>
<path d="M105.04 128.334C105.088 128.684 105.255 129.005 105.559 129.212C105.897 129.444 106.575 129.423 107.276 129.465C109.939 129.625 116.385 129.571 119.4 129.41C121.855 129.275 121.799 126.708 121.521 124.471C121.458 123.96 121.447 123.593 121.562 122.981C121.562 122.981 121.128 122.517 120.542 122.318C120.383 122.259 120.208 122.225 120.03 122.225C119.203 122.225 118.614 122.175 117.983 122.225C117.353 122.272 116.663 120.879 116.084 121.039C115.506 121.199 114.49 122.094 113.258 123.002C111.816 124.062 108.103 126.198 106.364 126.464C105.426 126.611 104.921 127.548 105.04 128.334Z" fill="url(#paint35_linear_404_379)"/>
<path d="M183.493 122.364C183.493 122.364 189.33 126.983 190.228 127.472C190.228 127.472 192.141 127.477 193.944 126.974C194.556 126.801 195.16 126.573 195.668 126.265C195.668 126.265 192.019 121.026 188.444 116.665C188.444 116.665 187.387 117.472 186.181 118.726C185.232 119.718 184.186 120.988 183.493 122.364Z" fill="url(#paint36_linear_404_379)"/>
<path opacity="0.2" d="M186.181 118.726C186.181 118.726 190.955 123.462 193.944 126.974C194.556 126.801 195.16 126.573 195.668 126.265C195.668 126.265 192.019 121.026 188.444 116.665C188.444 116.665 187.387 117.472 186.181 118.726Z" fill="url(#paint37_linear_404_379)"/>
<path d="M199.228 132.373C199.228 132.373 199.83 133.366 198.834 133.793C197.837 134.22 195.774 134.615 192.854 134.483C189.933 134.352 188.108 134 188.742 132.83" fill="url(#paint38_linear_404_379)"/>
<path d="M189.682 133.442C189.852 133.501 190.038 133.543 190.246 133.577C192.719 133.961 198.323 133.927 199.098 132.694C199.87 131.462 197.811 128.697 196.925 127.502C195.975 126.227 195.204 125.847 194.451 125.197C193.85 124.674 192.411 124.34 191.154 124.754C190.668 124.914 190.212 125.18 189.841 125.594C189.278 126.21 190.52 126.928 190.086 127.456C189.656 127.983 190.275 128.65 189.541 129.431C188.18 130.883 187.828 132.83 189.682 133.442Z" fill="url(#paint39_linear_404_379)"/>
<path opacity="0.3" d="M105.04 128.334C105.088 128.684 105.255 129.005 105.559 129.212C105.897 129.444 106.575 129.423 107.276 129.465C109.939 129.625 116.385 129.571 119.4 129.41C121.855 129.275 121.799 126.708 121.521 124.471C121.458 123.96 121.447 123.593 121.562 122.981C121.562 122.981 121.128 122.517 120.542 122.318C120.553 122.449 120.709 124.695 120.32 125.822C119.915 126.983 118.339 125.467 115.684 126.417C113.025 127.367 112.127 128.211 110.892 128.528C109.661 128.844 105.685 129.115 105.04 128.334Z" fill="url(#paint40_linear_404_379)"/>
<path opacity="0.3" d="M189.682 133.442C189.852 133.501 190.038 133.543 190.246 133.577C192.719 133.961 198.323 133.927 199.098 132.694C199.87 131.462 197.811 128.697 196.925 127.502C195.975 126.227 195.204 125.847 194.451 125.197C193.85 124.674 192.411 124.34 191.154 124.754C191.154 124.754 190.657 125.856 191.492 126.489C192.326 127.122 192.575 126.417 193.068 127.473C193.565 128.528 193.472 128.494 194.522 129.182C195.571 129.866 196.545 130.111 196.422 130.605C196.3 131.099 191.954 128.845 190.257 130.09C188.404 131.449 189.137 133.112 189.682 133.442Z" fill="url(#paint41_linear_404_379)"/>
<path opacity="0.3" d="M141.993 95.0391C143.009 95.685 143.962 96.3477 144.704 97.0105C147.144 99.1888 146.866 101.088 146.866 101.088L156.572 91.3791C156.572 91.3791 155.722 88.6352 155.351 88.7491C154.981 88.8673 154.61 90.024 152.707 91.1342C150.805 92.2445 149.369 92.4556 148.676 94.3003C147.979 96.1451 143.194 94.8829 141.993 95.0391Z" fill="url(#paint42_linear_404_379)"/>
<path opacity="0.2" d="M136.318 40.2442C136.318 40.2442 137.06 40.1936 139.022 39.2015C139.971 38.7203 140.631 37.8929 141.061 37.1668C141.488 37.6354 141.918 37.7114 142.181 37.7156L142.767 39.7039L143.298 39.5308C143.298 39.5308 142.927 37.5003 143.591 37.2175C144.6 36.7869 145.108 37.7071 145.297 38.8047C145.534 40.4046 145.979 42.1481 145.979 42.1481C145.979 42.1481 146.398 41.7808 146.254 41.3165C146.109 40.8563 146.487 37.7114 146.602 35.9932C146.717 34.2751 146.035 31.8098 144.555 30.8177C143.072 29.8257 141.722 30.7207 141.722 30.7207C140.995 29.9186 140.134 29.5387 139.241 29.4753C139.241 29.4753 140.898 29.694 140.758 31.2154C140.514 33.8538 138.08 34.8323 138.08 34.8323C138.08 34.8323 140.581 34.2164 141.337 33.4186C141.081 33.7141 139.411 36.3183 138.195 36.7489C138.195 36.7489 140.26 36.466 140.516 36.3098C140.516 36.3098 139.912 39.1382 136.318 40.2442Z" fill="url(#paint43_linear_404_379)"/>
<path d="M143.438 37.3358C143.438 37.3358 144.104 36.4248 145.048 36.871C146.545 37.5789 146.28 40.7724 145.127 41.0207C143.974 41.2685 143.438 37.3358 143.438 37.3358Z" fill="url(#paint44_linear_404_379)"/>
<path d="M99.8584 45.3604C99.8584 47.0705 101.071 48.4504 102.569 48.4504C103.77 48.4504 104.786 47.5711 105.145 46.3448C105.168 46.2659 105.188 46.1865 105.203 46.1029C105.257 45.8657 105.284 45.6149 105.284 45.3599C105.284 43.8259 104.303 42.5556 103.014 42.318C102.952 42.3049 102.89 42.296 102.825 42.2914C102.74 42.2783 102.655 42.2736 102.57 42.2736C101.071 42.2749 99.8584 43.6549 99.8584 45.3604Z" fill="url(#paint45_linear_404_379)"/>
<path d="M100.65 46.5993C100.986 47.3465 101.546 47.7948 102.179 47.8387C102.245 47.8429 102.311 47.8429 102.373 47.8429C103.338 47.8429 103.867 47.3507 104.334 46.9112C104.609 46.6563 104.852 46.4275 105.146 46.3443C105.169 46.2654 105.188 46.186 105.203 46.1024C104.817 46.1729 104.524 46.4498 104.215 46.7398C103.74 47.1839 103.207 47.685 102.191 47.6192C101.627 47.5795 101.125 47.1751 100.824 46.4984C100.527 45.8479 100.484 45.0652 100.716 44.6477C100.944 44.2391 101.326 43.9883 101.731 43.7291C102.083 43.505 102.442 43.2719 102.72 42.9203C102.886 42.7092 102.975 42.5028 103.014 42.3179C102.952 42.3048 102.89 42.2959 102.825 42.2913C102.786 42.4365 102.713 42.6033 102.578 42.7746C102.319 43.1001 101.975 43.3196 101.639 43.5396C101.23 43.7988 100.809 44.0715 100.554 44.5286C100.283 45.0166 100.322 45.8694 100.65 46.5993Z" fill="url(#paint46_linear_404_379)"/>
<path d="M207.239 138.914L215.982 84.3686C215.982 84.3686 216.337 83.1161 213.86 82.6585C211.357 82.1963 211.133 83.2157 211.133 83.2157L203.406 138.267C203.406 138.267 205.168 139.991 207.239 138.914Z" fill="url(#paint47_linear_404_379)"/>
<path d="M10.7679 138.914L2.02406 84.3686C2.02406 84.3686 1.66952 83.1161 4.14653 82.6585C6.64987 82.1963 6.87386 83.2157 6.87386 83.2157L14.6001 138.267C14.6001 138.267 12.8385 139.991 10.7679 138.914Z" fill="url(#paint48_linear_404_379)"/>
<path d="M204.874 119.771C204.874 119.771 112.298 104.441 13.1064 119.771" stroke="url(#paint49_linear_404_379)" stroke-miterlimit="10" stroke-linecap="round" stroke-linejoin="bevel"/>
<path d="M204.15 125.294C204.15 125.294 95.6979 112.672 13.8312 125.294" stroke="url(#paint50_linear_404_379)" stroke-miterlimit="10" stroke-linecap="round" stroke-linejoin="bevel"/>
<path d="M208.664 90.8683C208.664 90.8683 122.521 71.6827 9.31728 90.8683" stroke="url(#paint51_linear_404_379)" stroke-miterlimit="10" stroke-linecap="round" stroke-linejoin="bevel"/>
<path d="M208.117 95.0391C208.117 95.0391 124.572 75.5217 9.84814 95.0391" stroke="url(#paint52_linear_404_379)" stroke-miterlimit="10" stroke-linecap="round" stroke-linejoin="bevel"/>
<path d="M207.512 99.6536C207.512 99.6536 117.901 80.5288 10.469 99.6536" stroke="url(#paint53_linear_404_379)" stroke-miterlimit="10" stroke-linecap="round" stroke-linejoin="bevel"/>
<path d="M206.918 104.189C206.918 104.189 119.091 86.5043 11.0643 104.189" stroke="url(#paint54_linear_404_379)" stroke-miterlimit="10" stroke-linecap="round" stroke-linejoin="bevel"/>
<path d="M206.298 108.91C206.298 108.91 115.929 92.8507 11.9553 108.91" stroke="url(#paint55_linear_404_379)" stroke-miterlimit="10" stroke-linecap="round" stroke-linejoin="bevel"/>
<path d="M205.647 113.872C205.647 113.872 106.754 97.9894 12.3431 113.872" stroke="url(#paint56_linear_404_379)" stroke-miterlimit="10" stroke-linecap="round" stroke-linejoin="bevel"/>
<path d="M199.211 86.3649L193.055 129.928" stroke="url(#paint57_linear_404_379)" stroke-miterlimit="10" stroke-linecap="round" stroke-linejoin="bevel"/>
<path d="M204.058 87.639L197.989 130.396" stroke="url(#paint58_linear_404_379)" stroke-miterlimit="10" stroke-linecap="round" stroke-linejoin="bevel"/>
<path d="M108.948 78.8858L109.023 126.052" stroke="url(#paint59_linear_404_379)" stroke-miterlimit="10" stroke-linecap="round" stroke-linejoin="bevel"/>
<path d="M114.254 78.8858L113.483 126.052" stroke="url(#paint60_linear_404_379)" stroke-miterlimit="10" stroke-linecap="round" stroke-linejoin="bevel"/>
<path d="M119.738 78.8858L117.881 126.11" stroke="url(#paint61_linear_404_379)" stroke-miterlimit="10" stroke-linecap="round" stroke-linejoin="bevel"/>
<path d="M124.771 78.8858L122.293 126.11" stroke="url(#paint62_linear_404_379)" stroke-miterlimit="10" stroke-linecap="round" stroke-linejoin="bevel"/>
<path d="M129.805 78.8858L126.932 126.266" stroke="url(#paint63_linear_404_379)" stroke-miterlimit="10" stroke-linecap="round" stroke-linejoin="bevel"/>
<path d="M134.838 78.8858L131.755 126.382" stroke="url(#paint64_linear_404_379)" stroke-miterlimit="10" stroke-linecap="round" stroke-linejoin="bevel"/>
<path d="M139.871 78.8858L136.258 126.512" stroke="url(#paint65_linear_404_379)" stroke-miterlimit="10" stroke-linecap="round" stroke-linejoin="bevel"/>
<path d="M144.904 78.8858L140.897 126.512" stroke="url(#paint66_linear_404_379)" stroke-miterlimit="10" stroke-linecap="round" stroke-linejoin="bevel"/>
<path d="M149.936 78.8858L145.312 126.836" stroke="url(#paint67_linear_404_379)" stroke-miterlimit="10" stroke-linecap="round" stroke-linejoin="bevel"/>
<path d="M154.969 78.8858L149.936 127.033" stroke="url(#paint68_linear_404_379)" stroke-miterlimit="10" stroke-linecap="round" stroke-linejoin="bevel"/>
<path d="M159.892 79.863L154.502 127.25" stroke="url(#paint69_linear_404_379)" stroke-miterlimit="10" stroke-linecap="round" stroke-linejoin="bevel"/>
<path d="M164.771 80.9598L158.819 127.472" stroke="url(#paint70_linear_404_379)" stroke-miterlimit="10" stroke-linecap="round" stroke-linejoin="bevel"/>
<path d="M169.78 80.9598L163.261 127.722" stroke="url(#paint71_linear_404_379)" stroke-miterlimit="10" stroke-linecap="round" stroke-linejoin="bevel"/>
<path d="M174.549 82.5382L167.66 127.988" stroke="url(#paint72_linear_404_379)" stroke-miterlimit="10" stroke-linecap="round" stroke-linejoin="bevel"/>
<path d="M179.464 83.219L172.475 128.302" stroke="url(#paint73_linear_404_379)" stroke-miterlimit="10" stroke-linecap="round" stroke-linejoin="bevel"/>
<path d="M184.457 83.6741L177.771 128.675" stroke="url(#paint74_linear_404_379)" stroke-miterlimit="10" stroke-linecap="round" stroke-linejoin="bevel"/>
<path d="M189.347 84.6924L182.824 129.059" stroke="url(#paint75_linear_404_379)" stroke-miterlimit="10" stroke-linecap="round" stroke-linejoin="bevel"/>
<path d="M194.223 85.7883L187.824 129.468" stroke="url(#paint76_linear_404_379)" stroke-miterlimit="10" stroke-linecap="round" stroke-linejoin="bevel"/>
<path d="M18.6785 86.3649L24.8341 129.799" stroke="url(#paint77_linear_404_379)" stroke-miterlimit="10" stroke-linecap="round" stroke-linejoin="bevel"/>
<path d="M13.8312 87.639L19.8771 130.229" stroke="url(#paint78_linear_404_379)" stroke-miterlimit="10" stroke-linecap="round" stroke-linejoin="bevel"/>
<path d="M103.636 78.8858L104.406 126.052" stroke="url(#paint79_linear_404_379)" stroke-miterlimit="10" stroke-linecap="round" stroke-linejoin="bevel"/>
<path d="M98.1512 78.8858L100.001 125.94" stroke="url(#paint80_linear_404_379)" stroke-miterlimit="10" stroke-linecap="round" stroke-linejoin="bevel"/>
<path d="M93.1182 78.8858L95.5963 125.94" stroke="url(#paint81_linear_404_379)" stroke-miterlimit="10" stroke-linecap="round" stroke-linejoin="bevel"/>
<path d="M88.0848 78.8858L90.9575 126.052" stroke="url(#paint82_linear_404_379)" stroke-miterlimit="10" stroke-linecap="round" stroke-linejoin="bevel"/>
<path d="M83.0515 78.8858L86.1345 126.208" stroke="url(#paint83_linear_404_379)" stroke-miterlimit="10" stroke-linecap="round" stroke-linejoin="bevel"/>
<path d="M78.0185 78.8858L81.6318 126.208" stroke="url(#paint84_linear_404_379)" stroke-miterlimit="10" stroke-linecap="round" stroke-linejoin="bevel"/>
<path d="M72.9853 78.8858L76.9669 126.208" stroke="url(#paint85_linear_404_379)" stroke-miterlimit="10" stroke-linecap="round" stroke-linejoin="bevel"/>
<path d="M67.9519 78.8858L72.5758 126.569" stroke="url(#paint86_linear_404_379)" stroke-miterlimit="10" stroke-linecap="round" stroke-linejoin="bevel"/>
<path d="M62.9191 78.8858L67.9521 126.743" stroke="url(#paint87_linear_404_379)" stroke-miterlimit="10" stroke-linecap="round" stroke-linejoin="bevel"/>
<path d="M57.9972 79.863L63.3873 126.941" stroke="url(#paint88_linear_404_379)" stroke-miterlimit="10" stroke-linecap="round" stroke-linejoin="bevel"/>
<path d="M53.1182 80.9598L59.0695 127.154" stroke="url(#paint89_linear_404_379)" stroke-miterlimit="10" stroke-linecap="round" stroke-linejoin="bevel"/>
<path d="M48.1092 80.9598L54.5837 127.401" stroke="url(#paint90_linear_404_379)" stroke-miterlimit="10" stroke-linecap="round" stroke-linejoin="bevel"/>
<path d="M43.3405 82.5382L50.2297 127.668" stroke="url(#paint91_linear_404_379)" stroke-miterlimit="10" stroke-linecap="round" stroke-linejoin="bevel"/>
<path d="M38.4262 83.219L45.368 127.998" stroke="url(#paint92_linear_404_379)" stroke-miterlimit="10" stroke-linecap="round" stroke-linejoin="bevel"/>
<path d="M33.4325 83.6741L40.078 128.398" stroke="url(#paint93_linear_404_379)" stroke-miterlimit="10" stroke-linecap="round" stroke-linejoin="bevel"/>
<path d="M28.5423 84.6924L35.031 128.819" stroke="url(#paint94_linear_404_379)" stroke-miterlimit="10" stroke-linecap="round" stroke-linejoin="bevel"/>
<path d="M23.6657 85.7883L30.0367 129.277" stroke="url(#paint95_linear_404_379)" stroke-miterlimit="10" stroke-linecap="round" stroke-linejoin="bevel"/>
<path d="M208.969 88.5381L203.082 133.441C203.082 133.441 205.796 135.516 207.475 137.437" stroke="url(#paint96_linear_404_379)" stroke-miterlimit="10" stroke-linecap="round" stroke-linejoin="bevel"/>
<path d="M9.01144 88.5381L14.8989 133.441C14.8989 133.441 12.1846 135.516 10.5053 137.437" stroke="url(#paint97_linear_404_379)" stroke-miterlimit="10" stroke-linecap="round" stroke-linejoin="bevel"/>
<path d="M203.406 130.966C203.406 130.966 103.984 119.904 14.5992 130.966" stroke="url(#paint98_linear_404_379)" stroke-miterlimit="10" stroke-linecap="round" stroke-linejoin="bevel"/>
<path d="M215.983 84.3685C215.983 84.3685 180.421 71.8971 105.023 71.8971C40.2742 71.8971 2.02386 84.3685 2.02386 84.3685L3.06596 90.8683C3.06596 90.8683 45.9158 80.6689 105.158 80.02C138.186 79.6583 176.308 83.2406 214.941 90.8683L215.983 84.3685Z" fill="url(#paint99_linear_404_379)"/>
<path d="M40.6571 122.146C40.6571 122.146 40.399 123.002 38.6207 122.782C36.8424 122.561 35.9056 120.307 35.9056 120.307L38.5884 117.731L39.526 117.804C39.526 117.804 41.3681 120.932 40.6571 122.146Z" fill="url(#paint100_linear_404_379)"/>
<path d="M39.8931 65.8546C39.8931 65.8546 36.6362 70.1579 36.3265 71.6764C36.0168 73.1952 43.1274 79.0521 43.1274 79.0521L45.8243 68.4516L39.8931 65.8546Z" fill="url(#paint101_linear_404_379)"/>
<path d="M51.2747 56.2669C51.2747 56.2669 47.6561 57.02 44.8924 59.1357C43.5258 60.1822 39.4711 66.1915 39.4711 66.1915C39.4711 66.1915 41.9348 69.5395 43.4861 70.174C45.3675 70.9435 48.238 60.1844 48.238 60.1844" fill="url(#paint102_linear_404_379)"/>
<path d="M104.853 59.3818C105.606 60.7787 106.049 62.4985 105.672 64.4949C104.273 71.83 95.7602 73.3974 94.9139 74.2384C94.8286 74.3236 94.7244 74.465 94.6042 74.6504C94.4722 74.8551 94.3246 75.1139 94.1636 75.4144C93.0477 77.4834 91.4051 81.4591 91.3958 82.3017C91.3873 83.3706 91.4159 84.1744 90.9671 84.3943C90.5206 84.618 89.0256 83.8252 89.0256 83.8252C89.0256 83.8252 87.5288 83.0287 87.389 82.4989C87.3489 82.349 87.3668 82.2038 87.4265 82.0582C87.5748 81.6723 88.0069 81.2793 88.5235 80.7753C89.237 80.0817 91.6651 73.8036 91.6885 72.5274C91.7118 71.2517 87.2959 62.8198 91.3309 56.8857C92.8641 54.631 95.0719 54.1278 96.9651 54.2203C99.5831 54.3457 102.072 55.6678 103.842 57.8672C104.205 58.3185 104.554 58.8242 104.853 59.3818ZM101.694 60.6728C101.895 60.7804 102.138 60.6778 102.233 60.4482C102.327 60.2185 102.237 59.9424 102.035 59.8348C101.833 59.7272 101.591 59.8297 101.496 60.0594C101.402 60.289 101.49 60.5613 101.694 60.6728ZM97.3145 65.0884C97.2199 65.318 97.3045 65.5928 97.5118 65.7018C97.7135 65.8094 97.9527 65.7094 98.0477 65.4797C98.1404 65.2463 98.0555 64.9714 97.8504 64.8663C97.6483 64.7587 97.409 64.8587 97.3145 65.0884ZM96.5787 62.7902C96.7804 62.8979 97.023 62.7953 97.1176 62.5656C97.2121 62.336 97.1242 62.0637 96.9202 61.9523C96.7185 61.8446 96.476 61.9472 96.3814 62.1769C96.2868 62.4065 96.3769 62.6826 96.5787 62.7902ZM99.9899 68.9248C99.892 69.157 99.9821 69.4331 100.184 69.5407C100.389 69.6463 100.628 69.5458 100.723 69.3162C100.817 69.0865 100.731 68.8079 100.525 68.7028C100.324 68.5947 100.085 68.6952 99.9899 68.9248ZM98.2416 67.9991C98.1489 68.2325 98.2372 68.5048 98.4389 68.6124C98.644 68.718 98.8855 68.6213 98.9778 68.3879C99.0724 68.1582 98.9845 67.8859 98.7827 67.7779C98.5814 67.6706 98.3399 67.7669 98.2416 67.9991ZM96.1073 63.9423C95.9033 63.8308 95.6641 63.9309 95.5696 64.1605C95.4768 64.394 95.5618 64.6688 95.7635 64.7764C95.9686 64.8815 96.21 64.7853 96.3024 64.5518C96.397 64.3222 96.3124 64.0474 96.1073 63.9423ZM96.4989 67.0746C96.4044 67.3042 96.4945 67.5803 96.6962 67.6879C96.898 67.7956 97.1405 67.693 97.2351 67.4634C97.3297 67.2337 97.2396 66.9576 97.0378 66.85C96.8364 66.7423 96.5939 66.8449 96.4989 67.0746ZM97.432 69.9865C97.3375 70.2162 97.4254 70.4885 97.6271 70.5965C97.8289 70.7042 98.0703 70.6079 98.1682 70.3757C98.2609 70.1423 98.1727 69.87 97.9709 69.7624C97.7658 69.6568 97.5244 69.7531 97.432 69.9865ZM95.2951 65.9259C95.0934 65.8183 94.8486 65.9171 94.7563 66.1505C94.6617 66.3801 94.7496 66.6524 94.9513 66.7605C95.1531 66.8681 95.3979 66.7694 95.4902 66.5359C95.5851 66.3063 95.4969 66.0336 95.2951 65.9259ZM95.6871 69.0582C95.5925 69.2879 95.6793 69.5665 95.8844 69.6716C96.0862 69.7793 96.3254 69.6792 96.4203 69.4496C96.5182 69.2174 96.4281 68.9413 96.2264 68.8336C96.0209 68.7285 95.7817 68.8286 95.6871 69.0582ZM99.79 66.4042C99.8879 66.172 99.8 65.8997 99.596 65.7883C99.391 65.6828 99.1517 65.7832 99.0572 66.0129C98.9645 66.2463 99.0527 66.5186 99.2545 66.6263C99.4559 66.7343 99.6954 66.6339 99.79 66.4042ZM98.3214 63.7147C98.5253 63.8262 98.7679 63.7236 98.8625 63.4939C98.9552 63.2605 98.8669 62.9882 98.6652 62.8806C98.4634 62.7729 98.2186 62.8717 98.1263 63.1051C98.0317 63.3344 98.1196 63.6067 98.3214 63.7147ZM100.997 67.5508C101.201 67.6622 101.44 67.5621 101.538 67.33C101.631 67.0965 101.543 66.8242 101.341 66.7166C101.139 66.6089 100.897 66.7115 100.802 66.9412C100.708 67.1704 100.795 67.4431 100.997 67.5508ZM101.617 64.9546C101.519 65.1867 101.607 65.459 101.809 65.5667C102.014 65.6722 102.256 65.5755 102.35 65.3459C102.443 65.1124 102.355 64.8402 102.153 64.7325C101.951 64.6249 101.71 64.7215 101.617 64.9546ZM100.882 62.6564C101.084 62.7641 101.323 62.664 101.418 62.4344C101.516 62.2022 101.426 61.9261 101.224 61.8185C101.019 61.7129 100.779 61.8134 100.685 62.043C100.59 62.2727 100.677 62.5513 100.882 62.6564ZM99.4774 60.8965C99.2756 60.7888 99.0342 60.8851 98.9415 61.1185C98.8469 61.3482 98.9314 61.623 99.1365 61.7285C99.3383 61.8362 99.5797 61.7399 99.6724 61.5065C99.7674 61.2768 99.6825 61.002 99.4774 60.8965ZM99.8694 64.0292C99.7748 64.2589 99.8649 64.535 100.067 64.6426C100.268 64.7502 100.511 64.6477 100.606 64.418C100.7 64.1884 100.61 63.9123 100.408 63.8046C100.206 63.697 99.9673 63.797 99.8694 64.0292ZM102.625 63.5809C102.826 63.6886 103.068 63.5923 103.163 63.3563C103.258 63.1267 103.17 62.8544 102.968 62.7463C102.763 62.6408 102.522 62.7375 102.427 62.9671C102.335 63.2006 102.423 63.4733 102.625 63.5809ZM99.9487 59.7449C100.15 59.8525 100.395 59.7537 100.488 59.5203C100.582 59.2907 100.494 59.0184 100.293 58.9103C100.089 58.7989 99.846 58.9014 99.7514 59.1311C99.6591 59.3645 99.747 59.6368 99.9487 59.7449ZM98.206 58.8204C98.4078 58.928 98.647 58.828 98.7449 58.5958C98.8395 58.3662 98.7494 58.0901 98.5476 57.9824C98.3425 57.8769 98.1033 57.9774 98.0087 58.207C97.9142 58.4367 98.0043 58.7123 98.206 58.8204ZM96.4611 57.8925C96.6629 58.0002 96.9043 57.9039 96.997 57.6705C97.0949 57.4383 97.007 57.166 96.8053 57.0584C96.6002 56.9532 96.3588 57.0495 96.2642 57.2791C96.1715 57.5122 96.2564 57.787 96.4611 57.8925ZM97.3909 60.8066C97.596 60.9121 97.8352 60.8116 97.9297 60.582C98.0243 60.3523 97.9375 60.0737 97.7324 59.9686C97.5307 59.861 97.2915 59.961 97.1965 60.1907C97.099 60.4224 97.1891 60.6985 97.3909 60.8066ZM95.646 59.8783C95.8477 59.9859 96.0925 59.8871 96.1871 59.6575C96.2794 59.4241 96.1915 59.1518 95.9897 59.0441C95.788 58.9365 95.5466 59.0327 95.4509 59.2687C95.3563 59.4984 95.4442 59.7706 95.646 59.8783ZM93.9033 58.9542C94.105 59.0619 94.3476 58.9593 94.4421 58.7296C94.5367 58.5 94.4466 58.2239 94.2448 58.1163C94.0431 58.0086 93.8005 58.1112 93.706 58.3408C93.6114 58.5701 93.7015 58.8461 93.9033 58.9542ZM94.8338 61.8624C95.0377 61.9738 95.2769 61.8738 95.3715 61.6441C95.4672 61.4086 95.3793 61.1358 95.1776 61.0282C94.9725 60.9227 94.7333 61.0231 94.6387 61.2528C94.5441 61.482 94.632 61.7543 94.8338 61.8624ZM93.0911 60.9379C93.2928 61.0455 93.532 60.9455 93.627 60.7158C93.7215 60.4862 93.637 60.2114 93.4297 60.1024C93.2279 59.9948 92.9887 60.0948 92.8938 60.3245C92.8014 60.5575 92.886 60.8323 93.0911 60.9379ZM94.0208 63.8519C94.2259 63.9575 94.4651 63.857 94.5597 63.6273C94.6543 63.3977 94.5641 63.1216 94.3624 63.014C94.1606 62.9063 93.9214 63.0064 93.8235 63.2385C93.7289 63.4682 93.8191 63.7443 94.0208 63.8519ZM92.2759 62.924C92.4776 63.0317 92.7224 62.9329 92.8148 62.6995C92.9093 62.4698 92.8214 62.1975 92.6197 62.0895C92.4179 61.9818 92.1732 62.0806 92.0786 62.3103C91.9859 62.5437 92.0738 62.8164 92.2759 62.924ZM93.2086 65.8356C93.4104 65.9432 93.6496 65.8432 93.7475 65.611C93.8421 65.3814 93.7519 65.1053 93.5502 64.9976C93.3451 64.8921 93.1059 64.9926 93.0113 65.2222C92.9168 65.4518 93.0069 65.7279 93.2086 65.8356ZM93.9441 68.1342C93.8495 68.3638 93.934 68.6386 94.1391 68.7442C94.3431 68.8556 94.5823 68.7556 94.6769 68.5259C94.7696 68.2925 94.6847 68.0176 94.4796 67.9125C94.2782 67.804 94.0368 67.9007 93.9441 68.1342ZM91.4637 64.9077C91.6655 65.0154 91.9069 64.9191 92.0015 64.6895C92.0971 64.4535 92.0092 64.1812 91.8075 64.0736C91.6024 63.968 91.361 64.0647 91.2686 64.2981C91.1741 64.5274 91.2586 64.8026 91.4637 64.9077ZM92.3931 67.8218C92.5982 67.9273 92.8374 67.8268 92.932 67.5972C93.0265 67.3675 92.942 67.0927 92.7347 66.9838C92.5329 66.8762 92.2937 66.9762 92.1988 67.2059C92.1012 67.438 92.1913 67.7141 92.3931 67.8218ZM93.2973 73.3886C93.6266 73.5646 93.9819 73.552 94.6639 73.1091C94.991 72.8955 95.4286 72.6891 95.7509 72.5477C95.8662 72.4983 95.8551 72.3108 95.7372 72.283C94.9205 72.0757 94.0472 71.5624 94.0472 71.5624C94.0472 71.5624 93.1389 71.1331 92.4769 70.5509C92.3805 70.4648 92.2455 70.5763 92.2855 70.7101C92.3998 71.0841 92.5425 71.5957 92.6115 72.02C92.7499 72.9002 92.9679 73.2125 93.2973 73.3886Z" fill="url(#paint103_linear_404_379)"/>
<path opacity="0.4" d="M104.853 59.3818C105.606 60.7787 106.049 62.4985 105.672 64.4949C104.273 71.83 95.7602 73.3975 94.9139 74.2384C94.8597 74.2894 94.8045 74.3625 94.7373 74.4554L93.8432 74.2586C94.1076 74.0497 94.7436 73.5992 95.5562 73.27C96.6395 72.8381 99.0312 72.2556 101.81 70.1026C104.337 68.1451 105.214 65.3501 105.419 64.4353C105.625 63.5248 105.651 61.3376 104.853 59.3818Z" fill="url(#paint104_linear_404_379)"/>
<path opacity="0.4" d="M104.778 61.1802C104.493 60.0349 103.86 59.0361 103.164 58.226C101.574 56.3741 99.4288 55.2355 97.1603 55.0397C96.1674 54.954 95.089 55.0439 94.1347 55.5319C91.0172 57.1255 90.4799 60.5989 90.4094 61.4246C90.4094 61.4246 91.2546 57.2918 94.2256 55.9638C95.1309 55.5593 96.1563 55.5057 97.1002 55.6045C99.2542 55.8295 101.286 56.9081 102.823 58.6414C103.496 59.4013 104.119 60.3296 104.429 61.379C105.445 64.8233 103.207 68.2169 103.207 68.2169C103.718 67.6246 105.709 64.9225 104.778 61.1802Z" fill="url(#paint105_linear_404_379)"/>
<path opacity="0.4" d="M94.6038 74.6508C93.5535 76.279 91.4043 81.338 91.3954 82.3017C91.3869 83.3706 91.4154 84.1744 90.9667 84.3943C90.5202 84.618 89.0252 83.8252 89.0252 83.8252C89.0252 83.8252 87.5284 83.0287 87.3886 82.4989C87.3485 82.349 87.3663 82.2038 87.426 82.0581C88.5345 83.0987 90.0788 83.881 90.3859 83.6087C90.6926 83.3364 90.2476 81.9252 90.4764 81.3574C90.7082 80.7871 91.0995 80.1868 91.8371 78.2909C92.5777 76.3926 93.3903 74.3452 93.3903 74.3452L93.5283 74.3105C93.5283 74.3105 94.1654 74.5204 94.3037 74.5909C94.3519 74.617 94.4691 74.6352 94.6038 74.6508Z" fill="url(#paint106_linear_404_379)"/>
<path d="M94.9142 74.2375C94.9142 74.2375 94.2429 74.4389 93.114 73.8398C91.9851 73.2408 91.6891 72.5261 91.6891 72.5261C91.5419 72.4388 91.3669 72.8187 91.5575 73.3523C91.8583 74.194 92.7706 74.6782 92.7706 74.6782C92.7706 74.6782 93.6833 75.1624 94.4432 74.8834C94.9249 74.7065 95.0677 74.3097 94.9142 74.2375Z" fill="url(#paint107_linear_404_379)"/>
<path d="M15.6787 135.907C15.6787 135.907 18.6033 134.084 22.3194 131.753C28.4443 127.92 36.7183 122.719 37.6065 122.039C38.6772 121.213 41.4271 118.238 42.7189 116.816C43.1417 116.352 43.4094 116.052 43.4094 116.052L40.1046 114.162L37.9944 112.957L32.2148 109.654L29.8836 115.023C29.8758 115.023 28.1457 115.028 24.0417 118.984C20.2248 122.662 13.1301 132.058 13.1301 132.058C13.1301 132.058 12.6142 134.212 15.6787 135.907Z" fill="url(#paint108_linear_404_379)"/>
<path opacity="0.3" d="M21.7612 128.013L22.3197 131.753C28.4445 127.92 36.7185 122.719 37.6067 122.039C38.6774 121.213 41.4274 118.238 42.7191 116.816C41.9511 115.911 40.9542 114.931 40.1045 114.162C39.2512 113.394 38.545 112.838 38.3629 112.78L37.9943 112.957L31.8617 115.897C31.8617 115.897 32.6724 116.568 32.6219 118.401C32.5759 120.233 21.7612 128.013 21.7612 128.013Z" fill="url(#paint109_linear_404_379)"/>
<path d="M14.3684 130.362L15.1053 131.947L16.7034 135.391L23.538 130.993C23.538 130.993 23.6738 129.086 22.7388 127.297C22.5682 126.966 22.355 126.64 22.1028 126.33C20.7643 124.692 18.7435 124.939 18.7435 124.939L14.3684 130.362Z" fill="url(#paint110_linear_404_379)"/>
<path opacity="0.3" d="M15.1053 131.947L16.7034 135.391L23.538 130.993C23.538 130.993 23.6738 129.086 22.7388 127.297C22.7388 127.297 17.7155 131.624 17.3743 131.752C17.0368 131.88 16.7653 130.768 15.6868 130.591C15.303 130.53 15.148 131.139 15.1053 131.947Z" fill="url(#paint111_linear_404_379)"/>
<path d="M10.0201 133.585C10.0201 133.585 11.1954 136.256 12.3707 138.68V138.684C12.9411 139.85 13.5111 140.958 13.9454 141.682C14.7602 143.034 14.7602 144.049 15.598 144.605C16.145 144.967 17.7545 145.113 17.7545 145.113C17.7545 145.113 18.6817 145.219 19.7483 144.795C20.5242 144.49 21.1253 143.864 20.7259 142.786C20.3421 141.753 19.2169 141.66 18.4762 141.47C17.937 140.949 18.003 137.616 17.7471 137.139C17.627 136.909 17.4133 136.658 17.2546 136.37H17.2509C17.0803 136.066 16.9638 135.722 17.0647 135.329C17.2628 134.565 17.0491 132.463 16.6108 131.474C16.1687 130.485 14.4423 130.021 14.0856 130.445C13.7247 130.874 13.1235 130.578 11.7232 131.673C10.3224 132.768 10.0201 133.585 10.0201 133.585Z" fill="url(#paint112_linear_404_379)"/>
<path opacity="0.2" d="M12.3707 138.68V138.685C12.9411 139.85 13.5111 140.959 13.9454 141.683C14.7602 143.034 14.7602 144.049 15.598 144.606C16.145 144.968 17.7545 145.113 17.7545 145.113C17.7545 145.113 18.6817 145.219 19.7483 144.796C20.5242 144.491 21.1253 143.864 20.7259 142.787C20.3421 141.753 19.2169 141.661 18.4762 141.471C17.937 140.95 18.003 137.616 17.7471 137.139C17.627 136.909 17.4133 136.658 17.2546 136.371H17.2509C17.2509 136.371 17.4256 137.479 16.7465 138.309C16.0678 139.135 14.7798 137.991 14.5395 136.371C14.2992 134.75 13.9461 133.872 13.5619 133.881C13.2318 133.894 12.5376 137.426 12.3707 138.68Z" fill="url(#paint113_linear_404_379)"/>
<path d="M10.5456 132.966C10.5456 132.966 11.3133 132.117 12.8439 133.04C14.3744 133.964 14.3266 138.161 14.3266 138.161C14.3266 138.161 15.3561 142.989 15.6799 143.74C16.1268 144.777 17.7552 145.115 17.7552 145.115C17.7552 145.115 13.7243 145.097 12.5427 144.458C11.5585 143.926 10.8534 142.289 10.4566 140.103C10.0602 137.917 8.95164 134.023 10.5456 132.966Z" fill="url(#paint114_linear_404_379)"/>
<path d="M54.6938 110.745L57.8473 112.382L68.437 117.888C68.437 117.888 69.0033 122.273 70.9311 126.803C71.5207 128.189 73.4719 132.578 75.1048 136.234C76.4314 139.21 77.5447 141.7 77.5447 141.7C77.5447 141.7 80.0933 142.447 81.5983 141.564C82.0637 141.29 82.2732 140.57 82.1683 139.859C82.1683 139.859 78.3825 113.976 76.7611 112.193C75.1396 110.414 67.6763 102.417 67.6763 102.417C67.6763 102.417 50.6595 97.7058 54.6938 110.745Z" fill="url(#paint115_linear_404_379)"/>
<path opacity="0.3" d="M57.8475 112.382L68.4372 117.889C68.4372 117.889 69.0035 122.273 70.9313 126.803C71.521 128.189 73.4721 132.578 75.105 136.234C76.327 135.514 77.3276 134.34 76.6916 132.609C75.4191 129.165 71.8814 114.714 71.3656 114.418C70.8497 114.127 64.8372 109.685 64.8372 109.685L59.7286 108.387L57.8475 112.382Z" fill="url(#paint116_linear_404_379)"/>
<path d="M73.4761 132.583L77.3784 141.612C77.3784 141.612 78.3946 141.908 79.5001 142.009C80.9005 142.137 82.4481 141.956 82.2734 140.472C81.8236 136.622 80.6057 129.858 80.6057 129.858C80.6057 129.858 78.2703 129.991 76.1178 130.847C75.1131 131.249 74.1474 131.805 73.4761 132.583Z" fill="url(#paint117_linear_404_379)"/>
<path opacity="0.3" d="M73.4758 132.583L77.378 141.612C77.378 141.612 78.3942 141.908 79.4998 142.009C78.2117 138.265 76.1171 130.847 76.1171 130.847C75.1128 131.249 74.1471 131.805 73.4758 132.583Z" fill="url(#paint118_linear_404_379)"/>
<path d="M93.4494 147.392C93.4494 147.392 93.7505 147.902 93.3626 148.27C92.9747 148.638 92.5545 148.79 90.6149 148.988C88.6752 149.186 86.3158 149.345 84.9417 149.363C83.568 149.381 82.5337 149.448 81.0788 149.521C79.6243 149.595 78.2343 149.629 77.6201 149.537C77.006 149.445 77.1406 148.272 77.6412 147.849C78.1423 147.426 83.0507 147.681 83.0507 147.681" fill="url(#paint119_linear_404_379)"/>
<path d="M76.6963 144.367C76.7274 145.188 76.766 146.085 76.832 146.853C76.9058 147.736 77.0222 148.442 77.2236 148.65C77.6038 149.034 80.1757 148.871 82.1539 148.654C84.1362 148.438 90.1138 148.645 92.2663 148.103C93.3177 147.837 93.6937 147.241 93.6396 146.654C93.6162 146.425 93.4883 146.08 93.3021 145.718C92.988 145.122 92.507 144.5 92.0723 144.372C90.699 143.97 82.1966 139.859 82.1966 139.859C82.1966 139.859 82.1691 140.628 80.7884 140.663C80.5128 140.491 80.1446 140.288 79.8341 140.23C79.2523 140.12 76.7155 140.416 76.8316 140.84C76.9481 141.259 76.944 142.337 76.944 142.337C76.7893 142.875 76.6614 143.577 76.6963 144.367Z" fill="url(#paint120_linear_404_379)"/>
<path opacity="0.2" d="M76.6963 144.367C76.7274 145.188 76.766 146.085 76.832 146.853C76.9058 147.736 77.0222 148.442 77.2236 148.65C77.6038 149.034 80.1757 148.871 82.1539 148.654C84.1362 148.438 90.1138 148.646 92.2663 148.103C93.3177 147.838 93.6937 147.241 93.6396 146.654C93.6162 146.425 93.4883 146.08 93.3021 145.718C92.3208 147.1 90.0826 146.173 87.5303 145.546C84.974 144.923 84.8149 145.586 83.4575 144.959C82.0998 144.332 82.6156 143.634 82.0649 142.275C81.5179 140.91 80.7887 140.663 80.7887 140.663C80.5132 140.491 80.1449 140.287 79.8345 140.23C79.2526 140.12 76.7159 140.415 76.832 140.839C76.9484 141.259 76.9444 142.336 76.9444 142.336C76.7893 142.875 76.6614 143.577 76.6963 144.367Z" fill="url(#paint121_linear_404_379)"/>
<path d="M52.254 41.3208C53.1167 37.8669 63.2817 38.7221 63.9233 40.0147C64.1355 40.4419 64.2708 41.0866 64.3105 41.9937L64.3235 41.9646C64.3235 41.9646 64.3201 42.0182 64.315 42.0997C64.3435 42.9292 64.2923 43.9766 64.1495 45.2696C64.1221 45.9805 64.1084 46.6069 64.1295 46.8948C64.1941 47.778 64.3995 48.4036 64.1191 49.5071C63.8388 50.611 63.5799 51.4848 63.2164 52.8369C62.853 54.1891 62.3115 54.8995 61.7697 54.9869C61.4114 55.1596 60.5247 55.0726 59.5174 54.7864C59.0275 56.4822 58.8884 58.4409 58.8884 58.4409C58.8884 58.4409 56.8075 58.5232 54.8594 57.5654C54.395 57.337 51.9184 57.1973 51.9184 57.1973C52.6453 55.7417 53.7004 49.7591 53.7004 49.7591C53.7004 49.7591 53.7323 49.7671 53.7902 49.7819C53.4638 48.9169 53.2609 47.897 53.1081 46.5267C52.7447 43.269 52.254 41.3208 52.254 41.3208Z" fill="url(#paint122_linear_404_379)"/>
<path d="M35.9085 91.5243L36.3703 91.6966C36.4244 91.5817 36.4556 91.5243 36.4556 91.5243H35.9085Z" fill="url(#paint123_linear_404_379)"/>
<path d="M29.426 114.277C29.426 114.277 32.3506 116.524 36.7458 118.401C37.1686 118.582 37.5758 118.785 37.96 119.01C38.8019 119.495 39.5154 120.047 39.9304 120.529C40.714 121.438 40.6558 122.145 40.6558 122.145L50.0276 106.28L48.7396 102.293L46.5403 95.4671L36.3697 91.6965C35.9703 92.5003 34.3796 96.0016 34.8065 99.8118C35.1629 103.018 29.426 114.277 29.426 114.277Z" fill="url(#paint124_linear_404_379)"/>
<path opacity="0.2" d="M39.9299 120.529C40.7136 121.438 40.6553 122.145 40.6553 122.145L50.0271 106.28L48.7391 102.293C47.8004 101.622 47.0557 101.101 47.0557 101.101L41.3885 99.3438C41.3885 99.3438 41.8851 103.088 42.9206 105.737C43.9523 108.387 43.1765 110.152 41.8847 112.802C40.593 115.451 41.0273 115.597 39.4682 117.288C39.0183 117.778 38.4869 118.388 37.9591 119.01C38.8014 119.496 39.5149 120.047 39.9299 120.529Z" fill="url(#paint125_linear_404_379)"/>
<path d="M43.8257 104.594C45.9593 107.256 49.0352 109.795 52.0337 111.058C54.237 111.983 57.7257 115.381 59.3902 116.701C59.991 117.178 60.3036 116.701 60.3036 116.701C60.3036 116.701 64.935 111.919 67.1965 108.67C67.5881 108.104 68.0228 107.61 68.4456 107.195C69.5667 106.087 70.6025 105.513 70.6025 105.513L58.3721 92.4877L47.2936 94.3996L41.1106 95.468C41.1102 95.4672 40.5283 100.483 43.8257 104.594Z" fill="url(#paint126_linear_404_379)"/>
<path opacity="0.2" d="M47.2507 94.478L48.8025 97.8336C48.8025 97.8336 52.0375 98.7434 54.753 98.4517C57.4681 98.1557 57.856 97.3477 59.1477 98.4517C60.4395 99.5556 60.2455 99.6261 62.4447 101.172C64.644 102.717 64.997 103.821 66.4052 105C67.2122 105.675 67.8482 106.545 68.4453 107.194C69.5665 106.086 70.6023 105.512 70.6023 105.512L58.3719 92.4863L47.2934 94.3982C47.2663 94.4518 47.2507 94.478 47.2507 94.478Z" fill="url(#paint127_linear_404_379)"/>
<path d="M43.2275 97.2157C55.9779 99.8782 59.5697 93.0302 59.5697 93.0302C59.5697 93.0302 59.8219 92.3636 59.5115 91.7274C58.8172 90.2925 60.6286 79.687 61.7964 75.1701C61.9051 74.7593 62.5604 73.0551 63.2354 70.9182C64.24 67.7391 65.2911 63.6063 64.6358 61.3765C63.8562 60.2418 58.5302 58.1754 57.7584 57.6941C54.7833 55.8443 54.6476 56.8022 52.2774 56.228C50.8073 55.8747 47.1687 57.0934 44.5545 63.6063C43.9066 65.2092 42.9175 68.0261 41.7808 72.7727C40.6715 77.4087 39.2519 81.3828 37.8437 84.7072C37.84 84.7114 37.84 84.716 37.8359 84.7249C36.0554 88.924 36.5983 90.3808 35.4854 92.5223C34.2593 94.8846 42.1995 97.0038 43.2275 97.2157Z" fill="url(#paint128_linear_404_379)"/>
<path opacity="0.2" d="M43.2274 97.2157C55.9778 99.8781 59.5696 93.0301 59.5696 93.0301C59.5696 93.0301 59.8218 92.3635 59.5114 91.7274C58.8171 90.2925 60.6284 79.687 61.7963 75.17C61.9049 74.7593 62.5603 73.0551 63.2352 70.9182L62.4438 68.9708L57.8859 70.2115C57.8859 70.2115 53.6543 80.221 52.7854 82.0404C51.9086 83.8594 51.7688 88.4427 50.0269 89.105C48.289 89.7674 49.2084 91.3614 49.2084 91.697C49.2084 92.0279 52.3581 92.4475 54.0066 92.4872C55.6551 92.5269 49.926 95.2337 45.3721 95.3971C40.8183 95.5604 35.9191 92.5138 35.4845 92.5227C34.2591 94.8846 42.1994 97.0037 43.2274 97.2157Z" fill="url(#paint129_linear_404_379)"/>
<path d="M68.6093 67.8834L72.8224 73.9049L71.5733 79.538C68.9728 79.714 62.9733 72.3366 62.9733 72.3366C62.9733 72.3366 66.1509 67.9835 68.6093 67.8834Z" fill="url(#paint130_linear_404_379)"/>
<path d="M82.5619 75.6846C86.3329 76.908 86.4434 77.0448 87.4477 77.0182C87.9547 77.0047 88.6085 75.959 89.4585 75.3047C90.0642 74.8386 90.9542 74.7095 91.1456 74.6913C91.0566 75.0311 90.9984 75.2055 90.8786 75.4765C91.6704 75.5039 93.0181 76.1616 93.5985 76.4947C94.4411 76.9789 93.514 77.8688 93.514 77.8688C93.514 77.8688 93.9178 78.364 93.4772 78.9858C93.2154 79.3556 92.8434 79.5768 92.8434 79.5768C92.8434 79.5768 93.0774 79.9086 92.882 80.3527C92.6098 80.9707 92.2011 81.2476 92.2011 81.2476C92.2011 81.2476 92.3123 81.6288 92.0238 82.1257C91.7353 82.6225 91.1345 82.7264 90.5222 82.7378C89.6403 82.7543 88.6916 82.3021 87.9576 81.8572C87.2237 81.4123 86.1523 80.953 85.5059 80.893C84.3888 80.7892 82.9476 80.8259 81.3562 80.8588C77.2663 80.9433 72.8927 80.6689 70.6156 79.3437L72.0193 73.3442C72.0193 73.3442 77.3954 74.0083 82.5619 75.6846Z" fill="url(#paint131_linear_404_379)"/>
<path d="M59.9381 60.3291C60.1405 60.1578 60.3716 60.0362 60.6134 59.9539C61.5628 59.6297 63.5247 59.5634 65.9231 62.908C66.9133 64.2889 70.2915 69.7843 70.2915 69.7843C70.2915 69.7843 69.5965 70.7536 66.93 73.7065C65.7503 75.0126 63.6037 76.8249 63.6037 76.8249C63.6037 76.8249 59.3417 72.253 57.8868 70.2137C56.486 68.2494 57.3283 62.5365 59.9381 60.3291Z" fill="url(#paint132_linear_404_379)"/>
<path d="M86.9758 77.1343C86.9758 77.1343 87.6011 79.4438 86.4229 81.224C86.4229 81.224 86.2708 81.3414 85.9867 81.3612C85.1764 81.4178 83.5075 81.2658 83.0539 80.8973C83.0539 80.8973 84.1899 79.9251 83.8936 76.1456C84.3557 75.7463 86.7908 76.5707 86.9758 77.1343Z" fill="url(#paint133_linear_404_379)"/>
<path d="M52.0228 50.7C52.4185 51.7685 52.7716 52.5326 52.8569 52.6782C53.1632 53.2126 54.8158 53.398 55.2386 52.8813C55.6577 52.3646 55.9099 51.3447 56.1735 50.5059C56.4721 49.57 56.771 48.2892 56.9842 47.49C57.2479 46.4832 58.3498 46.1434 58.7919 47.0839C59.2458 48.0422 59.1527 50.1749 59.1527 50.1749L59.8818 50.3028L60.6925 47.4331C60.6925 47.4331 61.0456 47.5082 61.4995 46.9299C61.7751 46.5723 61.9457 45.6626 62.031 45.0049C63.3498 45.0049 63.8775 44.294 64.3815 43.6979C64.393 43.6848 64.4086 43.6713 64.4205 43.6536C64.4476 43.6228 64.4709 43.592 64.498 43.5654C64.7539 43.2255 64.9905 42.5982 65.2 41.8874C65.7122 40.1519 66.0497 37.8913 66.0497 37.8913C65.4678 38.205 63.1948 37.8913 63.1948 37.8913C63.8775 37.6351 64.4012 36.4696 64.4012 36.4696C63.6914 36.8934 61.8177 36.73 61.8177 36.73C62.2524 36.4565 62.3996 35.9837 62.3996 35.9837C61.2592 36.3944 58.1209 36.73 58.1209 36.73C58.1209 36.73 58.1209 36.73 58.1209 36.7342C57.8105 36.7385 57.5079 36.7562 57.2171 36.7828C55.305 36.9639 53.8271 37.6039 53.082 38.3147C52.2209 39.1447 52.0191 41.4454 52.0191 41.4454C49.6374 42.96 50.9833 47.8919 52.0228 50.7Z" fill="url(#paint134_linear_404_379)"/>
<path opacity="0.2" d="M52.0228 50.7C52.4185 51.7685 52.7716 52.5326 52.8569 52.6782C53.1632 53.2126 54.8158 53.398 55.2386 52.8813C55.6577 52.3646 55.9099 51.3447 56.1735 50.5059C56.4721 49.57 56.771 48.2892 56.9842 47.49C57.2479 46.4832 58.3498 46.1434 58.7919 47.0839C59.2458 48.0422 59.1527 50.1749 59.1527 50.1749L59.8818 50.3028L60.6925 47.4331C60.6925 47.4331 61.0456 47.5082 61.4995 46.9299C61.7751 46.5723 61.9457 45.6626 62.031 45.0049C63.3498 45.0049 63.8775 44.294 64.3815 43.6979C64.393 43.6848 64.4086 43.6713 64.4205 43.6536C64.4476 43.6228 64.4709 43.592 64.498 43.5654C64.7539 43.2255 64.9905 42.5982 65.2 41.8874C65.7122 40.1519 66.0497 37.8913 66.0497 37.8913C65.4678 38.205 63.1948 37.8913 63.1948 37.8913C63.8775 37.6351 64.4012 36.4696 64.4012 36.4696C63.6914 36.8934 61.8177 36.73 61.8177 36.73C62.2524 36.4565 62.3996 35.9837 62.3996 35.9837C61.2592 36.3944 58.121 36.73 58.121 36.73C58.121 36.73 58.121 36.73 58.121 36.7342C57.8105 36.7385 57.5079 36.7562 57.2171 36.7828C57.2171 36.7828 59.0752 38.7698 59.2187 40.3681C59.3622 41.9709 58.2489 42.0811 57.473 42.8541C56.6972 43.6266 56.2588 43.8474 55.5334 43.7372C54.808 43.627 54.5132 45.1721 54.1253 46.0024C53.7377 46.8277 53.652 50.6561 52.0228 50.7Z" fill="url(#paint135_linear_404_379)"/>
<defs>
<linearGradient id="paint0_linear_404_379" x1="104.918" y1="3.11075" x2="104.918" y2="140.067" gradientUnits="userSpaceOnUse">
<stop stop-color="white"/>
<stop offset="1" stop-color="#D5DBEF"/>
</linearGradient>
<linearGradient id="paint1_linear_404_379" x1="185.4" y1="3.11079" x2="185.4" y2="140.067" gradientUnits="userSpaceOnUse">
<stop stop-color="white"/>
<stop offset="1" stop-color="#D5DBEF"/>
</linearGradient>
<linearGradient id="paint2_linear_404_379" x1="77.4187" y1="3.11074" x2="77.4187" y2="140.067" gradientUnits="userSpaceOnUse">
<stop stop-color="white"/>
<stop offset="1" stop-color="#D5DBEF"/>
</linearGradient>
<linearGradient id="paint3_linear_404_379" x1="109.856" y1="111.047" x2="109.856" y2="179.592" gradientUnits="userSpaceOnUse">
<stop stop-color="#0091CC"/>
<stop offset="0.3475" stop-color="#0C6EAA"/>
<stop offset="1" stop-color="#20306E"/>
</linearGradient>
<linearGradient id="paint4_linear_404_379" x1="161.353" y1="109.674" x2="161.353" y2="178.219" gradientUnits="userSpaceOnUse">
<stop stop-color="#0091CC"/>
<stop offset="0.3475" stop-color="#0C6EAA"/>
<stop offset="1" stop-color="#20306E"/>
</linearGradient>
<linearGradient id="paint5_linear_404_379" x1="63.388" y1="111.047" x2="63.388" y2="179.592" gradientUnits="userSpaceOnUse">
<stop stop-color="#0091CC"/>
<stop offset="0.3475" stop-color="#0C6EAA"/>
<stop offset="1" stop-color="#20306E"/>
</linearGradient>
<linearGradient id="paint6_linear_404_379" x1="162.918" y1="100.877" x2="162.743" y2="103.595" gradientUnits="userSpaceOnUse">
<stop stop-color="#0D4745"/>
<stop offset="1" stop-color="#369540"/>
</linearGradient>
<linearGradient id="paint7_linear_404_379" x1="143.666" y1="97.3304" x2="143.325" y2="102.622" gradientUnits="userSpaceOnUse">
<stop stop-color="#0D4745"/>
<stop offset="1" stop-color="#369540"/>
</linearGradient>
<linearGradient id="paint8_linear_404_379" x1="146.686" y1="75.7321" x2="209.191" y2="121.457" gradientUnits="userSpaceOnUse">
<stop stop-color="#FFCFC5"/>
<stop offset="1" stop-color="#FFB3A9"/>
</linearGradient>
<linearGradient id="paint9_linear_404_379" x1="154.039" y1="82.4174" x2="207.678" y2="121.656" gradientUnits="userSpaceOnUse">
<stop stop-color="#FFCFC5"/>
<stop offset="1" stop-color="#FFB3A9"/>
</linearGradient>
<linearGradient id="paint10_linear_404_379" x1="113.24" y1="130.426" x2="113.24" y2="125.143" gradientUnits="userSpaceOnUse">
<stop stop-color="white"/>
<stop offset="1" stop-color="#F0F0BF"/>
</linearGradient>
<linearGradient id="paint11_linear_404_379" x1="122.006" y1="99.6979" x2="137.987" y2="111.389" gradientUnits="userSpaceOnUse">
<stop stop-color="#FFCFC5"/>
<stop offset="1" stop-color="#FFB3A9"/>
</linearGradient>
<linearGradient id="paint12_linear_404_379" x1="123.772" y1="103.542" x2="142.717" y2="112.009" gradientUnits="userSpaceOnUse">
<stop stop-color="#FFCFC5"/>
<stop offset="1" stop-color="#FFB3A9"/>
</linearGradient>
<linearGradient id="paint13_linear_404_379" x1="132.165" y1="85.0427" x2="184.063" y2="90.0748" gradientUnits="userSpaceOnUse">
<stop stop-color="#ABBD43"/>
<stop offset="1" stop-color="#52A640"/>
</linearGradient>
<linearGradient id="paint14_linear_404_379" x1="162.297" y1="74.7175" x2="162.761" y2="97.9554" gradientUnits="userSpaceOnUse">
<stop stop-color="#ABBD43"/>
<stop offset="1" stop-color="#369540"/>
</linearGradient>
<linearGradient id="paint15_linear_404_379" x1="101.224" y1="63.2184" x2="106.456" y2="65.8182" gradientUnits="userSpaceOnUse">
<stop stop-color="#FFCFC5"/>
<stop offset="1" stop-color="#FFB3A9"/>
</linearGradient>
<linearGradient id="paint16_linear_404_379" x1="104.143" y1="56.0411" x2="130.102" y2="68.9394" gradientUnits="userSpaceOnUse">
<stop stop-color="#FFCFC5"/>
<stop offset="1" stop-color="#FFB3A9"/>
</linearGradient>
<linearGradient id="paint17_linear_404_379" x1="117.336" y1="49.584" x2="119.825" y2="69.8161" gradientUnits="userSpaceOnUse">
<stop stop-color="#FFCFC5"/>
<stop offset="1" stop-color="#FFB3A9"/>
</linearGradient>
<linearGradient id="paint18_linear_404_379" x1="151.537" y1="67.4894" x2="169.281" y2="51.4366" gradientUnits="userSpaceOnUse">
<stop stop-color="#FFCFC5"/>
<stop offset="1" stop-color="#FFB3A9"/>
</linearGradient>
<linearGradient id="paint19_linear_404_379" x1="166.762" y1="70.6963" x2="133.39" y2="53.0016" gradientUnits="userSpaceOnUse">
<stop stop-color="#0D4745"/>
<stop offset="1" stop-color="#369540"/>
</linearGradient>
<linearGradient id="paint20_linear_404_379" x1="131.776" y1="59.2532" x2="139.828" y2="65.6011" gradientUnits="userSpaceOnUse">
<stop stop-color="#0D4745"/>
<stop offset="1" stop-color="#369540"/>
</linearGradient>
<linearGradient id="paint21_linear_404_379" x1="145.971" y1="63.3687" x2="179.858" y2="78.512" gradientUnits="userSpaceOnUse">
<stop stop-color="#0D4745"/>
<stop offset="1" stop-color="#369540"/>
</linearGradient>
<linearGradient id="paint22_linear_404_379" x1="154.678" y1="63.4329" x2="153.411" y2="64.2938" gradientUnits="userSpaceOnUse">
<stop stop-color="#FFCFC5"/>
<stop offset="1" stop-color="#FFB3A9"/>
</linearGradient>
<linearGradient id="paint23_linear_404_379" x1="160.907" y1="59.9667" x2="134.06" y2="61.6738" gradientUnits="userSpaceOnUse">
<stop stop-color="#CED443"/>
<stop offset="1" stop-color="#A1C740"/>
</linearGradient>
<linearGradient id="paint24_linear_404_379" x1="139.934" y1="67.2112" x2="146.165" y2="61.5746" gradientUnits="userSpaceOnUse">
<stop stop-color="#CED443"/>
<stop offset="1" stop-color="#A1C740"/>
</linearGradient>
<linearGradient id="paint25_linear_404_379" x1="140.09" y1="56.4076" x2="145.321" y2="59.2374" gradientUnits="userSpaceOnUse">
<stop stop-color="#CED443"/>
<stop offset="1" stop-color="#A1C740"/>
</linearGradient>
<linearGradient id="paint26_linear_404_379" x1="154.284" y1="69.6662" x2="157.895" y2="66.3998" gradientUnits="userSpaceOnUse">
<stop stop-color="#CED443"/>
<stop offset="1" stop-color="#A1C740"/>
</linearGradient>
<linearGradient id="paint27_linear_404_379" x1="152.848" y1="63.0662" x2="151.358" y2="65.4353" gradientUnits="userSpaceOnUse">
<stop stop-color="#EAEA43"/>
<stop offset="1" stop-color="#86B840"/>
</linearGradient>
<linearGradient id="paint28_linear_404_379" x1="153.781" y1="69.3156" x2="171.156" y2="53.597" gradientUnits="userSpaceOnUse">
<stop stop-color="#FFCFC5"/>
<stop offset="1" stop-color="#FFB3A9"/>
</linearGradient>
<linearGradient id="paint29_linear_404_379" x1="144.873" y1="50.284" x2="139.8" y2="33.375" gradientUnits="userSpaceOnUse">
<stop stop-color="#FFCFC5"/>
<stop offset="1" stop-color="#FFB3A9"/>
</linearGradient>
<linearGradient id="paint30_linear_404_379" x1="141.918" y1="52.4393" x2="136.208" y2="24.8852" gradientUnits="userSpaceOnUse">
<stop stop-color="#FFCFC5"/>
<stop offset="1" stop-color="#FFB3A9"/>
</linearGradient>
<linearGradient id="paint31_linear_404_379" x1="146.615" y1="35.8071" x2="132.42" y2="35.8071" gradientUnits="userSpaceOnUse">
<stop stop-color="#814F52"/>
<stop offset="1" stop-color="#A44036"/>
</linearGradient>
<linearGradient id="paint32_linear_404_379" x1="161.899" y1="55.4782" x2="170.73" y2="58.6719" gradientUnits="userSpaceOnUse">
<stop stop-color="#FFCFC5"/>
<stop offset="1" stop-color="#FFB3A9"/>
</linearGradient>
<linearGradient id="paint33_linear_404_379" x1="124.424" y1="121.256" x2="116.784" y2="116.029" gradientUnits="userSpaceOnUse">
<stop stop-color="#0D4745"/>
<stop offset="1" stop-color="#369540"/>
</linearGradient>
<linearGradient id="paint34_linear_404_379" x1="121.784" y1="117.981" x2="125.221" y2="120.495" gradientUnits="userSpaceOnUse">
<stop stop-color="#0D4745"/>
<stop offset="1" stop-color="#369540"/>
</linearGradient>
<linearGradient id="paint35_linear_404_379" x1="113.241" y1="120.864" x2="113.401" y2="128.884" gradientUnits="userSpaceOnUse">
<stop stop-color="#ABBD43"/>
<stop offset="1" stop-color="#52A640"/>
</linearGradient>
<linearGradient id="paint36_linear_404_379" x1="193.546" y1="119.244" x2="182.668" y2="129.496" gradientUnits="userSpaceOnUse">
<stop stop-color="#0D4745"/>
<stop offset="1" stop-color="#369540"/>
</linearGradient>
<linearGradient id="paint37_linear_404_379" x1="183.37" y1="114.405" x2="198.558" y2="125.515" gradientUnits="userSpaceOnUse">
<stop stop-color="#0D4745"/>
<stop offset="1" stop-color="#369540"/>
</linearGradient>
<linearGradient id="paint38_linear_404_379" x1="194.012" y1="134.656" x2="194.012" y2="130.88" gradientUnits="userSpaceOnUse">
<stop stop-color="white"/>
<stop offset="1" stop-color="#F0F0BF"/>
</linearGradient>
<linearGradient id="paint39_linear_404_379" x1="199.268" y1="129.181" x2="188.404" y2="129.181" gradientUnits="userSpaceOnUse">
<stop stop-color="#ABBD43"/>
<stop offset="1" stop-color="#52A640"/>
</linearGradient>
<linearGradient id="paint40_linear_404_379" x1="103.875" y1="123.548" x2="117.237" y2="126.071" gradientUnits="userSpaceOnUse">
<stop stop-color="#ABBD43"/>
<stop offset="1" stop-color="#369540"/>
</linearGradient>
<linearGradient id="paint41_linear_404_379" x1="189.961" y1="128.58" x2="200.134" y2="131.007" gradientUnits="userSpaceOnUse">
<stop stop-color="#ABBD43"/>
<stop offset="1" stop-color="#369540"/>
</linearGradient>
<linearGradient id="paint42_linear_404_379" x1="149.21" y1="88.5525" x2="149.44" y2="100.048" gradientUnits="userSpaceOnUse">
<stop stop-color="#ABBD43"/>
<stop offset="1" stop-color="#369540"/>
</linearGradient>
<linearGradient id="paint43_linear_404_379" x1="144.777" y1="31.4262" x2="140.146" y2="38.7887" gradientUnits="userSpaceOnUse">
<stop stop-color="#814F52"/>
<stop offset="1" stop-color="#A44036"/>
</linearGradient>
<linearGradient id="paint44_linear_404_379" x1="146.585" y1="49.4476" x2="140.208" y2="18.6706" gradientUnits="userSpaceOnUse">
<stop stop-color="#FFCFC5"/>
<stop offset="1" stop-color="#FFB3A9"/>
</linearGradient>
<linearGradient id="paint45_linear_404_379" x1="104.148" y1="47.7431" x2="100.343" y2="43.3081" gradientUnits="userSpaceOnUse">
<stop stop-color="#BB7900"/>
<stop offset="1" stop-color="#F9D660"/>
</linearGradient>
<linearGradient id="paint46_linear_404_379" x1="103.814" y1="47.4862" x2="100.827" y2="44.0048" gradientUnits="userSpaceOnUse">
<stop stop-color="#BBAB00"/>
<stop offset="1" stop-color="#FEE54F"/>
</linearGradient>
<linearGradient id="paint47_linear_404_379" x1="207.209" y1="110.585" x2="212.917" y2="111.24" gradientUnits="userSpaceOnUse">
<stop stop-color="#BFC2C5"/>
<stop offset="1" stop-color="#66837C"/>
</linearGradient>
<linearGradient id="paint48_linear_404_379" x1="5.42308" y1="111.529" x2="12.6407" y2="110.436" gradientUnits="userSpaceOnUse">
<stop stop-color="#BFC2C5"/>
<stop offset="1" stop-color="#66837C"/>
</linearGradient>
<linearGradient id="paint49_linear_404_379" x1="36.1828" y1="72.899" x2="190.322" y2="149.487" gradientUnits="userSpaceOnUse">
<stop stop-color="#BFC2C5"/>
<stop offset="1" stop-color="#D8C2C4"/>
</linearGradient>
<linearGradient id="paint50_linear_404_379" x1="36.732" y1="78.7753" x2="189.71" y2="154.786" gradientUnits="userSpaceOnUse">
<stop stop-color="#BFC2C5"/>
<stop offset="1" stop-color="#D8C2C4"/>
</linearGradient>
<linearGradient id="paint51_linear_404_379" x1="33.312" y1="42.1484" x2="193.53" y2="121.756" gradientUnits="userSpaceOnUse">
<stop stop-color="#BFC2C5"/>
<stop offset="1" stop-color="#D8C2C4"/>
</linearGradient>
<linearGradient id="paint52_linear_404_379" x1="33.7121" y1="46.5819" x2="193.066" y2="125.76" gradientUnits="userSpaceOnUse">
<stop stop-color="#BFC2C5"/>
<stop offset="1" stop-color="#D8C2C4"/>
</linearGradient>
<linearGradient id="paint53_linear_404_379" x1="34.1845" y1="51.4952" x2="192.555" y2="130.185" gradientUnits="userSpaceOnUse">
<stop stop-color="#BFC2C5"/>
<stop offset="1" stop-color="#D8C2C4"/>
</linearGradient>
<linearGradient id="paint54_linear_404_379" x1="34.6355" y1="56.3209" x2="192.052" y2="134.537" gradientUnits="userSpaceOnUse">
<stop stop-color="#BFC2C5"/>
<stop offset="1" stop-color="#D8C2C4"/>
</linearGradient>
<linearGradient id="paint55_linear_404_379" x1="35.3436" y1="61.4105" x2="191.548" y2="139.024" gradientUnits="userSpaceOnUse">
<stop stop-color="#BFC2C5"/>
<stop offset="1" stop-color="#D8C2C4"/>
</linearGradient>
<linearGradient id="paint56_linear_404_379" x1="35.6055" y1="66.6253" x2="190.977" y2="143.825" gradientUnits="userSpaceOnUse">
<stop stop-color="#BFC2C5"/>
<stop offset="1" stop-color="#D8C2C4"/>
</linearGradient>
<linearGradient id="paint57_linear_404_379" x1="190.104" y1="104.265" x2="202.868" y2="110.607" gradientUnits="userSpaceOnUse">
<stop stop-color="#BFC2C5"/>
<stop offset="1" stop-color="#D8C2C4"/>
</linearGradient>
<linearGradient id="paint58_linear_404_379" x1="195.113" y1="105.213" x2="207.626" y2="111.43" gradientUnits="userSpaceOnUse">
<stop stop-color="#BFC2C5"/>
<stop offset="1" stop-color="#D8C2C4"/>
</linearGradient>
<linearGradient id="paint59_linear_404_379" x1="100.262" y1="96.6304" x2="119.007" y2="105.589" gradientUnits="userSpaceOnUse">
<stop stop-color="#BFC2C5"/>
<stop offset="1" stop-color="#D8C2C4"/>
</linearGradient>
<linearGradient id="paint60_linear_404_379" x1="105.121" y1="96.8372" x2="123.64" y2="106.039" gradientUnits="userSpaceOnUse">
<stop stop-color="#BFC2C5"/>
<stop offset="1" stop-color="#D8C2C4"/>
</linearGradient>
<linearGradient id="paint61_linear_404_379" x1="110.463" y1="97.1245" x2="128.134" y2="105.905" gradientUnits="userSpaceOnUse">
<stop stop-color="#BFC2C5"/>
<stop offset="1" stop-color="#D8C2C4"/>
</linearGradient>
<linearGradient id="paint62_linear_404_379" x1="115.421" y1="97.2759" x2="132.594" y2="105.809" gradientUnits="userSpaceOnUse">
<stop stop-color="#BFC2C5"/>
<stop offset="1" stop-color="#D8C2C4"/>
</linearGradient>
<linearGradient id="paint63_linear_404_379" x1="120.377" y1="97.4311" x2="137.296" y2="105.838" gradientUnits="userSpaceOnUse">
<stop stop-color="#BFC2C5"/>
<stop offset="1" stop-color="#D8C2C4"/>
</linearGradient>
<linearGradient id="paint64_linear_404_379" x1="125.363" y1="97.5264" x2="142.159" y2="105.872" gradientUnits="userSpaceOnUse">
<stop stop-color="#BFC2C5"/>
<stop offset="1" stop-color="#D8C2C4"/>
</linearGradient>
<linearGradient id="paint65_linear_404_379" x1="130.307" y1="97.7051" x2="146.73" y2="105.865" gradientUnits="userSpaceOnUse">
<stop stop-color="#BFC2C5"/>
<stop offset="1" stop-color="#D8C2C4"/>
</linearGradient>
<linearGradient id="paint66_linear_404_379" x1="135.293" y1="97.8011" x2="151.399" y2="105.804" gradientUnits="userSpaceOnUse">
<stop stop-color="#BFC2C5"/>
<stop offset="1" stop-color="#D8C2C4"/>
</linearGradient>
<linearGradient id="paint67_linear_404_379" x1="140.189" y1="98.0743" x2="155.93" y2="105.896" gradientUnits="userSpaceOnUse">
<stop stop-color="#BFC2C5"/>
<stop offset="1" stop-color="#D8C2C4"/>
</linearGradient>
<linearGradient id="paint68_linear_404_379" x1="145.136" y1="98.2488" x2="160.627" y2="105.946" gradientUnits="userSpaceOnUse">
<stop stop-color="#BFC2C5"/>
<stop offset="1" stop-color="#D8C2C4"/>
</linearGradient>
<linearGradient id="paint69_linear_404_379" x1="150.158" y1="99.0247" x2="165.06" y2="106.429" gradientUnits="userSpaceOnUse">
<stop stop-color="#BFC2C5"/>
<stop offset="1" stop-color="#D8C2C4"/>
</linearGradient>
<linearGradient id="paint70_linear_404_379" x1="155.133" y1="99.9276" x2="169.237" y2="106.935" gradientUnits="userSpaceOnUse">
<stop stop-color="#BFC2C5"/>
<stop offset="1" stop-color="#D8C2C4"/>
</linearGradient>
<linearGradient id="paint71_linear_404_379" x1="160.027" y1="100.16" x2="173.774" y2="106.991" gradientUnits="userSpaceOnUse">
<stop stop-color="#BFC2C5"/>
<stop offset="1" stop-color="#D8C2C4"/>
</linearGradient>
<linearGradient id="paint72_linear_404_379" x1="164.998" y1="101.332" x2="177.926" y2="107.755" gradientUnits="userSpaceOnUse">
<stop stop-color="#BFC2C5"/>
<stop offset="1" stop-color="#D8C2C4"/>
</linearGradient>
<linearGradient id="paint73_linear_404_379" x1="169.97" y1="101.898" x2="182.671" y2="108.209" gradientUnits="userSpaceOnUse">
<stop stop-color="#BFC2C5"/>
<stop offset="1" stop-color="#D8C2C4"/>
</linearGradient>
<linearGradient id="paint74_linear_404_379" x1="175.015" y1="102.249" x2="187.927" y2="108.664" gradientUnits="userSpaceOnUse">
<stop stop-color="#BFC2C5"/>
<stop offset="1" stop-color="#D8C2C4"/>
</linearGradient>
<linearGradient id="paint75_linear_404_379" x1="180.045" y1="102.987" x2="192.834" y2="109.342" gradientUnits="userSpaceOnUse">
<stop stop-color="#BFC2C5"/>
<stop offset="1" stop-color="#D8C2C4"/>
</linearGradient>
<linearGradient id="paint76_linear_404_379" x1="185.065" y1="103.792" x2="197.681" y2="110.06" gradientUnits="userSpaceOnUse">
<stop stop-color="#BFC2C5"/>
<stop offset="1" stop-color="#D8C2C4"/>
</linearGradient>
<linearGradient id="paint77_linear_404_379" x1="27.7612" y1="104.216" x2="15.0482" y2="110.533" gradientUnits="userSpaceOnUse">
<stop stop-color="#BFC2C5"/>
<stop offset="1" stop-color="#D8C2C4"/>
</linearGradient>
<linearGradient id="paint78_linear_404_379" x1="22.7418" y1="105.143" x2="10.2771" y2="111.337" gradientUnits="userSpaceOnUse">
<stop stop-color="#BFC2C5"/>
<stop offset="1" stop-color="#D8C2C4"/>
</linearGradient>
<linearGradient id="paint79_linear_404_379" x1="112.769" y1="96.8372" x2="94.2492" y2="106.039" gradientUnits="userSpaceOnUse">
<stop stop-color="#BFC2C5"/>
<stop offset="1" stop-color="#D8C2C4"/>
</linearGradient>
<linearGradient id="paint80_linear_404_379" x1="107.394" y1="97.0583" x2="89.7853" y2="105.807" gradientUnits="userSpaceOnUse">
<stop stop-color="#BFC2C5"/>
<stop offset="1" stop-color="#D8C2C4"/>
</linearGradient>
<linearGradient id="paint81_linear_404_379" x1="102.437" y1="97.2114" x2="85.3317" y2="105.71" gradientUnits="userSpaceOnUse">
<stop stop-color="#BFC2C5"/>
<stop offset="1" stop-color="#D8C2C4"/>
</linearGradient>
<linearGradient id="paint82_linear_404_379" x1="97.4724" y1="97.35" x2="80.6391" y2="105.714" gradientUnits="userSpaceOnUse">
<stop stop-color="#BFC2C5"/>
<stop offset="1" stop-color="#D8C2C4"/>
</linearGradient>
<linearGradient id="paint83_linear_404_379" x1="92.4939" y1="97.4602" x2="75.7671" y2="105.771" gradientUnits="userSpaceOnUse">
<stop stop-color="#BFC2C5"/>
<stop offset="1" stop-color="#D8C2C4"/>
</linearGradient>
<linearGradient id="paint84_linear_404_379" x1="87.5251" y1="97.5897" x2="71.2239" y2="105.689" gradientUnits="userSpaceOnUse">
<stop stop-color="#BFC2C5"/>
<stop offset="1" stop-color="#D8C2C4"/>
</linearGradient>
<linearGradient id="paint85_linear_404_379" x1="82.5364" y1="97.6794" x2="66.5304" y2="105.632" gradientUnits="userSpaceOnUse">
<stop stop-color="#BFC2C5"/>
<stop offset="1" stop-color="#D8C2C4"/>
</linearGradient>
<linearGradient id="paint86_linear_404_379" x1="77.6487" y1="97.9729" x2="62.0142" y2="105.741" gradientUnits="userSpaceOnUse">
<stop stop-color="#BFC2C5"/>
<stop offset="1" stop-color="#D8C2C4"/>
</linearGradient>
<linearGradient id="paint87_linear_404_379" x1="72.6982" y1="98.1385" x2="57.3225" y2="105.778" gradientUnits="userSpaceOnUse">
<stop stop-color="#BFC2C5"/>
<stop offset="1" stop-color="#D8C2C4"/>
</linearGradient>
<linearGradient id="paint88_linear_404_379" x1="67.6731" y1="98.9079" x2="52.8942" y2="106.251" gradientUnits="userSpaceOnUse">
<stop stop-color="#BFC2C5"/>
<stop offset="1" stop-color="#D8C2C4"/>
</linearGradient>
<linearGradient id="paint89_linear_404_379" x1="62.6956" y1="99.8067" x2="48.7191" y2="106.751" gradientUnits="userSpaceOnUse">
<stop stop-color="#BFC2C5"/>
<stop offset="1" stop-color="#D8C2C4"/>
</linearGradient>
<linearGradient id="paint90_linear_404_379" x1="57.7966" y1="100.028" x2="44.1412" y2="106.813" gradientUnits="userSpaceOnUse">
<stop stop-color="#BFC2C5"/>
<stop offset="1" stop-color="#D8C2C4"/>
</linearGradient>
<linearGradient id="paint91_linear_404_379" x1="52.8314" y1="101.211" x2="40.0311" y2="107.571" gradientUnits="userSpaceOnUse">
<stop stop-color="#BFC2C5"/>
<stop offset="1" stop-color="#D8C2C4"/>
</linearGradient>
<linearGradient id="paint92_linear_404_379" x1="47.8574" y1="101.772" x2="35.2388" y2="108.041" gradientUnits="userSpaceOnUse">
<stop stop-color="#BFC2C5"/>
<stop offset="1" stop-color="#D8C2C4"/>
</linearGradient>
<linearGradient id="paint93_linear_404_379" x1="42.8173" y1="102.133" x2="29.9833" y2="108.51" gradientUnits="userSpaceOnUse">
<stop stop-color="#BFC2C5"/>
<stop offset="1" stop-color="#D8C2C4"/>
</linearGradient>
<linearGradient id="paint94_linear_404_379" x1="37.7957" y1="102.887" x2="25.0738" y2="109.209" gradientUnits="userSpaceOnUse">
<stop stop-color="#BFC2C5"/>
<stop offset="1" stop-color="#D8C2C4"/>
</linearGradient>
<linearGradient id="paint95_linear_404_379" x1="32.7847" y1="103.713" x2="20.2228" y2="109.954" gradientUnits="userSpaceOnUse">
<stop stop-color="#BFC2C5"/>
<stop offset="1" stop-color="#D8C2C4"/>
</linearGradient>
<linearGradient id="paint96_linear_404_379" x1="199.423" y1="107.323" x2="218.052" y2="116.579" gradientUnits="userSpaceOnUse">
<stop stop-color="#BFC2C5"/>
<stop offset="1" stop-color="#D8C2C4"/>
</linearGradient>
<linearGradient id="paint97_linear_404_379" x1="18.558" y1="107.323" x2="-0.0713357" y2="116.579" gradientUnits="userSpaceOnUse">
<stop stop-color="#BFC2C5"/>
<stop offset="1" stop-color="#D8C2C4"/>
</linearGradient>
<linearGradient id="paint98_linear_404_379" x1="37.3167" y1="84.8164" x2="189.081" y2="160.224" gradientUnits="userSpaceOnUse">
<stop stop-color="#BFC2C5"/>
<stop offset="1" stop-color="#D8C2C4"/>
</linearGradient>
<linearGradient id="paint99_linear_404_379" x1="109.004" y1="54.0494" x2="109.004" y2="116.885" gradientUnits="userSpaceOnUse">
<stop stop-color="#BFC2C5"/>
<stop offset="1" stop-color="#D8EDFF"/>
</linearGradient>
<linearGradient id="paint100_linear_404_379" x1="42.5236" y1="120.032" x2="35.9202" y2="120.377" gradientUnits="userSpaceOnUse">
<stop stop-color="#1B2438"/>
<stop offset="1" stop-color="#292D7A"/>
</linearGradient>
<linearGradient id="paint101_linear_404_379" x1="39.2604" y1="67.815" x2="47.4944" y2="76.6271" gradientUnits="userSpaceOnUse">
<stop stop-color="#FFBC9F"/>
<stop offset="1" stop-color="#F38872"/>
</linearGradient>
<linearGradient id="paint102_linear_404_379" x1="46.4241" y1="70.2988" x2="44.651" y2="58.4913" gradientUnits="userSpaceOnUse">
<stop stop-color="#258EC0"/>
<stop offset="1" stop-color="#4BB6D6"/>
</linearGradient>
<linearGradient id="paint103_linear_404_379" x1="91.7683" y1="83.5649" x2="101.057" y2="58.3688" gradientUnits="userSpaceOnUse">
<stop stop-color="#25A0C0"/>
<stop offset="1" stop-color="#4BC8EF"/>
</linearGradient>
<linearGradient id="paint104_linear_404_379" x1="104.844" y1="68.2029" x2="96.696" y2="66.621" gradientUnits="userSpaceOnUse">
<stop stop-color="#25A0C0"/>
<stop offset="1" stop-color="#4BC8EF"/>
</linearGradient>
<linearGradient id="paint105_linear_404_379" x1="99.2461" y1="58.869" x2="96.1143" y2="64.7695" gradientUnits="userSpaceOnUse">
<stop stop-color="#25A0C0"/>
<stop offset="1" stop-color="#4BC8EF"/>
</linearGradient>
<linearGradient id="paint106_linear_404_379" x1="93.5522" y1="79.7456" x2="88.8306" y2="78.8289" gradientUnits="userSpaceOnUse">
<stop stop-color="#25A0C0"/>
<stop offset="1" stop-color="#4BC8EF"/>
</linearGradient>
<linearGradient id="paint107_linear_404_379" x1="94.4699" y1="74.7681" x2="91.3064" y2="73.4968" gradientUnits="userSpaceOnUse">
<stop stop-color="#1B88C5"/>
<stop offset="1" stop-color="#4BC8EF"/>
</linearGradient>
<linearGradient id="paint108_linear_404_379" x1="22.9441" y1="119.133" x2="36.1299" y2="130.08" gradientUnits="userSpaceOnUse">
<stop stop-color="#FFBC9F"/>
<stop offset="1" stop-color="#F38872"/>
</linearGradient>
<linearGradient id="paint109_linear_404_379" x1="34.5958" y1="126.63" x2="28.3621" y2="121.187" gradientUnits="userSpaceOnUse">
<stop stop-color="#FFCFC5"/>
<stop offset="1" stop-color="#FFB3A9"/>
</linearGradient>
<linearGradient id="paint110_linear_404_379" x1="17.2648" y1="129.214" x2="22.3678" y2="132.111" gradientUnits="userSpaceOnUse">
<stop stop-color="#254593"/>
<stop offset="1" stop-color="#292D73"/>
</linearGradient>
<linearGradient id="paint111_linear_404_379" x1="21.6488" y1="133.525" x2="17.1628" y2="129.608" gradientUnits="userSpaceOnUse">
<stop stop-color="#254593"/>
<stop offset="1" stop-color="#292D73"/>
</linearGradient>
<linearGradient id="paint112_linear_404_379" x1="15.7968" y1="145.432" x2="14.5416" y2="126.76" gradientUnits="userSpaceOnUse">
<stop stop-color="#258EC0"/>
<stop offset="1" stop-color="#4BB6D6"/>
</linearGradient>
<linearGradient id="paint113_linear_404_379" x1="20.4472" y1="145.082" x2="11.8503" y2="137.575" gradientUnits="userSpaceOnUse">
<stop stop-color="#258EC0"/>
<stop offset="1" stop-color="#4BB6D6"/>
</linearGradient>
<linearGradient id="paint114_linear_404_379" x1="13.3295" y1="134.611" x2="14.2073" y2="144.196" gradientUnits="userSpaceOnUse">
<stop stop-color="#254581"/>
<stop offset="1" stop-color="#28426E"/>
</linearGradient>
<linearGradient id="paint115_linear_404_379" x1="70.5929" y1="145.082" x2="64.5905" y2="105.111" gradientUnits="userSpaceOnUse">
<stop stop-color="#FFBC9F"/>
<stop offset="1" stop-color="#F38872"/>
</linearGradient>
<linearGradient id="paint116_linear_404_379" x1="69.1467" y1="138.284" x2="64.9736" y2="110.494" gradientUnits="userSpaceOnUse">
<stop stop-color="#FFCFC5"/>
<stop offset="1" stop-color="#FFB3A9"/>
</linearGradient>
<linearGradient id="paint117_linear_404_379" x1="76.1021" y1="133.61" x2="83.3943" y2="137.749" gradientUnits="userSpaceOnUse">
<stop stop-color="#254593"/>
<stop offset="1" stop-color="#292D73"/>
</linearGradient>
<linearGradient id="paint118_linear_404_379" x1="77.1274" y1="142.813" x2="75.5124" y2="132.058" gradientUnits="userSpaceOnUse">
<stop stop-color="#254593"/>
<stop offset="1" stop-color="#292D73"/>
</linearGradient>
<linearGradient id="paint119_linear_404_379" x1="89.6667" y1="153.215" x2="81.0551" y2="145.695" gradientUnits="userSpaceOnUse">
<stop stop-color="#254581"/>
<stop offset="1" stop-color="#28426E"/>
</linearGradient>
<linearGradient id="paint120_linear_404_379" x1="89.9551" y1="152.391" x2="77.9687" y2="141.924" gradientUnits="userSpaceOnUse">
<stop stop-color="#258EC0"/>
<stop offset="1" stop-color="#4BB6D6"/>
</linearGradient>
<linearGradient id="paint121_linear_404_379" x1="89.9102" y1="152.442" x2="77.9238" y2="141.976" gradientUnits="userSpaceOnUse">
<stop stop-color="#258EC0"/>
<stop offset="1" stop-color="#4BB6D6"/>
</linearGradient>
<linearGradient id="paint122_linear_404_379" x1="62.2578" y1="49.3437" x2="50.4297" y2="47.3685" gradientUnits="userSpaceOnUse">
<stop stop-color="#FFBC9F"/>
<stop offset="1" stop-color="#F38872"/>
</linearGradient>
<linearGradient id="paint123_linear_404_379" x1="36.6577" y1="91.5754" x2="35.9145" y2="91.6142" gradientUnits="userSpaceOnUse">
<stop stop-color="#94002F"/>
<stop offset="0.3265" stop-color="#AF1E34"/>
<stop offset="1" stop-color="#E4573F"/>
</linearGradient>
<linearGradient id="paint124_linear_404_379" x1="35.2154" y1="102.838" x2="46.9629" y2="109.505" gradientUnits="userSpaceOnUse">
<stop stop-color="#254593"/>
<stop offset="1" stop-color="#292D73"/>
</linearGradient>
<linearGradient id="paint125_linear_404_379" x1="54.8564" y1="109.808" x2="37.5554" y2="110.712" gradientUnits="userSpaceOnUse">
<stop stop-color="#94002F"/>
<stop offset="0.3265" stop-color="#AF1E34"/>
<stop offset="1" stop-color="#E4573F"/>
</linearGradient>
<linearGradient id="paint126_linear_404_379" x1="61.7401" y1="91.8995" x2="47.8771" y2="107.52" gradientUnits="userSpaceOnUse">
<stop stop-color="#254593"/>
<stop offset="1" stop-color="#292D73"/>
</linearGradient>
<linearGradient id="paint127_linear_404_379" x1="78.5609" y1="98.8147" x2="47.6147" y2="100.432" gradientUnits="userSpaceOnUse">
<stop stop-color="#2C4586"/>
<stop offset="0.1709" stop-color="#2B407A"/>
<stop offset="1" stop-color="#282840"/>
</linearGradient>
<linearGradient id="paint128_linear_404_379" x1="52.5592" y1="99.0674" x2="46.8221" y2="60.8624" gradientUnits="userSpaceOnUse">
<stop stop-color="#258EC0"/>
<stop offset="1" stop-color="#4BB6D6"/>
</linearGradient>
<linearGradient id="paint129_linear_404_379" x1="51.2331" y1="98.7138" x2="47.4933" y2="73.8099" gradientUnits="userSpaceOnUse">
<stop stop-color="#258EC0"/>
<stop offset="1" stop-color="#4BB6D6"/>
</linearGradient>
<linearGradient id="paint130_linear_404_379" x1="53.225" y1="76.193" x2="90.7865" y2="71.9155" gradientUnits="userSpaceOnUse">
<stop stop-color="#FFBC9F"/>
<stop offset="1" stop-color="#F38872"/>
</linearGradient>
<linearGradient id="paint131_linear_404_379" x1="56.8903" y1="61.2437" x2="93.1961" y2="79.6679" gradientUnits="userSpaceOnUse">
<stop stop-color="#FFBC9F"/>
<stop offset="1" stop-color="#F38872"/>
</linearGradient>
<linearGradient id="paint132_linear_404_379" x1="65.6712" y1="76.8478" x2="60.8093" y2="61.6014" gradientUnits="userSpaceOnUse">
<stop stop-color="#258EC0"/>
<stop offset="1" stop-color="#4BB6D6"/>
</linearGradient>
<linearGradient id="paint133_linear_404_379" x1="85.8514" y1="75.9276" x2="84.4468" y2="81.5171" gradientUnits="userSpaceOnUse">
<stop stop-color="#254593"/>
<stop offset="1" stop-color="#292D7A"/>
</linearGradient>
<linearGradient id="paint134_linear_404_379" x1="72.0869" y1="43.6575" x2="50.722" y2="44.7739" gradientUnits="userSpaceOnUse">
<stop stop-color="#BA633B"/>
<stop offset="0.5878" stop-color="#8A3B16"/>
<stop offset="1" stop-color="#6D2200"/>
</linearGradient>
<linearGradient id="paint135_linear_404_379" x1="61.9827" y1="49.1056" x2="54.6222" y2="40.5263" gradientUnits="userSpaceOnUse">
<stop stop-color="#814F52"/>
<stop offset="1" stop-color="#A44036"/>
</linearGradient>
</defs>
</svg>
