<svg width="106" height="98" viewBox="0 0 106 98" fill="none" xmlns="http://www.w3.org/2000/svg">
<g filter="url(#filter0_d_874_1776)">
<path d="M96.5733 50.5747C95.9819 46.5473 94.9934 42.5385 94.0111 38.5582C92.9539 34.2749 91.6726 28.9962 89.4401 25.0249C88.6899 23.6904 87.7189 22.3991 86.3771 21.4229C84.8284 20.2964 83.1408 19.305 81.4818 18.3007C79.6965 17.2199 77.965 16.1014 76.205 14.9934C75.2403 14.3862 74.2229 13.8164 73.2893 13.1763C72.1125 12.3689 71.5583 11.0389 70.3719 10.2508C69.0573 10.0821 67.7308 10.1178 66.4098 10.0683C64.5905 10.0001 62.5997 9.7964 60.823 9.41566C58.954 9.01444 57.0424 8.44524 55.261 7.80719C54.1098 7.39515 52.9364 6.85862 51.7359 6.57393C50.3674 6.61588 49.2849 7.59872 48.0201 7.91121C46.5923 8.26406 45.0662 8.45128 43.6119 8.74025C40.7143 9.31637 37.8257 9.94674 34.9377 10.5549C33.216 10.9171 31.3398 11.1913 29.744 11.8391C28.2648 12.4393 26.9571 13.3533 25.8671 14.3721C23.9766 16.1397 22.4086 18.2097 20.897 20.2176C19.12 22.5772 17.6107 25.056 15.9493 27.4715C14.3939 29.7044 12.8846 31.9598 11.421 34.2373C10.9368 34.9881 10.3705 35.7144 9.93945 36.4868C9.78035 36.7717 9.6417 37.0428 9.66658 37.368C9.70805 37.8988 10.075 38.3223 10.5447 38.6661C10.5447 38.6661 10.5464 38.6673 10.5498 38.6692C10.6127 38.7066 11.2509 39.0844 12.2223 39.6584C15.0382 41.3209 20.6602 44.6277 23.2328 46.053C23.8304 46.384 24.2637 46.6136 24.4587 46.6976C25.1906 46.6908 25.7045 46.5457 26.2154 46.0928C26.9229 45.4654 27.4095 44.5637 27.9654 43.8341L23.9501 58.7466C22.384 64.4473 20.7614 70.1217 19.4092 75.8675C19.2485 76.5488 18.6908 78.2356 18.8234 78.8468C19.4286 79.3218 20.8395 79.5329 21.6254 79.7615C27.9465 81.6009 34.4835 82.9035 40.9829 84.1477C44.4391 84.8093 47.8836 85.5011 51.3522 86.1091C53.5976 86.5026 55.8707 86.8101 58.1089 87.2243C60.6996 87.6011 63.2714 87.9132 65.8875 88.0782C66.7965 88.1356 67.7459 88.2149 68.6543 88.1883C69.266 86.6917 69.5965 85.0462 70.0046 83.4981C70.7701 80.5549 71.4288 77.5925 71.981 74.6113C72.5332 71.6297 72.9778 68.634 73.3151 65.6251L74.0126 59.6561C74.1582 58.3971 74.2143 57.1138 74.4164 55.8628C74.6821 54.2188 75.458 51.8685 76.1571 50.3401C76.4379 52.36 77.0241 54.3512 77.2871 56.3777C77.3064 56.5256 77.3207 56.6737 77.3319 56.8228C77.3351 56.8609 77.8991 56.8276 78.8163 56.7482C81.9359 56.4784 89.1391 55.6738 92.2217 55.3258C93.116 55.2248 93.6634 55.1621 93.6634 55.1621C94.9227 55.0028 96.0827 54.5058 96.8128 53.6151C96.8387 53.5837 96.8632 53.5519 96.8886 53.5204C96.7853 52.5377 96.7175 51.5544 96.5733 50.5747ZM79.2416 55.391L79.1478 55.4505C79.1477 55.4505 79.1475 55.4505 79.1473 55.4506L79.2415 55.3909C80.052 54.93 80.9087 54.5454 81.7988 54.2253C80.9087 54.5455 80.052 54.9301 79.2416 55.391ZM78.4468 54.2324C78.4387 54.194 78.4307 54.1556 78.4227 54.1172C78.4307 54.1556 78.4387 54.1939 78.4468 54.2324ZM78.3577 53.8005C78.3568 53.7962 78.3559 53.792 78.3551 53.7877C78.3918 53.7639 78.4291 53.7406 78.4661 53.7169C78.4291 53.7406 78.392 53.764 78.3551 53.7878C78.356 53.792 78.3569 53.7963 78.3577 53.8005ZM78.5652 54.7997C78.5461 54.7068 78.5269 54.614 78.5075 54.5212C78.5269 54.614 78.5461 54.7068 78.5652 54.7997ZM78.7051 55.54C78.6986 55.5011 78.6918 55.4619 78.685 55.4227C78.692 55.4619 78.6986 55.5009 78.7051 55.54ZM94.1836 50.9825L94.8504 51.0808L94.1835 50.9826C93.4376 50.8865 92.6614 50.8197 91.8673 50.7836C92.6614 50.8197 93.4376 50.8864 94.1836 50.9825ZM81.8285 40.8097C80.7615 42.4338 79.6666 44.3408 78.4992 46.0593C79.6665 44.3407 80.7614 42.4337 81.8284 40.8095C82.1635 40.2995 82.4542 39.727 82.8313 39.2417C82.8868 39.1704 82.9177 39.1327 82.9587 39.1083C82.9177 39.1327 82.8868 39.1704 82.8315 39.2417C82.4543 39.727 82.1637 40.2994 81.8285 40.8097ZM83.4115 39.2184C83.411 39.2193 83.4105 39.22 83.4099 39.2209C83.4105 39.2201 83.411 39.2192 83.4115 39.2184ZM81.3526 51.8267C80.2191 52.2326 79.1776 52.729 78.283 53.3252C78.283 53.3252 78.2829 53.3252 78.2829 53.3251C79.1776 52.729 80.2191 52.2325 81.3526 51.8267ZM93.9485 52.8526C93.4969 52.8218 93.0427 52.7825 92.5949 52.7662C93.0427 52.7824 93.4968 52.8218 93.9485 52.8526ZM95.327 52.8853C95.2698 52.3525 95.2193 51.8067 95.086 51.2796C95.2194 51.8069 95.2697 52.3525 95.3271 52.8854C95.327 52.8853 95.327 52.8853 95.327 52.8853ZM95.0216 50.635C95.0336 50.6366 95.0456 50.638 95.0576 50.6396C95.0546 50.6196 95.0514 50.5988 95.0483 50.5785C95.0514 50.5989 95.0546 50.6197 95.0576 50.6398C95.0457 50.6382 95.0336 50.6366 95.0216 50.635ZM86.7862 23.6595C83.3984 27.2517 81.0021 31.6859 79.5243 36.1102C78.9373 37.8678 78.4787 39.6612 78.005 41.4475C78.4784 39.6612 78.9371 37.8677 79.5242 36.1103C81.0019 31.6857 83.3985 27.2516 86.7862 23.6595ZM68.2893 83.6461C67.88 83.5297 67.4718 83.4117 67.0654 83.2901C67.4718 83.4117 67.88 83.5297 68.2894 83.646C68.2893 83.646 68.2893 83.6461 68.2893 83.6461ZM28.6874 78.2696C26.7179 77.876 24.7743 77.3748 22.8393 76.8586C24.7743 77.3747 26.7178 77.8759 28.6876 78.2695C30.1145 78.5548 31.5549 78.7853 33.0032 78.9692C31.5549 78.7853 30.1144 78.5548 28.6874 78.2696ZM30.2353 36.6078C30.2352 36.6077 30.2351 36.6076 30.2351 36.6075C30.8659 29.6221 30.9709 22.5777 29.8563 15.5756C29.8205 15.3509 29.7604 14.7709 29.6776 14.264C29.7605 14.7709 29.8207 15.3508 29.8564 15.5756C30.9711 22.5779 30.8659 29.6224 30.2353 36.6078ZM28.1156 23.5824C28.1162 23.5456 28.1162 23.51 28.1143 23.4753C28.1162 23.51 28.1162 23.5457 28.1158 23.5824C28.1102 23.9802 27.9912 24.3747 27.934 24.7675C27.9184 24.8748 27.9051 24.9828 27.8933 25.0913C27.9051 24.9829 27.9183 24.8748 27.9339 24.7674C27.9911 24.3747 28.1102 23.9801 28.1156 23.5824ZM28.0338 23.2218C28.0165 23.1986 27.9957 23.1761 27.9706 23.1543C27.9958 23.1761 28.0164 23.1986 28.0338 23.2218ZM27.3242 26.0516C27.3193 26.1484 27.3152 26.2456 27.3116 26.3431C27.3152 26.2457 27.3192 26.1485 27.3242 26.0518C27.3431 25.6809 27.3593 25.2802 27.403 24.8809C27.3593 25.2801 27.3432 25.6807 27.3242 26.0516ZM28.3237 33.4602C28.6267 34.3224 29.0026 35.1616 29.3983 35.9961C29.0025 35.1616 28.6267 34.3224 28.3237 33.4602C28.2658 33.2955 28.2108 33.1293 28.1581 32.962C28.2109 33.1294 28.2659 33.2956 28.3237 33.4602ZM51.4044 10.7938C51.7092 12.8798 52.6932 14.8753 54.7059 16.2416C56.5526 17.4952 59.1679 18.0944 61.4765 17.886C62.9294 17.7548 64.506 17.2278 65.6103 16.4352C66.582 15.8037 67.4758 15.0519 68.1349 14.1742C62.6653 14.4138 58.0459 13.627 53.281 11.6357C58.0461 13.6269 62.6653 14.4138 68.1351 14.1741C67.476 15.0521 66.5821 15.8039 65.6104 16.4352C64.506 17.2277 62.9295 17.7549 61.4764 17.8862C59.168 18.0946 56.5527 17.4955 54.7061 16.2417C52.693 14.8755 51.7091 12.8799 51.4044 10.7939C51.4044 10.7938 51.4044 10.7938 51.4044 10.7938ZM58.331 12.8032C58.8878 12.9456 59.4483 13.0735 60.0126 13.1859C62.7773 13.7365 65.6284 13.9181 68.5367 13.6461C68.612 13.5055 68.7179 13.321 68.8323 13.1154C68.7179 13.321 68.6121 13.5056 68.5369 13.6461C65.6285 13.9181 62.7773 13.7365 60.0126 13.1859C59.4483 13.0736 58.8878 12.9456 58.331 12.8032ZM62.1925 18.2349C60.6424 18.4714 59.0212 18.356 57.44 17.9527C57.0353 17.8495 56.6459 17.726 56.272 17.5836C56.6459 17.726 57.0354 17.8495 57.4401 17.9526C59.0214 18.3559 60.6425 18.4713 62.1925 18.2349ZM52.461 18.9185C53.1229 19.3375 53.8602 19.7019 54.6439 20.0069C53.8602 19.7019 53.123 19.3376 52.461 18.9186C49.751 17.2031 48.2574 14.8407 47.7212 12.0839C47.633 11.5302 47.5934 10.9792 47.5737 10.4271C47.5935 10.9792 47.6332 11.5303 47.7214 12.084C48.2575 14.8406 49.7509 17.203 52.461 18.9185ZM52.1737 14.3764C52.1818 14.3887 52.1902 14.4007 52.1983 14.413C52.1902 14.4008 52.1818 14.3889 52.1738 14.3766C52.1738 14.3765 52.1737 14.3765 52.1737 14.3764ZM44.9061 79.5627C47.8469 79.5194 51.1574 79.1526 54.1971 79.302C51.1574 79.1527 47.8468 79.5195 44.9063 79.5628C44.1709 79.5736 43.434 79.5769 42.696 79.5724C43.4339 79.5769 44.1709 79.5735 44.9061 79.5627ZM77.3256 43.7622C77.1384 44.3113 76.9234 44.9463 76.7872 45.481C76.9233 44.9462 77.1383 44.3113 77.3256 43.7622ZM70.9784 16.3646C68.877 18.7955 65.7918 20.6076 62.1722 21.0256C60.5078 21.2177 58.6711 21.094 56.9189 20.6976C58.6711 21.094 60.5078 21.2176 62.172 21.0255C65.7917 20.6078 68.8772 18.7953 70.9783 16.3645C71.5913 15.6552 72.2148 14.8499 72.5752 14.0193C72.2474 13.7069 71.9337 13.3917 71.6289 13.0725C71.9338 13.3918 72.2476 13.7069 72.5755 14.0193C72.2146 14.85 71.5911 15.6553 70.9784 16.3646ZM70.1112 11.3785C70.1113 11.3785 70.1113 11.3786 70.1114 11.3786C69.3927 13.6616 68.1815 15.4647 66.025 16.7962C68.1814 15.4646 69.3926 13.6615 70.1112 11.3785ZM69.513 11.4446C69.5135 11.4157 69.513 11.3878 69.51 11.3617C69.5129 11.3878 69.5135 11.4157 69.513 11.4446ZM69.4284 11.286L69.4686 11.3233L69.4283 11.2861C65.724 11.3523 62.8981 11.0769 60.1349 10.4712C62.8981 11.0769 65.7241 11.3523 69.4284 11.286ZM56.4309 9.47361C54.9603 9.0141 53.4114 8.46909 51.6738 7.83983C51.6738 7.8398 51.6738 7.83973 51.6738 7.83969C53.4114 8.46906 54.9603 9.01407 56.4309 9.47361ZM51.4941 10.2599C51.4798 10.2479 51.4665 10.2353 51.4549 10.2216C51.4666 10.2352 51.4799 10.2479 51.4941 10.2599ZM51.5871 8.12047C51.4231 8.67359 51.198 9.5818 51.3661 10.0581C51.198 9.58199 51.423 8.6737 51.5871 8.12047ZM51.4159 10.1667C51.411 10.1584 51.4069 10.1493 51.4023 10.1406C51.4069 10.1493 51.411 10.1584 51.4159 10.1667ZM51.3889 10.1147C51.3815 10.0986 51.3748 10.0817 51.3686 10.0644C51.3749 10.0817 51.3815 10.0986 51.3889 10.1147ZM51.2475 12.5049C50.7196 10.9785 50.6918 9.39091 51.0735 7.79714C51.0735 7.79711 51.0736 7.79708 51.0736 7.79706C50.6919 9.39078 50.7196 10.9784 51.2475 12.5049ZM52.1269 14.3031C52.1009 14.2626 52.0745 14.222 52.0493 14.1814C52.0746 14.2221 52.1009 14.2625 52.1269 14.3031ZM51.281 12.6013C51.2794 12.5969 51.2776 12.5924 51.276 12.5879C51.2776 12.5924 51.2794 12.5968 51.281 12.6013ZM49.1881 8.67221C48.6617 8.89087 48.1199 9.0804 47.5513 9.20752C47.5513 9.20752 47.5513 9.20748 47.5513 9.20744C48.1199 9.0804 48.6617 8.89087 49.1881 8.67221ZM29.5717 13.7353C29.5358 13.5968 29.497 13.4885 29.4555 13.431L29.4555 13.4309C29.497 13.4884 29.5357 13.5968 29.5717 13.7353ZM24.1809 18.3671C22.4846 20.4445 20.8162 22.827 19.3812 24.9635C20.8162 22.827 22.4846 20.4445 24.1809 18.3671ZM16.9825 41.1583C17.5683 41.5019 18.1533 41.8463 18.7366 42.1929C20.0795 42.9905 21.3496 43.9041 22.6805 44.7218C21.3495 43.9042 20.0794 42.9905 18.7364 42.193C18.1531 41.8464 17.5682 41.5019 16.9825 41.1583ZM24.311 45.5639C24.1126 45.5327 23.9192 45.4381 23.7472 45.3442C23.9192 45.438 24.1126 45.5326 24.311 45.5639ZM11.8975 36.0352C11.595 36.4425 11.2856 36.8474 11 37.2638C11.2855 36.8473 11.5949 36.4424 11.8973 36.0351C11.8974 36.0352 11.8974 36.0352 11.8975 36.0352ZM10.796 37.5697C10.796 37.5697 10.796 37.5697 10.796 37.5696C10.9793 37.6897 11.1675 37.806 11.3584 37.9201C11.1674 37.806 10.9792 37.6897 10.796 37.5697ZM24.6446 45.5446C24.6852 45.5319 24.724 45.5167 24.7661 45.5008C24.9663 45.3469 25.1567 45.1849 25.3383 45.0157C25.1569 45.1849 24.9664 45.347 24.7661 45.5009C24.7241 45.5168 24.6853 45.532 24.6446 45.5446ZM25.8013 44.5454C25.8834 44.4543 25.9636 44.3618 26.0406 44.2673C26.0406 44.2673 26.0407 44.2673 26.0407 44.2673C25.9637 44.3618 25.8835 44.4543 25.8013 44.5454ZM26.2988 43.9724C23.4555 41.8995 20.3304 40.046 17.1982 38.303C15.5694 37.3966 13.9302 36.4735 12.1998 35.7149C12.5345 35.1801 12.8793 34.6494 13.2304 34.1213C12.8794 34.6494 12.5346 35.18 12.2 35.7148C13.9304 36.4737 15.5697 37.3965 17.1982 38.3028C20.3307 40.046 23.4553 41.8996 26.2988 43.9724L27.8041 42.0126L26.2988 43.9724ZM29.6017 39.6477C29.3663 40.0756 29.0065 40.4782 28.6835 40.875C29.0064 40.4782 29.366 40.0756 29.6016 39.6478C29.8578 39.1825 30.1007 38.3058 30.0768 37.6817C30.1009 38.3058 29.8579 39.1824 29.6017 39.6477ZM20.8969 76.4959L20.5119 78.1975C20.5118 78.1975 20.5117 78.1975 20.5117 78.1975L20.8969 76.4959ZM43.7774 83.3232C41.345 82.8421 38.9092 82.3778 36.4787 81.8912C38.9092 82.3777 41.3449 82.8419 43.7773 83.323C47.5301 84.0653 51.2721 84.8136 55.0475 85.4335C51.2722 84.8138 47.5301 84.0653 43.7774 83.3232ZM66.1973 86.8016C66.6009 86.8399 67.0045 86.8782 67.4082 86.9169C67.594 86.1997 67.7848 85.4835 67.9799 84.7682C67.7849 85.4836 67.594 86.1997 67.4082 86.9169C67.0046 86.8782 66.6009 86.8399 66.1973 86.8016ZM76.7357 46.8196C76.8283 47.2189 76.955 47.6181 77.0498 48.0141C77.0498 48.0142 77.0497 48.0142 77.0497 48.0143C76.9548 47.6182 76.8282 47.219 76.7357 46.8196ZM80.6931 43.4837C79.6113 45.2004 78.5115 46.9079 77.2851 48.5576C77.3187 48.7887 77.3607 49.0188 77.4071 49.2483C77.3606 49.0188 77.3186 48.7887 77.2849 48.5576C78.5113 46.9079 79.6112 45.2004 80.6931 43.4837ZM77.8749 51.4608C77.8255 51.1937 77.7763 50.9274 77.7241 50.6634C77.7763 50.9274 77.8255 51.1937 77.8749 51.4608ZM80.5276 55.1735C83.8481 53.552 88.1297 53.1868 91.8955 53.1337L92.0987 53.1514C92.1596 53.2143 92.1934 53.5348 92.2097 53.9845C87.0027 54.1425 83.0151 54.7094 80.5276 55.1735ZM93.7396 53.9503L93.737 53.1554C94.2158 53.1865 94.6944 53.2281 95.1727 53.2648L95.221 53.296L95.2278 53.3901C94.8614 53.6891 94.2213 53.809 93.7396 53.9503Z" fill="#D6D6D6"/>
<path d="M95.4461 49.8957C94.8838 45.9372 93.9358 41.9979 92.9935 38.0866C91.9797 33.8775 90.7509 28.6903 88.5941 24.7909C87.8694 23.4806 86.93 22.2132 85.6293 21.2566C84.1281 20.1528 82.4916 19.1822 80.8828 18.1987C79.1517 17.1404 77.4729 16.0448 75.7663 14.9598C74.8309 14.365 73.8442 13.8074 72.9391 13.1802C71.7983 12.3892 71.2639 11.0828 70.1137 10.3108C68.837 10.1481 67.5481 10.1865 66.265 10.1411C64.4976 10.0785 62.564 9.88312 60.8391 9.51308C59.0244 9.12318 57.1689 8.5682 55.4402 7.94515C54.323 7.54281 53.1846 7.01817 52.0192 6.74116C50.6895 6.78578 49.6347 7.75483 48.405 8.06523C47.0167 8.41569 45.5335 8.60349 44.1196 8.89123C41.3027 9.46481 38.4943 10.0918 35.6867 10.6968C34.0129 11.0572 32.1891 11.3314 30.6368 11.9723C29.1978 12.5661 27.9246 13.468 26.8625 14.4724C25.0203 16.2151 23.4906 18.2543 22.0158 20.2323C20.2821 22.5567 18.8081 24.9978 17.1867 27.377C15.6687 29.5763 14.1954 31.7976 12.7664 34.0406C12.2937 34.7801 11.7413 35.4957 11.3201 36.2562C11.1646 36.5367 11.0291 36.8036 11.0523 37.1233C11.0909 37.6451 11.4462 38.0606 11.9014 38.3975C11.9014 38.3975 11.903 38.3987 11.9064 38.4005C11.9673 38.4371 12.5862 38.807 13.5283 39.369C13.5714 39.2851 13.6136 39.2014 13.6544 39.1171C13.6728 39.0795 13.691 39.0423 13.7089 39.0046C13.7314 38.9579 13.7535 38.911 13.7751 38.8641C14.9162 39.4257 16.0064 40.1017 17.0925 40.7397C19.5717 42.1965 22.0404 43.7224 24.3764 45.342C24.3198 45.4381 24.2629 45.5337 24.2059 45.6296C24.7855 45.9537 25.2058 46.1783 25.395 46.2604C26.1061 46.252 26.6057 46.108 27.1036 45.6615C27.7928 45.0428 28.2684 44.155 28.8107 43.4362L24.8639 58.1091C23.3248 63.7183 21.7311 69.3017 20.3997 74.9547C20.2414 75.625 19.6945 77.285 19.8214 77.8856C20.408 78.3512 21.778 78.5553 22.5409 78.7781C28.6765 80.5712 35.0236 81.8359 41.3342 83.0434C44.6902 83.6854 48.0344 84.3572 51.4025 84.9465C53.5828 85.3279 55.7903 85.6247 57.9636 86.0264C60.4794 86.3906 62.977 86.6911 65.5182 86.847C66.4012 86.9011 67.3233 86.9767 68.206 86.9483C68.8049 85.4753 69.131 83.8566 69.5323 82.3334C70.285 79.4376 70.934 76.5231 71.4796 73.5904C72.0253 70.6573 72.4665 67.7107 72.8034 64.7513L73.4993 58.8805C73.6446 57.6421 73.703 56.3802 73.9032 55.1496C74.1665 53.5324 74.9275 51.2196 75.6114 49.715C75.878 51.7004 76.4414 53.6569 76.6908 55.6488C76.7091 55.7942 76.7225 55.9398 76.7329 56.0864C76.7359 56.1238 77.2839 56.0897 78.1752 56.0094C78.1633 55.8384 78.1481 55.6676 78.1287 55.4964C78.6609 55.1019 79.2356 54.7572 79.8428 54.4569C83.0738 52.8544 87.2347 52.4848 90.8935 52.4233L91.091 52.4402C91.1499 52.502 91.1818 52.817 91.1962 53.2591C91.2091 53.6336 91.2093 54.0985 91.2037 54.5779C92.0728 54.4764 92.6049 54.4134 92.6049 54.4134C93.8288 54.2536 94.9574 53.7621 95.6694 52.8845C95.6946 52.8535 95.7185 52.8222 95.7433 52.7912C95.646 51.8254 95.5832 50.8587 95.4461 49.8957ZM51.9551 7.98602C58.3849 10.3295 62.1558 11.4762 69.1939 11.3311L69.2729 11.4053C69.3315 11.9442 68.6039 13.1202 68.3206 13.6539C62.4852 14.2208 56.8926 12.8858 51.7911 10.3817C51.7684 10.3628 51.7447 10.3437 51.7277 10.3206C51.3796 9.85771 51.7965 8.48258 51.9551 7.98602ZM67.9285 14.174C67.2855 15.0389 66.4147 15.7803 65.4687 16.4035C64.3934 17.1854 62.8601 17.7076 61.4479 17.8403C59.2046 18.0509 56.6654 17.4682 54.8753 16.24C52.9237 14.9015 51.9739 12.9418 51.6842 10.8913C56.9708 13.4447 61.9194 14.4557 67.9285 14.174ZM51.3721 7.94559C50.8398 10.1666 51.1042 12.3738 52.4206 14.4122C53.5429 16.1504 55.3013 17.3467 57.5263 17.9156C59.9452 18.5344 62.4625 18.4513 64.6565 17.4177C67.533 16.0624 69.026 14.068 69.8571 11.4204C70.6143 12.324 71.3789 13.1773 72.243 14.0109C71.89 14.8287 71.2818 15.622 70.6842 16.321C68.6352 18.7163 65.6322 20.5057 62.1143 20.9256C58.9939 21.2978 55.2531 20.519 52.6859 18.8777C50.0582 17.1976 48.6143 14.8784 48.1019 12.169C47.9562 11.2251 47.9521 10.2886 47.9455 9.34112C49.1756 9.05996 50.2783 8.47643 51.3721 7.94559ZM26.3589 44.5054C26.1516 44.7088 25.9309 44.9015 25.6974 45.0832C25.6267 45.1103 25.5662 45.1367 25.4875 45.1487C25.1675 45.1982 24.8432 45.0083 24.5871 44.864C22.9528 43.9451 21.4551 42.8083 19.8493 41.8454C18.0879 40.7886 16.3154 39.7465 14.5312 38.7184C13.7428 38.2559 12.904 37.8185 12.1489 37.319C12.479 36.801 12.8567 36.3061 13.2236 35.8074C18.09 38.0696 22.557 40.9878 26.9394 43.8671C26.7602 44.0893 26.5666 44.3022 26.3589 44.5054ZM30.4133 39.316C30.142 39.8129 29.7026 40.2755 29.3521 40.735L27.1911 43.5765C24.435 41.5453 21.4045 39.7304 18.3668 38.0242C16.7871 37.137 15.1973 36.2334 13.5185 35.4918C14.8396 33.3626 16.3215 31.2987 17.7118 29.2021C20.3152 25.2748 26.1094 15.7962 30.3517 13.5383C30.547 13.8126 30.6752 15.2607 30.7345 15.6461C31.796 22.5284 31.6722 29.4554 31.0381 36.3255C29.2712 33.4326 28.6046 29.3208 28.7221 26.1302C28.7394 25.6516 28.7691 25.1634 28.8385 24.6888C28.8953 24.3025 29.0122 23.9142 29.0187 23.5231C29.0216 23.3628 29.015 23.2221 28.8791 23.1025C28.7765 23.1534 28.7305 23.2679 28.6864 23.3596C28.318 24.1327 28.2868 25.1195 28.2423 25.953C28.1146 28.3319 28.395 30.9258 29.1906 33.2352C29.6124 34.4599 30.1823 35.6369 30.7443 36.8211C30.7875 36.9138 30.8272 37.0054 30.8486 37.1037C30.9804 37.7025 30.7045 38.7831 30.4133 39.316ZM66.9992 85.7015C64.0703 85.4244 61.1414 85.1716 58.228 84.7655C53.4578 84.1007 48.7635 83.1576 44.0517 82.2259C40.4298 81.5096 36.7999 80.8326 33.1933 80.0549C29.2542 79.2133 25.3446 78.276 21.4636 77.2431L21.8763 75.423C24.3682 76.0908 26.8646 76.7858 29.4067 77.2938C34.5652 78.325 39.9056 78.6172 45.1599 78.5255C48.7085 78.4637 52.8132 77.9092 56.2757 78.4484C58.9269 78.8848 61.2765 80.1436 63.6981 81.1149C65.0516 81.6575 66.4516 82.0798 67.8654 82.4831C67.5663 83.5538 67.2776 84.6266 66.9992 85.7015ZM70.5636 69.9691C69.9083 74.0539 69.0524 78.1043 67.9952 82.1194C66.4278 81.7247 64.877 81.1704 63.4039 80.5586C60.9519 79.5401 58.6546 78.3854 55.937 77.991C52.78 77.5331 48.5543 78.0755 45.2643 78.14C43.9463 78.1757 42.6278 78.177 41.3081 78.1435C39.9888 78.1101 38.6704 78.0425 37.3535 77.9403C36.0371 77.8383 34.7241 77.7016 33.4158 77.5311C32.107 77.3605 30.8047 77.1559 29.5085 76.9173C27.4917 76.5292 25.5094 76.0066 23.5203 75.5211C22.9896 75.3673 22.4556 75.2233 21.9181 75.0895C22.5976 72.0982 23.3313 69.0925 24.1559 66.1305L26.1069 59.4078C26.8776 56.6148 27.6209 53.816 28.3367 51.0118C29.1102 48.1085 30.0159 45.2027 30.5921 42.2633C31.062 39.7695 31.4203 37.2624 31.6666 34.7414C31.9129 32.2203 32.0468 29.6929 32.0677 27.1586C32.0832 24.0967 31.887 20.5995 31.498 17.5447C31.3204 16.1488 31.0049 14.7615 30.831 13.3699C32.1468 12.7535 33.3968 12.5045 34.8391 12.1787C36.3409 11.8401 37.8471 11.5159 39.3582 11.2063C42.0601 10.631 44.752 9.9985 47.4827 9.51989C47.4297 11.3119 47.585 13.0236 48.3693 14.7258C48.4049 14.8037 48.4419 14.8812 48.4796 14.958C48.5176 15.0352 48.5568 15.1119 48.5969 15.1883C48.637 15.2648 48.6783 15.3407 48.721 15.4161C48.7633 15.4917 48.8066 15.5668 48.8515 15.6414C48.8958 15.7159 48.9417 15.7903 48.9883 15.8637C49.0353 15.9375 49.0828 16.0106 49.1314 16.0836C49.1805 16.1562 49.2302 16.2286 49.2815 16.3001C49.3323 16.3719 49.3842 16.4431 49.4376 16.5137C49.4905 16.5843 49.5446 16.6543 49.5996 16.7242C49.6543 16.7935 49.7105 16.8624 49.7673 16.9309C49.8246 16.9992 49.8825 17.0672 49.9416 17.1342C50.0005 17.2016 50.0602 17.268 50.1213 17.3342C50.1821 17.4 50.244 17.4651 50.3069 17.5301C50.3694 17.5946 50.4335 17.6586 50.498 17.7223C50.5623 17.7856 50.6281 17.8483 50.6945 17.9104C50.761 17.9725 50.8281 18.0335 50.8963 18.0943C50.9646 18.1548 51.0334 18.2149 51.1034 18.2741C51.1734 18.3333 51.244 18.3918 51.3158 18.4494C51.3876 18.5073 51.4596 18.5641 51.5331 18.6204C51.6062 18.6766 51.68 18.7321 51.7549 18.7867C51.8297 18.8416 51.9053 18.8955 51.9816 18.9483C52.0578 19.0016 52.1352 19.0538 52.2128 19.1053C52.2909 19.1569 52.3691 19.2077 52.4485 19.2576C52.5279 19.3074 52.6075 19.3565 52.6883 19.4046C52.7691 19.4527 52.8506 19.5002 52.9327 19.5466C53.0144 19.5933 53.0972 19.639 53.1803 19.6836C53.2638 19.7282 53.3476 19.7722 53.4319 19.8154C53.5164 19.8582 53.602 19.9005 53.6874 19.9415C53.7731 19.983 53.8597 20.0231 53.9464 20.0628C54.0332 20.1021 54.1206 20.1407 54.2087 20.1783C54.2964 20.2158 54.3848 20.2526 54.4739 20.2884C54.5629 20.3242 54.6523 20.3588 54.7423 20.3927C57.8998 21.6135 61.6788 21.7897 64.8775 20.7604C68.2978 19.66 71.1658 17.1916 72.6089 14.3576C74.9078 16.0976 77.4912 17.6151 79.9896 19.1338C81.9872 20.3481 84.08 21.5662 85.7342 23.1241C84.6579 24.0276 83.5829 25.5499 82.8251 26.6798C80.286 30.4682 78.7078 34.5113 77.503 38.7501C77.0127 40.4754 76.6324 42.249 76.0505 43.9505L73.6833 50.6851C73.2764 51.8505 72.7648 53.0547 72.5226 54.256C72.276 55.4793 72.2372 56.7861 72.1125 58.0289C71.9228 59.752 71.7133 61.4728 71.4844 63.1917C71.1896 65.4501 70.9291 67.7201 70.5636 69.9691ZM77.1161 49.9408C76.9666 49.2824 76.8065 48.6251 76.7126 47.9598C78.9023 44.9859 80.681 41.8227 82.6935 38.7619L82.6511 38.6737L82.4352 38.6015C82.2507 38.6376 82.2377 38.6459 82.13 38.7862C81.762 39.2642 81.4779 39.8278 81.1507 40.3304C79.6893 42.5746 78.1729 45.3667 76.4857 47.4261C76.3661 46.9139 76.1924 46.3964 76.1122 45.8799C76.0068 45.2043 76.8667 43.0589 77.0847 42.2667C77.6844 40.0827 78.2085 37.8717 78.9264 35.7152C80.3757 31.361 82.7177 26.9953 86.02 23.455C89.7066 27.5766 93.151 44.3036 93.9733 49.9635C93.6511 49.9194 93.328 49.8806 93.0042 49.847C88.1504 49.3449 81.5199 50.0429 77.6677 52.6453C77.4222 51.7619 77.291 50.8357 77.1161 49.9408ZM91.2046 52.0537C86.8431 52.0593 82.2414 52.5685 78.5927 54.6741L78.5014 54.7328L78.0981 54.9916C78.0902 54.9379 78.0818 54.8842 78.0725 54.8303C78.0641 54.7786 78.0553 54.7264 78.0465 54.6741C78.0376 54.6223 78.0283 54.5704 78.0191 54.5181C77.9324 54.0448 77.8282 53.5712 77.7364 53.0997C77.8427 53.03 77.9498 52.9608 78.0573 52.8922C82.0204 50.356 88.2384 49.6779 93.1232 50.3026L93.9552 50.4247C94.1178 50.994 94.1683 51.5902 94.2283 52.1707C93.2446 52.2207 92.2021 52.0526 91.2046 52.0537ZM92.6826 53.2218L92.6826 52.4402C93.1476 52.4696 93.6124 52.5093 94.0771 52.5442L94.1239 52.5748L94.1303 52.6673C93.7733 52.9622 93.151 53.0817 92.6826 53.2218Z" fill="black"/>
<path d="M91.2045 52.0541C92.2019 52.0528 93.2447 52.2211 94.228 52.1711C94.1682 51.5905 94.1175 50.9941 93.955 50.425L93.1229 50.303C88.2381 49.6781 82.0205 50.3562 78.057 52.8923C77.9496 52.9611 77.8427 53.0303 77.7362 53.1001C77.8586 53.7284 78.003 54.3611 78.098 54.9919L78.5925 54.6742C82.2413 52.5689 86.8429 52.0596 91.2045 52.0541Z" fill="#3E7B5A"/>
<path d="M12.1492 37.3186C12.9043 37.8185 13.7431 38.2557 14.5316 38.7183C16.3156 39.7464 18.0883 40.7886 19.8498 41.845C21.4555 42.808 22.9531 43.9447 24.5873 44.8638C24.8436 45.008 25.168 45.1979 25.4879 45.1486C25.5667 45.1364 25.6268 45.1099 25.6976 45.0829C25.9311 44.901 26.1518 44.7085 26.3594 44.5051C26.567 44.3018 26.7605 44.089 26.9396 43.8668C22.5574 40.9877 18.0902 38.0692 13.2241 35.8072C12.8572 36.306 12.4793 36.8008 12.1492 37.3186Z" fill="#3E7B5A"/>
<path d="M51.7907 10.3819C56.8926 12.8859 62.4849 14.2211 68.3202 13.654C68.6039 13.1203 69.3314 11.9445 69.2727 11.4053L69.1936 11.3313C62.1555 11.4765 58.3847 10.3294 51.9547 7.98631C51.7965 8.48276 51.3792 9.85795 51.7276 10.321C51.7447 10.3438 51.7683 10.3628 51.7907 10.3819Z" fill="#3E7B5A"/>
<path d="M51.6842 10.8914C51.9739 12.9417 52.9237 14.9015 54.875 16.2399C56.6653 17.4681 59.2044 18.0508 61.448 17.8402C62.86 17.7077 64.3933 17.1855 65.4687 16.4035C66.4147 15.7802 67.2853 15.0388 67.9284 14.1742C61.9195 14.4557 56.9707 13.4449 51.6842 10.8914Z" fill="#FBEEE4"/>
<path d="M24.3765 45.3421C24.3199 45.4381 24.263 45.5337 24.206 45.6296C21.7109 44.2345 16.259 40.9968 13.5284 39.369C13.5715 39.2851 13.6137 39.2014 13.6545 39.1171C13.6729 39.0795 13.6911 39.0423 13.709 39.0046C13.7316 38.9579 13.7536 38.911 13.7752 38.8641C14.9163 39.4257 16.0065 40.1017 17.0926 40.7397C19.5719 42.1964 22.0405 43.7224 24.3765 45.3421Z" fill="#3E7B5A"/>
<path d="M52.6862 18.8774C55.2537 20.5191 58.9944 21.2975 62.1144 20.9254C65.6325 20.5057 68.6357 18.716 70.6845 16.3207C71.2824 15.6217 71.8905 14.8284 72.2432 14.0108C71.3792 13.177 70.6148 12.3237 69.8576 11.4202C69.0265 14.0678 67.5335 16.0622 64.657 17.4174C62.4627 18.4511 59.9453 18.5343 57.5265 17.9155C55.3018 17.3465 53.5436 16.1501 52.4212 14.4122C51.1047 12.3738 50.8401 10.1666 51.3724 7.94536C50.2788 8.47625 49.176 9.05985 47.9458 9.341C47.9525 10.2883 47.9568 11.2249 48.1024 12.1689C48.6149 14.878 50.0585 17.1973 52.6862 18.8774Z" fill="#3E7B5A"/>
<path d="M56.2753 78.4483C52.8128 77.9094 48.7081 78.4638 45.1598 78.5257C39.9054 78.6171 34.565 78.3251 29.4064 77.2939C26.8646 76.786 24.368 76.091 21.8761 75.4229L21.4636 77.2434C25.3443 78.2762 29.2542 79.2134 33.1933 80.055C36.7998 80.8327 40.4296 81.5094 44.0514 82.2257C48.7633 83.1576 53.4574 84.1006 58.2279 84.7657C61.141 85.1717 64.0701 85.4244 66.999 85.7015C67.2773 84.6265 67.566 83.5538 67.8652 82.4833C66.4514 82.0797 65.0514 81.6577 63.6981 81.1148C61.2763 80.1435 58.927 78.8848 56.2753 78.4483Z" fill="#3E7B5A"/>
<path d="M30.7446 36.8209C30.1822 35.637 29.6123 34.4599 29.1905 33.2351C28.3952 30.9256 28.1149 28.3317 28.2422 25.9531C28.2869 25.1194 28.3179 24.1326 28.6866 23.3597C28.7305 23.268 28.7765 23.1533 28.8791 23.1025C29.015 23.222 29.0215 23.3629 29.0188 23.5231C29.0122 23.9142 28.8954 24.3025 28.8386 24.6888C28.7689 25.1633 28.7395 25.6515 28.7219 26.1303C28.6047 29.3209 29.2711 33.4324 31.0379 36.3254C31.6721 29.4552 31.7958 22.5283 30.7344 15.646C30.675 15.2607 30.5472 13.8125 30.3514 13.5381C26.1095 15.7962 20.3151 25.2749 17.7116 29.202C16.3214 31.2988 14.8395 33.3623 13.5187 35.4916C15.1974 36.2335 16.7873 37.1368 18.3667 38.024C21.4047 39.7304 24.4348 41.5452 27.191 43.5763L29.3522 40.7348C29.7025 40.2754 30.1417 39.8128 30.4131 39.316C30.7043 38.7831 30.9801 37.7025 30.8488 37.1037C30.8272 37.0055 30.7878 36.9137 30.7446 36.8209Z" fill="#FBEEE4"/>
<path d="M93.004 49.8472C93.3278 49.8809 93.6508 49.9196 93.9733 49.9635C93.1512 44.3037 89.7068 27.5767 86.02 23.4551C82.7176 26.9955 80.3758 31.3614 78.9265 35.7154C78.2086 37.8721 77.6846 40.0829 77.0844 42.267C76.8668 43.0589 76.0068 45.2046 76.1121 45.8801C76.1925 46.3964 76.3663 46.9139 76.4858 47.4262C78.173 45.3667 79.6892 42.5746 81.1506 40.3303C81.4778 39.828 81.762 39.2644 82.1298 38.7863C82.2378 38.646 82.2507 38.6378 82.4353 38.6018L82.651 38.6739L82.6936 38.7621C80.6808 41.8229 78.9026 44.9861 76.7129 47.96C76.8064 48.6253 76.9667 49.2827 77.1162 49.9412C77.2911 50.8359 77.4221 51.7619 77.6676 52.6453C81.5201 50.0431 88.1504 49.3452 93.004 49.8472Z" fill="#FBEEE4"/>
<path d="M76.0504 43.9504C76.6323 42.249 77.0126 40.4753 77.5029 38.75C78.7077 34.5113 80.2859 30.4682 82.825 26.6798C83.5828 25.5499 84.6578 24.0275 85.7341 23.124C84.0799 21.5661 81.9871 20.3481 79.9895 19.1338C77.4911 17.6151 74.9077 16.0975 72.6088 14.3575C71.1658 17.1915 68.2977 19.66 64.8774 20.7604C61.6787 21.7896 57.8997 21.6134 54.7422 20.3927C54.6522 20.3588 54.5628 20.3241 54.4738 20.2883C54.3847 20.2526 54.2964 20.2158 54.2086 20.1783C54.1205 20.1407 54.0331 20.1021 53.9463 20.0628C53.8596 20.0231 53.7731 19.983 53.6873 19.9415C53.6019 19.9005 53.5163 19.8582 53.4318 19.8154C53.3475 19.7721 53.2637 19.7282 53.1802 19.6835C53.0971 19.639 53.0143 19.5932 52.9327 19.5465C52.8505 19.5001 52.769 19.4527 52.6882 19.4046C52.6074 19.3565 52.5278 19.3073 52.4484 19.2575C52.369 19.2077 52.2908 19.1569 52.2127 19.1053C52.1351 19.0537 52.0577 19.0015 51.9815 18.9483C51.9053 18.8955 51.8297 18.8416 51.7548 18.7866C51.6799 18.7321 51.6061 18.6765 51.533 18.6203C51.4595 18.564 51.3875 18.5072 51.3157 18.4493C51.2439 18.3918 51.1733 18.3333 51.1033 18.2741C51.0333 18.2149 50.9645 18.1547 50.8962 18.0943C50.828 18.0335 50.7609 17.9724 50.6944 17.9104C50.628 17.8483 50.5622 17.7855 50.4979 17.7223C50.4333 17.6585 50.3693 17.5945 50.3068 17.53C50.2439 17.4651 50.182 17.3999 50.1212 17.3341C50.0601 17.2679 50.0004 17.2016 49.9415 17.1342C49.8824 17.0672 49.8245 16.9991 49.7672 16.9309C49.7105 16.8623 49.6542 16.7935 49.5995 16.7241C49.5445 16.6543 49.4905 16.5843 49.4375 16.5137C49.3841 16.443 49.3322 16.3718 49.2814 16.3C49.2301 16.2286 49.1804 16.1562 49.1313 16.0835C49.0827 16.0106 49.0351 15.9374 48.9882 15.8637C48.9416 15.7903 48.8957 15.7159 48.8514 15.6414C48.8065 15.5668 48.7632 15.4917 48.721 15.416C48.6782 15.3406 48.6369 15.2648 48.5968 15.1883C48.5567 15.1118 48.5176 15.0352 48.4795 14.9579C48.4418 14.8812 48.4048 14.8037 48.3692 14.7257C47.5849 13.0236 47.4296 11.3118 47.4826 9.51985C44.7519 9.99849 42.0599 10.631 39.3581 11.2063C37.847 11.5158 36.3407 11.84 34.839 12.1787C33.3967 12.5044 32.1467 12.7535 30.8309 13.3698C31.0048 14.7614 31.3203 16.1487 31.4979 17.5447C31.887 20.5995 32.0831 24.0967 32.0676 27.1586C32.0467 29.6929 31.9129 32.2203 31.6665 34.7414C31.4202 37.2624 31.062 39.7696 30.592 42.2632C30.0158 45.2026 29.1101 48.1084 28.3366 51.0117C27.6208 53.816 26.8775 56.6148 26.1068 59.4077L24.1558 66.1304C23.3312 69.0924 22.5975 72.0981 21.918 75.0894C22.4555 75.2233 22.9895 75.3673 23.5202 75.5211C25.5093 76.0066 27.4917 76.5292 29.5084 76.9173C30.8046 77.1559 32.1068 77.3604 33.4157 77.5311C34.724 77.7016 36.037 77.8382 37.3535 77.9403C38.6703 78.0425 39.9887 78.1101 41.308 78.1435C42.6277 78.1769 43.9462 78.1757 45.2642 78.14C48.5541 78.0754 52.7798 77.533 55.9369 77.991C58.6545 78.3854 60.9518 79.5401 63.4038 80.5586C64.8769 81.1703 66.4277 81.7247 67.9951 82.1194C69.0523 78.1043 69.9082 74.0539 70.5635 69.9691C70.929 67.7201 71.1895 65.4501 71.4841 63.1917C71.713 61.4728 71.9225 59.752 72.1122 58.0289C72.2369 56.7861 72.2757 55.4793 72.5223 54.256C72.7645 53.0546 73.2761 51.8505 73.683 50.6851L76.0504 43.9504ZM32.9556 61.6945C32.8083 61.6415 32.8243 61.6283 32.7446 61.5191L32.7915 61.452C33.4108 61.2134 34.3942 61.3072 35.0873 61.2495C35.621 61.2048 36.1707 61.0877 36.6962 60.9998C36.9743 60.9511 37.2514 60.899 37.5279 60.8432C37.804 60.7873 38.0787 60.7278 38.3527 60.6651C38.6268 60.6024 38.8993 60.5362 39.1704 60.4661C39.4419 60.3964 39.7115 60.3232 39.9805 60.2463C40.249 60.1696 40.5156 60.0894 40.7811 60.0057C41.0466 59.9221 41.3106 59.835 41.5731 59.7443C41.8351 59.6539 42.0955 59.5601 42.3544 59.4631C42.6134 59.3658 42.8702 59.2656 43.1251 59.1618C43.38 59.058 43.6334 58.9507 43.8843 58.8405C44.1356 58.7301 44.3844 58.6166 44.6311 58.5C44.8784 58.3831 45.1231 58.2633 45.3653 58.1402C45.608 58.0171 45.848 57.8912 46.0861 57.7617C46.3237 57.6324 46.5592 57.5 46.7926 57.3647C47.0256 57.2293 47.2559 57.091 47.4837 56.9498C47.712 56.8083 47.9372 56.6641 48.1603 56.5168C48.3829 56.3698 48.603 56.2194 48.82 56.0665C50.3692 54.9573 51.6872 53.7139 52.9685 52.3857C53.0571 52.4405 53.0697 52.4603 53.1192 52.539C52.9174 53.1334 52.1096 53.7853 51.6227 54.2449C47.0004 58.6089 39.9393 61.4752 32.9556 61.6945ZM41.2819 70.1897L41.1536 70.0869L41.1636 69.9647C41.4008 69.8639 44.7809 69.973 45.4482 69.9486C50.1893 69.7755 55.3328 68.5179 59.0164 65.9808C59.8663 65.3954 60.5927 64.7073 61.3188 64.0147C61.441 64.0887 61.4487 64.0994 61.5044 64.2179C61.3233 64.78 59.922 65.7705 59.3607 66.166C54.7016 69.4508 47.2918 70.713 41.2819 70.1897ZM64.6553 68.035C64.474 68.3645 63.936 68.7766 63.631 69.0377C61.3224 71.0114 58.3142 72.0822 55.1479 72.6847C55.0582 72.5772 55.0552 72.5533 55.0404 72.4223C55.3892 72.1887 56.806 71.9784 57.2818 71.8486C59.4039 71.2675 61.6442 70.2223 63.2433 68.8937C63.7201 68.4973 64.1158 68.0445 64.5564 67.6205C64.6298 67.6772 64.6608 67.707 64.6991 67.7871C64.7454 67.884 64.7062 67.9427 64.6553 68.035Z" fill="#FBEEE4"/>
<path d="M64.6552 68.0353C64.4738 68.3647 63.9358 68.7769 63.6309 69.038C61.3223 71.0117 58.314 72.0825 55.1478 72.685C55.0581 72.5774 55.055 72.5536 55.0403 72.4225C55.389 72.1889 56.8059 71.9787 57.2817 71.8488C59.4037 71.2678 61.6441 70.2226 63.2432 68.8939C63.7199 68.4976 64.1157 68.0447 64.5563 67.6208C64.6297 67.6775 64.6606 67.7072 64.6989 67.7874C64.7453 67.8842 64.7061 67.9429 64.6552 68.0353Z" fill="black"/>
<path d="M61.5044 64.2181C61.3233 64.7802 59.922 65.7707 59.3607 66.1662C54.7016 69.451 47.2917 70.7133 41.2818 70.19L41.1536 70.0871L41.1636 69.965C41.4007 69.8641 44.7809 69.9733 45.4482 69.9489C50.1892 69.7758 55.3327 68.5181 59.0163 65.9811C59.8662 65.3957 60.5927 64.7075 61.3187 64.015C61.4409 64.089 61.4486 64.0997 61.5044 64.2181Z" fill="black"/>
<path d="M53.1192 52.5391C52.9174 53.1335 52.1096 53.7854 51.6227 54.245C47.0003 58.6089 39.9392 61.4753 32.9555 61.6946C32.8082 61.6416 32.8243 61.6284 32.7445 61.5192L32.7915 61.4521C33.4108 61.2135 34.3941 61.3073 35.0872 61.2495C35.6209 61.2049 36.1707 61.0878 36.6961 60.9999C36.9742 60.9512 37.2513 60.8991 37.5279 60.8433C37.804 60.7874 38.0786 60.7279 38.3527 60.6652C38.6267 60.6025 38.8993 60.5363 39.1704 60.4662C39.4419 60.3965 39.7114 60.3233 39.9804 60.2464C40.2489 60.1697 40.5155 60.0895 40.781 60.0058C41.0465 59.9222 41.3105 59.8351 41.573 59.7444C41.835 59.654 42.0955 59.5602 42.3544 59.4632C42.6134 59.3659 42.8702 59.2657 43.1251 59.1619C43.38 59.0581 43.6334 58.9508 43.8842 58.8406C44.1356 58.7302 44.3844 58.6167 44.6311 58.5001C44.8784 58.3832 45.123 58.2634 45.3653 58.1403C45.6079 58.0172 45.848 57.8913 46.0861 57.7618C46.3236 57.6325 46.5592 57.5 46.7926 57.3648C47.0255 57.2294 47.2559 57.0911 47.4836 56.9499C47.7119 56.8084 47.9371 56.6642 48.1603 56.5169C48.3829 56.3699 48.603 56.2195 48.82 56.0666C50.3692 54.9574 51.6871 53.714 52.9685 52.3858C53.0571 52.4407 53.0697 52.4604 53.1192 52.5391Z" fill="black"/>
<path d="M25.3948 46.2605C25.2056 46.1784 24.7853 45.9538 24.2057 45.6297C21.7107 44.2346 16.2587 40.9969 13.5281 39.3691C12.586 38.8071 11.9672 38.4372 11.9062 38.4006C11.9029 38.3988 11.9013 38.3976 11.9013 38.3976C12.0526 38.3809 12.6684 38.1108 12.6684 38.1108L24.2912 44.9552L25.3948 46.2605Z" fill="black"/>
<path d="M92.6048 54.4136C92.6048 54.4136 92.0727 54.4765 91.2035 54.5781C88.2076 54.9278 81.2069 55.7366 78.1751 56.0096C77.2838 56.0899 76.7357 56.124 76.7327 56.0866C76.7162 55.8847 76.9759 55.1092 76.9759 55.1092C76.9759 55.1092 77.3514 54.9983 78.0724 54.8304C78.2041 54.7994 78.3471 54.767 78.5013 54.7329C78.881 54.6487 79.3288 54.5554 79.8427 54.4571C82.2608 53.9947 86.1368 53.4275 91.1961 53.2594C91.6806 53.243 92.1764 53.2304 92.6826 53.2219L92.6048 54.4136Z" fill="black"/>
</g>
<defs>
<filter id="filter0_d_874_1776" x="9.66371" y="6.57397" width="96.2249" height="90.6196" filterUnits="userSpaceOnUse" color-interpolation-filters="sRGB">
<feFlood flood-opacity="0" result="BackgroundImageFix"/>
<feColorMatrix in="SourceAlpha" type="matrix" values="0 0 0 0 0 0 0 0 0 0 0 0 0 0 0 0 0 0 127 0" result="hardAlpha"/>
<feOffset dx="5" dy="5"/>
<feGaussianBlur stdDeviation="2"/>
<feComposite in2="hardAlpha" operator="out"/>
<feColorMatrix type="matrix" values="0 0 0 0 0.206731 0 0 0 0 0.206731 0 0 0 0 0.206731 0 0 0 0.61 0"/>
<feBlend mode="normal" in2="BackgroundImageFix" result="effect1_dropShadow_874_1776"/>
<feBlend mode="normal" in="SourceGraphic" in2="effect1_dropShadow_874_1776" result="shape"/>
</filter>
</defs>
</svg>
