<svg width="76" height="71" viewBox="0 0 76 71" fill="none" xmlns="http://www.w3.org/2000/svg">
<g filter="url(#filter0_d_872_1682)">
<path d="M7.5159 22.0423C6.96894 21.6714 6.6504 21.1572 6.3826 20.5855C5.06603 17.7751 3.78916 14.9461 2.37147 12.1804C1.46528 10.4127 2.30067 8.91257 3.97166 8.20115C9.05403 6.03751 14.0672 3.73193 19.1136 1.49395C20.3902 0.927727 21.6602 0.335093 23.074 0.10067C23.5426 0.0229714 24.0135 0.0108366 24.4854 0.0100208C26.9565 0.00584018 29.4277 0.0113472 31.8988 2.88681e-05C32.2776 -0.00170457 32.5794 0.0743632 32.8932 0.299813C37.1606 3.36444 41.9297 4.41072 47.204 3.34588C47.4486 3.29653 47.6275 3.34629 47.8183 3.44581C50.3845 4.78433 52.9862 6.06748 55.504 7.48126C57.4594 8.57924 58.9724 10.1697 60.2499 11.9182C63.209 15.9679 66.1855 20.0058 69.2141 24.0102C69.5622 24.4705 69.7575 24.9624 69.787 25.519C70.0349 26.1358 69.7163 26.6079 69.3147 27.0408C68.7734 27.6244 68.0519 28.0084 67.4048 28.4718C64.9674 30.2173 62.5484 31.985 60.1048 33.7228C60.0181 33.7845 59.9343 33.8499 59.8476 33.9117C58.5839 34.8107 57.3168 34.7799 56.1639 33.744C55.2343 32.9087 54.2916 32.0863 53.3608 31.2522C53.2349 31.1394 53.1327 30.9222 52.9421 30.9727C52.7538 31.0225 52.7796 31.2562 52.7407 31.4141C51.7691 35.3529 50.848 39.3024 49.8856 43.2431C48.9395 47.1175 47.9738 50.9877 47.0083 54.858C46.538 56.7436 46.0991 58.6359 45.6061 60.5165C45.5672 60.665 45.5292 60.8138 45.4835 60.9605C45.063 62.3106 43.9168 62.924 42.4569 62.5782C39.1635 61.7981 35.8706 61.0161 32.5751 60.2435C26.8472 58.9006 21.115 57.5741 15.3897 56.2211C13.3469 55.7384 11.308 55.2357 9.24428 54.8316C8.9901 54.7818 8.75088 54.7127 8.59074 54.5027C7.17075 53.8794 6.66415 52.9785 6.90665 51.5026C7.27078 49.2865 7.97908 47.1467 8.56837 44.9807C10.4614 38.023 12.3594 31.0665 14.2545 24.1092C14.2723 24.0439 14.2761 23.9753 14.2864 23.9083C14.2678 22.9424 14.6966 22.0606 14.8811 21.1331C14.9122 20.9767 15.0677 20.791 14.8931 20.6614C14.7573 20.5606 14.5803 20.6825 14.4303 20.73C12.743 21.2635 11.0355 21.7383 9.34824 22.2724C8.71161 22.4739 8.06592 22.5395 7.5159 22.0423Z" fill="#212122"/>
<path d="M7.51587 22.0423C8.27915 22.3475 9.01363 22.2368 9.77866 21.9901C11.5711 21.412 13.3818 20.8834 15.305 20.2983C14.9512 21.552 14.6189 22.7302 14.2864 23.9083C14.1534 23.5857 13.9061 23.7986 13.7445 23.84C12.7849 24.0855 11.839 24.3781 10.8786 24.6209C9.54827 24.9571 8.71354 24.6307 8.07985 23.5128C7.81957 23.0539 7.55394 22.5823 7.51587 22.0423Z" fill="#B7B9C6"/>
<path d="M14.7068 28.1698C15.1881 26.3993 15.6578 24.626 16.153 22.8589C17.2274 19.0253 18.4648 15.2384 19.9082 11.5112C19.9373 11.4362 19.9476 11.3551 19.8856 11.2341C19.2441 12.0177 18.6027 12.8014 17.9614 13.5849C16.8373 14.7632 15.3095 15.329 13.8223 15.9474C12.4658 16.5113 11.1251 17.1119 9.72476 17.5804C9.57563 17.6302 9.43797 17.7378 9.26288 17.665C8.42346 15.9018 7.58065 14.14 6.74624 12.3747C6.34426 11.5242 5.9582 10.6672 5.56494 9.81311C5.64032 9.34416 6.08278 9.2738 6.44058 9.1543C7.70501 8.73205 8.96147 8.289 10.2288 7.87451C12.3003 7.19714 14.3788 6.53721 16.4656 5.90511C19.4923 4.98833 22.5947 4.36225 25.7641 4.04757C26.7197 3.95264 27.6705 3.79765 28.6365 3.83956C29.0714 3.85842 29.2746 3.69344 29.2525 3.27527C29.2374 2.98793 29.2326 2.69763 29.2628 2.4108C29.2811 2.23735 29.2469 2.01955 29.5208 1.96948C29.4813 3.26029 29.4678 4.54324 29.8419 5.81018C30.9053 9.41136 34.5044 12.1397 38.4917 12.3855C42.4527 12.6297 45.5412 11.1693 47.9276 8.27687C48.2817 8.15461 48.5186 8.38934 48.7588 8.54525C50.2668 9.52393 51.705 10.5901 53.1435 11.6549C53.8839 12.2031 54.5988 12.7829 55.395 13.261C56.6383 14.0076 57.5689 15.0582 58.5193 16.0825C60.9352 18.6863 63.2836 21.3435 65.6044 24.0218C65.7633 24.2054 65.9435 24.3795 66.0042 24.6217C63.6755 26.3575 61.3468 28.0934 59.0181 29.8292C58.7897 29.8731 58.6908 29.707 58.5865 29.5777C57.0673 27.6942 55.5085 25.836 54.3934 23.6991C54.05 23.041 53.7853 22.3643 53.6424 21.6453C53.5206 20.7788 53.3996 19.912 53.276 19.0457C53.2498 18.8625 53.2141 18.6804 53.1129 18.4912C52.8876 19.8294 52.6629 21.1678 52.4368 22.5059C52.3704 22.8995 52.3001 23.2925 52.2316 23.6856C51.6313 26.0978 50.8813 28.4728 50.1437 30.8492C48.9896 34.5671 47.9244 38.31 46.4207 41.9289C45.1852 44.9025 43.6879 47.7471 41.8034 50.3982C40.5773 52.1232 39.1474 53.7141 37.5804 55.1878C37.4699 55.2918 37.3739 55.436 37.1743 55.3905C35.7532 54.6323 34.3294 53.8804 32.7196 53.5128C32.5294 53.4693 32.3436 53.409 32.1558 53.3565C31.9955 53.1262 32.2064 53.021 32.3384 52.8937C33.9435 51.3462 35.4956 49.7533 37.047 48.1585C38.8322 46.3235 40.5194 44.4115 42.2522 42.5354C43.2972 41.4041 44.2777 40.2239 45.2339 39.0499C42.2936 40.7528 39.3927 42.5472 36.4704 44.3102C33.4024 46.1611 30.3213 47.9927 27.1817 49.7338C25.1362 50.8682 23.0516 51.9449 20.9274 52.9503C20.648 53.0826 20.3334 53.1068 20.0551 53.2343C17.6404 53.0521 15.3013 52.5323 13.0002 51.8469C12.2441 51.6216 11.4721 51.4388 10.7452 51.1325C10.7833 49.909 11.031 48.7075 11.2036 47.4994C11.8164 43.2129 12.624 38.9548 13.3805 34.6892C13.7389 32.6683 14.1224 30.6554 14.6752 28.6726C14.7207 28.5091 14.7324 28.3395 14.7068 28.1698Z" fill="#DFE0EC"/>
<path d="M37.1741 55.3907C38.239 54.2603 39.3554 53.1749 40.3518 51.9853C42.0819 49.9194 43.438 47.6552 44.6628 45.3046C46.3115 42.1401 47.4716 38.8171 48.5386 35.4535C49.7379 31.673 50.8437 27.8682 52.0067 24.0785C52.0523 23.9299 52.0908 23.784 52.2315 23.6858C52.1639 25.2297 51.9187 26.7554 51.6198 28.2698C50.3235 34.8377 48.617 41.3225 47.041 47.8337C46.101 51.7177 45.115 55.5919 44.1703 59.475C44.0776 59.8558 43.9831 59.8766 43.6669 59.6672C41.5069 58.2359 39.3392 56.8149 37.1741 55.3907Z" fill="#AEB0BC"/>
<path d="M20.0549 53.2346C20.4598 52.8459 21.0321 52.731 21.5227 52.4959C23.3763 51.6077 25.1866 50.6459 26.9905 49.6783C28.9653 48.6191 30.8766 47.4556 32.8029 46.3187C35.3282 44.8285 37.8452 43.326 40.3577 41.8169C42.0032 40.8285 43.634 39.8187 45.2731 38.8212C45.359 38.7689 45.4507 38.6957 45.6366 38.7863C45.2172 39.3066 44.8231 39.8333 44.388 40.3285C42.9871 41.9226 41.5822 43.5139 40.1566 45.0889C39.303 46.032 38.4161 46.9493 37.5299 47.8662C36.0725 49.3739 34.5956 50.865 33.1457 52.3789C32.8247 52.7142 32.3642 52.9245 32.1557 53.3566C29.6228 52.9505 27.0927 53.3857 24.5609 53.3809C23.0566 53.378 21.5528 53.3972 20.0549 53.2346Z" fill="#FCFCFC"/>
<path d="M66.0038 24.6217C65.3305 24.0524 64.832 23.3429 64.2495 22.7011C63.0334 21.3608 61.829 20.011 60.6419 18.6482C59.4533 17.2836 58.2009 15.972 56.9474 14.6607C56.486 14.178 55.9342 13.7942 55.3702 13.4337C54.0244 12.5736 52.8268 11.5368 51.511 10.6436C50.3277 9.84034 49.2612 8.88093 47.9272 8.27677C48.3989 7.57391 48.8954 6.88421 49.2624 6.12486C49.3292 5.98649 49.3893 5.88075 49.5793 5.98486C51.6424 7.11537 53.8604 8.00472 55.777 9.36058C57.1045 10.2997 58.1369 11.5141 59.0806 12.7891C61.7025 16.3319 64.3164 19.8798 66.9491 23.4155C67.1726 23.7157 67.1366 23.8604 66.8272 24.0418C66.5372 24.2119 66.2771 24.4266 66.0038 24.6217Z" fill="#FCFCFC"/>
<path d="M10.6695 52.6467C11.6742 52.814 12.591 53.2389 13.5626 53.5075C17.9228 54.7131 22.3724 54.9789 26.8841 54.71C28.0429 54.641 29.2027 54.5477 30.3685 54.5888C31.9426 54.6444 33.4091 55.0507 34.7867 55.7427C37.7576 57.2349 40.3686 59.2246 43.1766 61.0283C42.9459 61.1443 42.7918 61.0247 42.636 61.0044C42.4577 60.9812 42.2852 60.9208 42.1093 60.8797C31.8489 58.4794 21.5883 56.0797 11.3282 53.678C11.0663 53.6167 10.81 53.5345 10.5512 53.4621C10.4172 53.1682 10.4543 52.8962 10.6695 52.6467Z" fill="#9296A1"/>
<path d="M29.5206 1.96954C29.313 2.47775 29.4329 3.00675 29.4232 3.52536C29.4166 3.87144 29.2995 4.00216 28.9195 4.01195C24.9578 4.11422 21.0962 4.77354 17.3119 5.85806C15.584 6.35332 13.884 6.9274 12.1667 7.44967C10.2751 8.02497 8.42317 8.69887 6.54033 9.29354C6.18023 9.40724 5.81708 9.52052 5.56487 9.81327C5.22103 9.41539 5.3083 9.2032 5.8257 8.97306C10.7511 6.78291 15.6641 4.56848 20.6057 2.40943C22.2185 1.70474 23.8587 1.31196 25.6544 1.44594C26.7918 1.53088 27.9412 1.49876 29.0844 1.47714C29.525 1.46878 29.632 1.60593 29.5206 1.96954Z" fill="#FDFDFD"/>
<path d="M14.7066 28.1697C15.0019 28.7396 14.6388 29.2669 14.5229 29.7839C13.9924 32.1494 13.6037 34.5363 13.1752 36.9174C12.8279 38.8479 12.4339 40.7719 12.1346 42.7088C11.8584 44.4955 11.4883 46.2702 11.3207 48.0718C11.2408 48.9293 11.0025 49.769 10.9804 50.6352C10.9759 50.8124 10.9175 51.0059 10.745 51.1328C10.0965 50.9804 9.47098 50.7326 8.78864 50.7203C8.3836 50.7131 8.6057 50.4552 8.63865 50.3295C8.9802 49.0288 9.34084 47.7324 9.6945 46.4345C11.3367 40.408 12.9783 34.3813 14.6216 28.3551C14.6391 28.2907 14.6778 28.2314 14.7066 28.1697Z" fill="#FBFBFC"/>
<path d="M47.3372 7.89182C45.174 10.6956 42.2208 11.9973 38.5605 11.7159C35.0063 11.4425 32.4223 9.72917 30.8885 6.70462C30.4448 5.82984 30.1934 4.8895 30.1904 3.90684C30.2631 3.82894 30.3569 3.77061 30.4634 3.76919C30.8234 3.7646 31.009 3.59941 31.0561 3.26873C31.0694 3.17513 31.1327 3.08132 31.2694 3.09131C31.2683 4.18328 31.3942 5.25566 31.8469 6.27503C33.5309 10.0663 38.461 11.8255 42.6786 10.1643C44.2529 9.5441 45.4321 8.50566 46.434 7.25412C46.8457 7.32958 47.1517 7.53616 47.3372 7.89182Z" fill="#E1E0EC"/>
<path d="M53.6423 21.6458C54.0403 22.4008 54.2851 23.2154 54.71 23.9625C55.9096 26.0715 57.4428 27.9633 59.018 29.8296C58.2483 30.4187 57.4723 31.0009 56.7133 31.6019C56.5328 31.745 56.4227 31.7376 56.2627 31.5951C55.6072 31.0112 54.9456 30.4334 54.2823 29.8572C54.1529 29.7447 54.1034 29.6165 54.099 29.4538C54.0272 26.847 53.8328 24.2465 53.6423 21.6458Z" fill="#ADAFBC"/>
<path d="M9.2627 17.6651C10.2818 17.1428 11.3977 16.8272 12.4433 16.3594C13.6373 15.8252 14.8507 15.3292 16.0479 14.8012C16.5254 14.5907 16.9288 14.2696 17.3252 13.9462C17.5151 13.7913 17.6837 13.6047 17.9612 13.585C16.8214 15.2146 15.6604 16.8318 14.5544 18.4812C14.2039 19.0039 13.7921 19.321 13.1486 19.4692C12.3412 19.655 11.5579 19.9316 10.7641 20.1689C10.5901 20.2209 10.4307 20.2926 10.3259 20.0492C9.9818 19.2506 9.61854 18.4592 9.2627 17.6651Z" fill="#ADAEBA"/>
<path d="M34.3505 5.01807C37.2273 5.91833 40.1717 6.55369 43.1682 6.98532C43.4936 7.26879 43.1611 7.40247 42.9961 7.5233C42.4614 7.91444 41.8417 8.17619 41.2019 8.36381C39.9856 8.72049 38.7307 8.79248 37.4865 8.53593C35.6979 8.16712 34.7705 6.95106 34.1926 5.43868C34.1383 5.29644 34.0272 5.06762 34.3505 5.01807Z" fill="#DFDFEB"/>
<path d="M7.05967 18.4937C6.00545 16.3189 4.9508 14.1444 3.89767 11.9692C3.74833 11.6607 3.59125 11.3544 3.46329 11.0381C3.21948 10.4353 3.84738 9.56984 4.53321 9.53752C4.71124 9.52915 4.73764 9.65162 4.78586 9.7546C6.02203 12.3924 7.25635 15.031 8.49111 17.6694C8.59878 17.8125 8.52231 17.9524 8.41246 18.0201C8.00283 18.2722 7.61176 18.5909 7.05967 18.4937Z" fill="#DFE0EB"/>
<path d="M59.3826 30.4032C60.4439 29.4795 61.6286 28.6979 62.758 27.853C63.9588 26.9548 65.1792 26.0796 66.3911 25.1943C66.9271 25.4791 67.3638 25.8322 67.3938 26.4658C66.3433 27.241 65.2977 28.0224 64.2409 28.7901C63.0113 29.6833 61.7719 30.5646 60.5367 31.4511C59.887 31.3569 59.7076 30.81 59.3826 30.4032Z" fill="#DDDDE7"/>
<path d="M34.3507 5.01792C34.2711 5.74556 34.736 6.27436 35.1242 6.82304C36.2943 8.47685 38.0572 8.64153 39.9413 8.45615C41.0433 8.34776 42.0412 7.96222 42.948 7.37071C43.0868 7.28026 43.301 7.21613 43.1684 6.98527C43.6106 7.05237 44.053 7.11956 44.5097 7.1889C42.844 9.06642 39.8608 9.79957 37.2702 9.08855C34.9069 8.43984 33.0642 6.48757 33.0303 4.59985C33.4937 4.69162 33.9265 4.84182 34.3507 5.01792Z" fill="#ADAFBB"/>
<path d="M45.4272 6.0394C45.2635 6.52987 44.919 6.62246 44.3951 6.54914C40.7302 6.03635 37.1236 5.31085 33.6547 4.0643C32.7449 3.73739 32.8813 3.97375 32.9182 2.99895C32.925 2.81673 32.9083 2.62453 33.0161 2.45557C33.2851 3.21828 33.9963 3.40722 34.707 3.61993C36.2768 4.08979 37.8091 4.66723 39.4328 4.98017C41.1396 5.30912 42.8604 5.53222 44.5942 5.68099C44.9097 5.70801 45.2657 5.68527 45.4272 6.0394Z" fill="#E4E2EA"/>
<path d="M45.4273 6.03948C44.8613 5.75683 44.2264 5.81046 43.6239 5.75295C41.079 5.51007 38.5817 5.08395 36.1732 4.25434C35.3977 3.98729 34.6173 3.73023 33.8286 3.50009C33.2609 3.33439 32.9098 3.06061 33.0163 2.45564C32.9885 2.1941 33.0563 2.17064 33.2922 2.32176C34.6006 3.15983 36.0168 3.80885 37.5113 4.2934C40.072 5.12371 42.7081 5.3664 45.4006 5.08334C45.6157 5.0607 45.8314 5.04255 46.135 5.0139C45.8725 5.39434 45.65 5.71686 45.4273 6.03948Z" fill="#FAFAFB"/>
<path d="M59.3826 30.4036C59.9012 30.624 60.0371 31.2128 60.5367 31.4515C59.8876 31.9123 59.2497 32.3878 58.5857 32.8291C58.1028 33.1499 57.1875 32.7987 57.0117 32.2582C56.9769 32.1513 57.039 32.103 57.1096 32.0519C57.8669 31.502 58.6248 30.9529 59.3826 30.4036Z" fill="#ABACB8"/>
<path d="M7.05981 18.4936C7.433 18.3381 7.80542 18.1808 8.17992 18.0279C8.35217 17.9576 8.49507 17.8705 8.49125 17.6692C8.88277 18.5028 9.27221 19.3373 9.6671 20.1694C9.76605 20.3778 9.73877 20.4781 9.47729 20.5708C8.2769 20.9965 8.16148 20.9601 7.66154 19.8467C7.45918 19.3964 7.26021 18.9447 7.05981 18.4936Z" fill="#ACAFBA"/>
<path d="M47.3373 7.89189C47.0362 7.67929 46.7352 7.46669 46.4341 7.25399C46.8792 6.6173 47.3159 5.9743 47.6224 5.26767C47.7412 4.99378 47.8644 5.05792 48.0611 5.16937C48.8717 5.62873 48.9149 5.39166 48.4324 6.26909C48.119 6.83908 47.7968 7.40673 47.3373 7.89189Z" fill="#FBFAFB"/>
<path d="M31.2693 3.09136C31.2494 3.11879 31.2172 3.14408 31.2111 3.17406C31.0608 3.90669 31.0612 3.90679 30.1905 3.90679C30.0345 3.1968 30.1563 2.48873 30.2076 1.78016C30.2241 1.55186 30.3444 1.47936 30.5942 1.46814C31.4789 1.42848 31.4778 1.41736 31.3736 2.233C31.3372 2.51902 31.304 2.80524 31.2693 3.09136Z" fill="#F9F9F9"/>
<path d="M67.3938 26.4661C67.1649 25.9697 66.721 25.6215 66.3911 25.1947C66.7108 24.9484 67.0285 24.6999 67.3515 24.4574C67.4389 24.3919 67.5398 24.2513 67.657 24.4058C67.8964 24.7217 68.148 25.0347 68.3381 25.3763C68.455 25.5864 68.3319 25.8115 68.1334 25.9597C67.8949 26.1378 67.641 26.298 67.3938 26.4661Z" fill="#FAFAFB"/>
<path d="M10.6696 52.6466C10.68 52.9246 10.6308 53.195 10.5514 53.4617C10.0757 53.3583 9.59916 53.2579 9.12452 53.1504C8.88661 53.0964 8.6957 52.972 8.55967 52.7786C8.41491 52.5727 8.27812 52.3144 8.40608 52.113C8.54396 51.8961 8.8313 52.0442 9.0474 52.0944C9.60832 52.2246 10.1759 52.3422 10.6696 52.6466Z" fill="#AEB0BC"/>
<path d="M19.6159 47.5521C17.8535 47.8366 17.0852 46.6487 16.3218 45.5419C15.1963 43.9101 14.8219 42.05 14.5889 40.1511C14.3973 38.5905 14.4735 37.0344 14.6111 35.4821C14.7584 33.821 15.0727 32.1782 15.4203 30.5383C15.4318 31.9109 15.5661 33.2693 15.8011 34.6164C16.1787 36.7818 16.6847 38.9249 17.9937 40.7884C18.9439 42.141 20.4186 42.7394 22.1103 42.8448C24.3021 42.9812 26.3865 42.4357 28.4605 41.8764C30.8974 41.2191 33.3187 40.5141 35.7111 39.7241C36.5588 39.4442 37.4162 39.1896 38.3029 38.9735C37.5289 39.5167 36.7496 40.0535 35.9822 40.6045C34.0272 42.0082 31.9846 43.2972 29.9595 44.6076C29.0391 45.2031 28.0376 45.6901 27.128 46.3074C26.9852 46.5732 26.6968 46.6006 26.4381 46.6584C24.4244 47.1089 22.3931 47.4712 20.3336 47.684C20.084 47.7098 19.8229 47.7486 19.6159 47.5521Z" fill="#AEB1BD"/>
<path d="M19.6159 47.5523C22.165 47.3754 24.6587 46.9063 27.1278 46.3075C27.9815 46.2696 28.7859 45.9874 29.6226 45.864C29.7756 45.8414 29.9216 45.766 30.1242 45.8754C28.744 46.6061 27.3704 47.2768 25.9347 47.8308C24.6443 48.3287 23.331 48.7673 21.9524 49.0012C19.9377 49.3431 17.9893 49.2017 16.1673 48.2462C15.8516 48.0807 15.4428 48.0467 15.1729 47.6462C16.351 47.6462 17.4508 47.6549 18.5503 47.6412C18.9054 47.6366 19.2753 47.7279 19.6159 47.5523Z" fill="#FCFCFC"/>
</g>
<defs>
<filter id="filter0_d_872_1682" x="0" y="0" width="75.8743" height="70.6731" filterUnits="userSpaceOnUse" color-interpolation-filters="sRGB">
<feFlood flood-opacity="0" result="BackgroundImageFix"/>
<feColorMatrix in="SourceAlpha" type="matrix" values="0 0 0 0 0 0 0 0 0 0 0 0 0 0 0 0 0 0 127 0" result="hardAlpha"/>
<feOffset dx="2" dy="4"/>
<feGaussianBlur stdDeviation="2"/>
<feComposite in2="hardAlpha" operator="out"/>
<feColorMatrix type="matrix" values="0 0 0 0 0.278846 0 0 0 0 0.278846 0 0 0 0 0.278846 0 0 0 0.6 0"/>
<feBlend mode="normal" in2="BackgroundImageFix" result="effect1_dropShadow_872_1682"/>
<feBlend mode="normal" in="SourceGraphic" in2="effect1_dropShadow_872_1682" result="shape"/>
</filter>
</defs>
</svg>
